<svg xmlns="http://www.w3.org/2000/svg" viewBox="0 0 30 30"><style>.st2{fill:#333}</style><g id="Layer_1"><path class="st2" d="M15 2C7.832 2 2 7.832 2 15s5.832 13 13 13 13-5.832 13-13S22.168 2 15 2zM8 23.479V23c0-1.654 1.346-3 3-3h8c1.654 0 3 1.346 3 3v.479C20.097 25.053 17.657 26 15 26s-5.097-.947-7-2.521zm15.777-1.876C23.167 19.53 21.269 18 19 18h-8c-2.269 0-4.168 1.529-4.777 3.603A10.929 10.929 0 0 1 4 15C4 8.935 8.935 4 15 4s11 4.935 11 11c0 2.48-.834 4.762-2.223 6.603z"/><path class="st2" d="M15 6c-2.757 0-5 2.243-5 5s2.243 5 5 5 5-2.243 5-5-2.243-5-5-5zm0 8c-1.654 0-3-1.346-3-3s1.346-3 3-3 3 1.346 3 3-1.346 3-3 3z"/></g></svg>
