<svg xmlns="http://www.w3.org/2000/svg" viewBox="0 0 30 30"><style>.st2{fill:#333}</style><g id="Layer_1"><path class="st2" d="M25.003 15h-3.56c-.693-1.19-1.969-2-3.443-2h-6c-1.474 0-2.75.81-3.444 2H4.997A3 3 0 0 0 2 17.997v6.013a1 1 0 0 0 1 1h5V26a1 1 0 0 0 1 1h12a1 1 0 0 0 1-1v-1.02h5a1 1 0 0 0 1-1v-5.983A3 3 0 0 0 25.003 15zM4 23.01v-5.013c0-.55.447-.997.997-.997H8v6.01H4zM20 25H10v-8c0-1.103.897-2 2-2h6c1.103 0 2 .897 2 2v8zm6-2.02h-4V17h3.003c.55 0 .997.447.997.997v4.983zM11 7c0 2.206 1.794 4 4 4s4-1.794 4-4-1.794-4-4-4-4 1.794-4 4zm6 0c0 1.103-.897 2-2 2s-2-.897-2-2 .897-2 2-2c1.102 0 2 .897 2 2zM21 10c0 1.654 1.346 3 3 3s3-1.346 3-3-1.346-3-3-3-3 1.346-3 3zm4 0a1 1 0 0 1-2 0 1 1 0 0 1 2 0zM3 10c0 1.654 1.346 3 3 3s3-1.346 3-3-1.346-3-3-3-3 1.346-3 3zm4 0c0 .551-.449 1-1 1s-1-.449-1-1 .449-1 1-1 1 .449 1 1z"/></g></svg>
