<svg xmlns="http://www.w3.org/2000/svg" viewBox="0 0 30 30"><path d="M21.34 3.999c-1.78 0-3.45.69-4.7 1.95L15 7.589l-1.63-1.64a6.61 6.61 0 0 0-4.71-1.95c-3.67 0-6.66 2.99-6.66 6.66 0 1.78.69 3.45 1.95 4.7l10.35 10.35c.39.39 1.02.39 1.41 0l10.34-10.34a6.61 6.61 0 0 0 1.95-4.71c0-3.67-2.99-6.66-6.66-6.66zm3.3 9.95L15 23.589l-9.64-9.64A4.622 4.622 0 0 1 4 10.659a4.665 4.665 0 0 1 7.96-3.3l2.34 2.34c.39.39 1.02.39 1.41 0l2.34-2.34c.88-.88 2.05-1.36 3.29-1.36 2.57 0 4.66 2.09 4.66 4.66 0 1.24-.48 2.41-1.36 3.29z" fill="#333"/></svg>
