<svg xmlns="http://www.w3.org/2000/svg" viewBox="0 0 30 30"><style>.st2{fill:#333}</style><g id="Layer_1"><path class="st2" d="M3 22v4a1 1 0 0 0 1 1h6a1 1 0 0 0 1-1v-3h3a1 1 0 0 0 1-1v-2.749a8.426 8.426 0 0 0 3.5.749c4.686 0 8.5-3.813 8.5-8.5C27 6.813 23.186 3 18.5 3 13.813 3 10 6.813 10 11.5c0 .784.106 1.554.317 2.296l-7.047 7.52A1 1 0 0 0 3 22zm2 .395l7.18-7.662a1 1 0 0 0 .21-1.028A6.371 6.371 0 0 1 12 11.5C12 7.916 14.916 5 18.5 5S25 7.916 25 11.5 22.084 18 18.5 18c-1.43 0-2.776-.45-3.894-1.302a1.001 1.001 0 0 0-1.606.795V21h-3a1 1 0 0 0-1 1v3H5v-2.605z"/><circle class="st2" cx="20" cy="10" r="2"/></g></svg>
