<svg xmlns="http://www.w3.org/2000/svg" viewBox="0 0 30 30"><style>.st2{fill:#333}</style><g id="Layer_1"><path class="st2" d="M15 15c-1.1 0-2 .9-2 2 0 .74.41 1.38 1 1.72V21c0 .55.45 1 1 1s1-.45 1-1v-2.28c.6-.34 1-.98 1-1.72 0-1.1-.9-2-2-2z"/><path class="st2" d="M24 18.726v-6.727A2 2 0 0 0 22.002 10H21V8c0-3.309-2.691-6-6-6S9 4.691 9 8v2H7.998A2 2 0 0 0 6 11.998V19a9.032 9.032 0 0 0 2.846 6.567A8.912 8.912 0 0 0 14.992 28c.2 0 .402-.007.605-.02C20.31 27.675 24 23.61 24 18.727zM11 8c0-2.206 1.794-4 4-4s4 1.794 4 4v2h-8V8zm-.786 16.108A6.934 6.934 0 0 1 8 19l-.002-7L22 11.998v6.728c0 3.833-2.87 7.021-6.532 7.258a6.924 6.924 0 0 1-5.254-1.876z"/></g></svg>
