<svg xmlns="http://www.w3.org/2000/svg" viewBox="0 0 30 30"><style>.st2{fill:#333}</style><g id="Layer_1"><path class="st2" d="M27 18h-5a1 1 0 1 0 0 2h2.794A11.02 11.02 0 0 1 15 26a11.036 11.036 0 0 1-8.052-3.506c-2.103-2.259-3.14-5.208-2.919-8.304C4.415 8.783 8.783 4.415 14.19 4.03c3.092-.222 6.046.816 8.304 2.92A11.036 11.036 0 0 1 26 15a1 1 0 1 0 2 0c0-3.596-1.51-7.064-4.143-9.516-2.67-2.486-6.157-3.71-9.81-3.45C7.656 2.49 2.49 7.655 2.035 14.048c-.26 3.656.965 7.14 3.45 9.81A13.045 13.045 0 0 0 15 28c4.524 0 8.655-2.358 11-6.077V24a1 1 0 1 0 2 0v-5a1 1 0 0 0-1-1z"/><path class="st2" d="M11.555 8.168A.998.998 0 0 0 10 9v12a1 1 0 0 0 1.555.832l9-6a1 1 0 0 0 0-1.664l-9-6zM12 19.132v-8.263L18.197 15 12 19.132z"/></g></svg>
