<svg xmlns="http://www.w3.org/2000/svg" viewBox="0 0 30 30"><style>.st2{fill:#333}</style><g id="Layer_1"><path class="st2" d="M25.997 9H18v2l8 .003L25.997 24 4 23.997V12A1 1 0 0 1 4.998 11H12V9h-2L8.805 7.4a1 1 0 0 0-.8-.4H5a3 3 0 0 0-2.997 2.994L2 23.997C2 25.102 2.898 26 4.003 26h21.994A2.005 2.005 0 0 0 28 23.997V11.003A2.005 2.005 0 0 0 25.997 9z"/><path class="st2" d="M10.707 15.293a1 1 0 1 0-1.414 1.414l5 5a1 1 0 0 0 1.089.216 1 1 0 0 0 .326-.217l4.999-4.999a1 1 0 1 0-1.414-1.414L16 18.586V5a1 1 0 0 0-2 0v13.586l-3.293-3.293z"/></g></svg>
