<svg xmlns="http://www.w3.org/2000/svg" viewBox="0 0 30 30"><path d="M27.946 12.675a1 1 0 0 0-.822-.667l-7.469-.934-3.76-7.521c-.34-.678-1.45-.678-1.79 0l-3.76 7.521-7.469.934a1 1 0 0 0-.583 1.699l5.6 5.6-1.863 7.45a1 1 0 0 0 1.417 1.138L15 24.118l7.553 3.777a1.008 1.008 0 0 0 1.073-.115 1 1 0 0 0 .344-1.022l-1.862-7.451 5.6-5.6c.27-.27.361-.67.238-1.032zm-7.653 5.618a.998.998 0 0 0-.263.95l1.473 5.89-6.056-3.027a1 1 0 0 0-.894 0l-6.056 3.027 1.473-5.89a.999.999 0 0 0-.263-.95l-4.554-4.554 5.971-.747a1 1 0 0 0 .77-.545L15 6.236l3.106 6.211a1 1 0 0 0 .77.545l5.97.747-4.553 4.554z" fill="#333"/></svg>
