<svg xmlns="http://www.w3.org/2000/svg" viewBox="0 0 30 30"><path d="M24.001 12H19.22l.534-2.67a6.158 6.158 0 0 0-.064-2.69l-.04-.165A4.582 4.582 0 0 0 15.198 3H14a1 1 0 0 0-1 1v6.723l-1.89 3.149A2.99 2.99 0 0 0 9 13H4a1 1 0 0 0-1 1v12a1 1 0 0 0 1 1h5a3.004 3.004 0 0 0 2.94-2.412l2.613 1.306A1 1 0 0 0 15 26h6.537a4.013 4.013 0 0 0 3.926-3.219l1.517-7.586c.013-.065.02-.13.02-.197A3.002 3.002 0 0 0 24.001 12zM10 24a1 1 0 0 1-1 1H5V15h4c.551 0 1 .449 1 1v8zm13.502-1.61A2.01 2.01 0 0 1 21.537 24h-6.301L12 22.382v-6.105l2.857-4.762A1 1 0 0 0 15 11V5h.199c1.19 0 2.222.806 2.51 1.958l.041.164c.147.59.162 1.218.043 1.815l-.773 3.867A1.002 1.002 0 0 0 18 14h6.001a1 1 0 0 1 .996.916l-1.495 7.474z" fill="#333"/></svg>
