<svg xmlns="http://www.w3.org/2000/svg" viewBox="0 0 30 30"><style>.st2{fill:#333}</style><g id="Layer_1"><path class="st2" d="M15.424 4.094a1 1 0 0 0-1.064.138L8.638 9H3a1 1 0 0 0-1 1v10a1 1 0 0 0 1 1h5.638l5.722 4.769A1 1 0 0 0 16 25V5a1 1 0 0 0-.576-.906zM14 22.865l-4.36-3.634A1.001 1.001 0 0 0 9 19H4v-8h5a1 1 0 0 0 .64-.232L14 7.135v15.73zM24.414 15l2.293-2.293a1 1 0 1 0-1.414-1.414L23 13.586l-2.293-2.293a1 1 0 1 0-1.414 1.414L21.586 15l-2.293 2.293a1 1 0 1 0 1.414 1.414L23 16.414l2.293 2.293a.997.997 0 0 0 1.414 0 1 1 0 0 0 0-1.414L24.414 15z"/></g></svg>
