<svg xmlns="http://www.w3.org/2000/svg" viewBox="0 0 30 30"><style>.st2{fill:#333}</style><g id="Layer_1"><path class="st2" d="M19.923 14.618a1 1 0 0 0-.217-.326l-3.999-3.999a1 1 0 1 0-1.414 1.414L16.586 14H9a1 1 0 0 0 0 2h7.586l-2.293 2.293a1 1 0 1 0 1.414 1.414l4-4a1 1 0 0 0 .216-1.089z"/><path class="st2" d="M27.895 14.553l-3.448-6.895A2.984 2.984 0 0 0 21.765 6H5.003A3.007 3.007 0 0 0 2 9.003V23a1 1 0 0 0 1 1h3.351c.564 1.178 1.758 2 3.149 2s2.585-.822 3.149-2h4.702c.564 1.178 1.758 2 3.149 2s2.585-.822 3.149-2H27a1 1 0 0 0 1-1v-8c0-.155-.036-.308-.105-.447zM9.5 24c-.827 0-1.5-.673-1.5-1.5S8.673 21 9.5 21s1.5.673 1.5 1.5-.673 1.5-1.5 1.5zm11 0c-.827 0-1.5-.673-1.5-1.5s.673-1.5 1.5-1.5 1.5.673 1.5 1.5-.673 1.5-1.5 1.5zm5.5-2h-2.05c-.246-1.692-1.691-3-3.45-3s-3.204 1.308-3.45 3h-4.1c-.246-1.692-1.692-3-3.45-3s-3.204 1.308-3.45 3H4V9.003C4 8.45 4.45 8 5.003 8h16.762c.38 0 .723.212.893.552L26 15.236V22z"/></g></svg>
