<svg xmlns="http://www.w3.org/2000/svg" viewBox="0 0 30 30"><style>.st2{fill:#333}</style><g id="Layer_1"><path class="st2" d="M18.586 18H9a1 1 0 1 0 0 2h9.586l-2.293 2.293a1 1 0 1 0 1.414 1.414l3.999-3.999a1 1 0 0 0 .217-1.09.998.998 0 0 0-.217-.326l-3.999-3.999a1 1 0 1 0-1.414 1.414L18.586 18z"/><path class="st2" d="M27.966 10.83c-.014-.075-.017-.154-.047-.223v-.001l-3-7A1 1 0 0 0 24 3H6a1 1 0 0 0-.919.606l-3 7v.002c-.029.066-.032.142-.045.214-.01.06-.035.117-.036.176V27a1 1 0 0 0 1 1h24a1 1 0 0 0 1-1V11v-.002c0-.056-.024-.112-.034-.168zM25.484 10H16V5h7.34l2.144 5zM6.659 5H14v5H4.516L6.66 5zM26 26H4V12h22v14z"/></g></svg>
