<svg xmlns="http://www.w3.org/2000/svg" viewBox="0 0 30 30"><style>.st2{fill:#333}</style><g id="Layer_1"><path class="st2" d="M11 16H5c-1.654 0-3 1.346-3 3v8a1 1 0 0 0 1 1h10a1 1 0 0 0 1-1v-8c0-1.654-1.346-3-3-3zm1 10H4v-7a1 1 0 0 1 1-1h6a1 1 0 0 1 1 1v7zM25 16h-6c-1.654 0-3 1.346-3 3v8a1 1 0 0 0 1 1h10a1 1 0 0 0 1-1v-8c0-1.654-1.346-3-3-3zm1 10h-8v-7a1 1 0 0 1 1-1h6a1 1 0 0 1 1 1v7zM11 2H5C3.346 2 2 3.346 2 5v8a1 1 0 0 0 1 1h10a1 1 0 0 0 1-1V5c0-1.654-1.346-3-3-3zm1 10H4V5c0-.551.449-1 1-1h6c.551 0 1 .449 1 1v7zM25 2h-6c-1.654 0-3 1.346-3 3v8a1 1 0 0 0 1 1h10a1 1 0 0 0 1-1V5c0-1.654-1.346-3-3-3zm1 10h-8V5a1 1 0 0 1 1-1h6a1 1 0 0 1 1 1v7z"/><path class="st2" d="M22.793 5.793l-3 3a1 1 0 1 0 1.414 1.414l3-3a1 1 0 1 0-1.414-1.414zM10.207 19.793a1 1 0 0 0-1.414 0L8 20.586l-.793-.793a1 1 0 1 0-1.414 1.414l.793.793-.793.793a1 1 0 1 0 1.414 1.414L8 23.414l.793.793a.997.997 0 0 0 1.414 0 1 1 0 0 0 0-1.414L9.414 22l.793-.793a1 1 0 0 0 0-1.414z"/><circle class="st2" cx="8" cy="8" r="2"/></g></svg>
