<svg xmlns="http://www.w3.org/2000/svg" viewBox="0 0 30 30"><style>.st2{fill:#333}</style><g id="Layer_1"><path class="st2" d="M24.247 8.28A9.985 9.985 0 0 0 15 2.027 9.986 9.986 0 0 0 5.752 8.28 2.998 2.998 0 0 0 4 11v4c0 1.654 1.346 3 3 3h3c.032 0 .06-.015.09-.018a6.975 6.975 0 0 0 9.8.018H23c1.654 0 3-1.346 3-3v-4a2.998 2.998 0 0 0-1.753-2.72zM15 3.973c2.9 0 5.532 1.576 6.946 4.027H19.89a6.976 6.976 0 0 0-9.8.018c-.03-.003-.057-.018-.089-.018H8.054A8.036 8.036 0 0 1 15 3.973zM6 15v-4c0-.551.449-1 1-1h1.685A6.946 6.946 0 0 0 8 13c0 1.075.25 2.09.685 3H7c-.551 0-1-.449-1-1zm4-2c0-2.757 2.243-5 5-5a5.006 5.006 0 0 1 4.899 6H15a1 1 0 0 0 0 2h3.974c-.913 1.207-2.347 2-3.974 2-2.757 0-5-2.243-5-5zm14 2a1 1 0 0 1-1 1h-1.685c.434-.91.685-1.925.685-3s-.25-2.09-.685-3H23a1 1 0 0 1 1 1v4zM20.5 22.027H10A4.978 4.978 0 0 0 5.027 27c0 .537.435.973.973.973h18.5a.973.973 0 0 0 .973-.973 4.978 4.978 0 0 0-4.973-4.973zm-13.367 4A3.033 3.033 0 0 1 10 23.973h10.5c1.33 0 2.46.861 2.866 2.054H7.133z"/></g></svg>
