<svg xmlns="http://www.w3.org/2000/svg" viewBox="0 0 30 30"><style>.st2{fill:#333}</style><g id="Layer_1"><path class="st2" d="M13 18h-2c-.55 0-1 .45-1 1s.45 1 1 1h2c.55 0 1-.45 1-1s-.45-1-1-1zM13 22h-2c-.55 0-1 .45-1 1s.45 1 1 1h2c.55 0 1-.45 1-1s-.45-1-1-1zM19 22h-2c-.55 0-1 .45-1 1s.45 1 1 1h2c.55 0 1-.45 1-1s-.45-1-1-1zM10 6h10v10H10zM19 18h-2c-.55 0-1 .45-1 1s.45 1 1 1h2c.55 0 1-.45 1-1s-.45-1-1-1z"/><path class="st2" d="M21 2H9C7.35 2 6 3.35 6 5v20c0 1.65 1.35 3 3 3h12c1.65 0 3-1.35 3-3V5c0-1.65-1.35-3-3-3zm1 23c0 .55-.45 1-1 1H9c-.55 0-1-.45-1-1V5c0-.55.45-1 1-1h12c.55 0 1 .45 1 1v20z"/></g></svg>
