<svg xmlns="http://www.w3.org/2000/svg" viewBox="0 0 30 30"><style>.st2{fill:#333}</style><g id="Layer_1"><path class="st2" d="M23 13v9h2v-3.294h3V17h-3v-2h3v-2zM15 13v9h2.5c3 0 4.5-1.392 4.5-4.5 0-3.22-1.5-4.5-4-4.5h-3zm5 4.5c0 1.941-1 3-2 3h-1v-6h1c1.5 0 2 1.295 2 3zM8 13v9h2v-3c.155.01.418 0 .5 0 1.876 0 3.5-1 3.5-3 0-2.5-2-3-4-3H8zm2.5 1.5c1 0 1.5.5 1.5 1.5s-.5 1.5-1.5 1.5c-.09 0-.39.01-.5 0v-3c.118-.01.373 0 .5 0z"/><path class="st2" d="M22 26H6V8c0-2.206 1.794-4 4-4h12v7h2V3a1 1 0 0 0-1-1H10C6.691 2 4 4.691 4 8v19a1 1 0 0 0 1 1h18a1 1 0 0 0 1-1v-3h-2v2z"/></g></svg>
