<svg xmlns="http://www.w3.org/2000/svg" viewBox="0 0 30 30"><style>.st2{fill:#333}</style><g id="Layer_1"><path class="st2" d="M22 26H6V8c0-2.21 1.79-4 4-4h12v7h2V3c0-.55-.45-1-1-1H10C6.69 2 4 4.69 4 8v19c0 .55.45 1 1 1h18c.55 0 1-.45 1-1v-3h-2v2z"/><path class="st2" d="M15 13H9v2h3.5L9 20v2h6v-2.001L11.5 20l3.5-5.311zM17 13h2v9h-2zM23 13h-2v9h2v-3c.155.01.418 0 .5 0 1.876 0 3.5-1 3.5-3 0-2.5-2-3-4-3zm.5 4.5c-.09 0-.39.01-.5 0v-3c.118-.01.373 0 .5 0 1 0 1.5.5 1.5 1.5s-.5 1.5-1.5 1.5z"/></g></svg>
