<svg xmlns="http://www.w3.org/2000/svg" viewBox="0 0 30 30"><style>.st2{fill:#333}</style><g id="Layer_1"><circle class="st2" cx="15" cy="15" r="2"/><circle class="st2" cx="10" cy="10" r="2"/><circle class="st2" cx="10" cy="20" r="2"/><circle class="st2" cx="20" cy="10" r="2"/><circle class="st2" cx="20" cy="20" r="2"/><path class="st2" d="M22 4H8C5.794 4 4 5.794 4 8v14c0 2.206 1.794 4 4 4h14c2.206 0 4-1.794 4-4V8c0-2.206-1.794-4-4-4zm2 18c0 1.103-.897 2-2 2H8c-1.103 0-2-.897-2-2V8c0-1.103.897-2 2-2h14c1.103 0 2 .897 2 2v14z"/></g></svg>
