<svg xmlns="http://www.w3.org/2000/svg" viewBox="0 0 30 30"><path d="M15 2C7.83 2 2 7.83 2 15s5.83 13 13 13 13-5.83 13-13S22.17 2 15 2zm.6 2.03c4.01.22 7.45 2.58 9.19 5.97H21c-.34 0-.66.18-.85.47-.18.29-.2.66-.05.97l1.73 3.58L18.47 20h-.85l-1.72-3.45c-.18-.34-.52-.55-.9-.55h-3v-4h5c.55 0 1-.45 1-1V7c0-.55-.45-1-1-1h-2.38l.98-1.97zM6 21.3a10.914 10.914 0 0 1-1.98-5.86L6 17.41v3.89zm9 4.7c-2.66 0-5.1-.95-7-2.52V17c0-.27-.11-.52-.29-.71L4.22 12.8a11.02 11.02 0 0 1 9.09-8.66l-1.2 2.41c-.16.31-.14.68.04.97.18.29.5.48.85.48h3v2h-5c-.55 0-1 .45-1 1v6c0 .55.45 1 1 1h3.38l1.72 3.45c.17.34.52.55.9.55h2c.33 0 .64-.17.83-.44l3.98-5.91c.2-.29.23-.67.07-.99L22.6 12h2.98c.27.96.43 1.96.43 3C26 21.07 21.07 26 15 26z" fill="#333"/></svg>
