<svg xmlns="http://www.w3.org/2000/svg" viewBox="0 0 30 30"><path d="M27.709 6.287l-1.87-1.87c-1.62-1.62-4.28-1.92-7.49-.85-2.98.99-6.15 3.07-8.93 5.85s-4.86 5.95-5.85 8.93c-1.07 3.21-.77 5.87.85 7.49l1.87 1.87c.39.39 1.02.39 1.41 0l6-6a.996.996 0 0 0 0-1.41l-2.29-2.3 6.59-6.59 2.29 2.29c.39.39 1.02.39 1.41 0l6-6c.4-.38.4-1.02.01-1.41zm-6.71 5.3l-2.29-2.29a.996.996 0 0 0-1.41 0l-8 8a.996.996 0 0 0 0 1.41l2.29 2.29-4.59 4.59-1.16-1.16c-1.04-1.04-1.17-3.02-.37-5.44.9-2.69 2.8-5.58 5.37-8.14s5.46-4.47 8.14-5.37c2.42-.81 4.4-.67 5.44.37l1.17 1.15-4.59 4.59z" fill="#333"/></svg>
