<svg xmlns="http://www.w3.org/2000/svg" viewBox="0 0 30 30"><path d="M15 2C7.832 2 2 7.832 2 15a12.91 12.91 0 0 0 3.824 9.208l.176.176V25c0 1.654 1.346 3 3 3h2a1 1 0 0 0 1-1V17a1 1 0 0 0-1-1H9c-1.654 0-3 1.346-3 3v2.313A10.91 10.91 0 0 1 4 15c0-1.966.525-3.808 1.432-5.407a2.98 2.98 0 0 0 2.497 1.336 2.98 2.98 0 0 0 2.12-.879A6.954 6.954 0 0 1 15 8.004c1.873 0 3.63.727 4.95 2.046.567.567 1.32.879 2.121.879s1.555-.312 2.121-.879c.142-.141.267-.294.376-.457A10.921 10.921 0 0 1 26 15c0 2.293-.706 4.474-2 6.312V19c0-1.654-1.346-3-3-3h-2a1 1 0 0 0-1 1v10a1 1 0 0 0 1 1h2c1.654 0 3-1.346 3-3v-.614l.208-.21A12.918 12.918 0 0 0 28 15c0-7.168-5.832-13-13-13zM8 19a1 1 0 0 1 1-1h1v8H9a1 1 0 0 1-1-1v-6zM22.778 8.636a.997.997 0 0 1-1.414 0C19.61 6.88 17.304 6.004 15 6.004s-4.61.877-6.364 2.632A.997.997 0 0 1 7.202 7.25C9.196 5.245 11.955 4 15 4s5.804 1.245 7.798 3.251a.996.996 0 0 1-.02 1.385zM22 25a1 1 0 0 1-1 1h-1v-8h1a1 1 0 0 1 1 1v6z" fill="#333"/></svg>
