<svg xmlns="http://www.w3.org/2000/svg" viewBox="0 0 30 30"><style>.st2{fill:#333}</style><g id="Layer_1"><path class="st2" d="M27 26H3a1 1 0 0 1-1-1v-6c0-1.654 1.346-3 3-3h20c1.654 0 3 1.346 3 3v6a1 1 0 0 1-1 1zM4 24h22v-5a1 1 0 0 0-1-1H5a1 1 0 0 0-1 1v5zM23.485 7.515a.997.997 0 0 1-.707-.293c-4.288-4.289-11.267-4.289-15.556 0a1 1 0 1 1-1.414-1.415C10.876.74 19.124.74 24.192 5.807a1 1 0 0 1-.707 1.708z"/><path class="st2" d="M20.657 10.343a.997.997 0 0 1-.707-.293A6.956 6.956 0 0 0 15 8c-1.87 0-3.627.728-4.95 2.05a1 1 0 1 1-1.414-1.414A8.939 8.939 0 0 1 15 6c2.403 0 4.664.936 6.364 2.636a1 1 0 0 1-.707 1.707z"/><path class="st2" d="M17.828 13.171a.997.997 0 0 1-.707-.293c-1.133-1.132-3.109-1.132-4.243 0a1 1 0 1 1-1.414-1.414A4.969 4.969 0 0 1 15 10c1.336 0 2.59.52 3.535 1.464a1 1 0 0 1-.707 1.707z"/><circle class="st2" cx="19" cy="21" r="1"/><circle class="st2" cx="23" cy="21" r="1"/></g></svg>
