<svg xmlns="http://www.w3.org/2000/svg" viewBox="0 0 30 30"><style>.st2{fill:#333}</style><g id="Layer_1"><path class="st2" d="M18.52 16.14l-5-3c-.31-.18-.69-.19-1.01-.01s-.51.51-.51.87v6c0 .36.18.69.5.87s.7.18 1.01-.01l5-3A.99.99 0 0 0 19 17c0-.35-.18-.68-.48-.86z"/><path class="st2" d="M25 4H5C3.346 4 2 5.346 2 7v18a1 1 0 0 0 1 1h24a1 1 0 0 0 1-1V7c0-1.654-1.346-3-3-3zm1 3v1h-3.586l2-2H25a1 1 0 0 1 1 1zM15.414 8l2-2h4.172l-2 2h-4.172zm-7 0l2-2h4.172l-2 2H8.414zM5 6h2.586l-2 2H4V7c0-.551.449-1 1-1zM4 24V10h22v14H4z"/></g></svg>
