<svg xmlns="http://www.w3.org/2000/svg" viewBox="0 0 30 30"><style>.st2{fill:#333}</style><g id="Layer_1"><path class="st2" d="M25 7H14.014c0-2.213-1.8-4.014-4.014-4.014S5.986 4.786 5.986 7H5c-1.654 0-3 1.346-3 3v16a1 1 0 0 0 1 1h24a1 1 0 0 0 1-1V10c0-1.654-1.346-3-3-3zM8.014 7c0-1.095.89-1.986 1.986-1.986s1.986.89 1.986 1.986v12c0 1.095-.89 1.985-1.986 1.985S8.014 20.095 8.014 19V7zM26 25H4V10c0-.551.449-1 1-1h.986v10c0 2.214 1.8 4.015 4.014 4.015s4.014-1.801 4.014-4.015V9H25a1 1 0 0 1 1 1v15z"/><path class="st2" d="M23 12.986h-4a1.014 1.014 0 1 0 0 2.028h4a1.014 1.014 0 1 0 0-2.028zM23 16.985h-4a1.014 1.014 0 1 0 0 2.03h4a1.014 1.014 0 1 0 0-2.03zM23 20.985h-4a1.014 1.014 0 1 0 0 2.03h4a1.014 1.014 0 1 0 0-2.03z"/></g></svg>
