<svg xmlns="http://www.w3.org/2000/svg" viewBox="0 0 30 30"><style>.st2{fill:#333}</style><g id="Layer_1"><path class="st2" d="M25 9h-2.382l-1.723-3.447A1 1 0 0 0 20 5H10a1 1 0 0 0-.895.553L7.382 9H5c-1.654 0-3 1.346-3 3v10c0 1.654 1.346 3 3 3h20c1.654 0 3-1.346 3-3V12c0-1.654-1.346-3-3-3zm1 13a1 1 0 0 1-1 1H5a1 1 0 0 1-1-1V12c0-.551.449-1 1-1h3a1 1 0 0 0 .894-.553L10.619 7h8.764l1.724 3.447A1 1 0 0 0 22 11h3a1 1 0 0 1 1 1v10z"/><path class="st2" d="M15 11c-2.757 0-5 2.243-5 5s2.243 5 5 5 5-2.243 5-5-2.243-5-5-5zm0 8c-1.654 0-3-1.346-3-3s1.346-3 3-3 3 1.346 3 3-1.346 3-3 3z"/></g></svg>
