<svg xmlns="http://www.w3.org/2000/svg" viewBox="0 0 30 30"><style>.st2{fill:#333}</style><g id="Layer_1"><path class="st2" d="M11 23h8c.55 0 1-.45 1-1s-.45-1-1-1h-8c-.55 0-1 .45-1 1s.45 1 1 1zM23 13h-4c-.55 0-1 .45-1 1s.45 1 1 1h4c.55 0 1-.45 1-1s-.45-1-1-1z"/><path class="st2" d="M25 9h-1V4c0-.55-.45-1-1-1H7c-.55 0-1 .45-1 1v5H5c-1.65 0-3 1.35-3 3v10c0 .55.45 1 1 1h3v3c0 .55.45 1 1 1h16c.55 0 1-.45 1-1v-3h3c.55 0 1-.45 1-1V12c0-1.65-1.35-3-3-3zM8 5h14v4H8V5zm14 20H8v-6h14v6zm4-4h-2v-3c0-.55-.45-1-1-1H7c-.55 0-1 .45-1 1v3H4v-9c0-.55.45-1 1-1h20c.55 0 1 .45 1 1v9z"/></g></svg>
