<svg xmlns="http://www.w3.org/2000/svg" viewBox="0 0 30 30"><style>.st2{fill:#333}</style><g id="Layer_1"><path class="st2" d="M3 2a1 1 0 0 0-1 1v4a1 1 0 0 0 1 1c10.477 0 19 8.523 19 19a1 1 0 0 0 1 1h4a1 1 0 0 0 1-1C28 13.215 16.785 2 3 2zm20.977 24C23.469 15.214 14.787 6.531 4 6.023V4.021C15.888 4.533 25.467 14.111 25.979 26h-2.002z"/><path class="st2" d="M3 10a1 1 0 0 0-1 1v4a1 1 0 0 0 1 1c6.065 0 11 4.935 11 11a1 1 0 0 0 1 1h4a1 1 0 0 0 1-1c0-9.374-7.626-17-17-17zm12.962 16C15.475 19.627 10.372 14.525 4 14.038v-2.005c7.476.495 13.473 6.491 13.967 13.967h-2.005z"/><path class="st2" d="M6.25 19.571c-2.304 0-4.179 1.875-4.179 4.179s1.875 4.179 4.179 4.179 4.179-1.875 4.179-4.179-1.875-4.179-4.179-4.179zm0 6.5c-1.28 0-2.321-1.04-2.321-2.321s1.04-2.321 2.321-2.321 2.321 1.04 2.321 2.321-1.04 2.321-2.321 2.321z"/></g></svg>
