<svg xmlns="http://www.w3.org/2000/svg" viewBox="0 0 30 30"><style>.st2{fill:#333}</style><g id="Layer_1"><path class="st2" d="M15 20c-1.63 0-3 1.35-3 3s1.37 3 3 3 3-1.35 3-3-1.37-3-3-3zm0 4c-.543 0-1-.45-1-1s.457-1 1-1 1 .45 1 1-.457 1-1 1zM15 12c-2.845 0-5.542.93-7.814 2.7a1 1 0 0 0-.177 1.4l2.4 3.17c.158.21.395.35.652.38.257.04.523-.04.731-.2 2.44-1.9 5.966-1.9 8.406 0 .178.13.385.21.603.21.04 0 .089 0 .128-.01a.963.963 0 0 0 .652-.38l2.4-3.17c.336-.44.247-1.07-.178-1.4A12.547 12.547 0 0 0 15 12zm4.593 5.3C18.21 16.45 16.64 16 15 16s-3.21.45-4.593 1.3l-1.205-1.59C10.94 14.59 12.926 14 15 14s4.06.59 5.798 1.71l-1.205 1.59z"/><path class="st2" d="M27.614 8.36C23.95 5.51 19.594 4 15 4S6.05 5.51 2.386 8.36a1 1 0 0 0-.178 1.4l2.4 3.17c.158.21.395.35.652.38.257.03.524-.04.731-.2C8.61 11.08 11.721 10 15 10s6.391 1.08 9.009 3.11c.177.13.385.21.602.21.04 0 .09 0 .129-.01a.963.963 0 0 0 .651-.38l2.4-3.17a.999.999 0 0 0-.177-1.4zm-3.2 2.58C21.618 9.01 18.388 8 15 8s-6.618 1.01-9.414 2.94L4.381 9.35C7.522 7.16 11.177 6 15 6s7.478 1.16 10.619 3.35l-1.205 1.59z"/></g></svg>
