<svg xmlns="http://www.w3.org/2000/svg" viewBox="0 0 30 30"><style>.st2{fill:#333}</style><g id="Layer_1"><path class="st2" d="M15 8c-1.654 0-3 1.346-3 3v16a1 1 0 0 0 1 1h4a1 1 0 0 0 1-1V11c0-1.654-1.346-3-3-3zm1 18h-2V11c0-.551.449-1 1-1s1 .449 1 1v15zM6.692 2.276a1 1 0 0 0-1.412.082 12.977 12.977 0 0 0-.496 16.704.997.997 0 0 0 1.405.165 1 1 0 0 0 .164-1.405 10.981 10.981 0 0 1 .421-14.134 1 1 0 0 0-.082-1.412zM24.72 2.358a1 1 0 1 0-1.494 1.33 10.98 10.98 0 0 1 .422 14.134 1 1 0 1 0 1.568 1.24 12.978 12.978 0 0 0-.496-16.704z"/><path class="st2" d="M9.14 5.565a7.975 7.975 0 0 0-.517 10.254.998.998 0 0 0 1.4.194 1 1 0 0 0 .195-1.401 5.978 5.978 0 0 1 .388-7.686 1 1 0 1 0-1.465-1.36zM19.445 5.513a1 1 0 0 0-.052 1.413 5.978 5.978 0 0 1 .39 7.686 1 1 0 1 0 1.593 1.207 7.972 7.972 0 0 0-.518-10.254.998.998 0 0 0-1.413-.052z"/></g></svg>
