<svg xmlns="http://www.w3.org/2000/svg" viewBox="0 0 30 30"><style>.st2{fill:#333}</style><g id="Layer_1"><path class="st2" d="M10 17.5c1.31-1.48 1.81-2.39 1.81-3.4 0-1.29-.8-2.33-2.53-2.33-.96 0-1.69.22-2.23.48l.28 1.65c.38-.24.93-.43 1.43-.43.66 0 1.01.4 1.01.95 0 .53-.34 1.01-1.77 2.58l-1 1v2h5v-2H9.5l.5-.5zM13.996 18c-.538 0-.996.458-.996 1.004 0 .538.458.996.996.996.546 0 1.004-.458 1.004-.996C15 18.45 14.55 18 13.996 18zM19.5 11.617c-1.864 0-3.5 1.553-3.5 4.383 0 3 1.69 4 3.5 4 1.843 0 3.5-1.5 3.5-4 0-2.35-.949-4.393-3.5-4.383zm-.033 6.823C18.487 18.383 18 17.8 18 16c0-2 .66-3 1.5-3 .894 0 1.5 1 1.5 3 0 1.5-.5 2.5-1.533 2.44z"/><path class="st2" d="M25 6h-7.586l2.293-2.293a1 1 0 1 0-1.414-1.414L15 5.586l-3.293-3.293a1 1 0 1 0-1.414 1.414L12.586 6H5C3.346 6 2 7.346 2 9v16a1 1 0 0 0 1 1h24a1 1 0 0 0 1-1V9c0-1.654-1.346-3-3-3zm1 18H4V9c0-.551.449-1 1-1h20a1 1 0 0 1 1 1v15z"/></g></svg>
