<svg xmlns="http://www.w3.org/2000/svg" viewBox="0 0 30 30"><style>.st2{fill:#333}</style><g id="Layer_1"><path class="st2" d="M27 6H3a1 1 0 0 0-1 1v13c0 2.206 1.794 4 4 4h18c2.206 0 4-1.794 4-4V7a1 1 0 0 0-1-1zm-1 14c0 1.103-.897 2-2 2H6c-1.103 0-2-.897-2-2V8h22v12z"/><path class="st2" d="M8.24 20h13.52c.265 0 .52-.105.708-.294A5.217 5.217 0 0 0 24 16a5.216 5.216 0 0 0-1.532-3.706A1 1 0 0 0 21.76 12H8.24a.999.999 0 0 0-.707.294A5.215 5.215 0 0 0 6 16c0 1.4.544 2.715 1.533 3.706A.999.999 0 0 0 8.24 20zM12 18v-4h6v4h-6zm10-2c0 .733-.242 1.43-.689 2H20v-4h1.312c.446.57.688 1.267.688 2zM8.688 14H10v4H8.688A3.224 3.224 0 0 1 8 16c0-.734.242-1.431.688-2z"/></g></svg>
