<svg xmlns="http://www.w3.org/2000/svg" viewBox="0 0 30 30"><style>.st2{fill:#333}</style><g id="Layer_1"><path class="st2" d="M24.99 12.5H24V9a3.002 3.002 0 0 0-2.343-2.922l-1.762-3.525A1 1 0 0 0 19 2h-8a1 1 0 0 0-.894.553L8.342 6.077A3.002 3.002 0 0 0 6 9v12a3.002 3.002 0 0 0 2.343 2.922l1.762 3.525A1 1 0 0 0 11 28h8a1 1 0 0 0 .894-.553l1.763-3.525A3.002 3.002 0 0 0 24 21v-3.5h.99a1 1 0 0 0 1-1v-3a1 1 0 0 0-1-1zM11.617 4h6.764l1 2h-8.764l1-2zm6.764 22h-6.764l-1-2h8.764l-1 2zM22 21a1 1 0 0 1-1 1H9a1 1 0 0 1-1-1V9c0-.551.449-1 1-1h12a1 1 0 0 1 1 1v12z"/><path class="st2" d="M17.447 12.105a1 1 0 0 0-1.342.448l-1.379 2.76-1.019-1.02a1 1 0 1 0-1.414 1.414l2 2a.998.998 0 0 0 1.602-.26l2-4a1 1 0 0 0-.448-1.341z"/></g></svg>
