<svg xmlns="http://www.w3.org/2000/svg" viewBox="0 0 30 30"><path d="M28 14c0-3.86-3.14-7-7-7h-1.703C18.147 4.581 15.699 3 13 3 9.366 3 6.37 5.784 6.032 9.332A6.02 6.02 0 0 0 2 15a6.008 6.008 0 0 0 5.397 5.97l-1.292 2.583a1 1 0 1 0 1.79.894L9.617 21h3.764l-1.276 2.553a1 1 0 1 0 1.789.894L15.618 21h3.764l-1.276 2.553a1 1 0 1 0 1.788.894l1.74-3.48C25.197 20.647 28 17.646 28 14zm-7 5H8c-2.206 0-4-1.794-4-4a4.01 4.01 0 0 1 3.203-3.92 1 1 0 0 0 .802-.995L8 10c0-2.757 2.243-5 5-5 2.095 0 3.978 1.34 4.688 3.335A1 1 0 0 0 18.63 9H21c2.757 0 5 2.243 5 5s-2.243 5-5 5z" fill="#333"/></svg>
