<svg xmlns="http://www.w3.org/2000/svg" viewBox="0 0 30 30"><path d="M25.076 14.465c.434-.76.72-1.595.845-2.465H27a1 1 0 1 0 0-2h-1.08a6.954 6.954 0 0 0-1.322-3.184l.766-.765a1 1 0 0 0-1.414-1.415l-.766.765A6.954 6.954 0 0 0 20 4.08V3a1 1 0 1 0-2 0v1.079a6.994 6.994 0 0 0-3.182 1.325l-.768-.768a1 1 0 1 0-1.414 1.414l.761.761c-.277.37-.506.778-.708 1.204a7.008 7.008 0 0 0-6.63 6.074A5.008 5.008 0 0 0 2 19c0 2.757 2.243 5 5 5h.382l-1.277 2.553a1 1 0 1 0 1.79.894L9.617 24h3.764l-1.276 2.553a1 1 0 1 0 1.789.894L15.618 24h3.764l-1.276 2.553a1 1 0 1 0 1.788.894L21.618 24H23c2.757 0 5-2.243 5-5 0-2.014-1.204-3.744-2.924-4.535zM19 6c2.757 0 5 2.243 5 5a4.972 4.972 0 0 1-1.026 3h-3.045a7.018 7.018 0 0 0-5.088-5.752A5.001 5.001 0 0 1 19 6zm4 16H7c-1.654 0-3-1.346-3-3s1.346-3 3-3a1 1 0 0 0 1-1c0-2.757 2.243-5 5-5s5 2.243 5 5a1 1 0 0 0 1 1h4c1.654 0 3 1.346 3 3s-1.346 3-3 3z" fill="#333"/></svg>
