<svg xmlns="http://www.w3.org/2000/svg" viewBox="0 0 30 30"><style>.st2{fill:#333}</style><g id="Layer_1"><path class="st2" d="M15 2C7.832 2 2 7.832 2 15s5.832 13 13 13 13-5.832 13-13S22.168 2 15 2zm0 24C8.935 26 4 21.065 4 15S8.935 4 15 4s11 4.935 11 11-4.935 11-11 11z"/><path class="st2" d="M20.707 9.293a1 1 0 0 0-1.414 0L15 13.586l-4.293-4.293a1 1 0 1 0-1.414 1.414L13.586 15l-4.293 4.293a1 1 0 1 0 1.414 1.414L15 16.414l4.293 4.293a.997.997 0 0 0 1.414 0 1 1 0 0 0 0-1.414L16.414 15l4.293-4.293a1 1 0 0 0 0-1.414z"/></g></svg>
