<svg xmlns="http://www.w3.org/2000/svg" viewBox="0 0 30 30"><path d="M26.111 17h-4.536l-2.495-4.276c.549-.331.92-.927.92-1.613V4.89A1.891 1.891 0 0 0 18.111 3H11.89A1.89 1.89 0 0 0 10 4.889v6.222c0 .686.371 1.282.92 1.613L8.426 17H3.889A1.891 1.891 0 0 0 2 18.889v6.222C2 26.152 2.847 27 3.889 27h6.222A1.891 1.891 0 0 0 12 25.111V23h6v2.111c0 1.041.848 1.889 1.889 1.889h6.222C27.152 27 28 26.152 28 25.111V18.89C28 17.848 27.152 17 26.111 17zM12 5h6v6h-6V5zm-2 20H4v-6h6v6zm2-4v-2.111c0-.84-.556-1.546-1.316-1.79L13.074 13h3.851l2.39 4.098c-.76.245-1.315.95-1.315 1.79V21h-6zm14 4h-6v-6h6v6z" fill="#333"/></svg>
