<svg xmlns="http://www.w3.org/2000/svg" viewBox="0 0 30 30"><path d="M27 9H14a.976.976 0 0 0-.297.06c-.54-1.005-.712-2.172-.243-3.78a1 1 0 0 0-1.412-1.172C7.778 6.273 7.4 10.19 7.687 13.535a12.383 12.383 0 0 1-1.293-1.983 1.002 1.002 0 0 0-1.519-.333C4.758 11.313 2 13.583 2 19.111 2 24.013 6.038 28 11 28a9.024 9.024 0 0 0 5.678-2H27a1 1 0 0 0 1-1V10a1 1 0 0 0-1-1zm-7.199 11.96c.067.014.129.04.199.04h1v3h-2.491a8.777 8.777 0 0 0 1.292-3.04zM20 19l-.008.002A7.816 7.816 0 0 0 19.375 16H26v3h-6zm6-5h-3v-3h3v3zm-5-3v3h-2.813c-.658-.837-1.414-1.56-2.136-2.242a49.235 49.235 0 0 1-.79-.758H21zM4 19.111c0-2.72.747-4.44 1.355-5.39.695 1.056 1.825 2.487 3.198 3.174a1.002 1.002 0 0 0 1.437-1.036l-.025-.175c-.405-2.825-.89-6.218 1.22-8.49.064 2.779 1.864 4.48 3.492 6.018 1.709 1.614 3.323 3.14 3.323 5.9C18 22.91 14.86 26 11 26s-7-3.09-7-6.889zM23 24v-3h3v3h-3z" fill="#333"/></svg>
