<svg xmlns="http://www.w3.org/2000/svg" viewBox="0 0 30 30"><style>.st2{fill:#333}</style><g id="Layer_1"><circle class="st2" cx="19" cy="16" r="3"/><circle class="st2" cx="11" cy="16" r="3"/><path class="st2" d="M22.781 5.302C20.701 3.172 17.936 2 15 2 8.935 2 4 7.038 4 13.231v5.846C4 21.24 5.73 23 7.857 23H8v4a1 1 0 0 0 1 1h12a1 1 0 0 0 1-1v-4h.143C24.27 23 26 21.24 26 19.077v-5.846c0-2.99-1.143-5.805-3.219-7.93zM24 19.077c0 1.06-.833 1.923-1.857 1.923H19a1 1 0 1 0 0 2h1v3H10v-3h1a1 1 0 1 0 0-2H7.857C6.833 21 6 20.138 6 19.077v-5.846C6 8.141 10.038 4 15 4c2.394 0 4.65.959 6.352 2.7A9.288 9.288 0 0 1 24 13.23v5.846z"/></g></svg>
