<svg xmlns="http://www.w3.org/2000/svg" viewBox="0 0 30 30"><path d="M20.05 11.758c-1.962-1.854-3.512-3.319-2.59-6.478a1.001 1.001 0 0 0-1.412-1.172c-4.27 2.165-4.648 6.083-4.361 9.427a12.383 12.383 0 0 1-1.293-1.983 1.002 1.002 0 0 0-1.519-.333C8.758 11.313 6 13.583 6 19.111 6 24.013 10.038 28 15 28c4.963 0 9-3.987 9-8.889 0-3.621-2.099-5.604-3.95-7.353zM15 26c-3.86 0-7-3.09-7-6.889 0-2.72.747-4.44 1.355-5.39.695 1.056 1.825 2.487 3.198 3.174a1.002 1.002 0 0 0 1.437-1.036l-.025-.175c-.405-2.825-.89-6.218 1.22-8.49.064 2.779 1.864 4.48 3.492 6.018 1.709 1.614 3.323 3.14 3.323 5.9C22 22.91 18.86 26 15 26z" fill="#333"/></svg>
