<svg xmlns="http://www.w3.org/2000/svg" viewBox="0 0 30 30"><path d="M6.5 25.879c-.99 0-1.952-.416-2.707-1.172l-1.5-1.5a1 1 0 0 1 0-1.414l14-14C17.821 6.265 19.305 5 22 5c2.633 0 4.318.793 5.637 2.654.237.337.363.74.363 1.168V10a1 1 0 0 1-1 1h-4v2h4a1 1 0 0 1 1 1v1.177c0 .452-.133.865-.385 1.196C25.81 18.744 23.087 19 22 19c-1.852 0-3.635-.74-5.028-2.058l-7.765 7.765c-.755.756-1.717 1.172-2.707 1.172zM4.414 22.5l.793.793c.767.768 1.82.768 2.586 0l8.5-8.5a.997.997 0 0 1 1.486.08C18.882 16.246 20.381 17 22 17c.79 0 2.76-.179 4.023-1.838L26.02 15H22a1 1 0 0 1-1-1v-4a1 1 0 0 1 1-1h4v-.178C25.07 7.491 23.984 7 22 7c-1.796 0-2.736.65-4.293 2.207L4.414 22.5z" fill="#333"/></svg>
