<svg xmlns="http://www.w3.org/2000/svg" viewBox="0 0 30 30"><path d="M25.023 12h-7.268l3.87-1.507.048-.02a3.845 3.845 0 0 0 2.258-3.5 3.845 3.845 0 0 0-3.841-3.841c-1.694 0-3.166 1.088-3.637 2.626L15 9.342l-1.423-3.503A3.82 3.82 0 0 0 9.91 3.132 3.846 3.846 0 0 0 6.07 6.973a3.846 3.846 0 0 0 2.307 3.52L12.246 12H4.976A2.98 2.98 0 0 0 2 14.977V26a1 1 0 0 0 1 1h24a1 1 0 0 0 1-1V14.977A2.98 2.98 0 0 0 25.023 12zM26 14.977V18H16v-4h9.023c.538 0 .977.438.977.977zm-7.664-8.549a1.85 1.85 0 0 1 1.754-1.296 1.841 1.841 0 1 1 .781 3.508l-4.074 1.587 1.539-3.799zm-10.267.545c0-1.015.826-1.841 1.841-1.841.797 0 1.52.533 1.784 1.378l1.507 3.716L9.13 8.64a1.842 1.842 0 0 1-1.06-1.667zM4.977 14H14v4H4v-3.023c0-.539.439-.977.977-.977zM4 20h10v5H4v-5zm12 5v-5h10v5H16z" fill="#333"/></svg>
