<svg xmlns="http://www.w3.org/2000/svg" viewBox="0 0 30 30"><style>.st2{fill:#333}</style><g id="Layer_1"><path class="st2" d="M27.8 14.412c-2.62-3.567-7.743-7.406-12.8-7.406S4.82 10.845 2.2 14.412a.994.994 0 0 0 0 1.176c2.62 3.567 7.743 7.406 12.8 7.406s10.18-3.839 12.8-7.406a.992.992 0 0 0 0-1.176zM15 21.006c-4.097 0-8.312-3.01-10.744-6.006C6.688 12.004 10.903 8.994 15 8.994s8.311 3.01 10.744 6.006c-2.433 2.995-6.647 6.006-10.744 6.006z"/><path class="st2" d="M15 10c-2.757 0-5 2.243-5 5s2.243 5 5 5 5-2.243 5-5-2.243-5-5-5zm0 8c-1.654 0-3-1.346-3-3s1.346-3 3-3 3 1.346 3 3-1.346 3-3 3z"/></g></svg>
