<svg xmlns="http://www.w3.org/2000/svg" viewBox="0 0 30 30"><style>.st2{fill:#333}</style><g id="Layer_1"><path class="st2" d="M20.982 11.404H21V6.096a.999.999 0 0 0-.474-.85l-5-3.096a.998.998 0 0 0-1.052 0l-5 3.096a1 1 0 0 0-.474.85v5.308h.018c0 .334.15.661.456.85l5 3.096a.997.997 0 0 0 1.052 0l5-3.096a.984.984 0 0 0 .456-.85zM11 7.89l3 1.858v2.955l-3-1.857V7.892zm5 1.858l3-1.858v2.956l-3 1.858V9.749zm-1-5.573l3.1 1.92-3.1 1.92-3.1-1.92 3.1-1.92zM28 18.596a1 1 0 0 0-.474-.85l-5-3.096a.998.998 0 0 0-1.052 0l-5 3.095a1 1 0 0 0-.474.85v5.31h.018c0 .333.15.66.456.85l5 3.096a1 1 0 0 0 1.052 0l5-3.096a.985.985 0 0 0 .456-.85H28v-5.31zm-10 1.796l3 1.858v2.955l-3-1.858v-2.955zm5 1.858l3-1.858v2.955l-3 1.858V22.25zm-1-5.574l3.1 1.92-3.1 1.92-3.1-1.92 3.1-1.92zM13.526 17.745l-5-3.095a.998.998 0 0 0-1.052 0l-5 3.095a1 1 0 0 0-.474.85v5.31h.018c0 .333.15.66.456.85l5 3.096a1 1 0 0 0 1.052 0l5-3.096a.984.984 0 0 0 .456-.85H14v-5.31a1 1 0 0 0-.474-.85zM8 16.675l3.1 1.92L8 20.518l-3.1-1.921 3.1-1.92zm4 6.672l-3 1.858V22.25l3-1.858v2.955zm-8-2.955l3 1.858v2.955l-3-1.858v-2.955z"/></g></svg>
