<svg xmlns="http://www.w3.org/2000/svg" viewBox="0 0 30 30"><style>.st2{fill:#333}</style><g id="Layer_1"><path class="st2" d="M15 6c-2.757 0-5 2.243-5 5s2.243 5 5 5 5-2.243 5-5-2.243-5-5-5zm0 8c-1.654 0-3-1.346-3-3s1.346-3 3-3 3 1.346 3 3-1.346 3-3 3z"/><path class="st2" d="M15 2c-4.962 0-9 4.11-9 9.16 0 4.618 4.148 11.794 8.246 16.497a1 1 0 0 0 1.508 0C19.852 22.954 24 15.777 24 11.16 24 6.11 19.963 2 15 2zm0 23.448C11.48 21.136 8 14.97 8 11.16 8 7.212 11.14 4 15 4s7 3.212 7 7.16c0 3.81-3.48 9.976-7 14.288z"/></g></svg>
