<svg xmlns="http://www.w3.org/2000/svg" viewBox="0 0 30 30"><style>.st2{fill:#333}</style><g id="Layer_1"><path class="st2" d="M15 20a1 1 0 0 0-1 1v6a1 1 0 1 0 2 0v-6a1 1 0 0 0-1-1zM19.95 18.535a1 1 0 1 0-1.415 1.414l4.243 4.243a.997.997 0 0 0 1.414 0 1 1 0 0 0 0-1.414l-4.243-4.243zM27 14h-6a1 1 0 1 0 0 2h6a1 1 0 1 0 0-2zM19.242 11.757a.997.997 0 0 0 .707-.293l4.243-4.242a1 1 0 1 0-1.414-1.414l-4.243 4.242a1 1 0 0 0 .707 1.707zM15 2a1 1 0 0 0-1 1v6a1 1 0 0 0 2 0V3a1 1 0 0 0-1-1zM7.222 5.808a1 1 0 1 0-1.414 1.414l4.242 4.242a.997.997 0 0 0 1.414 0 1 1 0 0 0 0-1.414L7.222 5.808zM10 15a1 1 0 0 0-1-1H3a1 1 0 0 0 0 2h6a1 1 0 0 0 1-1zM10.05 18.535l-4.242 4.243a1 1 0 1 0 1.414 1.415l4.242-4.244a1 1 0 1 0-1.414-1.414z"/></g></svg>
