<svg xmlns="http://www.w3.org/2000/svg" viewBox="0 0 30 30"><style>.st2{fill:#333}</style><g id="Layer_1"><path class="st2" d="M14 13c0-1.654-1.346-3-3-3s-3 1.346-3 3 1.346 3 3 3 3-1.346 3-3zm-4 0c0-.551.449-1 1-1s1 .449 1 1-.449 1-1 1-1-.449-1-1zM19 10c-1.654 0-3 1.346-3 3s1.346 3 3 3 3-1.346 3-3-1.346-3-3-3zm0 4a1 1 0 0 1 0-2 1 1 0 0 1 0 2zM19.447 19.105c-2.952-1.475-5.944-1.473-8.894 0a1 1 0 0 0 .894 1.79c2.39-1.196 4.715-1.196 7.106 0a1.002 1.002 0 0 0 1.341-.448 1 1 0 0 0-.447-1.341z"/><path class="st2" d="M27 12h-1.08C25.432 8.613 22.52 6 19 6h-1.586l2.293-2.293a1 1 0 1 0-1.414-1.414L15 5.586l-3.293-3.293a1 1 0 1 0-1.414 1.414L12.586 6H11c-3.52 0-6.432 2.613-6.92 6H3a1 1 0 0 0 0 2h1v11a1 1 0 0 0 1 1h20a1 1 0 0 0 1-1V14h1a1 1 0 1 0 0-2zm-3 12H6V13c0-2.757 2.243-5 5-5h8c2.757 0 5 2.243 5 5v11z"/></g></svg>
