<svg xmlns="http://www.w3.org/2000/svg" viewBox="0 0 30 30"><style>.st2{fill:#333}</style><g id="Layer_1"><path class="st2" d="M15 28a1 1 0 0 1-.447-.105C14.163 27.698 5 23.049 5 17V6a1 1 0 0 1 .684-.949l9-3c.206-.068.426-.068.632 0l9 3A1 1 0 0 1 25 6v11c0 6.049-9.163 10.7-9.553 10.895A1 1 0 0 1 15 28zM7 6.72V17c0 3.772 5.407 7.473 8 8.872 2.592-1.402 8-5.108 8-8.872V6.72l-8-2.666-8 2.667z"/><path class="st2" d="M14.5 20c-.263 0-.518-.104-.707-.293l-4-4a1 1 0 1 1 1.414-1.414l3.063 3.062 4.356-7.84a1.001 1.001 0 0 1 1.748.97l-5 9A.999.999 0 0 1 14.5 20z"/></g></svg>
