<svg xmlns="http://www.w3.org/2000/svg" viewBox="0 0 30 30"><style>.st2{fill:#333}</style><g id="Layer_1"><path class="st2" d="M24.12 2H5.88C3.74 2 2 3.74 2 5.88v18.24C2 26.26 3.74 28 5.88 28h18.24c2.14 0 3.88-1.74 3.88-3.88V5.88C28 3.74 26.26 2 24.12 2zM26 24.12c0 1.036-.844 1.88-1.88 1.88H5.88A1.882 1.882 0 0 1 4 24.12V5.88C4 4.843 4.843 4 5.88 4h18.24C25.156 4 26 4.843 26 5.88v18.24z"/><path class="st2" d="M10 8a1 1 0 0 0-1 1v12a1 1 0 1 0 2 0V9a1 1 0 0 0-1-1zM17.308 8H15a1 1 0 0 0-1 1v12a1 1 0 1 0 2 0v-4h1.308C19.614 17 22 15.317 22 12.5S19.614 8 17.308 8zm0 7H16v-5h1.308c1.305 0 2.692.876 2.692 2.5S18.613 15 17.308 15z"/></g></svg>
