<svg xmlns="http://www.w3.org/2000/svg" viewBox="0 0 30 30"><style>.st2{fill:#333}</style><g id="Layer_1"><path class="st2" d="M24.12 2H5.88C3.74 2 2 3.74 2 5.88v18.24C2 26.26 3.74 28 5.88 28h18.24c2.14 0 3.88-1.74 3.88-3.88V5.88C28 3.74 26.26 2 24.12 2zM26 24.12c0 1.036-.844 1.88-1.88 1.88H5.88A1.882 1.882 0 0 1 4 24.12V5.88C4 4.843 4.843 4 5.88 4h18.24C25.156 4 26 4.843 26 5.88v18.24z"/><path class="st2" d="M20.707 5.293a1 1 0 1 0-1.414 1.414L20.586 8H17a1 1 0 1 0 0 2h3.586l-1.293 1.293a1 1 0 1 0 1.414 1.414l3-3a1 1 0 0 0 0-1.414l-3-3zM20.707 15.293a1 1 0 1 0-1.414 1.414L20.586 18H17a1 1 0 1 0 0 2h3.586l-1.293 1.293a1 1 0 1 0 1.414 1.414l3-3a1 1 0 0 0 0-1.414l-3-3zM13 10H9.414l1.293-1.293a1 1 0 1 0-1.414-1.414l-3 3a1 1 0 0 0 0 1.414l3 3a.997.997 0 0 0 1.414 0 1 1 0 0 0 0-1.414L9.414 12H13a1 1 0 0 0 0-2zM13 20H9.414l1.293-1.293a1 1 0 1 0-1.414-1.414l-3 3a1 1 0 0 0 0 1.414l3 3a.997.997 0 0 0 1.414 0 1 1 0 0 0 0-1.414L9.414 22H13a1 1 0 1 0 0-2z"/></g></svg>
