<svg xmlns="http://www.w3.org/2000/svg" viewBox="0 0 30 30"><style>.st2{fill:#333}</style><g id="Layer_1"><circle class="st2" cx="8.5" cy="15.5" r="1.5"/><path class="st2" d="M8.5 17c-1.417 0-2.5.975-2.5 2.25 0 .45.333.75.833.75h3.334c.5 0 .833-.3.833-.75C11 17.975 9.917 17 8.5 17z"/><path class="st2" d="M25 6H5C3.346 6 2 7.346 2 9v12c0 1.654 1.346 3 3 3h20c1.654 0 3-1.346 3-3V9c0-1.654-1.346-3-3-3zm1 15a1 1 0 0 1-1 1H5a1 1 0 0 1-1-1V9c0-.551.449-1 1-1h20a1 1 0 0 1 1 1v12z"/><path class="st2" d="M23 14h-8a1 1 0 0 0 0 2h8a1 1 0 1 0 0-2zM21 18h-6a1 1 0 1 0 0 2h6a1 1 0 1 0 0-2zM10 10H7a1 1 0 0 0 0 2h3a1 1 0 0 0 0-2zM23.71 10.29c-.05-.04-.1-.09-.15-.12a.757.757 0 0 0-.18-.09.642.642 0 0 0-.18-.06c-.33-.07-.67.04-.91.27-.18.19-.29.45-.29.71 0 .26.11.52.29.71.19.18.45.29.71.29s.52-.11.71-.29c.09-.1.16-.2.21-.33.05-.12.08-.25.08-.38a1 1 0 0 0-.08-.38c-.05-.12-.12-.23-.21-.33z"/></g></svg>
