<svg xmlns="http://www.w3.org/2000/svg" viewBox="0 0 30 30"><style>.st2{fill:#333}</style><g id="Layer_1"><path class="st2" d="M8.293 17.293a1 1 0 0 0 0 1.414l3 3a.997.997 0 0 0 1.414 0 1 1 0 0 0 0-1.414l-3-3a1 1 0 0 0-1.414 0zM15 19a1 1 0 0 0 .707-1.707l-3-3a1 1 0 1 0-1.414 1.414l3 3A.997.997 0 0 0 15 19z"/><path class="st2" d="M24 10l-.003-.003v3.588l-11.994 12-7.588-7.582 12-12h3.587L20 6l1.709-1.709A1.004 1.004 0 0 0 21 3.998h-5c-.266 0-.521.105-.709.293L2.998 16.585c-.379.378-.587.88-.587 1.415s.208 1.037.586 1.415l7.588 7.588c.39.39.903.585 1.415.585s1.025-.195 1.415-.585l12.294-12.294c.188-.188.294-.443.294-.709V9c0-.266-.106-.521-.294-.709L24 10z"/><path class="st2" d="M27.707 2.293a1 1 0 0 0-1.414 0l-5.884 5.884A2.483 2.483 0 0 0 19.5 8a2.5 2.5 0 1 0 2.5 2.5c0-.322-.066-.627-.177-.91l5.884-5.883a1 1 0 0 0 0-1.414z"/></g></svg>
