<svg xmlns="http://www.w3.org/2000/svg" viewBox="0 0 30 30"><path d="M26.653 22.227A9.975 9.975 0 0 1 23 14.5V13c0-2.85-1.55-5.5-4-6.92V6c0-2.206-1.794-4-4-4s-4 1.794-4 4v.08C8.55 7.5 7 10.15 7 13v1.5a9.972 9.972 0 0 1-3.654 7.728A1 1 0 0 0 3.981 24H11c0 2.206 1.794 4 4 4s4-1.794 4-4h7.019a1 1 0 0 0 .634-1.773zM15 26c-1.103 0-2-.897-2-2h4c0 1.102-.898 2-2 2zm-8.631-4A11.955 11.955 0 0 0 9 14.5V13a6.03 6.03 0 0 1 3.43-5.415.999.999 0 0 0 .57-.902V6c0-1.103.897-2 2-2s2 .897 2 2v.683a1 1 0 0 0 .57.902A6.03 6.03 0 0 1 21 13v1.5c0 2.76.939 5.39 2.63 7.5H6.37z" fill="#333"/></svg>
