<svg xmlns="http://www.w3.org/2000/svg" viewBox="0 0 30 30"><style>.st2{fill:#333}</style><g id="Layer_1"><path class="st2" d="M17.726 10.961a1.001 1.001 0 0 0 1.236-.687l2-7a1 1 0 0 0-1.924-.549l-2 7a1 1 0 0 0 .688 1.236zM26.68 12.267a1 1 0 0 0-1.412.052l-13 14a1 1 0 0 0 1.465 1.362l13-14a1 1 0 0 0-.052-1.414z"/><path class="st2" d="M21.917 12.6c-.16-.364-.52-.6-.917-.6h-6.656l2.614-8.713a1 1 0 0 0-1.69-.968l-13 14A1 1 0 0 0 3 18h6.656l-2.614 8.713a1 1 0 0 0 1.69.968l13-14a1 1 0 0 0 .185-1.08zM10.194 23.168l1.764-5.88A.998.998 0 0 0 11 16H5.293l8.513-9.168-1.764 5.88A1 1 0 0 0 13 14h5.707l-8.513 9.168z"/></g></svg>
