<svg xmlns="http://www.w3.org/2000/svg" viewBox="0 0 30 30"><style>.st2{fill:#333}</style><g id="Layer_1"><path class="st2" d="M20 8V6H6v9h7v-2c0-2.8 2.2-5 5-5h2zM19 14h5v6h-5z"/><path class="st2" d="M4 16V5c0-.551.449-1 1-1h15.995C21.55 4 22 4.45 22 5.005V8h2V5.005A3.008 3.008 0 0 0 20.995 2H5C3.346 2 2 3.346 2 5v11c0 1.654 1.346 3 3 3h8v-2H5a1 1 0 0 1-1-1z"/><path class="st2" d="M25 10h-7c-1.654 0-3 1.346-3 3v12c0 1.654 1.346 3 3 3h7c1.654 0 3-1.346 3-3V13c0-1.654-1.346-3-3-3zm1 15a1 1 0 0 1-1 1h-7a1 1 0 0 1-1-1V13a1 1 0 0 1 1-1h7a1 1 0 0 1 1 1v12z"/><path class="st2" d="M23 22h-3a1 1 0 1 0 0 2h3a1 1 0 1 0 0-2z"/></g></svg>
