<svg xmlns="http://www.w3.org/2000/svg" viewBox="0 0 30 30"><style>.st2{fill:#333}</style><g id="Layer_1"><path class="st2" d="M20 16h4V6h-5c.855.574 1 1.6 1 2.5V16zM20 18v2h2c.5 0 1-.5 1-1s-.5-1-1-1h-2zM15 6H5C3.346 6 2 7.346 2 9v16c0 1.654 1.346 3 3 3h10c1.654 0 3-1.346 3-3V9c0-1.654-1.346-3-3-3zm1 19a1 1 0 0 1-1 1H5a1 1 0 0 1-1-1V9c0-.551.449-1 1-1h10c.551 0 1 .449 1 1v16z"/><path class="st2" d="M25 2H15a2.995 2.995 0 0 0-2.816 2H25a1 1 0 0 1 1 1v16a1 1 0 0 1-1 1h-5v2h5c1.654 0 3-1.346 3-3V5c0-1.654-1.346-3-3-3zM6 10h8v10H6zM12 22H8a1 1 0 1 0 0 2h4a1 1 0 1 0 0-2z"/></g></svg>
