<svg xmlns="http://www.w3.org/2000/svg" viewBox="0 0 30 30"><style>.st2{fill:#333}</style><g id="Layer_1"><path class="st2" d="M24 2H11C7.69 2 5 4.69 5 8v19c0 .55.45 1 1 1h18c.55 0 1-.45 1-1V3c0-.55-.45-1-1-1zm-1 24H7V8c0-2.21 1.79-4 4-4h12v22z"/><path class="st2" d="M15.5 20c-.416 0-.766.149-1.062.447A1.48 1.48 0 0 0 14 21.523c0 .206.044.4.12.584.077.183.187.343.329.47.131.125.296.24.482.308.186.07.372.115.569.115.416 0 .766-.149 1.062-.447A1.48 1.48 0 0 0 17 21.477c0-.424-.153-.767-.449-1.053A1.455 1.455 0 0 0 15.5 20zM14.198 11.44c.306-.32.691-.49 1.166-.49.434 0 .8.14 1.087.42.286.28.434.64.434 1.09 0 .46-.138.83-.425 1.11l-.804.92c-.168.18-.594.716-.713.846-.118.13-.186.304-.255.444-.07.14-.119.3-.148.48-.03.18-.04.39-.04.64V18h2v-.81c0-.22.034-.404.064-.554.03-.15.085-.293.155-.413.069-.12.144-.258.258-.402.095-.122.268-.3.413-.454.243-.252.455-.506.657-.734.202-.243.302-.383.472-.621a2.21 2.21 0 0 0 .333-.672c.099-.28.148-.62.148-.99 0-.54-.089-1.01-.267-1.43s-.435-.76-.75-1.04a3.337 3.337 0 0 0-1.137-.64c-.425-.17-.89-.24-1.403-.24-.544 0-1.038.08-1.482.23-.455.15-.85.38-1.196.68-.346.3-.623.66-.84 1.08a4.48 4.48 0 0 0-.425 1.46l2.164.17c.05-.46.227-.86.534-1.18z"/></g></svg>
