<svg xmlns="http://www.w3.org/2000/svg" viewBox="0 0 30 30"><path d="M25.113 21.164c-.524.35-1.196.406-1.774.206a8.92 8.92 0 0 0 .608-2.41c.948-.095 1.836-.467 2.516-1.092A4.443 4.443 0 0 0 28 14.5a1 1 0 1 0-2 0c0 .715-.308 1.39-.867 1.874-.33.302-.757.5-1.199.583a8.922 8.922 0 0 0-.604-2.353 4.46 4.46 0 0 0 2.536-3.047c.09-.336.134-.681.134-1.057a1 1 0 1 0-2 0c0 .202-.02.373-.073.573a2.485 2.485 0 0 1-1.568 1.762 9.06 9.06 0 0 0-2.894-2.639c.324-.667.52-1.403.535-2.196a4.966 4.966 0 0 0-.833-2.753l1.54-1.54a1 1 0 1 0-1.414-1.414l-1.54 1.54A4.966 4.966 0 0 0 15 3c-1.016 0-1.96.309-2.75.836l-1.543-1.543a1 1 0 1 0-1.414 1.414l1.548 1.548A5.143 5.143 0 0 0 10 8.091c.015.733.21 1.448.534 2.106a9.06 9.06 0 0 0-2.893 2.638 2.51 2.51 0 0 1-1.576-1.796A2.022 2.022 0 0 1 6 10.5a1 1 0 0 0-2 0c0 .379.044.726.126 1.026a4.491 4.491 0 0 0 2.545 3.078c-.304.74-.51 1.53-.605 2.353a2.498 2.498 0 0 1-1.223-.603A2.444 2.444 0 0 1 4 14.5a1 1 0 0 0-2 0c0 1.297.56 2.524 1.514 3.348a4.376 4.376 0 0 0 2.539 1.111c.09.844.3 1.652.608 2.41-.576.2-1.246.145-1.768-.202a1 1 0 0 0-1.108 1.666A3.985 3.985 0 0 0 6 23.5c.57 0 1.117-.133 1.623-.36C9.25 25.47 11.948 27 15 27c3.052 0 5.75-1.53 7.377-3.86.506.227 1.054.36 1.623.36a3.99 3.99 0 0 0 2.225-.674.999.999 0 1 0-1.112-1.662zM12 8c0-1.654 1.346-3 3-3s3 1.346 3 3.05a2.99 2.99 0 0 1-.358 1.347 8.968 8.968 0 0 0-5.283 0A3.088 3.088 0 0 1 12 8zM8 18c0-3.52 2.613-6.432 6-6.92v13.84c-3.387-.488-6-3.401-6-6.92zm8 6.92V11.08c3.386.488 6 3.4 6 6.92 0 3.519-2.614 6.432-6 6.92z" fill="#333"/></svg>
