<svg xmlns="http://www.w3.org/2000/svg" viewBox="0 0 30 30"><path d="M26.708 23.252l-5.985-5.985a.993.993 0 0 0-1.406 0l-2.295 2.274-6.573-6.573 2.284-2.285a.993.993 0 0 0 0-1.406L6.748 3.292a.993.993 0 0 0-1.407 0L3.476 5.157c-1.616 1.616-1.915 4.27-.848 7.471.988 2.973 3.063 6.135 5.836 8.908s5.935 4.848 8.907 5.836c3.202 1.067 5.856.768 7.472-.848l1.865-1.866a.994.994 0 0 0 0-1.406zm-3.272 1.855c-1.037 1.038-3.012 1.167-5.426.37-2.683-.898-5.566-2.794-8.12-5.357-2.554-2.564-4.459-5.447-5.357-8.12-.808-2.424-.678-4.399.36-5.437L6.05 5.406l4.578 4.569-2.284 2.284a.993.993 0 0 0 0 1.407l7.98 7.98a.993.993 0 0 0 1.407 0l2.284-2.274 4.579 4.578-1.158 1.157z" fill="#333"/></svg>
