<svg xmlns="http://www.w3.org/2000/svg" viewBox="0 0 30 30"><style>.st2{fill:#333}</style><g id="Layer_1"><path class="st2" d="M25.708 2.332a.997.997 0 0 0-1.41 0l-11.27 11.246-1.609-1.606 2.29-2.286a.992.992 0 0 0 0-1.407l-6-5.987a.997.997 0 0 0-1.41 0L4.48 4.026c-1.62 1.616-1.92 4.27-.85 7.474.79 2.365 2.22 4.962 4.19 7.277L2.29 24.296a.992.992 0 0 0 0 1.407c.2.19.45.29.71.29.26 0 .51-.1.71-.29L25.708 3.749c.39-.39.39-1.028 0-1.417zM9.239 17.36c-1.75-2.085-3.01-4.403-3.71-6.489-.8-2.425-.67-4.4.37-5.438L7 4.397l4.59 4.58-2.29 2.286a.992.992 0 0 0 0 1.407l2.32 2.315-2.38 2.375zM27.707 22.24l-5.999-5.987a.997.997 0 0 0-1.41 0l-2.3 2.285-2.14-2.136-1.41 1.407 2.85 2.844c.39.39 1.02.39 1.41 0l2.29-2.285 4.59 4.58-1.16 1.158c-1.04 1.038-3.02 1.168-5.44.37-2.28-.759-4.71-2.246-6.959-4.242l-1.42 1.417c2.48 2.216 5.18 3.872 7.74 4.72 3.21 1.068 5.869.769 7.489-.848l1.87-1.866c.39-.399.39-1.028 0-1.417z"/></g></svg>
