<svg xmlns="http://www.w3.org/2000/svg" viewBox="0 0 30 30"><style>.st0{fill:#333}</style><g id="Layer_1"><path class="st0" d="M11.452 17.993l1.876-1.879-1.407-1.409-2.584 2.589a.996.996 0 0 0 0 1.409l2.295 2.288-4.58 4.588-1.158-1.16c-1.038-1.039-1.168-3.018-.37-5.436.729-2.19 2.126-4.498 4.002-6.667L8.11 10.897c-2.086 2.399-3.662 4.987-4.48 7.456-1.068 3.208-.769 5.867.848 7.486l1.866 1.869a.993.993 0 0 0 1.407 0l5.987-5.997a.996.996 0 0 0 0-1.41l-2.285-2.308zM20.314 13.706a.993.993 0 0 0 1.407 0l5.987-5.997a.996.996 0 0 0 0-1.41L26 4.48c-1.617-1.62-4.271-1.919-7.474-.85-2.465.82-5.208 2.351-7.603 4.44L5.175 2.292a.996.996 0 0 0-1.407 1.41l21.954 21.987c.2.2.45.29.709.29s.509-.1.708-.29a.996.996 0 0 0 0-1.41L16.162 13.287l1.866-1.879 2.286 2.299zm-5.569-1.83L12.35 9.479c2.166-1.869 4.639-3.23 6.814-3.96 2.415-.81 4.391-.67 5.429.37L25.603 7l-4.58 4.587-2.286-2.289a.993.993 0 0 0-1.407 0l-2.585 2.579z"/></g></svg>
