<svg xmlns="http://www.w3.org/2000/svg" viewBox="0 0 30 30"><path d="M26 15a1 1 0 0 0-.485-.857L21.944 12l3.57-2.143a1 1 0 0 0 0-1.714l-10-6a.999.999 0 0 0-1.029 0l-10 6a1 1 0 0 0 0 1.714L8.056 12l-3.57 2.143a1 1 0 0 0 0 1.714L8.055 18l-3.57 2.143a1 1 0 0 0 0 1.714l10 6a1.003 1.003 0 0 0 1.029 0l10-6a1 1 0 0 0 0-1.714L21.944 18l3.57-2.143A1 1 0 0 0 26 15zM15 4.166L23.057 9 15 13.834 6.944 9 15 4.166zM23.057 21L15 25.834 6.944 21 10 19.166l4.485 2.691a1.003 1.003 0 0 0 1.03 0L20 19.167 23.057 21zM15 19.834L6.944 15 10 13.166l4.485 2.691a.998.998 0 0 0 1.03 0L20 13.167 23.057 15 15 19.834z" fill="#333"/></svg>
