<svg xmlns="http://www.w3.org/2000/svg" viewBox="0 0 30 30"><style>.st2{fill:#333}</style><g id="Layer_1"><path class="st2" d="M22 4V3c0-.55-.45-1-1-1H10C6.69 2 4 4.69 4 8v15c0 .55.45 1 1 1h1V8c0-2.21 1.79-4 4-4h12z"/><path class="st2" d="M25 6H12c-2.21 0-4 1.79-4 4v17c0 .55.45 1 1 1h16c.55 0 1-.45 1-1V7c0-.55-.45-1-1-1zm-1 20H10V10a2 2 0 0 1 2-2h12v18z"/><path class="st2" d="M13 18h3v3c0 .55.45 1 1 1s1-.45 1-1v-3h3c.55 0 1-.45 1-1s-.45-1-1-1h-3v-3c0-.55-.45-1-1-1s-1 .45-1 1v3h-3c-.55 0-1 .45-1 1s.45 1 1 1z"/></g></svg>
