<svg xmlns="http://www.w3.org/2000/svg" viewBox="0 0 30 30"><style>.st2{fill:#333}</style><g id="Layer_1"><path class="st2" d="M15 2C7.832 2 2 7.832 2 15s5.832 13 13 13 13-5.832 13-13S22.168 2 15 2zm0 24C8.935 26 4 21.065 4 15S8.935 4 15 4s11 4.935 11 11-4.935 11-11 11z"/><circle class="st2" cx="15" cy="7.5" r="2"/><path class="st2" d="M22 10.5H8a1 1 0 0 0 0 2h4.184a2.964 2.964 0 0 0-.184 1v3c0 .542.156 1.045.409 1.484l-2.32 5.102a1 1 0 0 0 1.821.828L14 19.316c.315.112.648.184 1 .184s.685-.072 1-.184l2.09 4.598a1 1 0 1 0 1.82-.828l-2.319-5.102c.253-.44.409-.942.409-1.484v-3c0-.352-.072-.686-.184-1H22a1 1 0 1 0 0-2zm-6 3v3a1 1 0 0 1-2 0v-3c0-.551.449-1 1-1s1 .449 1 1z"/></g></svg>
