<svg xmlns="http://www.w3.org/2000/svg" viewBox="0 0 30 30"><path d="M27.707 5.293l-3-3a.998.998 0 0 0-1.09-.216.998.998 0 0 0-.325.217l-2.999 2.999a1 1 0 1 0 1.414 1.414L23 5.414V6c0 2.963-.886 4.925-2.968 6.39a6.785 6.785 0 0 0-.126-1.805C19.443 8.475 17.632 7 15.5 7a4.505 4.505 0 0 0-4.5 4.5c0 2.43 1.978 4.449 4.43 4.5a8.86 8.86 0 0 0 1.756-.164 9.734 9.734 0 0 1-4.317 4.625c.078-.48.117-.962.117-1.447 0-2.482-2.018-4.5-4.5-4.5s-4.5 2.018-4.5 4.5c0 2.252 1.69 4.17 3.931 4.46a7.76 7.76 0 0 0 1.464.045 7.154 7.154 0 0 1-5.395 2.495h-1a1 1 0 1 0 0 2h1c3.447 0 6.7-2.051 8.112-5.05a11.51 11.51 0 0 0 7.513-8.003C23.333 13.064 25 10.281 25 6v-.586l1.293 1.293a.997.997 0 0 0 1.414 0 1 1 0 0 0 0-1.414zM10.601 21.319c-.538.13-1.478.295-2.426.173a2.513 2.513 0 0 1-2.189-2.478c0-1.38 1.122-2.5 2.5-2.5s2.5 1.12 2.5 2.5a7.12 7.12 0 0 1-.385 2.305zm7.277-7.768c-.66.26-1.371.449-2.427.449A2.516 2.516 0 0 1 13 11.5c0-1.378 1.122-2.5 2.5-2.5 1.185 0 2.192.828 2.453 2.015.187.848.05 1.867-.075 2.536z" fill="#333"/></svg>
