<svg xmlns="http://www.w3.org/2000/svg" viewBox="0 0 30 30"><path d="M26.966 24.24l-3.5-13c-.01-.034-.033-.06-.046-.092l2.473-2.258a3.35 3.35 0 0 0 1.105-2.422c.023-.935-.33-1.814-.991-2.475s-1.54-1.004-2.474-.992a3.353 3.353 0 0 0-2.422 1.104l-2.26 2.475c-.032-.013-.057-.037-.091-.046l-13-3.5a.998.998 0 0 0-.885.185l-2.5 2a1 1 0 0 0 .133 1.652l10.603 5.993L8.419 18H5a1 1 0 0 0-.707.293l-2 2a1 1 0 0 0 .51 1.688l4.412.881 1.327 4.425a1.001 1.001 0 0 0 1.665.42l2-2a1 1 0 0 0 .285-.836l-.433-3.344 4.883-4.461 5.666 10.412a.996.996 0 0 0 .878.522 1 1 0 0 0 .705-.291l2.514-2.5a1 1 0 0 0 .26-.969zM4.779 5.857l.95-.76 11.619 3.129-2.853 3.122-9.716-5.491zm5.23 15.412l.436 3.372-.469.469-1.018-3.397a1 1 0 0 0-.762-.693l-3.168-.634.386-.386H8.86c.28 0 .549-.118.738-.325l12.99-14.222c.259-.283.61-.443.991-.452.379.008.743.135 1.014.406s.415.631.406 1.014a1.37 1.37 0 0 1-.454.99l-14.22 12.99a1 1 0 0 0-.317.868zm13.718 4.082l-5.264-9.674 3.311-3.025 3.11 11.548-1.157 1.15z" fill="#333"/></svg>
