<svg xmlns="http://www.w3.org/2000/svg" viewBox="0 0 30 30"><style>.st2{fill:#333}</style><g id="Layer_1"><path class="st2" d="M20.7 12.1l-6.6 2.2-1.1 6.5c-.1.5.3 1.1.8 1.2h.2c.5 0 .9-.3 1-.8l.9-5.4 5.4-1.8c.5-.2.8-.7.6-1.3-.1-.5-.7-.8-1.2-.6z"/><path class="st2" d="M25.2 10.8C26.3 9.9 27 8.5 27 7c0-2.8-2.2-5-5-5-1.8 0-3.4.9-4.2 2.4C16.9 4.1 16 4 15 4s-1.9.1-2.8.4C11.4 2.9 9.8 2 8 2 5.2 2 3 4.2 3 7c0 1.5.7 2.9 1.8 3.8-.5 1.3-.8 2.7-.8 4.2 0 3.1 1.2 5.8 3.2 7.8l-2.1 3.7c-.2.5-.1 1.1.4 1.4.2.1.3.1.5.1.3 0 .7-.2.9-.5l1.9-3.4c1.8 1.2 3.9 1.9 6.2 1.9s4.4-.7 6.2-1.9l1.9 3.4c.2.3.5.5.9.5.2 0 .3 0 .5-.1.5-.3.6-.9.4-1.4l-2.1-3.7c2-2 3.2-4.8 3.2-7.8 0-1.5-.3-2.9-.8-4.2zM5 7c0-1.7 1.3-3 3-3 .9 0 1.7.4 2.3 1.1C8.4 6 6.9 7.3 5.8 9 5.3 8.5 5 7.8 5 7zm10 17c-5 0-9-4-9-9s4-9 9-9 9 4 9 9-4 9-9 9zm9.2-15c-1.1-1.7-2.7-3.1-4.5-3.9.6-.7 1.4-1.1 2.3-1.1 1.7 0 3 1.3 3 3 0 .8-.3 1.5-.8 2z"/></g></svg>
