<svg xmlns="http://www.w3.org/2000/svg" viewBox="0 0 30 30"><style>.st2{fill:#333}</style><g id="Layer_1"><path class="st2" d="M20.811 11.415a1 1 0 0 0-1.258-.31l-2.364 1.182A5.006 5.006 0 0 0 14 10.101V10c0-2.206-1.794-4-4-4H3a1 1 0 0 0-.949 1.316l1.667 5a1 1 0 0 0 .949.684h3.559l-6.011 7.616a.999.999 0 0 0-.215.62V27a1 1 0 0 0 1 1h10.065a1 1 0 0 0 .973-.771l1.935-8.232a5.022 5.022 0 0 0 1.216-1.284l2.364 1.181a.997.997 0 0 0 1.258-.309 1.001 1.001 0 0 0-.104-1.292L18.414 15l2.293-2.293a1 1 0 0 0 .104-1.292zM4.387 8H10c1.103 0 2 .897 2 2v.101c-.73.149-1.392.47-1.97.899H5.388l-1-3zm7.886 18H4v-4.418l4.186-5.304C8.756 18.414 10.688 20 13 20c.24 0 .469-.038.699-.07L12.273 26zM13 18c-1.654 0-3-1.346-3-3s1.346-3 3-3 3 1.346 3 3-1.346 3-3 3z"/><circle class="st2" cx="13.5" cy="14.5" r="1"/><path class="st2" d="M23.64 12.24a1 1 0 0 0-1.28 1.538c.413.343.64.777.64 1.222s-.227.879-.639 1.22a1 1 0 0 0 1.278 1.54C24.517 17.03 25 16.05 25 15c0-1.05-.483-2.03-1.36-2.76z"/><path class="st2" d="M26.24 10.328a1 1 0 0 0-1.48 1.345c.8.88 1.24 2.06 1.24 3.327s-.44 2.448-1.24 3.327a1.001 1.001 0 0 0 1.48 1.346C27.375 18.425 28 16.765 28 15s-.625-3.424-1.76-4.672z"/></g></svg>
