<svg xmlns="http://www.w3.org/2000/svg" viewBox="0 0 30 30"><style>.st2{fill:#333}</style><g id="Layer_1"><path class="st2" d="M17.293 15.293L15.586 17h-1.172l-1.707-1.707A1 1 0 0 0 11 16v4a1 1 0 0 0 1.707.707L14.414 19h1.172l1.707 1.707A1 1 0 0 0 19 20v-4a1 1 0 0 0-1.707-.707zM15 14c3.309 0 6-2.691 6-6s-2.691-6-6-6-6 2.691-6 6 2.691 6 6 6zm0-10c2.206 0 4 1.794 4 4s-1.794 4-4 4-4-1.794-4-4 1.794-4 4-4z"/><path class="st2" d="M22.871 17.071a.997.997 0 0 0-1.303.566L18.316 26h-6.632l-3.252-8.362a1 1 0 0 0-1.304-.567C7.001 17.123 4 18.365 4 22v5a1 1 0 0 0 1 1h5.977a.359.359 0 0 0 .046 0H25a1 1 0 0 0 1-1v-5c0-3.635-3.001-4.877-3.129-4.929zM6 26v-4c0-1.217.524-2.006 1.018-2.48L9.538 26H6zm18 0h-3.538l2.52-6.48C23.476 19.995 24 20.784 24 22v4z"/></g></svg>
