<svg xmlns="http://www.w3.org/2000/svg" viewBox="0 0 30 30"><path d="M8.99 27.01c-1.604 0-3.11-.624-4.243-1.757S2.99 22.614 2.99 21.011s.624-3.11 1.757-4.242l6.364-6.365c1.513-1.513 4.143-1.513 5.657 0a4.005 4.005 0 0 1 0 5.657l-5.658 5.657a1 1 0 1 1-1.414-1.414l5.658-5.657c.779-.78.779-2.049 0-2.829-.758-.758-2.071-.758-2.83 0l-6.363 6.365c-.755.755-1.171 1.758-1.171 2.828s.416 2.073 1.17 2.828c.756.755 1.76 1.17 2.83 1.17s2.072-.415 2.828-1.17l12.02-12.02a4.006 4.006 0 0 0 0-5.657c-1.51-1.511-4.145-1.511-5.656 0l-.707.707a1 1 0 1 1-1.415-1.415l.708-.707C17.9 3.614 19.408 2.99 21.01 2.99s3.11.624 4.243 1.757a6.007 6.007 0 0 1 0 8.485l-12.021 12.02a5.96 5.96 0 0 1-4.243 1.758z" fill="#333"/></svg>
