<svg xmlns="http://www.w3.org/2000/svg" viewBox="0 0 30 30"><path d="M25.782 18.377A.999.999 0 0 0 25 18h-3.025c-.133-2.5-2.192-4.5-4.725-4.5s-4.592 2-4.725 4.5H8.958L20.583 6.665a1 1 0 0 0-.172-1.566c-4.255-2.632-9.706-1.993-13.254 1.558-3.515 3.515-4.127 8.493-1.588 12.726C6.741 24.17 10.901 27.5 15.75 27.5c4.903 0 9.108-3.403 10.225-8.276a1 1 0 0 0-.193-.847zM17.25 15.5a2.744 2.744 0 0 1 2.725 2.5h-5.45a2.744 2.744 0 0 1 2.725-2.5zM8.57 8.07a8.75 8.75 0 0 1 6.198-2.582 8.67 8.67 0 0 1 3.431.708L6.757 17.352c-1.41-3.18-.754-6.713 1.814-9.281zm7.18 17.43c-3.542 0-6.636-2.207-7.902-5.5h15.804c-1.266 3.293-4.36 5.5-7.902 5.5z" fill="#333"/></svg>
