<svg xmlns="http://www.w3.org/2000/svg" viewBox="0 0 30 30"><style>.st2{fill:#333}</style><g id="Layer_1"><path class="st2" d="M15 7a1 1 0 0 0-1 1v8a1 1 0 0 0 .293.707l4 4a.997.997 0 0 0 1.414 0 1 1 0 0 0 0-1.414L16 15.586V8a1 1 0 0 0-1-1z"/><path class="st2" d="M14.988 2c-3.876 0-7.53 1.762-9.977 4.701V4a1.01 1.01 0 0 0-2.022 0v5c0 .558.453 1.01 1.011 1.01h5a1.01 1.01 0 0 0 0-2.02H6.557C8.627 5.5 11.709 4 14.988 4c6.059 0 10.989 4.93 10.989 10.988 0 6.059-4.93 10.989-10.989 10.989C8.93 25.977 4 21.047 4 14.988a1 1 0 0 0-2 0c0 7.162 5.827 12.989 12.988 12.989 7.162 0 12.989-5.827 12.989-12.989C27.977 7.827 22.15 2 14.988 2z"/></g></svg>
