<svg xmlns="http://www.w3.org/2000/svg" viewBox="0 0 30 30"><style>.st2{fill:#333}</style><g id="Layer_1"><path class="st2" d="M27 2a1 1 0 0 0-1 1v24a1 1 0 1 0 2 0V3a1 1 0 0 0-1-1zM3 2a1 1 0 0 0-1 1v24a1 1 0 1 0 2 0V3a1 1 0 0 0-1-1zM12.971 24H13a1 1 0 0 0 1-1V3c0-.552-.477-1-1.029-1s-1 .448-1 1v20a1 1 0 0 0 1 1zM22.972 2a1 1 0 0 0-1 1v20a1 1 0 0 0 1 1H23a1 1 0 0 0 1-1V3c0-.552-.476-1-1.028-1zM18 24c1.103 0 2-.897 2-2V4c0-1.103-.897-2-2-2s-2 .897-2 2v18c0 1.102.898 2 2 2zM8 24c1.103 0 2-.897 2-2V4c0-1.103-.897-2-2-2s-2 .897-2 2v18c0 1.102.897 2 2 2zM23 25.99H7c-.552 0-1 .457-1 1.01s.448 1 1 1h16c.553 0 1-.457 1-1.01s-.447-1-1-1z"/></g></svg>
