<svg xmlns="http://www.w3.org/2000/svg" viewBox="0 0 30 30"><path d="M27.945 18.889c-.792-4.761-6.038-7.635-9.435-9.02.302-.56.49-1.188.49-1.869 0-.928-.329-1.771-.86-2.45l1.141-1.425a1 1 0 0 0-1.562-1.25l-1.154 1.443A3.988 3.988 0 0 0 15 4c-.555 0-1.084.114-1.565.319l-1.154-1.444a1 1 0 1 0-1.562 1.25l1.14 1.425A3.963 3.963 0 0 0 11 8c0 .68.188 1.31.49 1.868-3.397 1.385-8.643 4.26-9.435 9.02-.199 1.196.186 1.981.544 2.43.61.765 1.65 1.212 3.007 1.292.319.02.651.033.992.033.922 0 1.898-.104 2.8-.437C10.512 25.144 12.613 27 14.975 27c2.381 0 4.468-1.861 5.574-4.812.918.348 1.914.455 2.853.455.341 0 .674-.014.992-.033 1.357-.08 2.397-.527 3.007-1.292.359-.449.744-1.234.545-2.43zm-11.463-8.675l.001.002v-.002zM14.555 14h.89c.2.65.421 1.325.666 2H13.89c.245-.675.466-1.35.666-2zm2.362 4c.33.732.686 1.415 1.065 2h-5.964c.379-.585.734-1.268 1.064-2h3.835zM5.724 20.614c-.752-.045-1.321-.243-1.561-.544-.057-.07-.23-.287-.136-.853.714-4.29 6.534-6.898 9.208-7.88-.87 3.305-2.157 6.945-3.463 8.32-.743.783-1.991 1.08-4.048.957zM17.126 24h-4.299c-.524-.505-.987-1.184-1.357-2h7.01c-.37.818-.83 1.495-1.354 2zm8.712-3.93c-.24.301-.81.5-1.562.544-2.053.122-3.305-.173-4.048-.957-1.306-1.375-2.593-5.015-3.462-8.32 2.675.983 8.493 3.59 9.207 7.88.093.566-.078.783-.135.853z" fill="#333"/></svg>
