<svg xmlns="http://www.w3.org/2000/svg" viewBox="0 0 30 30"><style>.st2{fill:#333}</style><g id="Layer_1"><path class="st2" d="M23 10.433h-1.613c-.462-1.898-1.091-2.314-1.548-2.406a4.768 4.768 0 0 0-3.726-3.443C15.707 3.1 14.36 2 12.75 2a3.502 3.502 0 0 0-3.405 2.72 4.757 4.757 0 0 0-3.186 3.337c-1.111.275-1.516 1.875-1.773 3.609C4.137 13.346 4 15.595 4 18c0 10 1.816 10 2.5 10h13c1.197 0 1.695-1.325 1.99-2.919H23c2.206 0 4-1.758 4-3.919v-6.81c0-2.162-1.794-3.92-4-3.92zM6.814 10h12.372c.153.285.284.766.395 1.38 0 .018-.01.034-.01.053 0 .142.03.276.084.398l.026.169H6.319c.129-.915.293-1.624.495-2zm3.566-3.468a.99.99 0 0 0 .79-.639l.001-.001a.97.97 0 0 0 .057-.282c.004-.037.022-.071.022-.11a1.498 1.498 0 1 1 2.754-.82 4.672 4.672 0 0 0-1.61.784 1 1 0 1 0 1.212 1.591A2.69 2.69 0 0 1 15.25 6.5c1.058 0 1.984.61 2.442 1.5H8.314a2.734 2.734 0 0 1 2.066-1.468zM19.186 26H6.814c-.77-1.435-1.002-7.67-.696-12h13.764c.217 3.07.163 7.09-.16 9.687a.996.996 0 0 0-.082.394c0 .03.014.054.016.082-.124.835-.28 1.484-.47 1.837zM25 21.162c0 1.059-.897 1.919-2 1.919h-1.233c.15-1.478.233-3.23.233-5.081 0-2.378-.103-4.186-.27-5.567H23c1.103 0 2 .86 2 1.919v6.81z"/><circle class="st2" cx="16" cy="20" r="1"/><circle class="st2" cx="11" cy="17" r="1"/><circle class="st2" cx="13" cy="23" r="1"/></g></svg>
