<svg xmlns="http://www.w3.org/2000/svg" viewBox="0 0 30 30"><style>.st2{fill:#333}</style><g id="Layer_1"><path class="st2" d="M14.586 16.19L12.94 15H15c.794 0 1.511-.315 2.048-.82l.536 1.221A1 1 0 0 0 18.5 16h5a1 1 0 1 0 0-2h-4.347l-1.4-3.194c-.004-.01-.013-.016-.018-.026A3 3 0 0 0 15 9h-4.5c-1.654 0-3 1.346-3 3 0 .984.483 1.851 1.217 2.399.015.012.022.03.038.041l4.333 3.134.928 5.105a1 1 0 0 0 1.968-.358l-1-5.5a1 1 0 0 0-.398-.632zM10.5 11H15c.551 0 1 .449 1 1s-.449 1-1 1h-4.5c-.551 0-1-.449-1-1s.449-1 1-1z"/><path class="st2" d="M21.5 13c1.654 0 3-1.346 3-3s-1.346-3-3-3-3 1.346-3 3 1.346 3 3 3zm0-4a1 1 0 0 1 0 2 1 1 0 0 1 0-2zM7.5 17C4.467 17 2 19.468 2 22.5S4.467 28 7.5 28s5.5-2.468 5.5-5.5S10.533 17 7.5 17zm0 9C5.57 26 4 24.43 4 22.5S5.57 19 7.5 19s3.5 1.57 3.5 3.5S9.43 26 7.5 26zM22.5 17c-3.032 0-5.5 2.468-5.5 5.5s2.468 5.5 5.5 5.5 5.5-2.468 5.5-5.5-2.468-5.5-5.5-5.5zm0 9c-1.93 0-3.5-1.57-3.5-3.5s1.57-3.5 3.5-3.5 3.5 1.57 3.5 3.5-1.57 3.5-3.5 3.5z"/></g></svg>
