<svg xmlns="http://www.w3.org/2000/svg" viewBox="0 0 30 30"><style>.st2{fill:#333}</style><g id="Layer_1"><path class="st2" d="M21 16c1.65 0 3-1.35 3-3s-1.35-3-3-3-3 1.35-3 3 1.35 3 3 3zm0-4c.55 0 1 .45 1 1s-.45 1-1 1-1-.45-1-1 .45-1 1-1z"/><path class="st2" d="M27 6H3c-.55 0-1 .45-1 1v16c0 .55.45 1 1 1h24c.55 0 1-.45 1-1V7c0-.55-.45-1-1-1zm-1 16H4V8h22v14z"/><path class="st2" d="M15 14c.55 0 1-.45 1-1v-3c0-.55-.45-1-1-1s-1 .45-1 1v3c0 .55.45 1 1 1zM7 16h4c.55 0 1-.45 1-1s-.45-1-1-1H7c-.55 0-1 .45-1 1s.45 1 1 1zM15 21c.55 0 1-.45 1-1v-3c0-.55-.45-1-1-1s-1 .45-1 1v3c0 .55.45 1 1 1zM7 20h4c.55 0 1-.45 1-1s-.45-1-1-1H7c-.55 0-1 .45-1 1s.45 1 1 1z"/></g></svg>
