<svg xmlns="http://www.w3.org/2000/svg" viewBox="0 0 30 30"><style>.st2{fill:#333}</style><g id="Ebene_2"><path class="st2" d="M17 6c-4.578 0-8.438 3.096-9.62 7.301C6.183 11.724 4.526 10 3 10a1 1 0 0 0-1 1v11a1 1 0 0 0 1 1c1.58 0 3.24-2.05 4.463-3.996C8.74 23.054 12.533 26 17 26c5.514 0 10-4.486 10-10S22.514 6 17 6zM4 20.284v-7.733c.866.742 1.978 2.13 2.852 3.495-.915 1.733-2.018 3.349-2.852 4.238zM17 24c-4.411 0-8-3.589-8-8s3.589-8 8-8 8 3.589 8 8-3.589 8-8 8z"/><path class="st2" d="M19 10c-1.654 0-3 1.346-3 3s1.346 3 3 3 3-1.346 3-3-1.346-3-3-3zm0 4a1 1 0 0 1 0-2 1 1 0 0 1 0 2z"/></g></svg>
