<svg xmlns="http://www.w3.org/2000/svg" viewBox="0 0 30 30"><style>.st2{fill:#333}</style><g id="Layer_1"><path class="st2" d="M25 4h-7.5c-.979 0-1.864.403-2.5 1.053A3.489 3.489 0 0 0 12.5 4H5a1 1 0 0 0-1 1v20a1 1 0 0 0 1 1h20a1 1 0 0 0 1-1V5a1 1 0 0 0-1-1zm-7.5 2H24v16h-8V7.5c0-.827.673-1.5 1.5-1.5zm-5 0c.827 0 1.5.673 1.5 1.5V22H6V6h6.5z"/><path class="st2" d="M19 11h2a1 1 0 1 0 0-2h-2a1 1 0 1 0 0 2zM19 15h2a1 1 0 1 0 0-2h-2a1 1 0 1 0 0 2zM9 11h2a1 1 0 0 0 0-2H9a1 1 0 0 0 0 2zM9 15h2a1 1 0 0 0 0-2H9a1 1 0 0 0 0 2z"/></g></svg>
