<svg xmlns="http://www.w3.org/2000/svg" viewBox="0 0 30 30"><path d="M26.708 3.293a1 1 0 0 0-1.415 0l-8.002 7.99c-.128-.067-.243-.138-.39-.199l-1.647-.717c-2.276-.77-4.394-.333-5.941 1.214l-6 5.67a1 1 0 0 0 .563 1.72l2.713.339-.517 1.292a1 1 0 0 0 .217 1.075l4.966 5.026a1 1 0 0 0 1.41.013l6.162-6.009c1.309-1.309 1.518-3.335.621-6.023l-.517-1.55c-.066-.167-.143-.302-.218-.445l7.994-7.981a1 1 0 0 0 .001-1.415zM11.98 24.591l-3.808-3.854.756-1.887a1 1 0 0 0-.804-1.365l-1.896-.236 2.882-2.724 6.494 6.531-3.624 3.535zm5.442-5.307l-.386.376-6.473-6.509.144-.135c1.03-1.03 2.342-1.284 3.825-.786l1.581.692c.59.247.742.397.939.894l.5 1.5c.637 1.91.59 3.248-.13 3.968z" fill="#333"/></svg>
