<svg xmlns="http://www.w3.org/2000/svg" viewBox="0 0 30 30"><style>.st2{fill:#333}</style><g id="Layer_1"><path class="st2" d="M14 26v-3c0-.55-.45-1-1-1H9c-.55 0-1 .45-1 1v3H4V13c0-.55.45-1 1-1h12c.55 0 1 .45 1 1v2.083c.62-.36 1.29-.636 2-.82V13c0-.35-.07-.69-.18-1H21c.55 0 1-.45 1-1s-.45-1-1-1h-2c-.28 0-.53.12-.71.3-.39-.19-.83-.3-1.29-.3h-7V5c0-.55.45-1 1-1h12c.55 0 1 .45 1 1v9.263c.71.184 1.38.46 2 .82V5c0-1.65-1.35-3-3-3H11C9.35 2 8 3.35 8 5v5H5c-1.65 0-3 1.35-3 3v14c0 .55.45 1 1 1h6c.55 0 1-.45 1-1v-3h2v3c0 .55.45 1 1 1h3.726a8.046 8.046 0 0 1-1.644-2H14z"/><path class="st2" d="M13 18c-.55 0-1 .45-1 1s.45 1 1 1h1.263c.182-.704.455-1.37.81-1.985-.025-.002-.047-.015-.073-.015h-2zM16 15c0-.55-.45-1-1-1h-2c-.55 0-1 .45-1 1s.45 1 1 1h2c.55 0 1-.45 1-1zM9 18H7c-.55 0-1 .45-1 1s.45 1 1 1h2c.55 0 1-.45 1-1s-.45-1-1-1zM9 14H7c-.55 0-1 .45-1 1s.45 1 1 1h2c.55 0 1-.45 1-1s-.45-1-1-1zM19 6c-.55 0-1 .45-1 1s.45 1 1 1h2c.55 0 1-.45 1-1s-.45-1-1-1h-2zM13 6c-.55 0-1 .45-1 1s.45 1 1 1h2c.55 0 1-.45 1-1s-.45-1-1-1h-2zM22 16c-3.309 0-6 2.691-6 6s2.691 6 6 6 6-2.691 6-6-2.691-6-6-6zm-3.858 7h1.222c.048.777.156 1.554.331 2.259A3.998 3.998 0 0 1 18.142 23zm1.222-2h-1.222c.24-.925.795-1.72 1.553-2.259a12.688 12.688 0 0 0-.33 2.259zM22 25.785c-.24-.452-.528-1.416-.628-2.785h1.256c-.1 1.37-.387 2.333-.628 2.785zM21.372 21c.1-1.37.387-2.333.628-2.785.24.452.528 1.416.628 2.785h-1.256zm2.933 4.259c.175-.705.283-1.481.33-2.259h1.223a3.998 3.998 0 0 1-1.553 2.259zm.33-4.259a12.688 12.688 0 0 0-.33-2.259A3.997 3.997 0 0 1 25.858 21h-1.222z"/></g></svg>
