<svg xmlns="http://www.w3.org/2000/svg" viewBox="0 0 30 30"><style>.st2{fill:#333}</style><g id="Layer_1"><path class="st2" d="M19 8h4c.55 0 1-.45 1-1s-.45-1-1-1h-4c-.55 0-1 .45-1 1s.45 1 1 1zM23 10h-4c-.55 0-1 .45-1 1s.45 1 1 1h4c.55 0 1-.45 1-1s-.45-1-1-1zM20 14h-8v-1c0-1.66-1.34-3-3-3s-3 1.34-3 3v1H4c-1.1 0-2 .9-2 2v11c0 .55.45 1 1 1h18c.55 0 1-.45 1-1V16c0-1.1-.9-2-2-2zM8 13c0-.55.45-1 1-1s1 .45 1 1v8c0 .55-.45 1-1 1s-1-.45-1-1v-8zm12 13H4V16h2v5c0 1.66 1.34 3 3 3s3-1.34 3-3v-5h8v10z"/><path class="st2" d="M26 2H16c-1.1 0-2 .9-2 2v8h2V4h10v20h-2v2h3c.55 0 1-.45 1-1V4c0-1.1-.9-2-2-2zM15 20h2c.55 0 1-.45 1-1s-.45-1-1-1h-2c-.55 0-1 .45-1 1s.45 1 1 1zM15 24h2c.55 0 1-.45 1-1s-.45-1-1-1h-2c-.55 0-1 .45-1 1s.45 1 1 1z"/></g></svg>
