<svg xmlns="http://www.w3.org/2000/svg" viewBox="0 0 30 30"><style>.st2{fill:#333}</style><g id="Layer_1"><path class="st2" d="M18.76 2.556C13.747 1.04 8.316 2.717 5 6.722V4a1 1 0 0 0-2 0v5a1 1 0 0 0 1 1h5a1 1 0 0 0 0-2H6.537c2.806-3.392 7.4-4.81 11.645-3.53a11.015 11.015 0 0 1 7.796 10.017 1 1 0 0 0 1.998-.094C27.718 8.9 24.015 4.143 18.76 2.556zM26 20h-5a1 1 0 1 0 0 2h2.463c-2.806 3.392-7.4 4.81-11.645 3.53a11.016 11.016 0 0 1-7.795-10.017 1.01 1.01 0 0 0-1.046-.952 1 1 0 0 0-.952 1.046c.257 5.493 3.96 10.25 9.215 11.837 1.233.373 2.491.553 3.738.553A13.02 13.02 0 0 0 25 23.253V26a1 1 0 1 0 2 0v-5a1 1 0 0 0-1-1z"/><path class="st2" d="M22 12.5V10c0-1.682-1.977-3-4.5-3S13 8.318 13 10v1.177A6.598 6.598 0 0 0 11.5 11C8.977 11 7 12.318 7 14v2.5c0 1.321 1.216 2.409 3 2.814V20.5c0 1.683 1.977 3 4.5 3s4.5-1.317 4.5-3V18c0-1.086-.83-2.013-2.09-2.539.195.017.387.039.59.039 2.523 0 4.5-1.318 4.5-3zm-4.5 1c-.952 0-1.643-.262-2.056-.527a1.888 1.888 0 0 1-.154-.109l-.03-.025c-.168-.143-.232-.264-.242-.327.708.308 1.557.488 2.482.488.932 0 1.787-.182 2.498-.493-.014.255-.897.993-2.498.993zm0-4.5c1.613 0 2.5.751 2.5 1s-.887 1-2.5 1-2.5-.751-2.5-1 .887-1 2.5-1zm-6 4c.612 0 1.206.117 1.684.326.005.013.015.025.02.038.068.152.146.3.246.44.008.012.018.023.027.034.107.146.225.287.365.418-.322.317-1.125.744-2.342.744-1.613 0-2.5-.751-2.5-1s.887-1 2.5-1zm-2.497 3.507c.394.173.84.295 1.312.379-.076.13-.143.261-.191.4-.728-.235-1.112-.603-1.12-.779zM14.5 21.5c-1.6 0-2.484-.738-2.497-.993.71.311 1.565.493 2.497.493s1.787-.182 2.497-.493c-.013.255-.896.993-2.497.993zm0-2.5c-1.373 0-2.214-.542-2.436-.858L12 18c0-.249.887-1 2.5-1 .13 0 .256.013.411.026l.248.022c1.19.166 1.841.74 1.841.952 0 .249-.887 1-2.5 1z"/></g></svg>
