<svg xmlns="http://www.w3.org/2000/svg" viewBox="0 0 30 30"><path d="M22.5 16c-.134 0-.265.01-.396.02L20.794 11H22a1 1 0 0 0 .447-.105l2-1a1 1 0 1 0-.894-1.79L21.763 9H19.5a1 1 0 0 0-.968 1.252l.326 1.248H12.72l-.5-1.5H13a1 1 0 0 0 0-2H9a1 1 0 0 0 0 2h1.113l.807 2.423-1.898 3.796A5.475 5.475 0 0 0 7.5 16C4.467 16 2 18.468 2 21.5S4.467 27 7.5 27a5.506 5.506 0 0 0 5.46-4.862L15.044 22a.97.97 0 0 0 .329-.071.995.995 0 0 0 .512-.462l3.733-7.052.55 2.112A5.502 5.502 0 0 0 17 21.5c0 3.032 2.468 5.5 5.5 5.5s5.5-2.468 5.5-5.5-2.468-5.5-5.5-5.5zm-15 9C5.57 25 4 23.43 4 21.5S5.57 18 7.5 18c.206 0 .405.026.601.06l-1.496 2.993a1 1 0 0 0 .961 1.445l3.34-.223A3.502 3.502 0 0 1 7.5 25zm3.268-4.72l-1.593.106.714-1.43c.388.366.689.816.88 1.324zm2.055-.137a5.505 5.505 0 0 0-2.014-3.025l1.032-2.064 1.777 5.036-.795.053zm2.36-1.627l-1.77-5.016h4.426l-2.655 5.016zM22.5 25c-1.93 0-3.5-1.57-3.5-3.5a3.49 3.49 0 0 1 1.69-2.98l.842 3.232a1 1 0 0 0 1.936-.504l-.844-3.235A3.498 3.498 0 0 1 26 21.5c0 1.93-1.57 3.5-3.5 3.5z" fill="#333"/></svg>
