<svg xmlns="http://www.w3.org/2000/svg" viewBox="0 0 30 30"><style>.st2{fill:#333}</style><g id="Layer_1"><path class="st2" d="M27.979 2.796a.999.999 0 0 0-1.183-.775L19 3.645V3a1.002 1.002 0 0 0-1.21-.978l-7 1.5A1 1 0 0 0 10 4.5v1.02L2.796 7.021a1 1 0 1 0 .408 1.958l9.516-1.982-1 4.003H5a1 1 0 0 0-.961.725c-1.38 4.828-1.38 9.722 0 14.55A1 1 0 0 0 5 27h20a1 1 0 0 0 .962-.726c1.378-4.827 1.378-9.721 0-14.548A1 1 0 0 0 25 11h-6.72l-1.226-4.906 10.15-2.115a.999.999 0 0 0 .774-1.183zM24.233 25H5.766a24.056 24.056 0 0 1 0-12h18.468a24.058 24.058 0 0 1 0 12zM13.781 11l1-4h.438l1 4H13.78z"/><path class="st2" d="M7 15h4v5H7zM13 15h4v5h-4zM19 15h4v5h-4z"/></g></svg>
