<svg xmlns="http://www.w3.org/2000/svg" viewBox="0 0 30 30"><style>.st2{fill:#333}</style><g id="Layer_1"><path class="st2" d="M22 2H8c-1.103 0-2 .897-2 2v22c0 1.103.897 2 2 2h14c1.103 0 2-.897 2-2V4c0-1.103-.898-2-2-2zM8 26V4h14l.002 22H8z"/><path class="st2" d="M10 6h10v6H10z"/><circle class="st2" cx="11" cy="23" r="1"/><circle class="st2" cx="15" cy="23" r="1"/><circle class="st2" cx="19" cy="23" r="1"/><circle class="st2" cx="11" cy="19" r="1"/><circle class="st2" cx="15" cy="19" r="1"/><circle class="st2" cx="19" cy="19" r="1"/><circle class="st2" cx="11" cy="15" r="1"/><circle class="st2" cx="15" cy="15" r="1"/><circle class="st2" cx="19" cy="15" r="1"/></g></svg>
