<svg xmlns="http://www.w3.org/2000/svg" viewBox="0 0 30 30"><style>.st2{fill:#333}</style><g id="Layer_1"><path class="st2" d="M21.793 14.207l.793.793H17a1 1 0 1 0 0 2h5.586l-.793.793a1 1 0 1 0 1.414 1.414l2.499-2.499a1 1 0 0 0 .217-1.09 1 1 0 0 0-.217-.326l-2.499-2.499a1 1 0 1 0-1.414 1.414zM25 21h-5.586l.793-.793a1 1 0 1 0-1.414-1.414l-2.499 2.499a.998.998 0 0 0-.217 1.09 1 1 0 0 0 .217.326l2.499 2.499a.997.997 0 0 0 1.414 0 1 1 0 0 0 0-1.414L19.414 23H25a1 1 0 1 0 0-2zM16.501 13c.266 0 .52-.106.708-.294l4.487-4.508a1.001 1.001 0 0 0-.01-1.42L20.239 5.36c-1.318-1.32-3.17-1.706-5.35-1.121-4.39 1.176-9.459 6.25-10.636 10.644-.587 2.19-.2 4.043 1.11 5.353l1.421 1.46c.187.192.443.301.71.303H7.5a1 1 0 0 0 .707-.293l4.5-4.5a1 1 0 0 0 0-1.414L10.914 14 14 10.914l1.793 1.793A1 1 0 0 0 16.5 13h.001zm-1.794-4.207a1 1 0 0 0-1.414 0l-4.5 4.5a1 1 0 0 0 0 1.414l1.793 1.793-3.076 3.076-.723-.743c-.797-.797-1-1.951-.604-3.431 1.003-3.743 5.485-8.23 9.222-9.23.487-.13.938-.196 1.353-.196.842 0 1.536.269 2.074.807l.735.719-3.069 3.082-1.791-1.791z"/></g></svg>
