<svg xmlns="http://www.w3.org/2000/svg" viewBox="0 0 30 30"><style>.st2{fill:#333}</style><g id="Layer_1"><path class="st2" d="M26.692 26.278l-7.805-7.48c.356-.239.697-.5 1.002-.798H23c1.654 0 3-1.346 3-3v-4a2.996 2.996 0 0 0-1.716-2.7A10.012 10.012 0 0 0 15 2a10.01 10.01 0 0 0-8.568 4.86L3.748 4.29a1 1 0 0 0-1.383 1.444l22.943 21.989a1 1 0 0 0 1.385-1.443zm-9.296-8.91l-1.436-1.376c.014 0 .026.008.04.008h2.974a5.065 5.065 0 0 1-1.578 1.368zM23 10a1 1 0 0 1 1 1v4a1 1 0 0 1-1 1h-1.685c.434-.91.685-1.925.685-3s-.25-2.09-.685-3H23zm-8-6a8.01 8.01 0 0 1 6.914 4H19.89a6.976 6.976 0 0 0-9.8.018c-.03-.003-.057-.018-.089-.018H8.086A8.007 8.007 0 0 1 15 4zm0 4a5.006 5.006 0 0 1 4.899 6H16a1 1 0 0 0-1 1c0 .032.015.059.018.09l-4.482-4.296C11.355 9.146 13.039 8 15 8zM7.171 26A3.005 3.005 0 0 1 10 24h8.534l-2.086-2H10c-2.757 0-5 2.243-5 5a1 1 0 0 0 1 1h16.708l-2.087-2H7.171zM10 18c.032 0 .06-.015.09-.018a6.982 6.982 0 0 0 4.236 1.984l-6.248-5.988A7.01 7.01 0 0 0 8.685 16H7c-.551 0-1-.449-1-1v-3.013l-1.883-1.805A2.96 2.96 0 0 0 4 11v4c0 1.654 1.346 3 3 3h3z"/></g></svg>
