<svg xmlns="http://www.w3.org/2000/svg" viewBox="0 0 30 30"><style>.st2{fill:#333}</style><g id="Layer_1"><circle class="st2" cx="5.5" cy="12.5" r="1.5"/><circle class="st2" cx="10.5" cy="12.5" r="1.5"/><circle class="st2" cx="15.5" cy="12.5" r="1.5"/><path class="st2" d="M27 15h-4.382l-2.723-5.447a1 1 0 1 0-1.79.894L20.383 15H3a1 1 0 0 0-1 1v4c0 .43.275.813.684.948l2.982.994A2.994 2.994 0 0 0 8.5 24a2.995 2.995 0 0 0 2.816-2h7.868c.414 1.161 1.514 2 2.816 2s2.402-.839 2.816-2H27a1 1 0 0 0 1-1v-5a1 1 0 0 0-1-1zM8.5 22a1 1 0 0 1 0-2 1 1 0 0 1 0 2zM22 22a1 1 0 1 1 .001-2.001A1 1 0 0 1 22 22zm4-2h-1.184c-.414-1.161-1.514-2-2.816-2s-2.402.839-2.816 2h-7.868A2.995 2.995 0 0 0 8.5 18c-1.249 0-2.32.768-2.77 1.856L4 19.279V17h22v3z"/></g></svg>
