<svg xmlns="http://www.w3.org/2000/svg" viewBox="0 0 30 30"><style>.st2{fill:#333}</style><g id="Layer_1"><path class="st2" d="M26 8c-.395 0-.761.118-1.072.316L22.56 7l2.368-1.316c.31.198.677.316 1.072.316a2 2 0 1 0 0-4c-1.073 0-1.94.846-1.99 1.907l-2.768 1.537A1.98 1.98 0 0 0 20 5a2 2 0 1 0 0 4c.472 0 .9-.17 1.242-.444l2.767 1.537A1.995 1.995 0 0 0 28 10a2 2 0 0 0-2-2zM27 16h-4.434l-2.709-4.515A.999.999 0 0 0 19 11H7c-.409 0-.776.249-.929.628L4.323 16H3a1 1 0 0 0-1 1v4c0 .43.275.813.684.948l2.982.994A2.994 2.994 0 0 0 8.5 25a2.995 2.995 0 0 0 2.816-2h7.868c.414 1.161 1.514 2 2.816 2s2.402-.839 2.816-2H27a1 1 0 0 0 1-1v-5a1 1 0 0 0-1-1zm-13.094-3h4.528l1.8 3h-7.078l.75-3zm-6.229 0h4.167l-.75 3H6.477l1.2-3zM8.5 23a1 1 0 0 1 0-2 1 1 0 0 1 0 2zM22 23a1 1 0 1 1 .001-2.001A1 1 0 0 1 22 23zm4-2h-1.184c-.414-1.161-1.514-2-2.816-2s-2.402.839-2.816 2h-7.868A2.995 2.995 0 0 0 8.5 19c-1.249 0-2.32.768-2.77 1.856L4 20.279V18h22v3z"/></g></svg>
