<svg xmlns="http://www.w3.org/2000/svg" viewBox="0 0 30 30"><path d="M27 15h-4.434l-2.709-4.515A.999.999 0 0 0 19 10H7c-.409 0-.776.249-.929.628L4.323 15H3a1 1 0 0 0-1 1v4c0 .43.275.813.684.948l2.982.994A2.994 2.994 0 0 0 8.5 24a2.995 2.995 0 0 0 2.816-2h7.868c.414 1.161 1.514 2 2.816 2s2.402-.839 2.816-2H27a1 1 0 0 0 1-1v-5a1 1 0 0 0-1-1zm-6.766 0h-7.078l.75-3h4.528l1.8 3zM7.677 12h4.167l-.75 3H6.477l1.2-3zM8.5 22a1 1 0 0 1 0-2 1 1 0 0 1 0 2zM22 22a1 1 0 1 1 .001-2.001A1 1 0 0 1 22 22zm4-2h-1.184c-.414-1.161-1.514-2-2.816-2s-2.402.839-2.816 2h-7.868A2.995 2.995 0 0 0 8.5 18c-1.249 0-2.32.768-2.77 1.856L4 19.279V17h22v3z" fill="#333"/></svg>
