<svg xmlns="http://www.w3.org/2000/svg" viewBox="0 0 30 30"><path d="M25.371 10.377l-1.944-3.559c-.833-1.522-2.328-2.531-4.103-2.768-1.768-.232-3.567.38-4.785 1.647l-9.088 9.47a5.123 5.123 0 0 0-1.45 3.683 5.141 5.141 0 0 0 1.623 3.626c1.049.997 2.453 1.518 3.87 1.518.912 0 1.83-.217 2.661-.66l3.91-2.096.047.076c.292.48.937.645 1.442.368l3.583-1.968c.505-.277.677-.891.386-1.371l-.013-.023 1.678-.9c1.276-.683 2.199-1.802 2.6-3.151a5.048 5.048 0 0 0-.417-3.893zm-1.5 3.322c-.248.834-.826 1.529-1.628 1.959l-1.773.95-.028-.047c-.292-.48-.937-.645-1.442-.368l-3.583 1.968a.977.977 0 0 0-.39 1.363l-.039.02-3.777 2.025c-1.37.734-3.102.51-4.209-.543A3.156 3.156 0 0 1 6 18.805a3.138 3.138 0 0 1 .894-2.253l9.088-9.47a3.526 3.526 0 0 1 2.57-1.083c.168 0 .338.011.509.034 1.135.151 2.087.787 2.61 1.744l1.945 3.559c.4.732.491 1.57.255 2.363z" fill="#333"/></svg>
