<svg xmlns="http://www.w3.org/2000/svg" viewBox="0 0 30 30"><style>.st2{fill:#333}</style><g id="Layer_1"><path class="st2" d="M19 2h-8C8.794 2 7 3.794 7 6v18a1 1 0 0 0 1 1h3v2a1 1 0 0 0 1 1h6a1 1 0 0 0 1-1v-2h3a1 1 0 0 0 1-1V6c0-2.206-1.794-4-4-4zm-2 24h-2v-4h2v4zm4-3h-2v-3h-8v3H9V6c0-1.103.897-2 2-2h8c1.103 0 2 .897 2 2v17z"/><path class="st2" d="M11 6h8v3h-8z"/><circle class="st2" cx="12" cy="11" r="1"/><circle class="st2" cx="12" cy="14" r="1"/><circle class="st2" cx="12" cy="17" r="1"/><circle class="st2" cx="15" cy="11" r="1"/><circle class="st2" cx="15" cy="14" r="1"/><circle class="st2" cx="15" cy="17" r="1"/><circle class="st2" cx="18" cy="11" r="1"/><circle class="st2" cx="18" cy="14" r="1"/><circle class="st2" cx="18" cy="17" r="1"/></g></svg>
