<svg xmlns="http://www.w3.org/2000/svg" viewBox="0 0 30 30"><style>.st2{fill:#333}</style><g id="Layer_1"><path class="st2" d="M18.679 19H11.32A6.328 6.328 0 0 0 5 25.321V27a1 1 0 0 0 1 1h18a1 1 0 0 0 1-1v-1.679A6.329 6.329 0 0 0 18.679 19zM23 26H7v-.679A4.326 4.326 0 0 1 11.32 21h7.359A4.326 4.326 0 0 1 23 25.321V26zM7.5 18h15a1.001 1.001 0 0 0 .953-1.3l-2.936-9.298.477-4.292A1.002 1.002 0 0 0 20 2H10a1 1 0 0 0-.994 1.11l.477 4.29-2.937 9.3A.999.999 0 0 0 7.5 18zm4.118-9.162a.988.988 0 0 0 .13-.338h6.503a.99.99 0 0 0 .13.338c.405.633.619 1.373.619 2.14C19 13.196 17.206 15 15 15s-4-1.804-4-4.022c0-.767.213-1.507.618-2.14zM18.303 16a6.05 6.05 0 0 0 2.08-2.381L21.137 16h-2.833zm.58-12l-.278 2.5h-7.21L11.117 4h7.766zm-9.267 9.62a6.05 6.05 0 0 0 2.08 2.38H8.865l.752-2.38z"/><path class="st2" d="M19.5 22.5H17a1 1 0 1 0 0 2h2.5a1 1 0 1 0 0-2z"/></g></svg>
