<svg xmlns="http://www.w3.org/2000/svg" viewBox="0 0 30 30"><style>.st2{fill:#333}</style><g id="Layer_1"><path class="st2" d="M25 27.999H5a1 1 0 0 1-1-1V10.073C4 7.79 5.757 6 8 6v-3a1 1 0 0 1 1-1h12a1 1 0 0 1 1 1L22.001 6C24.216 6.052 26 7.88 26 10.073V27a1 1 0 0 1-1 1zm-19-2h18V10.073A2.087 2.087 0 0 0 21.977 8h-.978a1 1 0 0 1-.999-1v-3H10v3a1 1 0 0 1-1 1H8c-1.122 0-2 .911-2 2.074V26z"/><circle class="st2" cx="11" cy="11" r="1"/><circle class="st2" cx="11" cy="15" r="1"/><circle class="st2" cx="11" cy="19" r="1"/><circle class="st2" cx="15" cy="11" r="1"/><circle class="st2" cx="15" cy="15" r="1"/><circle class="st2" cx="15" cy="19" r="1"/><circle class="st2" cx="19" cy="11" r="1"/><circle class="st2" cx="19" cy="15" r="1"/><circle class="st2" cx="19" cy="19" r="1"/><path class="st2" d="M11 5h8v3h-8zM21 24H9a1 1 0 1 1 0-2h12a1 1 0 1 1 0 2z"/></g></svg>
