<svg xmlns="http://www.w3.org/2000/svg" viewBox="0 0 30 30"><style>.st2{fill:#333}</style><g id="Layer_1"><path class="st2" d="M25.876 11.075c-.373-1.936-1.571-2.695-2.445-3.25-.296-.187-.552-.349-.714-.516-.15-.155-.29-.537-.423-.906-.355-.972-.839-2.303-2.481-3.023-1.485-.651-2.808-.254-3.776.036-.422.127-.82.247-1.115.247-.248 0-.652-.12-1.08-.244-1.136-.333-2.69-.789-4.235.089-1.507.857-1.899 2.007-2.185 2.846-.12.355-.224.662-.385.863-.19.238-.456.422-.764.634-.695.48-1.648 1.137-2.07 2.784-.52 2.016.22 3.497.708 4.477.117.235.226.448.297.644.06.171.04.527.021.871-.05.896-.125 2.247.98 3.492.582.656 1.25.966 1.898 1.123l-1.814 1.814a1 1 0 0 0 0 1.414l3.23 3.23a.997.997 0 0 0 1.414 0l3.718-3.72c.08.006.153.02.237.02h.048c.14 0 .266-.017.397-.027l3.727 3.726a.997.997 0 0 0 1.414 0l3.23-3.23a1 1 0 0 0 0-1.413l-1.781-1.78a3.93 3.93 0 0 0 1.589-.935c1.216-1.161 1.182-2.593 1.157-3.638-.009-.372-.018-.758.044-.957.044-.14.172-.367.307-.607.487-.86 1.22-2.158.852-4.064zM10.229 25.578l-1.815-1.815 2.2-2.2c.141.099.35.318.541.522.347.37.782.829 1.361 1.206l-2.287 2.287zm9.541 0l-2.334-2.334c.484-.323.867-.693 1.174-.998.26-.258.504-.5.689-.593.037-.018.085-.031.133-.044l2.154 2.154-1.816 1.815zm3.513-11.423c-.19.335-.368.652-.474.994-.161.515-.148 1.068-.135 1.602.023.991-.001 1.63-.54 2.144-.588.561-1.234.592-1.98.628-.579.028-1.176.056-1.748.341-.472.236-.844.605-1.205.962-.64.636-1.232 1.207-2.29 1.174-1.102-.01-1.682-.629-2.297-1.283-.357-.381-.694-.74-1.135-.968-.548-.284-1.167-.309-1.765-.331-.936-.036-1.539-.096-2.01-.626-.53-.599-.527-1.17-.477-2.054.03-.542.06-1.103-.136-1.654a8.263 8.263 0 0 0-.39-.865c-.44-.881-.895-1.793-.562-3.086.237-.923.67-1.222 1.27-1.636.382-.264.817-.563 1.19-1.032.38-.474.559-1.002.717-1.466.242-.71.432-1.27 1.28-1.752.315-.18.646-.248.99-.248.537 0 1.105.167 1.693.339.57.167 1.108.325 1.643.325.588 0 1.148-.168 1.69-.331.852-.255 1.586-.477 2.398-.12.858.376 1.111 1.07 1.404 1.875.206.566.42 1.152.865 1.612.327.339.71.581 1.081.816.75.475 1.343.85 1.553 1.939.228 1.184-.208 1.955-.63 2.701z"/><path class="st2" d="M15 8.5c-2.757 0-5 2.243-5 5s2.243 5 5 5 5-2.243 5-5-2.243-5-5-5zm0 8c-1.654 0-3-1.346-3-3s1.346-3 3-3 3 1.346 3 3-1.346 3-3 3z"/></g></svg>
