<svg xmlns="http://www.w3.org/2000/svg" viewBox="0 0 30 30"><style>.st2{fill:#333}</style><g id="Layer_1"><path class="st2" d="M16.477 8.482a2.49 2.49 0 0 0-1.86-.452 2.503 2.503 0 0 0-2.087 2.853 2.504 2.504 0 0 0 2.853 2.088 2.482 2.482 0 0 0 1.635-.995c.394-.539.555-1.2.453-1.859s-.456-1.24-.994-1.635z"/><path class="st2" d="M19.55 23.495l-6.917 1.072-2.102-13.56 2.084-5.12 8.602-1.91a1 1 0 0 0-.434-1.953l-18 4a1 1 0 1 0 .434 1.952l7.023-1.56-1.666 4.093a1 1 0 0 0-.062.53l2.298 14.823a.997.997 0 0 0 1.141.835l7.906-1.225a1 1 0 1 0-.307-1.977z"/><path class="st2" d="M23.914 25.656l-1.754-4.788a1.004 1.004 0 0 0-1.093-.644l-.988.153-.536-3.459a3.505 3.505 0 0 0-3.995-2.922 3.475 3.475 0 0 0-2.289 1.393 3.475 3.475 0 0 0-.634 2.602l.69 4.446a1 1 0 0 0 1.142.835l4.94-.765 1.166-.18 1.472 4.017a1.001 1.001 0 0 0 1.88-.688zm-9.312-7.971a1.488 1.488 0 0 1 .272-1.116 1.49 1.49 0 0 1 1.211-.614c.727 0 1.366.53 1.481 1.27l.537 3.458-2.965.46-.536-3.458z"/></g></svg>
