<svg xmlns="http://www.w3.org/2000/svg" viewBox="0 0 30 30"><style>.st2{fill:#333}</style><g id="Layer_1"><path class="st2" d="M25.515 8.143l-10-6a.999.999 0 0 0-1.03 0l-10 6a1 1 0 1 0 1.03 1.714L15 4.166l9.485 5.691a.999.999 0 0 0 1.03-1.715z"/><path class="st2" d="M9.793 13.707a.997.997 0 0 0 1.414 0l.475-.475a3.999 3.999 0 0 0 6.635 0l.476.475a.997.997 0 0 0 1.414 0 1 1 0 0 0 0-1.414l-1.215-1.215c0-.026.008-.051.008-.078 0-2.206-1.794-4-4-4s-4 1.794-4 4c0 .027.007.051.008.078l-1.215 1.215a1 1 0 0 0 0 1.414zM15 9c1.103 0 2 .897 2 2s-.897 2-2 2-2-.897-2-2 .897-2 2-2zM18.948 16.684A.999.999 0 0 0 18 16h-6a1 1 0 0 0-.949.684l-2 6A1.001 1.001 0 0 0 10 24h1.22l.81 3.242A1 1 0 0 0 13 28h4a1 1 0 0 0 .97-.758L18.78 24H20a1.001 1.001 0 0 0 .948-1.316l-2-6zM12.721 18h4.558l1.333 4h-7.225l1.334-4zm3.498 8H13.78l-.5-2h3.438l-.5 2z"/></g></svg>
