<svg xmlns="http://www.w3.org/2000/svg" viewBox="0 0 30 30"><style>.st2{fill:#333}</style><g id="Layer_1"><path class="st2" d="M15 6a2.994 2.994 0 0 0-2.978 2.784l-1.077.717a1 1 0 0 0 1.11 1.665l.556-.371C13.159 11.522 14.021 12 15 12s1.841-.478 2.39-1.205l.555.37a.998.998 0 0 0 1.11-1.664l-1.077-.717A2.994 2.994 0 0 0 15 6zm0 4c-.551 0-1-.449-1-1s.449-1 1-1 1 .449 1 1-.449 1-1 1zM17.4 13h-4.8a1 1 0 0 0-.952.695l-1.6 5A1 1 0 0 0 11 20h.653l.36 2.164A1 1 0 0 0 13 23h4a1 1 0 0 0 .986-.836L18.347 20H19a1 1 0 0 0 .952-1.305l-1.6-5A1 1 0 0 0 17.4 13zm-4.07 2h3.34l.96 3h-5.26l.96-3zm2.823 6h-2.306l-.167-1h2.64l-.167 1z"/><path class="st2" d="M24.316 5.051l-9-3a1.001 1.001 0 0 0-.632 0l-9 3A1 1 0 0 0 5 6v11c0 6.049 9.163 10.7 9.553 10.895a1 1 0 0 0 .894 0C15.837 27.698 25 23.049 25 17V6a1 1 0 0 0-.684-.949zM23 17c0 3.764-5.408 7.47-8 8.872-2.593-1.4-8-5.1-8-8.872V6.72l8-2.666 8 2.667V17z"/></g></svg>
