<svg xmlns="http://www.w3.org/2000/svg" viewBox="0 0 30 30"><style>.st2{fill:#333}</style><g id="Layer_1"><path class="st2" d="M22 14h-2v-1a1 1 0 0 0-1-1H5a1 1 0 0 0-1 1v10.086A4.92 4.92 0 0 0 8.914 28h6.09a5.004 5.004 0 0 0 4.895-4H22c2.168 0 4-1.832 4-4v-2c0-2.168-1.832-4-4-4zm-4 9v.004A3 3 0 0 1 15.004 26h-6.09A2.918 2.918 0 0 1 6 23.086V14h12v9zm6-3c0 1.047-.953 2-2 2h-2v-6h2c1.047 0 2 .953 2 2v2zM9.553 9.895a1 1 0 0 0 1.342-.447l2-4a1 1 0 1 0-1.79-.895l-2 4a1 1 0 0 0 .448 1.341zM13.553 9.895a1 1 0 0 0 1.342-.447l2-4a1 1 0 1 0-1.79-.895l-2 4a1 1 0 0 0 .448 1.341z"/></g></svg>
