<svg xmlns="http://www.w3.org/2000/svg" viewBox="0 0 30 30"><style>.st2{fill:#333}</style><g id="Layer_1"><path class="st2" d="M19.5 2C15.294 2 12 4.196 12 7v2.812A5.956 5.956 0 0 0 9 9c-3.309 0-6 2.691-6 6s2.691 6 6 6a6.006 6.006 0 0 0 6-5.981c1.246.616 2.795.981 4.5.981 4.206 0 7.5-2.196 7.5-5V7c0-2.804-3.294-5-7.5-5zm0 2C22.741 4 25 5.581 25 7s-2.259 3-5.5 3S14 8.419 14 7s2.259-3 5.5-3zM9 19c-2.206 0-4-1.794-4-4s1.794-4 4-4 4 1.794 4 4-1.794 4-4 4zm10.5-5c-3.241 0-5.5-1.581-5.5-3v-.576c1.36.973 3.303 1.576 5.5 1.576s4.14-.603 5.5-1.576V11c0 1.419-2.259 3-5.5 3zM20 18c-2.757 0-5 2.243-5 5s2.243 5 5 5 5-2.243 5-5-2.243-5-5-5zm0 8c-1.654 0-3-1.346-3-3s1.346-3 3-3 3 1.346 3 3-1.346 3-3 3z"/></g></svg>
