<svg xmlns="http://www.w3.org/2000/svg" viewBox="0 0 30 30"><style>.st2{fill:#333}</style><g id="Layer_1"><path class="st2" d="M20.15 8.49l-4.33 2.6c-.27-.06-.54-.09-.82-.09-2.21 0-4 1.79-4 4 0 .28.03.55.08.81l-2.6 4.33c-.24.39-.17.9.15 1.22.33.33.83.39 1.23.15l4.33-2.6c.26.06.53.09.81.09 2.21 0 4-1.79 4-4 0-.28-.03-.55-.08-.81l2.6-4.33a.998.998 0 0 0-1.37-1.37zM15 17c-1.1 0-2-.9-2-2s.9-2 2-2 2 .9 2 2-.9 2-2 2z"/><path class="st2" d="M15 2C7.83 2 2 7.83 2 15s5.83 13 13 13 13-5.83 13-13S22.17 2 15 2zm0 24C8.93 26 4 21.07 4 15S8.93 4 15 4s11 4.93 11 11-4.93 11-11 11z"/></g></svg>
