<svg xmlns="http://www.w3.org/2000/svg" viewBox="0 0 30 30"><style>.st2{fill:#333}</style><g id="Layer_1"><path class="st2" d="M25 20.77v-6.065A6.97 6.97 0 0 1 23 15v5H6v-9.09c0-.502.408-.91.91-.91h9.385A6.97 6.97 0 0 1 16 8H6.91A2.914 2.914 0 0 0 4 10.91v9.86l-1.898 3.887a.995.995 0 0 0-.102.439V27a1 1 0 0 0 1 1h23a1 1 0 0 0 1-1v-1.904c0-.153-.035-.302-.102-.439L25 20.77zM25 26H4v-.673L5.625 22h17.75L25 25.327V26z"/><path class="st2" d="M15.258 12H8v6h8.5a2.98 2.98 0 0 1-2.121-.879A2.98 2.98 0 0 1 13.5 15c0-.801.312-1.555.879-2.121l.879-.879zM21 14.742l-2.379 2.38A2.98 2.98 0 0 1 16.5 18H21v-3.258z"/><path class="st2" d="M15.793 14.293a1 1 0 1 0 1.414 1.414l3.364-3.364A4.938 4.938 0 0 0 23 13c2.757 0 5-2.243 5-5s-2.243-5-5-5-5 2.243-5 5a4.95 4.95 0 0 0 1.053 3.033l-3.26 3.26zM23 5c1.654 0 3 1.346 3 3s-1.346 3-3 3-3-1.346-3-3 1.346-3 3-3z"/></g></svg>
