<svg xmlns="http://www.w3.org/2000/svg" viewBox="0 0 30 30"><style>.st2{fill:#333}</style><g id="Ebene_2"><path class="st2" d="M26.774 12.187c-.64-.42-1.66-1.111-2.467-1.662.877-.568 1.981-1.287 2.525-1.657a.999.999 0 0 0 .274-1.374A5.487 5.487 0 0 0 22.5 5a5.507 5.507 0 0 0-5.5 5.5c0 1.156.36 2.228.972 3.114l-1.59 1.59A7.69 7.69 0 0 0 12.255 14h-.508c-.252 0-.5.014-.746.038v-1.069a5.494 5.494 0 0 0 4.054-2.384.999.999 0 0 0-.28-1.398c-.64-.42-1.66-1.111-2.467-1.662.877-.568 1.981-1.287 2.525-1.657a1 1 0 0 0 .275-1.373A5.486 5.486 0 0 0 10.5 2 5.506 5.506 0 0 0 5 7.5c0 2.512 1.695 4.632 4 5.287v1.725c-2.918 1.111-5 3.93-5 7.233v.18c0 1.316.835 2.432 2 2.87V26a1 1 0 1 0 2 0v-1h2v1a1 1 0 1 0 2 0v-1h2v1a1 1 0 1 0 2 0v-1h.925A3.08 3.08 0 0 0 20 21.925v-.18c0-2.03-.791-3.874-2.074-5.257l1.46-1.46A5.466 5.466 0 0 0 22.5 16a5.5 5.5 0 0 0 4.554-2.415.999.999 0 0 0-.28-1.398zM7 7.5C7 5.57 8.57 4 10.5 4c.846 0 1.647.302 2.272.836a418.983 418.983 0 0 1-2.813 1.823 1 1 0 0 0-.025 1.665s1.527 1.05 2.776 1.89A3.496 3.496 0 0 1 10.5 11C8.57 11 7 9.43 7 7.5zm11 14.425c0 .593-.482 1.075-1.075 1.075h-9.85A1.077 1.077 0 0 1 6 21.925v-.18A5.752 5.752 0 0 1 11.746 16h.508A5.752 5.752 0 0 1 18 21.745v.18zM22.5 14c-1.93 0-3.5-1.57-3.5-3.5S20.57 7 22.5 7a3.49 3.49 0 0 1 2.272.836c-1.198.786-2.811 1.822-2.812 1.823a.998.998 0 0 0-.026 1.665s1.527 1.05 2.776 1.89A3.498 3.498 0 0 1 22.5 14z"/><path class="st2" d="M13 18c-1.654 0-3 1.346-3 3a1 1 0 1 0 2 0 1 1 0 0 1 2 0 1 1 0 1 0 2 0c0-1.654-1.346-3-3-3z"/></g></svg>
