<svg xmlns="http://www.w3.org/2000/svg" viewBox="0 0 30 30">
  <style>.st2{fill:#333}</style>
  <g id="Layer_1">
    <path class="st2" d="M18.679 19H11.32A6.328 6.328 0 0 0 5 25.321V27a1 1 0 0 0 1 1h18a1 1 0 0 0 1-1v-1.679A6.329 6.329 0 0 0 18.679 19zm-7.358 2h7.358c1.3 0 2.453.589 3.246 1.5H8.075c.793-.911 1.946-1.5 3.246-1.5zM23 26H7v-.679c0-.281.032-.555.083-.821h15.834c.051.266.083.54.083.821V26zM6.553 8.395l.553.276-.706.53A1 1 0 1 0 7.6 10.8l.423-.318.005.078a6.976 6.976 0 0 0 2.085 4.442c1.005 1.027 2.379 1.787 4.14 1.957A7.008 7.008 0 0 0 22 10c0-.914-.183-1.808-.522-2.639A.988.988 0 0 0 22 6.5v-1a1 1 0 0 0-.785-.977l-11.126-2.44a1.874 1.874 0 0 0-1.674.294C7.842 2.8 7.5 3.514 7.5 4.287v.926c0 .756.333 1.421.838 1.838l-.89-.446a1 1 0 1 0-.895 1.79zM20 10c0 .276-.038.541-.081.805L10.34 8.193c.093-.24.21-.47.34-.693h8.638c.438.755.681 1.613.681 2.5z"/>
    <circle class="st2" cx="17.75" cy="8.75" r=".75"/>
  </g>
</svg>
