<svg xmlns="http://www.w3.org/2000/svg" viewBox="0 0 30 30"><style>.st2{fill:#333}</style><g id="Layer_1"><path class="st2" d="M24 11h-2c-1.2 0-2.266.542-3 1.382A3.975 3.975 0 0 0 16 11h-2c-1.2 0-2.266.542-3 1.382A3.975 3.975 0 0 0 8 11H6c-2.206 0-4 1.794-4 4v5a1 1 0 0 0 1 1h1v6a1 1 0 0 0 1 1h4a1 1 0 0 0 1-1v-6h2v6a1 1 0 0 0 1 1h4a1 1 0 0 0 1-1v-6h2v6a1 1 0 0 0 1 1h4a1 1 0 0 0 1-1v-6h1a1 1 0 0 0 1-1v-5c0-2.206-1.794-4-4-4zm-10 2h2c1.103 0 2 .897 2 2v4h-6v-4c0-1.103.897-2 2-2zM4 15c0-1.103.897-2 2-2h2c1.103 0 2 .897 2 2v4H4v-4zm4 11H6v-5h2v5zm8 0h-2v-5h2v5zm8 0h-2v-5h2v5zm2-7h-6v-4c0-1.103.897-2 2-2h2c1.103 0 2 .897 2 2v4zM7 10c.537 0 1.034-.153 1.47-.401C9.004 10.438 9.936 11 11 11s1.997-.562 2.53-1.401c.436.248.933.401 1.47.401s1.034-.153 1.47-.401C17.004 10.438 17.936 11 19 11s1.997-.562 2.53-1.401c.436.248.933.401 1.47.401 1.654 0 3-1.346 3-3s-1.346-3-3-3a2.994 2.994 0 0 0-2.53 1.401C20.035 5.153 19.538 5 19 5s-1.034.153-1.47.401C16.996 4.562 16.064 4 15 4s-1.997.562-2.53 1.401C12.035 5.153 11.538 5 11 5s-1.034.153-1.47.401A2.994 2.994 0 0 0 7 4C5.346 4 4 5.346 4 7s1.346 3 3 3zm16-4a1 1 0 0 1 0 2 1 1 0 0 1 0-2zm-4 1a1 1 0 0 1 0 2 1 1 0 0 1 0-2zm-4-1c.551 0 1 .449 1 1s-.449 1-1 1-1-.449-1-1 .449-1 1-1zm-4 1c.551 0 1 .449 1 1s-.449 1-1 1-1-.449-1-1 .449-1 1-1zM7 6c.551 0 1 .449 1 1s-.449 1-1 1-1-.449-1-1 .449-1 1-1z"/></g></svg>
