<svg xmlns="http://www.w3.org/2000/svg" viewBox="0 0 30 30"><style>.st2{fill:#333}</style><g id="Layer_1"><path class="st2" d="M5 21h20a1 1 0 0 0 .99-.858l2-14a1.002 1.002 0 0 0-1.64-.901l-6.171 5.289-4.365-6.111A1 1 0 0 0 15.023 4c-.33-.037-.615.134-.81.382l-4.83 6.149-5.705-5.266a1 1 0 0 0-1.668.877l2 14A1 1 0 0 0 5 21zm3.822-8.265a1 1 0 0 0 1.464-.117l4.676-5.951 4.224 5.914a.998.998 0 0 0 1.464.178l4.985-4.272L24.133 19H5.867L4.387 8.642l4.435 4.093zM25 22H5a1 1 0 1 0 0 2h20a1 1 0 1 0 0-2z"/></g></svg>
