<svg xmlns="http://www.w3.org/2000/svg" viewBox="0 0 30 30"><style>.st2{fill:#333}</style><g id="Layer_1"><path class="st2" d="M5.607 19.432c.145-.89.88-1.57 1.783-1.656l17.915-1.619-.773 1.55a4.614 4.614 0 0 1 1.748.975l1.614-3.236a1 1 0 0 0-.984-1.442l-3.11.281-1.363-3.636A1 1 0 0 0 21.5 10H14a1 1 0 0 0-1 1v4.26l-5.795.525a3.999 3.999 0 0 0-3.571 3.32l-.232 1.398c.6.018 1.266.07 2.003.142l.202-1.213zM15 12h5.807l.927 2.472L15 15.08V12z"/><path class="st2" d="M27.023 21.997c-.137-.062-.426-.51-.598-.778-.522-.809-1.235-1.917-2.662-2.17-1.416-.246-3.123.43-5.368 2.134-2.7 2.05-8.04 1.488-11.939 1.077-1.364-.144-2.542-.268-3.456-.268a1 1 0 1 0 0 2c.81 0 1.938.12 3.247.257 1.78.188 3.835.404 5.868.404 2.801 0 5.56-.412 7.49-1.878 2.146-1.629 3.26-1.845 3.81-1.756.53.094.855.547 1.328 1.282.484.754 1.088 1.691 2.257 1.691.552 0 1.01-.445 1.01-.997a.988.988 0 0 0-.987-.998z"/></g></svg>
