<svg xmlns="http://www.w3.org/2000/svg" viewBox="0 0 30 30"><style>.st2{fill:#333}</style><g id="Layer_1"><path class="st2" d="M28 8.655C28 6.088 25.934 4 23.393 4c-1.225 0-2.346.48-3.244 1.389L20 5.54l-.122-.123C19.057 4.517 17.864 4 16.608 4c-1.1 0-2.097.407-2.89 1.059-.043.013-.087.01-.128.029l-10 4.5A1 1 0 0 0 3 10.5c0 .74.266 1.375.77 1.835 1.103 1.01 3.032.92 4.69.778l-5.165 5.124a1 1 0 0 0 1.41 1.42l7-6.947A1 1 0 0 0 11 11h-1c-.349 0-.808.04-1.321.085-.943.085-2.613.235-3.343-.09l6.733-3.03c-.034.227-.069.454-.069.69 0 1.232.472 2.361 1.366 3.266l5.248 5.316-4.838 5.073a1 1 0 0 0 1.448 1.38l5.905-6.192 5.506-5.577C27.527 11.016 28 9.887 28 8.655zm-2.79 1.86l-4.782 4.846c-.024.02-.054.03-.076.053l-.358.375-5.206-5.273C14.265 9.986 14 9.36 14 8.655 14 7.19 15.17 6 16.607 6c.706 0 1.343.272 1.82.793l.861.873c.375.38 1.049.38 1.424 0l.861-.873c.52-.526 1.132-.793 1.82-.793C24.83 6 26 7.19 26 8.655c0 .705-.266 1.33-.79 1.86z"/><path class="st2" d="M15.709 17.295a1 1 0 0 0-1.415-.004l-6.508 6.478a1 1 0 0 0 1.411 1.418l6.509-6.478a1 1 0 0 0 .003-1.414zM13.207 14.793a1 1 0 0 0-1.414 0L4.27 22.306a1 1 0 0 0 1.412 1.416l7.524-7.514a1 1 0 0 0 .002-1.414z"/></g></svg>
