<svg xmlns="http://www.w3.org/2000/svg" viewBox="0 0 30 30"><style>.st2{fill:#333}</style><g id="Layer_1"><path class="st2" d="M27.895 24.566L26 20.766V10c0-1.654-1.346-3-3-3H7c-1.654 0-3 1.346-3 3v10.764l-1.895 3.802a1.002 1.002 0 0 0-.105.447V27a1 1 0 0 0 1 1h24a1 1 0 0 0 1-1v-1.987a.996.996 0 0 0-.105-.447zM6 10c0-.551.449-1 1-1h16a1 1 0 0 1 1 1v10H6V10zm20 16H4v-.752L5.62 22h18.76L26 25.248V26z"/><path class="st2" d="M14 15h-2.586l.293-.293a1 1 0 1 0-1.414-1.414l-2 2a1 1 0 0 0 0 1.415l2 1.999a.997.997 0 0 0 1.414 0 1 1 0 0 0 0-1.414L11.414 17H14a1 1 0 1 0 0-2zM21.706 12.292l-1.999-1.999a1 1 0 1 0-1.414 1.414l.293.293H16a1 1 0 0 0 0 2h2.586l-.293.293a1 1 0 1 0 1.414 1.414l2-2a1 1 0 0 0 .216-1.089.997.997 0 0 0-.217-.326z"/></g></svg>
