<svg xmlns="http://www.w3.org/2000/svg" viewBox="0 0 30 30"><style>.st2{fill:#333}</style><g id="Layer_1"><path class="st2" d="M25 24H6V5a1 1 0 0 0-2 0v20a1 1 0 0 0 1 1h20a1 1 0 1 0 0-2z"/><path class="st2" d="M9 22h1a1 1 0 0 0 1-1v-6a1 1 0 0 0-1-1H9a1 1 0 0 0-1 1v6a1 1 0 0 0 1 1zM14 22h1a1 1 0 0 0 1-1V11a1 1 0 0 0-1-1h-1a1 1 0 0 0-1 1v10a1 1 0 0 0 1 1zM19 22h1a1 1 0 0 0 1-1v-8a1 1 0 0 0-1-1h-1a1 1 0 0 0-1 1v8a1 1 0 0 0 1 1zM25 6h-1a1 1 0 0 0-1 1v14a1 1 0 0 0 1 1h1a1 1 0 0 0 1-1V7a1 1 0 0 0-1-1z"/></g></svg>
