<svg xmlns="http://www.w3.org/2000/svg" viewBox="0 0 30 30"><style>.st2{fill:#333}</style><g id="Layer_1"><circle class="st2" cx="4" cy="16" r="2"/><circle class="st2" cx="10" cy="16" r="2"/><circle class="st2" cx="4" cy="10" r="2"/><circle class="st2" cx="10" cy="10" r="2"/><circle class="st2" cx="16" cy="10" r="2"/><circle class="st2" cx="4" cy="4" r="2"/><circle class="st2" cx="10" cy="4" r="2"/><circle class="st2" cx="16" cy="4" r="2"/><path class="st2" d="M23.45 21H20v-4.5c0-1.654-1.346-3-3-3s-3 1.346-3 3V24h-2c-1.654 0-3 1.346-3 3v1h2v-1a1 1 0 0 1 1-1h3a1 1 0 0 0 1-1v-8.5a1 1 0 0 1 2 0V22a1 1 0 0 0 1 1h4.45A2.552 2.552 0 0 1 26 25.55V28h2v-2.45A4.555 4.555 0 0 0 23.45 21z"/></g></svg>
