<svg xmlns="http://www.w3.org/2000/svg" viewBox="0 0 30 30"><style>.st2{fill:#333}</style><g id="Layer_1"><path class="st2" d="M25.435 11.85l-9.002-9.245c-.76-.78-2.106-.78-2.866 0l-9 9.245C4.2 12.225 4 12.72 4 13.243V27a1 1 0 0 0 1 1h20a1 1 0 0 0 1-1V13.243c0-.522-.2-1.017-.565-1.393zM24 26H6l-.001-12.754 9-9.247L24 13.243V26z"/><path class="st2" d="M7 17c0 4.411 3.589 8 8 8s8-3.589 8-8-3.589-8-8-8-8 3.589-8 8zm9.086-3h-2.173c.3-1.723.798-2.739 1.087-2.97.289.231.788 1.247 1.086 2.97zm.216 2c.016.322.031.647.031 1s-.015.678-.031 1h-2.604c-.016-.322-.032-.647-.032-1s.016-.678.032-1h2.604zM21 17c0 .341-.035.674-.09 1h-2.602c.015-.332.025-.666.025-1s-.01-.668-.025-1h2.602c.055.326.09.659.09 1zm-7.086 3h2.172c-.298 1.723-.797 2.739-1.086 2.97-.289-.231-.788-1.247-1.086-2.97zm-2.223-2h-2.6C9.034 17.674 9 17.341 9 17s.035-.674.09-1h2.601c-.014.332-.025.666-.025 1s.01.668.025 1zm-1.88 2h2.064c.128.881.318 1.705.571 2.421A6.03 6.03 0 0 1 9.812 20zm7.742 2.422c.254-.717.443-1.54.572-2.422h2.063a6.031 6.031 0 0 1-2.634 2.422zM20.188 14h-2.063c-.129-.881-.318-1.705-.572-2.422A6.03 6.03 0 0 1 20.188 14zm-7.742-2.421c-.253.716-.443 1.54-.571 2.421H9.812a6.03 6.03 0 0 1 2.634-2.421z"/></g></svg>
