<svg xmlns="http://www.w3.org/2000/svg" viewBox="0 0 30 30"><style>.st2{fill:#333}</style><g id="Layer_1"><path class="st2" d="M14.405 10L11 20h1.888l.696-2.004h3.678L17.928 20H20l-3.474-10h-2.12zm-.39 6.466l1.355-4.256h.01l1.406 4.256h-2.77z"/><path class="st2" d="M23.998 4H6a1 1 0 0 0-1 1v3H4a1 1 0 0 0 0 2h1v4H4a1 1 0 0 0 0 2h1v4H4a1 1 0 1 0 0 2h1v3a1 1 0 0 0 1 1h16.003A3 3 0 0 0 25 23.003v-7.174A3.005 3.005 0 0 0 27 13V7.002A3.005 3.005 0 0 0 23.998 4zM25 13a1 1 0 0 1-1 1 1 1 0 0 0-1 1v8.003c0 .55-.447.997-.997.997H7v-2h1a1 1 0 1 0 0-2H7v-4h1a1 1 0 0 0 0-2H7v-4h1a1 1 0 0 0 0-2H7V6h16.998C24.551 6 25 6.45 25 7.002V13z"/></g></svg>
