<svg xmlns="http://www.w3.org/2000/svg" viewBox="0 0 30 30"><style>.st2{fill:#333}</style><g id="Layer_1"><path class="st2" d="M27 24a1 1 0 1 0 0-2h-7v-3.259A4.701 4.701 0 0 0 19.113 16H24a1 1 0 0 0 1-1V9a1 1 0 1 0-2 0v5H12.674a3.99 3.99 0 0 0-2.715 1.062l-5.637 5.204a1 1 0 1 0 1.356 1.468l4.475-4.13A4.69 4.69 0 0 0 10 18.74V22H3a1 1 0 1 0 0 2 1 1 0 0 0-1 1v2a1 1 0 0 0 1 1h24a1 1 0 0 0 1-1v-2a1 1 0 0 0-1-1zm-15-5.259A2.744 2.744 0 0 1 14.742 16h.516A2.744 2.744 0 0 1 18 18.741L17.967 22H17.5a1 1 0 1 0 0 2h-5a1 1 0 1 0 0-2H12v-3.259z"/><path class="st2" d="M10.5 10h1c.018 0 .033-.01.05-.01C12.244 11.185 13.523 12 15 12c1.478 0 2.757-.815 3.45-2.01.017 0 .032.01.05.01h1c.884 0 1.5-.822 1.5-2s-.616-2-1.5-2h-1c-.018 0-.033.01-.05.01C17.756 4.815 16.477 4 15 4c-1.478 0-2.757.815-3.45 2.01-.017 0-.032-.01-.05-.01h-1c-.555 0-1.037.339-1.289.906A2.751 2.751 0 0 0 9 8c0 1.178.617 2 1.5 2zM15 6c1.103 0 2 .897 2 2s-.897 2-2 2-2-.897-2-2 .897-2 2-2z"/></g></svg>
