<svg xmlns="http://www.w3.org/2000/svg" viewBox="0 0 30 30"><style>.st2{fill:#333}</style><g id="Layer_1"><circle class="st2" cx="23" cy="23" r="1"/><circle class="st2" cx="19" cy="23" r="1"/><circle class="st2" cx="11" cy="23" r="1"/><circle class="st2" cx="7" cy="23" r="1"/><circle class="st2" cx="15" cy="23" r="1"/><path class="st2" d="M15 16c3.86 0 7-3.14 7-7s-3.14-7-7-7-7 3.14-7 7 3.14 7 7 7zm0-12c2.757 0 5 2.243 5 5s-2.243 5-5 5-5-2.243-5-5 2.243-5 5-5zM27 18H3a1 1 0 0 0-1 1v8a1 1 0 0 0 1 1h24a1 1 0 0 0 1-1v-8a1 1 0 0 0-1-1zm-1 8H4v-6h22v6z"/></g></svg>
