<svg xmlns="http://www.w3.org/2000/svg" viewBox="0 0 30 30"><style>.st2{fill:#333}</style><g id="Layer_1"><path class="st2" d="M19.5 19.06V19a1 1 0 1 0-2 0H13a1 1 0 1 0-2 0v.016c-3.336.169-6 2.928-6 6.305V27a1 1 0 0 0 1 1h18a1 1 0 0 0 1-1v-1.679c0-3.206-2.402-5.857-5.5-6.261zM23 26H7v-.679c0-2.273 1.77-4.121 4-4.289v.652A2.995 2.995 0 0 0 9 24.5a1 1 0 1 0 2 0 1 1 0 0 1 2 0 1 1 0 1 0 2 0 2.995 2.995 0 0 0-2-2.816V21h4.5v1.39a1.49 1.49 0 0 0-.5 1.11 1.5 1.5 0 0 0 3 0 1.49 1.49 0 0 0-.5-1.11v-1.307a4.325 4.325 0 0 1 3.5 4.238V26zM15 17c3.86 0 7-3.14 7-7a6.959 6.959 0 0 0-4.024-6.318A3.49 3.49 0 0 0 15 2a3.49 3.49 0 0 0-2.976 1.682A6.958 6.958 0 0 0 8 10c0 3.86 3.14 7 7 7zm0-13c.827 0 1.5.673 1.5 1.5S15.827 7 15 7s-1.5-.673-1.5-1.5S14.173 4 15 4zm-3.388 2.335A3.499 3.499 0 0 0 15 9c1.64 0 3.011-1.14 3.388-2.665A4.972 4.972 0 0 1 20 10c0 2.757-2.243 5-5 5s-5-2.243-5-5c0-1.429.606-2.738 1.612-3.665z"/></g></svg>
