<svg xmlns="http://www.w3.org/2000/svg" viewBox="0 0 30 30"><style>.st2{fill:#333}</style><g id="Layer_1"><path class="st2" d="M6 17.5C6 19.583 7.063 21 9 21c1.71 0 3-1.274 3-3.5 0-2.083-1.063-3.5-3-3.5-1.71 0-3 1.274-3 3.5zm4.286 0c0 1.307-.431 1.944-1.286 1.944-.988 0-1.286-.628-1.286-1.944 0-1.307.431-1.944 1.286-1.944.988.008 1.286.62 1.286 1.944zM25 15.556V14h-4.5v7H25v-1.555h-2.7v-1.556h2.25v-1.167H22.3v-1.167z"/><path class="st2" d="M20 26H4V8c0-2.206 1.794-4 4-4h12v7h2V3a1 1 0 0 0-1-1H8C4.691 2 2 4.691 2 8v19a1 1 0 0 0 1 1h18a1 1 0 0 0 1-1v-3h-2v2z"/><path class="st2" d="M15.464 14H13.5v7h1.571v-4.667L17.036 21H19v-7h-1.571v4.667z"/></g></svg>
