<svg xmlns="http://www.w3.org/2000/svg" viewBox="0 0 30 30"><style>.st2{fill:#333}</style><g id="Layer_1"><path class="st2" d="M20 26H4V8c0-2.21 1.815-4 4.04-4H20v7h2V3c0-.55-.453-1-1.007-1H8.04C4.708 2 2 4.69 2 8v19c0 .55.453 1 1.007 1h17.986c.554 0 1.007-.45 1.007-1v-3h-2v2z"/><path class="st2" d="M23.008 15.515c0-.497.487-.754 1.329-.687.523.041 1.052.29 1.541.468l.436-2.131c-.511-.122-1.386-.25-1.853-.25-2.245 0-3.461 1.189-3.461 2.845 0 2.959 4.306 2.322 3.99 3.79-.145.67-1.048.728-1.671.672-.731-.066-1.364-.326-1.942-.569l-.21 2.245c.622.155 1.289.232 2.122.232C25.883 22.13 27 20.69 27 19c0-2.782-3.992-2.105-3.992-3.485zM14 13v9h2v-3c.155.01.418 0 .5 0 1.876 0 3.5-1 3.5-3 0-2.5-2-3-4-3h-2zm2.5 1.5c1 0 1.5.5 1.5 1.5s-.5 1.5-1.5 1.5c-.09 0-.39.01-.5 0v-3c.118-.01.373 0 .5 0zM12 15v-2H7v9h5v-2H9v-2h2.5v-1.5H9V15z"/></g></svg>
