<svg xmlns="http://www.w3.org/2000/svg" viewBox="0 0 30 30"><style>.st2{fill:#333}</style><g id="Layer_1"><path class="st2" d="M20 26H4V8c0-2.21 1.79-4 4-4h12v7h2V3c0-.55-.45-1-1-1H8C4.69 2 2 4.69 2 8v19c0 .55.45 1 1 1h18c.55 0 1-.45 1-1v-3h-2v2z"/><path class="st2" d="M13 13v5.832c0 1.787.663 3.318 3.377 3.318 2.266 0 3.623-1.162 3.623-3.676V13h-2v5.541c0 1.341-.372 1.877-1.484 1.877-1.218 0-1.516-.659-1.516-1.709V13h-2zM26.662 17.223v-.045c.72-.346 1.121-1.095 1.121-1.932C27.783 13.748 26.5 13 25 13h-3v8.982c1.194 0 2.089.023 2.603.023 2.388 0 3.397-1.267 3.397-2.767.02-.938-.546-1.791-1.338-2.015zM24.5 20.5H24V18c.144-.011.397 0 .5 0 .916 0 1.493.541 1.493 1.234-.01.67-.639 1.266-1.493 1.266zm0-4c-.216 0-.346.011-.5 0v-2c.206-.011.212 0 .5 0 .782 0 1.5.23 1.5 1 0 .67-.574 1-1.5 1zM6 13v9h2v-3c.155.01.418 0 .5 0 1.876 0 3.5-1 3.5-3 0-2.5-2-3-4-3H6zm2.5 1.5c1 0 1.5.5 1.5 1.5s-.5 1.5-1.5 1.5c-.09 0-.39.01-.5 0v-3c.118-.01.373 0 .5 0z"/></g></svg>
