<svg xmlns="http://www.w3.org/2000/svg" viewBox="0 0 30 30"><style>.st2{fill:#333}</style><g id="Layer_1"><path class="st2" d="M20 26H4V8c0-2.21 1.79-4 4-4h12v7h2V3c0-.55-.45-1-1-1H8C4.69 2 2 4.69 2 8v19c0 .55.45 1 1 1h18c.55 0 1-.45 1-1v-3h-2v2z"/><path class="st2" d="M23 13h-3v9h2.5c3 0 4.5-1.392 4.5-4.5 0-3.22-1.5-4.5-4-4.5zm0 7.5h-1v-6h1c1.5 0 2 1.295 2 3 0 1.941-1 3-2 3zM15.36 20.092c-.73-.066-1.364-.326-1.942-.569l-.21 2.245c.622.155 1.29.232 2.123.232 2.593 0 3.71-1.44 3.71-3.13 0-2.782-3.992-2.106-3.992-3.486 0-.496.487-.753 1.33-.686.522.04 1.051.29 1.54.468l.436-2.131c-.51-.122-1.386-.25-1.853-.25-2.245 0-3.46 1.189-3.46 2.845 0 2.959 4.305 2.322 3.989 3.79-.145.67-1.047.728-1.671.672zM8.835 19.604l-2-6.604h-2l3 9h2l3-9h-2l-1.97 6.604z"/></g></svg>
