<svg xmlns="http://www.w3.org/2000/svg" viewBox="0 0 30 30"><style>.st2{fill:#333}</style><g id="Layer_1"><path class="st2" d="M27 13a1 1 0 0 0-1 1v5H4v-5a1 1 0 0 0-2 0v12a1 1 0 0 0 1 1h24a1 1 0 0 0 1-1V14a1 1 0 0 0-1-1zM4 25v-4h22v4H4z"/><path class="st2" d="M7 17h16a1 1 0 0 0 1-1V6c0-1.654-1.346-3-3-3H9C7.346 3 6 4.346 6 6v10a1 1 0 0 0 1 1zM8 6c0-.551.449-1 1-1h12a1 1 0 0 1 1 1v9H8V6z"/><path class="st2" d="M19 7h-8a1 1 0 0 0 0 2h8a1 1 0 1 0 0-2zM16 11h-5a1 1 0 0 0 0 2h5a1 1 0 1 0 0-2z"/></g></svg>
