<svg xmlns="http://www.w3.org/2000/svg" viewBox="0 0 30 30"><style>.st2{fill:#333}</style><g id="Layer_1"><path class="st2" d="M27 16h-4.434l-2.709-4.515A.999.999 0 0 0 19 11h-5.01l.01-1a1 1 0 0 0-2 0v1H7c-.409 0-.776.249-.929.628L4.323 16H3a1 1 0 0 0-1 1v4c0 .43.275.813.684.948l2.982.994A2.994 2.994 0 0 0 8.5 25a2.995 2.995 0 0 0 2.816-2h7.868c.414 1.161 1.514 2 2.816 2s2.402-.839 2.816-2H27a1 1 0 0 0 1-1v-5a1 1 0 0 0-1-1zm-13.198-3h4.632l1.8 3h-7.099l.667-3zm-6.125 0h4.076l-.666 3h-4.61l1.2-3zM8.5 23a1 1 0 0 1 0-2 1 1 0 0 1 0 2zM22 23a1 1 0 1 1 .001-2.001A1 1 0 0 1 22 23zm4-2h-1.184c-.414-1.161-1.514-2-2.816-2s-2.402.839-2.816 2h-7.868A2.995 2.995 0 0 0 8.5 19c-1.249 0-2.32.768-2.77 1.856L4 20.279V18h22v3z"/><path class="st2" d="M13.5 7.5c.827 0 1.5.673 1.5 1.5a1 1 0 0 0 2 0c0-1.93-1.57-3.5-3.5-3.5a1 1 0 0 0 0 2z"/><path class="st2" d="M13.5 4.5C15.981 4.5 18 6.519 18 9a1 1 0 1 0 2 0c0-3.584-2.916-6.5-6.5-6.5a1 1 0 0 0 0 2z"/></g></svg>
