<svg xmlns="http://www.w3.org/2000/svg" viewBox="0 0 30 30"><style>.st2{fill:#333}</style><g id="Layer_1"><path class="st2" d="M24.587 15C26.627 13.776 28 11.548 28 9c0-3.86-3.14-7-7-7-2.548 0-4.775 1.373-6 3.413C13.776 3.373 11.548 2 9 2 5.14 2 2 5.14 2 9c0 2.548 1.373 4.776 3.413 6C3.373 16.225 2 18.452 2 21c0 3.86 3.14 7 7 7 2.548 0 4.776-1.373 6-3.413C16.225 26.627 18.452 28 21 28c3.86 0 7-3.14 7-7 0-2.548-1.373-4.775-3.413-6zM21 4c2.757 0 5 2.243 5 5s-2.243 5-5 5c-.419 0-.813-.066-1.193-.163a3.982 3.982 0 0 0-3.36-2.792A4.929 4.929 0 0 1 16 9c0-2.757 2.243-5 5-5zm-5 13h-2c-1.103 0-2-.897-2-2s.897-2 2-2h2c1.103 0 2 .897 2 2 0 1.102-.898 2-2 2zM4 9c0-2.757 2.243-5 5-5s5 2.243 5 5c0 .716-.158 1.412-.447 2.045a3.982 3.982 0 0 0-3.36 2.792C9.813 13.934 9.419 14 9 14c-2.757 0-5-2.243-5-5zm5 17c-2.757 0-5-2.243-5-5s2.243-5 5-5c.42 0 .813.066 1.193.163a3.982 3.982 0 0 0 3.36 2.792c.289.634.447 1.33.447 2.045 0 2.757-2.243 5-5 5zm12 0c-2.757 0-5-2.243-5-5 0-.716.158-1.411.447-2.045a3.981 3.981 0 0 0 3.36-2.792A4.8 4.8 0 0 1 21 16c2.757 0 5 2.243 5 5s-2.243 5-5 5z"/><path class="st2" d="M11.707 6.293a1 1 0 0 0-1.414 0l-4 4a1 1 0 1 0 1.414 1.414l4-4a1 1 0 0 0 0-1.414zM22.293 18.293l-4 4a1 1 0 1 0 1.414 1.414l4-4a1 1 0 1 0-1.414-1.414zM22.293 11.707a.997.997 0 0 0 1.414 0 1 1 0 0 0 0-1.414l-4-4a1 1 0 1 0-1.414 1.414l4 4zM7.707 18.293a1 1 0 1 0-1.414 1.414l4 4a.997.997 0 0 0 1.414 0 1 1 0 0 0 0-1.414l-4-4z"/></g></svg>
