<svg xmlns="http://www.w3.org/2000/svg" viewBox="0 0 30 30"><path d="M22.5 17c-.134 0-.265.01-.396.02L20.794 12H22a1 1 0 0 0 .447-.105l2-1a1 1 0 1 0-.894-1.79l-1.79.895H19.5a1 1 0 0 0-.968 1.252l.326 1.248h-6.202L12.28 11H13a1 1 0 0 0 0-2H9a1 1 0 0 0 0 2h1.22l.5 2H5V6h2.184A2.995 2.995 0 0 0 10 8h1a.986.986 0 0 0 .847-.5H13a1 1 0 0 0 0-2h-1v-1h1a1 1 0 0 0 0-2h-1.153A.986.986 0 0 0 11 2h-1a2.995 2.995 0 0 0-2.816 2H4a1 1 0 0 0-1 1v9a1 1 0 0 0 1 1h6.132l-1.11 2.219A5.475 5.475 0 0 0 7.5 17C4.467 17 2 19.468 2 22.5S4.467 28 7.5 28a5.506 5.506 0 0 0 5.46-4.862l2.106-.14a1 1 0 0 0 .818-.53l3.734-7.054.55 2.112A5.503 5.503 0 0 0 17 22.5c0 3.032 2.468 5.5 5.5 5.5s5.5-2.468 5.5-5.5-2.468-5.5-5.5-5.5zM10 4v2c-.551 0-1-.449-1-1s.449-1 1-1zm1.616 12.505l1.236 4.636-.028.002a5.505 5.505 0 0 0-2.015-3.026l.807-1.612zm-1.727 3.452c.388.365.689.815.88 1.323l-1.594.106.714-1.43zM7.5 26C5.57 26 4 24.43 4 22.5S5.57 19 7.5 19c.206 0 .405.026.601.06l-1.496 2.993a1 1 0 0 0 .961 1.445l3.34-.223A3.502 3.502 0 0 1 7.5 26zm7.91-6.911L14.185 14.5h3.653l-2.43 4.589zM22.5 26c-1.93 0-3.5-1.57-3.5-3.5a3.49 3.49 0 0 1 1.69-2.98l.842 3.232a1 1 0 0 0 1.936-.504l-.844-3.235A3.498 3.498 0 0 1 26 22.5c0 1.93-1.57 3.5-3.5 3.5z" fill="#333"/></svg>
