<svg xmlns="http://www.w3.org/2000/svg" viewBox="0 0 30 30"><path d="M22.5 16c-.134 0-.265.01-.396.02L20.794 11H22a1 1 0 0 0 .447-.105l2-1a1 1 0 1 0-.894-1.79L21.763 9H19.5a1 1 0 0 0-.968 1.252l.326 1.248h-6.202L12.28 10H13a1 1 0 0 0 0-2H9a1 1 0 0 0 0 2h1.22l.637 2.55-1.835 3.669A5.475 5.475 0 0 0 7.5 16C4.467 16 2 18.468 2 21.5S4.467 27 7.5 27a5.506 5.506 0 0 0 5.46-4.862l2.106-.14a1 1 0 0 0 .818-.53l3.734-7.054.55 2.112A5.503 5.503 0 0 0 17 21.5c0 3.032 2.468 5.5 5.5 5.5s5.5-2.468 5.5-5.5-2.468-5.5-5.5-5.5zM9.857 22.015l-1.8 3a.999.999 0 1 1-1.714-1.03l.89-1.485H6a1 1 0 0 1-.857-1.515l1.8-3a1 1 0 1 1 1.714 1.03l-.89 1.485H9a1 1 0 0 1 .857 1.515zm2.966-1.872a5.505 5.505 0 0 0-2.014-3.025l.807-1.613 1.236 4.636-.029.002zm2.586-2.054L14.186 13.5h3.653l-2.43 4.589zM22.5 25c-1.93 0-3.5-1.57-3.5-3.5a3.49 3.49 0 0 1 1.69-2.98l.842 3.232a1 1 0 0 0 1.936-.504l-.844-3.235A3.498 3.498 0 0 1 26 21.5c0 1.93-1.57 3.5-3.5 3.5z" fill="#333"/></svg>
