<svg xmlns="http://www.w3.org/2000/svg" viewBox="0 0 30 30"><style>.st2{fill:#333}</style><g id="Layer_1"><path class="st2" d="M21 8H9c-2.206 0-4 1.794-4 4v15a1 1 0 0 0 1 1h18a1 1 0 0 0 1-1V12c0-2.206-1.794-4-4-4zm2 18H7V12c0-1.103.897-2 2-2h12c1.103 0 2 .897 2 2v14zM17.707 5.707L19 4.414l1.293 1.293a.997.997 0 0 0 1.414 0 1 1 0 0 0 0-1.414l-2-2a1 1 0 0 0-1.414 0l-2 2a1 1 0 1 0 1.414 1.414zM10.293 5.707a.997.997 0 0 0 1.414 0l2-2a1 1 0 1 0-1.414-1.414L11 3.586 9.707 2.293a1 1 0 1 0-1.414 1.414l2 2z"/><path class="st2" d="M12 16c-1.103 0-2 .897-2 2v2a1 1 0 0 0 1 1v3a1 1 0 1 0 2 0v-3a1 1 0 0 0 1-1v-2c0-1.102-.897-2-2-2zM18 16c-1.103 0-2 .897-2 2v2a1 1 0 0 0 1 1v3a1 1 0 1 0 2 0v-3a1 1 0 0 0 1-1v-2c0-1.102-.898-2-2-2z"/><circle class="st2" cx="12" cy="13.5" r="1.5"/><circle class="st2" cx="18" cy="13.5" r="1.5"/></g></svg>
