<svg xmlns="http://www.w3.org/2000/svg" viewBox="0 0 30 30"><style>.st2{fill:#333}</style><g id="Layer_1"><path class="st2" d="M25 15a1 1 0 0 0 1-1v-2a1 1 0 0 0-1-1c-.97 0-2 .701-2 2s1.03 2 2 2z"/><path class="st2" d="M23.5 16c-.108 0-.208.024-.314.032l-2.229-7.323A1 1 0 0 0 20 8h-3a1 1 0 1 0 0 2h2.259l.355 1.166c-.71-.19-1.534-.213-2.392-.016-1.285.296-2.29.998-2.829 1.85H7c-.03 0-.054.014-.083.017-.117-.005-.231-.017-.35-.017H6a1 1 0 0 0-2 0v1a1 1 0 0 0 1 1h1.567c2.757 0 4.899 1.877 5.34 4.5h-1.028c-.457-2-2.242-3.5-4.379-3.5C4.019 16 2 18.019 2 20.5S4.019 25 6.5 25c2.137 0 3.922-1.5 4.38-3.5H17a1 1 0 0 0 1-1c0-2.327 1.157-4.102 3.012-4.74l.26.854C19.922 17.392 19 18.833 19 20.5c0 2.481 2.019 4.5 4.5 4.5s4.5-2.019 4.5-4.5-2.019-4.5-4.5-4.5zM8.395 20.947l-1 2a1 1 0 1 1-1.79-.894l.277-.553H5.5a1 1 0 0 1-.894-1.447l1-2a1.001 1.001 0 0 1 1.789.894l-.277.553H7.5a1 1 0 0 1 .895 1.447zm7.682-1.447h-2.144c-.218-1.799-1.018-3.358-2.221-4.5h2.35c.316 1.088 1.4 1.806 2.773 1.943-.395.76-.647 1.624-.758 2.557zm2.003-4.618c-1.148.262-2.03-.098-2.112-.452s.557-1.067 1.702-1.33c.275-.063.535-.09.772-.09.752 0 1.278.273 1.34.542.081.356-.556 1.067-1.702 1.33zM23.5 23a2.502 2.502 0 0 1-2.5-2.5c0-.758.346-1.43.88-1.888l.663 2.18a1.001 1.001 0 0 0 1.914-.583l-.663-2.18A2.494 2.494 0 0 1 26 20.5c0 1.379-1.121 2.5-2.5 2.5z"/></g></svg>
