<svg xmlns="http://www.w3.org/2000/svg" viewBox="0 0 30 30"><style>.st2{fill:#333}</style><g id="Layer_1"><path class="st2" d="M26 6H8a1 1 0 0 0-.788.384l-5 6.4A1.001 1.001 0 0 0 2 13.4v8.37C2 22.998 2.897 24 4 24h22c1.103 0 2-1.001 2-2.23V8.23C28 7.001 27.102 6 26 6zm0 15.77a.417.417 0 0 1-.061.23l-21.858.021c-.026-.02-.081-.11-.081-.252v-8.025L8.488 8l17.432-.021c.024.02.08.11.08.252V21.77z"/><path class="st2" d="M23 10h-8a1 1 0 0 0-1 1v8a1 1 0 0 0 1 1h8a1 1 0 1 0 0-2h-7v-2h7a1 1 0 0 0 1-1v-4a1 1 0 0 0-1-1zm-1 4h-6v-2h6v2z"/></g></svg>
