<svg xmlns="http://www.w3.org/2000/svg" viewBox="0 0 30 30"><style>.st2{fill:#333}</style><g id="Layer_1"><path class="st2" d="M9.293 7.293l-7 7a1 1 0 0 0 0 1.414l7 7a.997.997 0 0 0 1.414 0 1 1 0 0 0 0-1.414L4.414 15l6.293-6.293a1 1 0 1 0-1.414-1.414zM27.707 14.293l-7-7a1 1 0 1 0-1.414 1.414L25.586 15l-6.293 6.293a1 1 0 1 0 1.414 1.414l7-7a1 1 0 0 0 0-1.414z"/><circle class="st2" cx="15" cy="15" r="1.5"/><circle class="st2" cx="9.5" cy="15" r="1.5"/><circle class="st2" cx="20.5" cy="15" r="1.5"/></g></svg>
