<svg xmlns="http://www.w3.org/2000/svg" viewBox="0 0 30 30"><style>.st2{fill:#333}</style><g id="Layer_1"><path class="st2" d="M23 10c1.654 0 3-1.346 3-3s-1.346-3-3-3-3 1.346-3 3 1.346 3 3 3zm0-4a1 1 0 0 1 0 2 1 1 0 0 1 0-2zM25 14h-3.723a2.943 2.943 0 0 0-.197-2.48A2.963 2.963 0 0 0 18.473 10H13.5a1 1 0 0 0-.848.47l-2.5 4a1 1 0 1 0 1.696 1.06L14.054 12h1.68l-3.591 5.985c-.017.027-.024.057-.037.085a.993.993 0 0 0-.105.425L12 18.5V22H7a1 1 0 1 0 0 2h6a1 1 0 0 0 1-1v-3.5h3.046L20 22.876V27a1 1 0 1 0 2 0v-4.5a1 1 0 0 0-.247-.658l-3.02-3.452L20.165 16H25a1 1 0 1 0 0-2zm-8.066 3.5h-2.168l3.3-5.5h.407c.524 0 .78.353.867.506s.257.555-.013 1.004l-2.393 3.99zM9.293 8.293a1 1 0 1 0 1.414 1.414l3-3a1 1 0 0 0 0-1.414l-3-3a1 1 0 1 0-1.414 1.414L10.586 5H5a1 1 0 0 0 0 2h5.586L9.293 8.293z"/></g></svg>
