<svg xmlns="http://www.w3.org/2000/svg" viewBox="0 0 30 30"><path d="M27.509 12.099l-3.312-1.96a1.001 1.001 0 0 0-1.373.358 9.035 9.035 0 0 1-3.226 3.243c-2.781 1.649-6.411 1.65-9.198-.001a9.032 9.032 0 0 1-3.223-3.242 1.002 1.002 0 0 0-1.374-.358L2.49 12.1a1 1 0 0 0 1.018 1.721l2.485-1.47c.682.96 1.517 1.803 2.464 2.498l-1.353 2.705a1 1 0 1 0 1.79.894l1.29-2.58c1.199.583 2.487.944 3.815 1.066V20.5a1 1 0 1 0 2 0v-3.567a10.996 10.996 0 0 0 3.815-1.066l1.29 2.58a1 1 0 0 0 1.79-.894l-1.352-2.704a11.058 11.058 0 0 0 2.464-2.499l2.484 1.47A.999.999 0 1 0 27.51 12.1z" fill="#333"/></svg>
