<svg xmlns="http://www.w3.org/2000/svg" viewBox="0 0 30 30"><style>.st2{fill:#333}</style><g id="Layer_1"><path class="st2" d="M24 2h-2c-1.103 0-2 .887-2 1.978v7.404l-6.553-3.277A1.002 1.002 0 0 0 12 9v2.424L4.926 8.095A1.002 1.002 0 0 0 3.5 9v16a1 1 0 0 0 1 1H25a1 1 0 0 0 1-1V3.978C26 2.888 25.102 2 24 2zm0 1.978v9.404l-2-1V4l2-.022zM5.5 24V10.576l7.074 3.329A1 1 0 0 0 14 13v-2.382l6.553 3.277L24 15.618V24H5.5z"/><path class="st2" d="M13 16H9a1 1 0 0 0-1 1v4a1 1 0 0 0 1 1h4a1 1 0 0 0 1-1v-4a1 1 0 0 0-1-1zm-1 4h-2v-2h2v2zM21 16h-4a1 1 0 0 0-1 1v4a1 1 0 0 0 1 1h4a1 1 0 0 0 1-1v-4a1 1 0 0 0-1-1zm-1 4h-2v-2h2v2z"/></g></svg>
