<svg xmlns="http://www.w3.org/2000/svg" viewBox="0 0 30 30"><style>.st2{fill:#333}</style><g id="Layer_1"><path class="st2" d="M14.618 13.082L9.448 11.2a.993.993 0 0 0-1.054.236c-8.528 8.623-4.452 13.832-4.274 14.05a1 1 0 0 0 .071.077l2.172 2.148c.195.193.45.289.703.289a.994.994 0 0 0 .711-.297l4.923-4.977a1 1 0 0 0-.008-1.415l-2.133-2.109 4.427-4.477a1 1 0 0 0-.368-1.643zm-6.184 5.425a1 1 0 0 0 .007 1.414l2.134 2.11-3.516 3.555-1.409-1.393c-.305-.432-2.627-4.202 3.722-10.892l3.095 1.127-4.033 4.079zM27.953 11.591l-.92-2.912a.9.9 0 0 0-.036-.099c-.114-.257-2.886-6.263-14.451-2.61a.999.999 0 0 0-.463 1.598l3.496 4.14a.998.998 0 0 0 1.064.308l1.825-.576.904 2.861a1 1 0 0 0 1.254.653l6.675-2.108a1 1 0 0 0 .652-1.255zm-6.976 1.155l-.904-2.862a1 1 0 0 0-1.254-.652l-2.142.676-2.07-2.452c8.192-2.127 10.328 1.48 10.54 1.892l.598 1.892-4.768 1.506z"/></g></svg>
