<svg xmlns="http://www.w3.org/2000/svg" viewBox="0 0 30 30"><path d="M28 10a1 1 0 0 0-1-1h-3.268l2.83-1.634a1 1 0 1 0-1-1.732l-2.83 1.634 1.634-2.83a1 1 0 1 0-1.732-1L21 6.268V3a1 1 0 1 0-2 0v3.268l-1.634-2.83a1 1 0 1 0-1.732 1l1.633 2.83-2.829-1.634a1 1 0 1 0-1 1.732L16.268 9H13a1 1 0 0 0 0 2h.586l-8.293 8.293a1 1 0 1 0 1.414 1.414L16.414 11h1.172L2.293 26.293a1 1 0 1 0 1.414 1.414L19 12.414v1.172L6.293 26.293a1 1 0 1 0 1.414 1.414L19 16.414V17a1 1 0 1 0 2 0v-3.267l1.634 2.83a.999.999 0 1 0 1.732-1l-1.634-2.83 2.83 1.633a1 1 0 0 0 1-1.732L23.733 11H27a1 1 0 0 0 1-1z" fill="#333"/></svg>
