<svg xmlns="http://www.w3.org/2000/svg" viewBox="0 0 30 30"><style>.st2{fill:#333}</style><g id="Layer_1"><path class="st2" d="M17 14H9c-1.654 0-3 1.346-3 3s1.346 3 3 3 3-1.346 3-3c0-.352-.072-.686-.184-1h2.368A2.966 2.966 0 0 0 14 17c0 1.654 1.346 3 3 3s3-1.346 3-3-1.346-3-3-3zm-7 3a1 1 0 0 1-2 0 1 1 0 0 1 2 0zm7 1a1 1 0 1 1 .001-2.001A1 1 0 0 1 17 18z"/><path class="st2" d="M27.615 12.212a.998.998 0 0 0-.857-.182L24 12.72V11c0-1.654-1.346-3-3-3h-7.101A5.008 5.008 0 0 0 9 4H3a1 1 0 0 0-1 1v18c0 1.654 1.346 3 3 3h16c1.654 0 3-1.346 3-3v-1.72l2.758.69A1 1 0 0 0 28 21v-8a.998.998 0 0 0-.385-.788zM9 6c1.302 0 2.402.839 2.816 2H5c-.352 0-.686.072-1 .184V6h5zm13 17a1 1 0 0 1-1 1H5a1 1 0 0 1-1-1V11c0-.551.449-1 1-1h16a1 1 0 0 1 1 1v12zm4-3.281l-2-.5v-4.438l2-.5v5.438z"/></g></svg>
