<svg xmlns="http://www.w3.org/2000/svg" viewBox="0 0 30 30">
  <style>.st1{fill:#333}</style>
  <g id="Layer_1">
    <path class="st1" d="M15 12c1.66 0 3-1.34 3-3s-1.34-3-3-3-3 1.34-3 3 1.34 3 3 3zm0-4c.55 0 1 .45 1 1s-.45 1-1 1-1-.45-1-1 .45-1 1-1z"/>
    <path class="st1" d="M26.97 24h-2.61A12.95 12.95 0 0 0 28 15c0-7.17-5.83-13-13-13S2 7.83 2 15s5.83 13 13 13c2.53 0 4.89-.74 6.9-2h5.07c.55 0 1-.45 1-1s-.45-1-1-1zM15 26C8.93 26 4 21.07 4 15S8.93 4 15 4s11 4.93 11 11-4.93 11-11 11z"/>
    <path class="st1" d="M21 12c-1.66 0-3 1.34-3 3s1.34 3 3 3 3-1.34 3-3-1.34-3-3-3zm0 4c-.55 0-1-.45-1-1s.45-1 1-1 1 .45 1 1-.45 1-1 1zM15 18c-1.66 0-3 1.34-3 3s1.34 3 3 3 3-1.34 3-3-1.34-3-3-3zm0 4c-.55 0-1-.45-1-1s.45-1 1-1 1 .45 1 1-.45 1-1 1zM9 12c-1.66 0-3 1.34-3 3s1.34 3 3 3 3-1.34 3-3-1.34-3-3-3zm0 4c-.55 0-1-.45-1-1s.45-1 1-1 1 .45 1 1-.45 1-1 1z"/>
  </g>
</svg>
