<svg xmlns="http://www.w3.org/2000/svg" viewBox="0 0 30 30"><path d="M27.484 14.126a.998.998 0 0 0-1.014.026l-2.499 1.562a2.994 2.994 0 0 0-1.755-2.45A5.98 5.98 0 0 0 24 9c0-3.309-2.691-6-6-6a5.997 5.997 0 0 0-5 2.69A5.997 5.997 0 0 0 8 3C4.691 3 2 5.691 2 9a5.98 5.98 0 0 0 1.784 4.263A3 3 0 0 0 2 16v8c0 1.654 1.346 3 3 3h16c1.556 0 2.825-1.196 2.971-2.714l2.499 1.562a.996.996 0 0 0 1.014.027c.319-.177.516-.512.516-.875V15a1 1 0 0 0-.516-.874zM18 5c2.206 0 4 1.794 4 4s-1.794 4-4 4-4-1.794-4-4 1.794-4 4-4zm-4.46 8h-1.08c.195-.217.378-.446.54-.69.162.244.345.473.54.69zM8 5c2.206 0 4 1.794 4 4s-1.794 4-4 4-4-1.794-4-4 1.794-4 4-4zm14 19a1 1 0 0 1-1 1H5a1 1 0 0 1-1-1v-8c0-.551.449-1 1-1h16a1 1 0 0 1 1 1v8zm4-.805l-2-1.25v-3.89l2-1.25v6.39z" fill="#333"/></svg>
