<svg xmlns="http://www.w3.org/2000/svg" viewBox="0 0 30 30"><style>.st2{fill:#333}</style><g id="Layer_1"><path class="st2" d="M6.207 5.936h6.05V4H4v16h2.207v-7.246h5.734v-1.937H6.207zM24.407 13.278c-1.811-1.83-3.242-3.275-2.447-5.998a1.001 1.001 0 0 0-1.412-1.172c-3.65 1.85-3.928 5.577-3.65 8.639a10.616 10.616 0 0 1-.817-1.32 1 1 0 0 0-1.518-.333c-.105.084-2.563 2.107-2.563 7.004C12 24.455 15.589 28 20 28s8-3.545 8-7.902c0-3.193-1.908-5.12-3.593-6.82zM20 26c-3.309 0-6-2.647-6-5.902 0-2.198.564-3.638 1.063-4.48.619.914 1.573 2.068 2.74 2.652a1 1 0 0 0 1.437-1.036l-.076-.518c-.42-2.852-.662-5.557.595-7.379.23 2.321 1.8 3.906 3.227 5.348C24.536 16.25 26 17.728 26 20.098 26 23.353 23.309 26 20 26z"/></g></svg>
