<svg xmlns="http://www.w3.org/2000/svg" viewBox="0 0 30 30"><style>.st2{fill:#333}</style><g id="Ebene_2"><path class="st2" d="M25.956 14.706c-.018-.06-1.56-4.863-6.06-6.59A4.954 4.954 0 0 0 15 4h-2a1 1 0 0 0-1 1v3.88c-1.72 1.103-3.01 2.66-3.846 3.897C7.238 10.764 6.056 9 4 9a1 1 0 0 0-1 1v10a1 1 0 0 0 1 1c2.383 0 3.375-1.92 4.1-3.676C9.716 19.77 12.546 22 16.5 22c3.162 0 5.37-1.299 6.853-2.751a.97.97 0 0 0 .132-.139c1.762-1.79 2.452-3.757 2.463-3.794.067-.197.069-.41.008-.61zM6.46 16.046C5.967 17.274 5.566 18.18 5 18.646v-7.19c.74.694 1.336 2.087 1.91 3.512-.16.355-.307.722-.451 1.08zM14 6h1a2.97 2.97 0 0 1 2.623 1.57c-.362-.04-.732-.07-1.123-.07-.896 0-1.727.158-2.5.416V6zm8.334 11.467a13.36 13.36 0 0 1-3.941-.777 1.003 1.003 0 0 0-1.282.6c-.187.519.08 1.093.6 1.281.756.275 1.532.483 2.32.635-.964.475-2.125.794-3.531.794-3.997 0-6.435-2.943-7.39-4.957.784-1.406 3.427-5.543 7.39-5.543 4.962 0 6.964 4.269 7.434 5.485a9.026 9.026 0 0 1-1.6 2.482z"/><path class="st2" d="M19 11c-1.654 0-3 1.346-3 3a1 1 0 1 0 2 0 1 1 0 0 1 2 0 1 1 0 1 0 2 0c0-1.654-1.346-3-3-3z"/></g></svg>
