<svg xmlns="http://www.w3.org/2000/svg" viewBox="0 0 30 30"><style>.st2{fill:#333}</style><g id="Layer_1"><path class="st2" d="M14.993 9.986h.014c1.65 0 2.993-1.343 2.993-2.993A3 3 0 0 0 14.993 4C13.343 4 12 5.342 12 6.993s1.342 2.993 2.993 2.993zM15.007 6a.994.994 0 0 1 0 1.986h-.014A.994.994 0 0 1 14 6.993.997.997 0 0 1 15.007 6z"/><path class="st2" d="M27 8h-2a1 1 0 0 0-1 1v1.5H6V9a1 1 0 0 0-1-1H3a1 1 0 0 0-1 1v5a1 1 0 0 0 1 1h2a1 1 0 0 0 1-1v-1.5h2.146c.01.018.01.038.022.055l2 3a.998.998 0 0 0 1.539.152l.293-.293V19c0 .654.216 1.256.573 1.75l-2.128 1.418A1 1 0 0 0 10 23v4a1 1 0 1 0 2 0v-3.465L14.303 22h1.401l2.294 1.487L18 27a1 1 0 0 0 2 0l-.002-4.057a1 1 0 0 0-.456-.839l-2.107-1.365c.352-.492.565-1.09.565-1.739v-3.586l.293.293a1 1 0 0 0 1.539-.152l2-3c.011-.017.012-.037.022-.055H24V14a1 1 0 0 0 1 1h2a1 1 0 0 0 1-1V9a1 1 0 0 0-1-1zM14 19v-5.007c0-.552.449-1 1-1s1 .448 1 1V19a1 1 0 0 1-2 0zm-2.845-5.57l-.62-.93h1.55l-.93.93zm7.69 0l-.93-.93h1.55l-.62.93z"/></g></svg>
