<svg xmlns="http://www.w3.org/2000/svg" viewBox="0 0 30 30"><style>.st2{fill:#333}</style><g id="Layer_1"><path class="st2" d="M2.969 11l1.246-3.114A2.995 2.995 0 0 1 6.873 6.01L7.677 4h4.188l-.445 2h2.049l.444-2h4.52l1.254 2.09a2.99 2.99 0 0 1 1.885 1.367L22.5 9H26v2h1c.352 0 .686.072 1 .184V8a1 1 0 0 0-1-1h-4.434l-2.709-4.515A.999.999 0 0 0 19 2H7c-.409 0-.776.249-.929.628L4.323 7H3a1 1 0 0 0-1 1v3.184c.305-.108.627-.18.969-.184z"/><path class="st2" d="M2.969 17l1.246-3.114a2.995 2.995 0 0 1 2.658-1.876L7.677 10h4.188l-.445 2h2.049l.444-2h4.52l1.254 2.09a2.991 2.991 0 0 1 1.885 1.367L22.5 15H26v2h1c.352 0 .686.072 1 .184V14a1 1 0 0 0-1-1h-4.434l-2.709-4.515A.999.999 0 0 0 19 8H7c-.409 0-.776.249-.929.628L4.323 13H3a1 1 0 0 0-1 1v3.184c.305-.108.627-.18.969-.184zM20.4 19a1 1 0 0 0 1 1h.6l-1.106-1.843A.985.985 0 0 0 20.4 19zM6.42 19.136a.994.994 0 0 0-.58-1.234L5.1 19.75l.055.018c.524.173 1.09-.11 1.264-.633z"/><path class="st2" d="M27 19h-4.434l-2.709-4.515A.999.999 0 0 0 19 14H7c-.409 0-.776.249-.929.628L4.323 19H3a1 1 0 0 0-1 1v4c0 .43.275.813.684.948l2.982.994A2.994 2.994 0 0 0 8.5 28a2.995 2.995 0 0 0 2.816-2h7.868c.414 1.161 1.514 2 2.816 2s2.402-.839 2.816-2H27a1 1 0 0 0 1-1v-5a1 1 0 0 0-1-1zm-6.766 0h-6.988l.667-3h4.52l1.8 3zM7.677 16h4.188l-.667 3h-4.72l1.2-3zM8.5 26a1 1 0 0 1 0-2 1 1 0 0 1 0 2zM22 26a1 1 0 1 1 .001-2.001A1 1 0 0 1 22 26zm4-2h-1.184c-.414-1.161-1.514-2-2.816-2s-2.402.839-2.816 2h-7.868A2.995 2.995 0 0 0 8.5 22c-1.249 0-2.32.768-2.77 1.856L4 23.279V21h22v3z"/></g></svg>
