<svg xmlns="http://www.w3.org/2000/svg" viewBox="0 0 30 30"><style>.st2{fill:#333}</style><g id="Layer_1"><path class="st2" d="M27 22v-.48c0-1.94-1.58-3.52-3.52-3.52h-9.96A3.524 3.524 0 0 0 10 21.52V22a1 1 0 1 0 0 2v.48c0 1.94 1.58 3.52 3.52 3.52h9.96c1.94 0 3.52-1.58 3.52-3.52V24a1 1 0 1 0 0-2zm-15-.48c0-.838.682-1.52 1.52-1.52h9.96c.838 0 1.52.682 1.52 1.52V22H12v-.48zm13 2.96c0 .838-.682 1.52-1.52 1.52h-9.96c-.838 0-1.52-.682-1.52-1.52V24h13v.48z"/><path class="st2" d="M11.997 10H16.9l-.57 6h2.009l.656-6.905A.997.997 0 0 0 18 8h-4.612l1.56-4.684a1 1 0 0 0-1.897-.632L11.28 8H5a1 1 0 0 0-.995 1.104l1.79 17a1 1 0 0 0 1.99-.209L6.11 10h5.886z"/></g></svg>
