<svg xmlns="http://www.w3.org/2000/svg" viewBox="0 0 30 30"><style>.st2{fill:#333}</style><g id="Layer_1"><path class="st2" d="M15.59 9.42a.99.99 0 0 0-1.18 0L9.8 12.78c-.35.25-.5.71-.36 1.12l1.76 5.42c.13.41.37.68.8.68h6c.43-.01.67-.28.8-.69l1.76-5.42c.13-.41-.01-.86-.36-1.12l-4.61-3.35zM17.12 18h-4.24l-1.31-4.03 3.43-2.5 3.43 2.49L17.12 18z"/><path class="st2" d="M15 2C7.83 2 2 7.83 2 15s5.83 13 13 13 13-5.83 13-13S22.17 2 15 2zm9.94 8.31c.39.83.69 1.71.87 2.64l-1.39-1.01.52-1.63zM15 4c.47 0 .93.04 1.38.1l-1.39 1.01-1.38-1.01c.45-.06.92-.1 1.39-.1zm-9.93 6.31l.52 1.63-1.39 1.01c.18-.93.47-1.81.87-2.64zM7.47 23h1.71l.53 1.64c-.81-.45-1.56-1.01-2.24-1.64zm12.82 1.64l.53-1.64h1.71c-.67.63-1.42 1.19-2.24 1.64zM20.11 21a1 1 0 0 0-.95.69l-1.27 3.92c-.94.25-1.9.39-2.89.39s-1.95-.14-2.87-.39l-1.27-3.92a1.01 1.01 0 0 0-.95-.69H5.79a10.774 10.774 0 0 1-1.76-5.45l3.33-2.42c.35-.25.5-.71.36-1.12L6.45 8.1c1.21-1.5 2.8-2.66 4.63-3.36l3.33 2.42c.18.13.38.19.59.19s.41-.06.59-.19l3.33-2.42c1.83.7 3.43 1.87 4.64 3.36l-1.27 3.91c-.13.41.01.86.36 1.12l3.33 2.42c-.1 2-.73 3.87-1.76 5.45h-4.11z"/></g></svg>
