<svg xmlns="http://www.w3.org/2000/svg" viewBox="0 0 30 30"><style>.st2{fill:#333}</style><g id="Layer_1"><path class="st2" d="M7.586 21.096c.506.235.99.52 1.402.904h.024a5.2 5.2 0 0 1 .782-.587L7.26 13.68 15 11.056l7.741 2.623-2.254 6.875c.69-.055 1.381 0 2.05.168l2.413-7.36a1 1 0 0 0-.629-1.26L21 10.977V10h2a1 1 0 0 0 1-1V6a1 1 0 0 0-1-1h-6V4a1 1 0 0 0-1-1h-2a1 1 0 0 0-1 1v1H7a1 1 0 0 0-1 1v3a1 1 0 0 0 1 1h2v.977l-3.32 1.125a1 1 0 0 0-.63 1.26l2.536 7.734zM10 8H8V7h14v1h-2a1 1 0 0 0-1 1v1.3l-3.68-1.247a1.002 1.002 0 0 0-.64 0L11 10.299V9a1 1 0 0 0-1-1zM27.707 23.543a1 1 0 0 0-1.414 0c-.572.572-2.014.572-2.586 0-1.39-1.393-4.023-1.393-5.414 0-.604.604-1.982.604-2.586 0-1.392-1.393-4.023-1.393-5.414 0-.605.604-1.981.604-2.586 0-1.392-1.393-4.023-1.393-5.414 0a1 1 0 1 0 1.414 1.414c.572-.572 2.014-.572 2.586 0 1.391 1.393 4.022 1.393 5.414 0 .604-.603 1.981-.603 2.586 0 1.392 1.393 4.023 1.393 5.414 0 .604-.603 1.982-.603 2.586 0 .695.696 1.701 1.044 2.707 1.044s2.012-.348 2.707-1.044a1 1 0 0 0 0-1.414z"/></g></svg>
