<svg xmlns="http://www.w3.org/2000/svg" viewBox="0 0 30 30"><style>.st2{fill:#333}</style><g id="Layer_1"><path class="st2" d="M12 5a1 1 0 0 0-1-1H5a1 1 0 0 0-.923.618C4.027 4.74 4 4.87 4 5v6a1 1 0 0 0 2 0V7.414l4.293 4.293a.997.997 0 0 0 1.414 0 1 1 0 0 0 0-1.414L7.414 6H11a1 1 0 0 0 1-1zM18 25a1 1 0 0 0 1 1h6a1 1 0 0 0 .923-.618A1 1 0 0 0 26 25v-6a1 1 0 1 0-2 0v3.586l-4.293-4.293a1 1 0 1 0-1.414 1.414L22.586 24H19a1 1 0 0 0-1 1zM11.707 18.293a1 1 0 0 0-1.414 0L6 22.586V19a1 1 0 1 0-2 0v6a1.001 1.001 0 0 0 1 1h6a1 1 0 1 0 0-2H7.414l4.293-4.293a1 1 0 0 0 0-1.414zM26 5a1 1 0 0 0-.618-.923A1.001 1.001 0 0 0 25 4h-6a1 1 0 1 0 0 2h3.586l-4.293 4.293a1 1 0 1 0 1.414 1.414L24 7.414V11a1 1 0 1 0 2 0V5z"/></g></svg>
