<svg xmlns="http://www.w3.org/2000/svg" viewBox="0 0 30 30"><style>.st2{fill:#333}</style><g id="Layer_1"><path class="st2" d="M12 5a1 1 0 0 0-2 0v3.586L5.707 4.293a1 1 0 1 0-1.414 1.414L8.586 10H5a1 1 0 0 0 0 2h6a1 1 0 0 0 .923-.618A.998.998 0 0 0 12 11V5zM26 19a1 1 0 0 0-1-1h-6a1 1 0 0 0-.923.618A.998.998 0 0 0 18 19v6a1 1 0 1 0 2 0v-3.586l4.293 4.293a.997.997 0 0 0 1.414 0 1 1 0 0 0 0-1.414L21.414 20H25a1 1 0 0 0 1-1zM25.707 4.293a1 1 0 0 0-1.414 0L20 8.586V5a1 1 0 1 0-2 0v6a1 1 0 0 0 .618.923A1 1 0 0 0 19 12h6a1 1 0 1 0 0-2h-3.586l4.293-4.293a1 1 0 0 0 0-1.414zM11 26a1 1 0 0 0 1-1v-6a1.001 1.001 0 0 0-1-1H5a1 1 0 1 0 0 2h3.586l-4.293 4.293a1 1 0 1 0 1.414 1.414L10 21.414V25a1 1 0 0 0 1 1z"/></g></svg>
