<svg xmlns="http://www.w3.org/2000/svg" viewBox="0 0 30 30"><style>.st2{fill:#333}</style><g id="Layer_1"><circle class="st2" cx="18.5" cy="12" r="1.5"/><path class="st2" d="M12.7 17.3a.996.996 0 0 0-1.41 0L10 18.59 8.71 17.3a.996.996 0 1 0-1.41 1.41L8.59 20 7.3 21.29a.996.996 0 1 0 1.41 1.41L10 21.41l1.29 1.29a.996.996 0 1 0 1.41-1.41L11.41 20l1.3-1.29a.996.996 0 0 0-.01-1.41z"/><circle class="st2" cx="18.5" cy="8" r="1.5"/><path class="st2" d="M20 2c-2.17 0-4.19.85-5.71 2.4L4.4 14.29A7.924 7.924 0 0 0 2 20c0 4.41 3.59 8 8 8 4.22 0 7.72-3.33 7.98-7.5l2.52-2.52c4.17-.26 7.5-3.76 7.5-7.98 0-4.41-3.59-8-8-8zm.06 14c-.26 0-.51.1-.69.28l-3.08 3.08c-.18.19-.29.44-.29.7-.04 3.28-2.73 5.94-6 5.94-3.31 0-6-2.69-6-6 0-1.62.64-3.14 1.81-4.29l9.91-9.91A5.96 5.96 0 0 1 20 4c3.31 0 6 2.69 6 6 0 3.27-2.66 5.96-5.94 6z"/><circle class="st2" cx="22.5" cy="12" r="1.5"/><circle class="st2" cx="22.5" cy="8" r="1.5"/></g></svg>
