<svg xmlns="http://www.w3.org/2000/svg" viewBox="0 0 30 30"><path d="M25.182 18.41l-7.508-4.13A1.302 1.302 0 0 1 17 13.138c0-.394.18-.764.496-1.014 1.168-.926 1.715-2.427 1.428-3.918a3.977 3.977 0 0 0-3.172-3.138 4.016 4.016 0 0 0-3.314.857A3.991 3.991 0 0 0 11 9a1 1 0 0 0 2 0 1.997 1.997 0 0 1 2.392-1.963c.775.141 1.42.778 1.567 1.548.148.768-.115 1.505-.706 1.973A3.282 3.282 0 0 0 15 13.14a3.3 3.3 0 0 0 1.709 2.891l7.509 4.131A1.512 1.512 0 0 1 23.49 23H6.51C5.677 23 5 22.322 5 21.477c0-.548.297-1.053.777-1.32l7.709-4.283a1 1 0 0 0-.972-1.748l-7.708 4.283A3.516 3.516 0 0 0 3 21.49 3.514 3.514 0 0 0 6.51 25h16.98a3.515 3.515 0 0 0 1.692-6.59z" fill="#333"/></svg>
