<svg xmlns="http://www.w3.org/2000/svg" viewBox="0 0 30 30"><style>.st2{fill:#333}</style><g id="Ebene_3"><path class="st2" d="M26.857 9.75L27.867 8a.998.998 0 0 0 0-1l-1.298-2.25a1 1 0 0 0-.866-.5h-2.027L22.668 2.5a1 1 0 0 0-.866-.5h-2.604a1 1 0 0 0-.866.5l-1.008 1.75h-2.027a1 1 0 0 0-.866.5L13.134 7a1 1 0 0 0 0 1l1.01 1.75-1.01 1.75a1 1 0 0 0 0 1l1.297 2.25a1 1 0 0 0 .866.5h2.027l1.008 1.749c.179.31.509.501.866.501h2.604c.357 0 .687-.19.866-.501l1.008-1.749h2.027a1 1 0 0 0 .866-.5l1.297-2.25a.998.998 0 0 0 0-1l-1.009-1.75zm-1.732 3.5h-2.026c-.044 0-.08.02-.122.025a.972.972 0 0 0-.201.04.952.952 0 0 0-.17.083.952.952 0 0 0-.156.106.971.971 0 0 0-.136.154c-.025.033-.06.055-.082.093L21.224 15.5h-1.448l-1.008-1.75c-.022-.037-.057-.059-.082-.092a.973.973 0 0 0-.135-.154.96.96 0 0 0-.16-.107.956.956 0 0 0-.165-.082.967.967 0 0 0-.206-.041c-.04-.005-.077-.024-.119-.024h-2.026l-.72-1.25 1.01-1.75c.02-.038.023-.08.039-.12a.967.967 0 0 0 .064-.191.958.958 0 0 0 .013-.189.957.957 0 0 0-.013-.189.974.974 0 0 0-.064-.192c-.016-.039-.018-.08-.04-.119l-1.01-1.75.721-1.25h2.026c.044 0 .081-.02.123-.025a.973.973 0 0 0 .2-.04.96.96 0 0 0 .172-.084.96.96 0 0 0 .154-.104.973.973 0 0 0 .137-.156c.025-.033.06-.055.08-.091L19.778 4h1.447l1.008 1.75a.987.987 0 0 0 .152.196l.01.013a.982.982 0 0 0 .36.221 1 1 0 0 0 .343.07H25.125l.72 1.25-1.008 1.75c-.021.038-.023.08-.04.118a.971.971 0 0 0-.064.194.964.964 0 0 0-.014.188c0 .064.001.125.014.189.013.068.038.13.065.193.016.039.018.08.04.117L25.845 12l-.721 1.25z"/><path class="st2" d="M20.5 6.5c-1.655 0-3.002 1.346-3.002 3s1.347 3 3.002 3 3.002-1.346 3.002-3-1.347-3-3.002-3zm0 4c-.553 0-1.002-.449-1.002-1s.45-1 1.002-1 1.002.449 1.002 1-.45 1-1.002 1zM19.491 20.703l-1.07-.602.003-1.21a1 1 0 0 0-.509-.872l-1.579-.89a1 1 0 0 0-.988.003l-1.095.627-1.084-.61a.999.999 0 0 0-.987.002l-1.587.909a1 1 0 0 0-.503.867l-.002 1.215-1.084.62a1 1 0 0 0-.503.868L8.5 23.425a1 1 0 0 0 .51.872l1.068.602-.001 1.21a1 1 0 0 0 .509.872l1.579.89a.997.997 0 0 0 .987-.003l1.095-.626 1.084.61a.996.996 0 0 0 .987-.003l1.587-.908c.31-.178.502-.51.503-.867l.002-1.216 1.085-.62a1 1 0 0 0 .503-.868L20 21.575c0-.361-.194-.694-.509-.872zm-3.082 4.79l-.592.338-1.085-.61c-.034-.02-.072-.02-.107-.035a.97.97 0 0 0-.2-.065.958.958 0 0 0-.186-.014.956.956 0 0 0-.188.015.967.967 0 0 0-.194.065c-.037.015-.076.016-.111.037l-1.095.626-.573-.324.001-1.21c0-.045-.02-.083-.025-.127-.01-.069-.018-.134-.04-.2-.022-.061-.053-.115-.086-.17-.032-.055-.062-.108-.105-.156-.046-.053-.1-.093-.157-.135-.034-.026-.058-.062-.096-.084l-1.069-.602v-.631l1.085-.62c.038-.022.061-.058.095-.084a.98.98 0 0 0 .153-.133.956.956 0 0 0 .107-.159.96.96 0 0 0 .083-.168.975.975 0 0 0 .04-.2c.006-.043.025-.08.025-.123l.002-1.216.592-.34 1.085.611c.034.02.073.02.108.036a.964.964 0 0 0 .198.064.95.95 0 0 0 .186.014.951.951 0 0 0 .19-.015.968.968 0 0 0 .192-.064c.037-.016.077-.017.112-.038l1.095-.626.574.324-.002 1.209c0 .044.02.082.025.126.009.07.017.136.04.202.022.061.053.114.085.168a.957.957 0 0 0 .106.158c.046.053.1.092.155.134.035.026.059.063.098.085l1.069.602v.631l-1.085.62c-.038.022-.061.058-.095.083a.964.964 0 0 0-.153.135.961.961 0 0 0-.105.156.96.96 0 0 0-.084.17.976.976 0 0 0-.041.2c-.006.042-.025.08-.025.122l-.002 1.217z"/><ellipse class="st2" cx="14.25" cy="22.5" rx="1.008" ry="1.005"/><path class="st2" d="M9.073 13.013l.399-.67.826.006h.007a1 1 0 0 0 .86-.488l.691-1.16a1 1 0 0 0-.001-1.027l-.395-.657.386-.648a.999.999 0 0 0-.002-1.026l-.702-1.17a1 1 0 0 0-.851-.485l-.838-.006-.413-.688a1 1 0 0 0-.85-.486L6.79 4.5c-.389-.012-.684.183-.866.488l-.398.67-.827-.006c-.353-.03-.685.183-.866.488l-.692 1.16a1 1 0 0 0 .002 1.027l.394.657-.386.647a1 1 0 0 0 .002 1.027l.703 1.17a1 1 0 0 0 .85.486l.838.005.413.688a1 1 0 0 0 .85.486l1.4.009h.007a1 1 0 0 0 .859-.488zm-1.69-1.517l-.413-.689c-.02-.034-.054-.054-.078-.085a.969.969 0 0 0-.136-.149.963.963 0 0 0-.157-.107.96.96 0 0 0-.168-.08.961.961 0 0 0-.2-.041c-.039-.005-.072-.023-.112-.023l-.838-.006-.105-.176.385-.647c.025-.04.028-.086.046-.128.027-.065.055-.127.069-.196.012-.064.01-.125.01-.188 0-.065.002-.127-.011-.19-.013-.07-.042-.131-.07-.196-.017-.042-.02-.088-.045-.128l-.394-.657.092-.155.826.005h.007c.04 0 .076-.018.115-.023a.972.972 0 0 0 .2-.04.963.963 0 0 0 .171-.08.957.957 0 0 0 .155-.105.976.976 0 0 0 .14-.153c.024-.032.057-.052.078-.087l.4-.669.264.002.414.688c.035.06.08.109.126.158.01.011.017.025.028.035a.985.985 0 0 0 .278.19c.025.012.05.02.075.03.107.04.217.067.331.07l.012.002.838.006.106.175-.386.648c-.024.04-.027.084-.044.125-.028.066-.057.13-.07.2-.012.063-.01.123-.01.187s-.002.126.01.19c.014.07.042.13.07.195.018.043.021.088.046.13l.394.656-.093.155-.827-.005h-.006c-.041 0-.076.018-.116.023a.97.97 0 0 0-.199.04.96.96 0 0 0-.172.08.957.957 0 0 0-.154.104.973.973 0 0 0-.14.154c-.024.032-.057.052-.078.087l-.4.669-.264-.001z"/></g></svg>
