<svg xmlns="http://www.w3.org/2000/svg" viewBox="0 0 30 30"><style>.st2{fill:#333}</style><g id="Layer_1"><path class="st2" d="M16.053 16.5a1 1 0 0 0 .865-.499l1.447-2.5a.999.999 0 0 0 0-1.002L17.208 10.5l1.157-1.999a.999.999 0 0 0 0-1.002l-1.447-2.5a1 1 0 0 0-.865-.499h-2.327l-1.158-2.001A1.001 1.001 0 0 0 11.702 2H8.798c-.357 0-.687.19-.866.499L6.774 4.5H4.447c-.357 0-.687.19-.866.499l-1.447 2.5c-.179.31-.179.692 0 1.002L3.291 10.5l-1.157 1.999c-.179.31-.179.692 0 1.002l1.447 2.5c.18.309.509.499.866.499h2.327l1.158 2.001c.18.309.509.499.866.499h2.904c.357 0 .687-.19.866-.499l1.158-2.001h2.327zm-4.928.5h-1.75l-1.158-2.001c-.022-.038-.057-.06-.083-.094A.967.967 0 0 0 8 14.754a.958.958 0 0 0-.158-.107.955.955 0 0 0-.169-.082.976.976 0 0 0-.2-.04c-.042-.006-.079-.025-.122-.025H5.023L4.155 13l1.158-1.999c.021-.038.023-.08.04-.119a.982.982 0 0 0 .065-.193.964.964 0 0 0 .013-.189c0-.064-.001-.125-.013-.189a.975.975 0 0 0-.065-.193c-.017-.04-.019-.081-.04-.119L4.155 8l.869-1.5H7.35c.042 0 .077-.019.117-.024a.97.97 0 0 0 .207-.041c.06-.021.112-.05.166-.081A.955.955 0 0 0 8 6.246a.977.977 0 0 0 .134-.151c.026-.034.06-.056.083-.094L9.374 4h1.751l1.158 2.001a.994.994 0 0 0 .151.195l.01.013c.083.082.18.142.282.19.026.012.051.021.078.031a1 1 0 0 0 .343.07H15.476l.869 1.5-1.157 1.999c-.022.037-.024.078-.04.117a.967.967 0 0 0-.066.196.957.957 0 0 0-.013.188c0 .064 0 .124.013.188a.977.977 0 0 0 .066.196c.016.039.018.08.04.117L16.345 13l-.869 1.5h-2.327c-.042 0-.077.019-.117.024a.97.97 0 0 0-.207.041.963.963 0 0 0-.166.081.959.959 0 0 0-.159.108.977.977 0 0 0-.134.151c-.026.034-.061.056-.083.094L11.126 17z"/><path class="st2" d="M13.666 10.5c0-1.877-1.532-3.405-3.416-3.405S6.833 8.623 6.833 10.5s1.533 3.405 3.417 3.405 3.416-1.528 3.416-3.405zm-3.416 1.405c-.781 0-1.417-.63-1.417-1.405s.636-1.405 1.417-1.405 1.417.63 1.417 1.405-.636 1.405-1.417 1.405zM25.499 20.344l-1.158-.66.002-1.333a1 1 0 0 0-.504-.87l-1.663-.949a.999.999 0 0 0-.997.003l-1.175.68-1.164-.663a1 1 0 0 0-.996.004l-1.672.969a1 1 0 0 0-.5.864v1.34l-1.175.68a1 1 0 0 0-.498.864l-.003 1.915c0 .36.193.692.505.87l1.158.66-.002 1.334a1 1 0 0 0 .504.869l1.663.95a1.001 1.001 0 0 0 .997-.004l1.175-.68 1.164.664a1.004 1.004 0 0 0 .996-.004l1.672-.97a.999.999 0 0 0 .5-.863v-1.34l1.175-.68c.308-.18.497-.509.498-.864l.003-1.915a1 1 0 0 0-.505-.871zm-3.17 5.092l-.678.392-1.164-.664c-.038-.022-.08-.023-.118-.04a.976.976 0 0 0-.191-.062.964.964 0 0 0-.19-.013.95.95 0 0 0-.187.014.972.972 0 0 0-.195.066c-.038.016-.079.018-.115.039l-1.175.68-.658-.375.001-1.334c0-.044-.02-.082-.025-.124a.975.975 0 0 0-.04-.2.96.96 0 0 0-.085-.173.959.959 0 0 0-.104-.155.98.98 0 0 0-.154-.134c-.035-.026-.058-.062-.097-.085l-1.157-.659.001-.759 1.175-.68c.038-.022.06-.058.094-.083a.978.978 0 0 0 .15-.134.955.955 0 0 0 .108-.159.964.964 0 0 0 .08-.167.972.972 0 0 0 .042-.204c.005-.04.024-.076.024-.118v-1.34l.678-.39 1.164.663c.037.021.078.022.116.038a.97.97 0 0 0 .197.065.95.95 0 0 0 .177.012.956.956 0 0 0 .202-.015.977.977 0 0 0 .182-.062c.04-.017.083-.02.122-.042l1.175-.68.658.376-.001 1.334c0 .043.02.081.025.124a.971.971 0 0 0 .04.2.961.961 0 0 0 .085.172.971.971 0 0 0 .104.155.973.973 0 0 0 .154.134c.035.027.058.063.097.085l1.157.659-.001.759-1.175.68c-.038.022-.06.058-.094.084a.977.977 0 0 0-.15.133.958.958 0 0 0-.108.16.956.956 0 0 0-.08.166.981.981 0 0 0-.042.204c-.005.04-.024.076-.024.118v1.34z"/><ellipse class="st2" cx="20" cy="22.201" rx="1.011" ry="1.02"/></g></svg>
