<svg xmlns="http://www.w3.org/2000/svg" viewBox="0 0 30 30"><style>.st2{fill:#333}</style><g id="Layer_1"><circle class="st2" cx="23" cy="7" r="1"/><path class="st2" d="M22.227 15.545h-.068c-.233.597-.665 1.08-1.199 1.42.012.179.04.355.04.535 0 .87-.133 1.71-.377 2.5H9.668a19.314 19.314 0 0 1-.168-2.5c0-1.065.077-2.078.23-3.025.5-3.418 1.795-5.462 2.846-5.471h.018c.24.034.542.219.862.576l1.03-1.1a7.823 7.823 0 0 1-.031-.707V7.76c.001-.185.015-.367.028-.55a11.287 11.287 0 0 0-1.628-.19h-.006a2.7 2.7 0 0 0-.665-.004C6.541 7.186 2 11.817 2 17.5 2 23.29 6.71 28 12.5 28S23 23.29 23 17.5c0-.672-.07-1.335-.194-1.984-.192.014-.383.03-.579.03zM12.5 26c-.818 0-1.867-1.473-2.479-4h4.959c-.61 2.523-1.661 4-2.48 4zM4 17.5c0-.87.132-1.71.376-2.5h3.28c-.093.801-.156 1.63-.156 2.5 0 .873.063 1.702.155 2.5H4.377A8.47 8.47 0 0 1 4 17.5zm5.048-7.76c-.453.899-.82 2-1.084 3.26H5.302a8.542 8.542 0 0 1 3.746-3.26zM5.302 22h2.663c.265 1.268.634 2.365 1.088 3.263A8.544 8.544 0 0 1 5.303 22zm10.647 3.262c.454-.898.823-1.996 1.087-3.262h2.662a8.545 8.545 0 0 1-3.75 3.262z"/><path class="st2" d="M22.227 2a5.78 5.78 0 0 0-5.773 5.773c0 .461.055.916.163 1.36L12.27 13.77a.999.999 0 0 0-.27.684V17a1 1 0 0 0 1 1h3.818a1 1 0 0 0 1-1v-1.545h1.545a1 1 0 0 0 1-1V13.24A5.78 5.78 0 0 0 28 7.773 5.78 5.78 0 0 0 22.227 2zm0 9.545c-.829 0-1.61-.26-2.257-.754a1 1 0 0 0-1.607.795v1.869h-1.545a1 1 0 0 0-1 1V16H14v-1.15l4.47-4.77a.998.998 0 0 0 .21-1.03 3.708 3.708 0 0 1-.226-1.277A3.777 3.777 0 0 1 22.227 4 3.777 3.777 0 0 1 26 7.773a3.777 3.777 0 0 1-3.773 3.772z"/></g></svg>
