<svg xmlns="http://www.w3.org/2000/svg" viewBox="0 0 30 30"><style>.st2{fill:#333}</style><g id="Layer_1"><path class="st2" d="M18 17h9v-1a1.173 1.173 0 0 0-.052-.316l-2.316-6.949A3.993 3.993 0 0 0 20.838 6H19a1 1 0 1 0 0 2h1.838c.862 0 1.624.55 1.897 1.368L24.612 15H5.388l1.877-5.633A1.997 1.997 0 0 1 9.162 8H11a1 1 0 0 0 0-2H9.162c-1.725 0-3.25 1.1-3.794 2.735L3.05 15.684a.99.99 0 0 0-.045.29c0 .009-.006.017-.006.026v8a1 1 0 0 0 1 1h8c1.103 0 2-.897 2-2v-5a1 1 0 0 1 2 0v5c0 1.103.897 2 2 2h8a1 1 0 0 0 1-1v-1h-9v-6zm-6 6H5v-6h7v6z"/><path class="st2" d="M22.275 21.129c-.203 0-.381-.023-.554-.083l-.083.93c.173.054.423.09.674.09 1.043 0 1.717-.525 1.717-1.384 0-.4-.232-.776-.685-.913l.012-.018a.876.876 0 0 0 .596-.848c0-.596-.459-1.007-1.253-1.007-.364 0-.752.077-1.014.184l.09.89c.19-.09.399-.144.608-.144.316 0 .418.155.418.317 0 .172-.186.435-.973.41v.866c.895-.137 1.027.132 1.027.328 0 .215-.221.382-.58.382zM25.855 17.943c-.585 0-1.134.018-1.45.036v4.01c.406.023.841.035 1.277.035 1.306 0 2.17-.763 2.17-2.142 0-1.455-.823-1.939-1.997-1.939zm-.085 3.12c-.13 0-.209-.005-.255-.017v-2.154c.083-.012.148-.012.28-.012.74 0 .858.465.858 1.092 0 .752-.387 1.091-.883 1.091z"/></g></svg>
