<svg xmlns="http://www.w3.org/2000/svg" viewBox="0 0 30 30"><style>.st2{fill:#333}</style><g id="Layer_1"><path class="st2" d="M11 22a1 1 0 1 0 0 2h4a1 1 0 1 0 0-2h-4zM18 18.66a9.529 9.529 0 0 1-2.206-.919l-.026.026c-.473.473-1.1.733-1.768.733s-1.295-.26-1.768-.732a2.503 2.503 0 0 1 0-3.536l.027-.026A9.43 9.43 0 0 1 11 9.5c0-1.237.245-2.415.676-3.5H8v14h10v-1.34z"/><path class="st2" d="M20.5 19l-.027-.002H20V25a1 1 0 0 1-1 1H7a1 1 0 0 1-1-1V5c0-.551.449-1 1-1h5.768a9.564 9.564 0 0 1 1.922-2H7C5.346 2 4 3.346 4 5v20c0 1.654 1.346 3 3 3h12c1.654 0 3-1.346 3-3v-6.002h-1.464L20.5 19z"/><path class="st2" d="M27 2h-6.5C16.364 2 13 5.364 13 9.5c0 1.708.58 3.279 1.545 4.541l-1.252 1.252a1 1 0 1 0 1.414 1.414l1.252-1.252A7.453 7.453 0 0 0 20.5 17c4.136 0 7.5-3.364 7.5-7.5V3a1 1 0 0 0-1-1zm-1 7.5c0 3.033-2.468 5.5-5.5 5.5a5.466 5.466 0 0 1-3.114-.972l1.528-1.528H23a1 1 0 1 0 0-2h-2.086l2.793-2.793a1 1 0 1 0-1.414-1.414L19.5 9.086V7a1 1 0 1 0-2 0v4.086l-1.528 1.528A5.466 5.466 0 0 1 15 9.5C15 6.467 17.468 4 20.5 4H26v5.5z"/></g></svg>
