<svg xmlns="http://www.w3.org/2000/svg" viewBox="0 0 30 30"><style>.st2{fill:#333}</style><g id="Layer_1"><path class="st2" d="M25 20.77v-2.906c-.627.338-1.299.6-2 .791V20H6v-9.09c0-.502.408-.91.91-.91h4.124c-.01-.167-.034-.33-.034-.5 0-.512.052-1.01.13-1.5H6.91A2.914 2.914 0 0 0 4 10.91v9.86l-1.898 3.887a.995.995 0 0 0-.102.439V27a1 1 0 0 0 1 1h23a1 1 0 0 0 1-1v-1.904c0-.153-.035-.302-.102-.439L25 20.77zM25 26H4v-.673L5.625 22h17.75L25 25.327V26z"/><path class="st2" d="M8 18h4.515c-.097-.073-.195-.145-.282-.232a2.503 2.503 0 0 1 0-3.536l.026-.026a9.529 9.529 0 0 1-.92-2.206H8v6zM27 2h-6.5C16.364 2 13 5.364 13 9.5c0 1.708.58 3.279 1.545 4.541l-1.252 1.252a1 1 0 1 0 1.414 1.414l1.252-1.252A7.453 7.453 0 0 0 20.5 17c4.136 0 7.5-3.364 7.5-7.5V3a1 1 0 0 0-1-1zm-1 7.5c0 3.033-2.468 5.5-5.5 5.5a5.466 5.466 0 0 1-3.114-.972l1.528-1.528H23a1 1 0 1 0 0-2h-2.086l2.793-2.793a1 1 0 1 0-1.414-1.414L19.5 9.086V7a1 1 0 1 0-2 0v4.086l-1.528 1.528A5.466 5.466 0 0 1 15 9.5C15 6.467 17.468 4 20.5 4H26v5.5z"/></g></svg>
