<svg xmlns="http://www.w3.org/2000/svg" viewBox="0 0 30 30"><style>.st2{fill:#333}</style><g id="Layer_1"><path class="st2" d="M19.056 23.55h-2.112V21H15v7h1.944v-2.759h2.112V28H21v-7h-1.944zM24.522 21c-1.017 0-1.973.03-2.522.062v6.877c.706.041 1.463.061 2.221.061C26.494 28 28 26.69 28 24.326 28 21.829 26.567 21 24.522 21zm-.145 5.352c-.228 0-.363-.01-.446-.03v-3.694c.145-.021.26-.021.487-.021 1.288 0 1.496.798 1.496 1.873 0 1.29-.676 1.872-1.537 1.872zM27.862 11.507a1.002 1.002 0 0 0-.415-1.401c-.485-.243-1.225-1.165-1.941-2.056C23.793 5.919 21.448 3 18 3a4.692 4.692 0 0 0-3 1.07A4.692 4.692 0 0 0 12 3C8.552 3 6.207 5.919 4.495 8.05c-.717.891-1.457 1.813-1.942 2.055a1.001 1.001 0 0 0-.415 1.402C2.354 11.874 7.514 20.5 15 20.5s12.645-8.626 12.862-8.993zM15 10c3.562 0 7.164.738 9.41 1.306-2.008.963-5.364 2.194-9.41 2.194-4.029 0-7.39-1.233-9.403-2.196C7.842 10.737 11.441 10 15 10zm-3-5a2.745 2.745 0 0 1 2.173 1.062c.373.55 1.29.547 1.66-.007A2.754 2.754 0 0 1 18 5c2.4 0 4.263 2.213 5.774 4.09C21.444 8.556 18.239 8 15 8c-3.246 0-6.445.558-8.776 1.093C7.735 7.214 9.599 5 12 5zm-5.575 8.847C8.61 14.7 11.56 15.5 15 15.5c3.434 0 6.387-.796 8.571-1.649C21.564 16.044 18.528 18.5 15 18.5c-3.53 0-6.568-2.46-8.575-4.653z"/></g></svg>
