<svg xmlns="http://www.w3.org/2000/svg" viewBox="0 0 30 30"><path d="M28 15c0-3.539-1.425-6.748-3.727-9.095-.029-.031-.05-.067-.08-.098a12.908 12.908 0 0 0-5.17-3.163c-.06-.019-.117-.044-.177-.063-.24-.073-.485-.128-.729-.187-.181-.045-.359-.099-.543-.136-.092-.018-.186-.026-.278-.042A12.98 12.98 0 0 0 15 2c-.796 0-1.571.083-2.328.22-.08.015-.163.022-.243.038-.198.04-.39.097-.584.145-.23.057-.46.108-.686.177-.077.024-.15.056-.227.081a12.912 12.912 0 0 0-5.124 3.146c-.03.03-.05.065-.08.096A12.952 12.952 0 0 0 2 15a12.91 12.91 0 0 0 3.824 9.208c.052.052.117.079.176.117V25c0 1.654 1.346 3 3 3h2a1 1 0 0 0 1-1V17a1 1 0 0 0-1-1H9c-1.654 0-3 1.346-3 3v2.313A10.91 10.91 0 0 1 4 15c0-1.966.525-3.808 1.432-5.407a2.98 2.98 0 0 0 2.497 1.336 2.98 2.98 0 0 0 2.12-.879A6.954 6.954 0 0 1 15 8.004c1.873 0 3.63.727 4.95 2.046.567.567 1.32.879 2.121.879s1.555-.312 2.121-.879c.142-.141.267-.294.376-.457A10.921 10.921 0 0 1 26 15c0 2.89-1.113 5.61-3.127 7.675A2.97 2.97 0 0 0 21 22c-1.654 0-3 1.346-3 3s1.346 3 3 3 3-1.346 3-3c0-.219-.027-.431-.071-.637a.985.985 0 0 0 .279-.186A12.918 12.918 0 0 0 28 15zM8 19a1 1 0 0 1 1-1h1v8H9a1 1 0 0 1-1-1v-6zM22.778 8.636a.997.997 0 0 1-1.414 0C19.61 6.88 17.304 6.004 15 6.004s-4.61.877-6.364 2.632A.997.997 0 0 1 7.202 7.25a11.081 11.081 0 0 1 1.613-1.34l.043-.032c.227-.153.463-.29.7-.426.08-.045.157-.097.237-.14.189-.102.386-.19.582-.28.138-.064.274-.134.414-.192.145-.06.295-.109.443-.163.197-.071.394-.147.594-.207.095-.029.193-.048.289-.074.256-.07.513-.138.773-.189.03-.006.06-.008.09-.014.667-.123 1.344-.189 2.02-.189.671 0 1.342.065 2.004.187l.108.016c.254.05.504.117.754.184.103.028.208.05.31.08.192.058.381.131.572.2.155.056.313.107.465.17.132.055.26.122.391.182.203.094.408.185.604.291.072.04.141.085.213.126.245.14.49.282.723.44l.016.011c.59.4 1.137.856 1.638 1.36a.995.995 0 0 1-.02 1.384zM21 26a1 1 0 1 1 .001-2.001A1 1 0 0 1 21 26z" fill="#333"/></svg>
