<svg xmlns="http://www.w3.org/2000/svg" viewBox="0 0 30 30"><style>.st2{fill:#333}</style><g id="Layer_1"><path class="st2" d="M10 9c1.654 0 3-1.346 3-3s-1.346-3-3-3-3 1.346-3 3 1.346 3 3 3zm0-4c.551 0 1 .449 1 1s-.449 1-1 1-1-.449-1-1 .449-1 1-1zM13.016 15.887l.326-3.259a2.396 2.396 0 0 0-.607-1.842A2.395 2.395 0 0 0 10.963 10H9.037c-.674 0-1.32.287-1.772.786a2.396 2.396 0 0 0-.607 1.843l.326 3.258-1.933 5.797A1.001 1.001 0 0 0 6 23h1.095l.41 4.1a1 1 0 0 0 .995.9h3a1 1 0 0 0 .995-.9l.41-4.1H14a1 1 0 0 0 .949-1.316l-1.933-5.797zM10.596 26H9.404l-.3-3h1.79l-.3 3zM12 21H7.387l1.562-4.684c.044-.133.06-.275.046-.416l-.347-3.47a.39.39 0 0 1 .39-.43h1.925a.388.388 0 0 1 .389.43l-.347 3.47c-.014.141.002.283.046.416L12.613 21H12zM19.625 4H17a1 1 0 0 0-1 1v6.263a1 1 0 0 0 1 1h2v6.474h-2a1 1 0 0 0-1 1V26a1 1 0 0 0 1 1h2.625c.05 0 .1-.004.15-.012.234-.035 5.725-.988 5.725-11.672C25.5 4.565 19.937 4.02 19.625 4zm-.105 21H18v-4.263h2a1 1 0 0 0 1-1v-8.474a1 1 0 0 0-1-1h-2V5.998l1.53-.002c.04.004 3.97.563 3.97 9.32 0 8.306-3.545 9.561-3.98 9.684z"/></g></svg>
