<svg xmlns="http://www.w3.org/2000/svg" viewBox="0 0 30 30"><style>.st2{fill:#333}</style><g id="Layer_1"><path class="st2" d="M24 27v-6.676a9.414 9.414 0 0 1-2 .546V26h-5v-5a1 1 0 0 0-1-1h-6a1 1 0 0 0-1 1v5H4.002l.015-11.013 8.396-8.446a9.553 9.553 0 0 1 1.784-2.13 1.99 1.99 0 0 0-2.584.152L2.64 13.537C2.234 13.903 2 14.437 2 15v12a1 1 0 0 0 1 1h7a1 1 0 0 0 1-1v-5h4v5a1 1 0 0 0 1 1h7a1 1 0 0 0 1-1z"/><path class="st2" d="M20.5 4C16.364 4 13 7.364 13 11.5s3.364 7.5 7.5 7.5 7.5-3.364 7.5-7.5S24.636 4 20.5 4zm0 13c-3.032 0-5.5-2.467-5.5-5.5S17.468 6 20.5 6 26 8.467 26 11.5 23.532 17 20.5 17z"/><path class="st2" d="M23.447 8.105a1 1 0 0 0-1.342.448l-1.946 3.893-1.534-1.227a1 1 0 0 0-1.25 1.562l2.5 2a1.004 1.004 0 0 0 .84.196.998.998 0 0 0 .68-.53l2.5-5a1 1 0 0 0-.448-1.341z"/></g></svg>
