<svg xmlns="http://www.w3.org/2000/svg" viewBox="0 0 30 30"><style>.st2{fill:#333}</style><g id="Layer_1"><path class="st2" d="M27 16.5h-4V14c0-2.206-1.794-4-4-4h-8c-2.206 0-4 1.794-4 4v2.5H3a1 1 0 0 0-1 1V27a1 1 0 0 0 1 1h24a1 1 0 0 0 1-1v-9.5a1 1 0 0 0-1-1zM7 26H4v-7.5h3V26zm14-8.5V26H9V14c0-1.103.897-2 2-2h8c1.103 0 2 .897 2 2v3.5zm5 8.5h-3v-7.5h3V26zM13 9a1 1 0 0 0 1-1V6.5h2V8a1 1 0 1 0 2 0V3a1 1 0 1 0-2 0v1.5h-2V3a1 1 0 0 0-2 0v5a1 1 0 0 0 1 1z"/><path class="st2" d="M10 14h2v3h-2zM14 14h2v3h-2zM18 14h2v3h-2zM10 19h2v3h-2zM14 19h2v3h-2zM18 19h2v3h-2z"/></g></svg>
