<svg xmlns="http://www.w3.org/2000/svg" viewBox="0 0 30 30"><style>.st2{fill:#333}</style><g id="Layer_1"><path class="st2" d="M25.707 26.293l-5.965-5.965A6.457 6.457 0 0 0 21 16.5c0-3.584-2.916-6.5-6.5-6.5S8 12.916 8 16.5s2.916 6.5 6.5 6.5c1.432 0 2.752-.47 3.828-1.258l5.965 5.965a.997.997 0 0 0 1.414 0 1 1 0 0 0 0-1.414zM14.5 21c-2.481 0-4.5-2.019-4.5-4.5s2.019-4.5 4.5-4.5 4.5 2.019 4.5 4.5-2.019 4.5-4.5 4.5z"/><path class="st2" d="M14.5 8c2.27 0 4.405.884 6.01 2.49a.997.997 0 0 0 1.415 0 1 1 0 0 0 0-1.414C19.94 7.092 17.305 6 14.5 6S9.059 7.092 7.076 9.076A1 1 0 1 0 8.49 10.49 8.444 8.444 0 0 1 14.5 8z"/><path class="st2" d="M23.339 7.661a.997.997 0 0 0 1.414 0 1 1 0 0 0 0-1.414C19.099.594 9.9.595 4.247 6.247a1 1 0 1 0 1.414 1.414c4.874-4.873 12.803-4.873 17.678 0z"/></g></svg>
