<svg xmlns="http://www.w3.org/2000/svg" viewBox="0 0 30 30"><style>.st2{fill:#333}</style><g id="Layer_1"><path class="st2" d="M24 8.257V5.5C24 3.57 22.43 2 20.5 2h-11C7.57 2 6 3.57 6 5.5v2.757c0 .935.364 1.814 1.025 2.475L11.293 15l-4.267 4.268A3.52 3.52 0 0 0 6 21.742V27a1 1 0 0 0 1 1h16a1 1 0 0 0 1-1v-5.258c0-.92-.374-1.823-1.025-2.474L18.707 15l4.268-4.268A3.477 3.477 0 0 0 24 8.257zm-2 0c0 .401-.156.778-.44 1.061l-4.974 4.975a1 1 0 0 0 0 1.414l4.975 4.975c.279.279.439.666.439 1.06V26H8v-4.258c0-.394.16-.781.44-1.06l4.974-4.975a1 1 0 0 0 0-1.414L8.44 9.318A1.492 1.492 0 0 1 8 8.258V5.5C8 4.673 8.673 4 9.5 4h11c.827 0 1.5.673 1.5 1.5v2.757z"/><path class="st2" d="M10 23v1h10v-1l-5-3zM15 13l5-5H10z"/></g></svg>
