<svg xmlns="http://www.w3.org/2000/svg" viewBox="0 0 30 30"><style>.st2{fill:#333}</style><g id="Layer_1"><path class="st2" d="M26.707 7.293l-4-4a1 1 0 1 0-1.414 1.414l1.642 1.643a2.74 2.74 0 0 0-1.435 2.4 2.753 2.753 0 0 0 2.75 2.75c.262 0 .51-.049.75-.117V22a1 1 0 0 1-2 0v-4c0-1.654-1.346-3-3-3h-1V6c0-2.206-1.794-4-4-4H8C5.794 2 4 3.794 4 6v21a1 1 0 0 0 1 1h13a1 1 0 0 0 1-1V17h1a1 1 0 0 1 1 1v4c0 1.654 1.346 3 3 3s3-1.346 3-3V8a1 1 0 0 0-.293-.707zM17 26H6V6c0-1.103.897-2 2-2h7c1.103 0 2 .897 2 2v20zm7.25-16.5a.751.751 0 0 1 0-1.5.751.751 0 0 1 0 1.5z"/><path class="st2" d="M13 8h-1.382l.777-1.553a1 1 0 1 0-1.79-.894l-1.5 3A1.001 1.001 0 0 0 10 10h1.382l-.777 1.553a1 1 0 1 0 1.79.894l1.5-3A1.001 1.001 0 0 0 13 8z"/></g></svg>
