<svg xmlns="http://www.w3.org/2000/svg" viewBox="0 0 30 30"><path d="M23 10c-.768 0-1.505.168-2.26.534L15 13.846 9.193 10.5A5.015 5.015 0 0 0 7 10c-2.757 0-5 2.243-5 5s2.243 5 5 5a5 5 0 0 0 2.26-.534L13 17.307l-2-1.154-2.706 1.56A2.98 2.98 0 0 1 7 18c-1.654 0-3-1.346-3-3s1.346-3 3-3c.472 0 .905.099 1.26.266L20.806 19.5c.686.332 1.424.5 2.194.5 2.757 0 5-2.243 5-5s-2.243-5-5-5zm0 8c-.473 0-.905-.099-1.26-.267L16.998 15l4.676-2.698A2.99 2.99 0 0 1 23 12c1.654 0 3 1.346 3 3s-1.346 3-3 3z" fill="#333"/></svg>
