<svg xmlns="http://www.w3.org/2000/svg" viewBox="0 0 30 30"><style>.st2{fill:#333}</style><g id="Layer_1"><path class="st2" d="M26 16h-1.25C22.13 16 20 18.13 20 20.75V27a1 1 0 0 0 1 1h5a1 1 0 0 0 1-1V17a1 1 0 0 0-1-1zm-1 10h-3v-5.25A2.753 2.753 0 0 1 24.75 18H25v8zM20 10.5c0 1.93 1.57 3.5 3.5 3.5s3.5-1.57 3.5-3.5S25.43 7 23.5 7 20 8.57 20 10.5zM23.5 9c.827 0 1.5.673 1.5 1.5s-.673 1.5-1.5 1.5-1.5-.673-1.5-1.5.673-1.5 1.5-1.5z"/><path class="st2" d="M20.835 5.693a5.461 5.461 0 0 1 2.454-.682A12.93 12.93 0 0 0 15 2C7.832 2 2 7.832 2 15s5.832 13 13 13c1.019 0 2.023-.138 3-.369V21.99C17.164 24.596 15.963 26 15 26c-1.186 0-2.742-2.096-3.52-6H18v-2h-6.816A26.167 26.167 0 0 1 11 15c0-1.034.073-2.03.185-3H18v-2h-6.52c.777-3.903 2.334-6 3.52-6 1.064 0 2.426 1.683 3.257 4.841a5.509 5.509 0 0 1 1.372-2.243c-.268-.71-.558-1.373-.889-1.93.735.264 1.434.613 2.095 1.025zM11.259 25.33A11.044 11.044 0 0 1 5.214 20h4.228c.393 2.182 1.02 3.988 1.817 5.33zM9.173 18H4.426A10.948 10.948 0 0 1 4 15c0-1.041.153-2.046.425-3h4.748C9.07 12.973 9 13.97 9 15c0 1.031.07 2.028.173 3zM5.21 10a11.073 11.073 0 0 1 6.048-5.33c-.795 1.339-1.407 3.159-1.8 5.33H5.21z"/></g></svg>
