<svg xmlns="http://www.w3.org/2000/svg" viewBox="0 0 30 30"><style>.st2{fill:#333}</style><g id="Layer_1"><path class="st2" d="M17 20c1.654 0 3-1.346 3-3s-1.346-3-3-3-3 1.346-3 3 1.346 3 3 3zm0-4a1 1 0 1 1-.001 2.001A1 1 0 0 1 17 16z"/><path class="st2" d="M27 2H3a1 1 0 0 0-1 1v6a1 1 0 0 0 1 1h3v17a1 1 0 0 0 1 1h16a1 1 0 0 0 1-1V10h3a1 1 0 0 0 1-1V3a1 1 0 0 0-1-1zM8 8h3.5c0 .646-1.142 2.225-2.208 3.293A1 1 0 0 0 10 13h3a1 1 0 0 0 0-2h-.822c.678-.918 1.322-2.041 1.322-3h1.58a4.44 4.44 0 0 0-.08.75c0 2.112 1.03 4.25 3 4.25s3-2.138 3-4.25c0-.258-.04-.505-.08-.75H22v16.169A5.421 5.421 0 0 0 17.067 21h-.134a5.408 5.408 0 0 0-5.398 5H8V8zm10.94 0c0 .073-.012.144.004.218.037.166.056.345.056.532 0 1.178-.477 2.25-1 2.25s-1-1.072-1-2.25c0-.186.019-.366.056-.532.016-.074.004-.145.004-.218h1.88zm-5.402 18c.19-1.685 1.64-3 3.395-3h.134c1.754 0 3.204 1.315 3.395 3h-6.924zM26 8h-2V7a1 1 0 0 0-1-1H7a1 1 0 0 0-1 1v1H4V4h22v4z"/></g></svg>
