<svg xmlns="http://www.w3.org/2000/svg" viewBox="0 0 30 30"><path d="M18.5 2h-4c-.9 0-1.746.336-2.512.942A.994.994 0 0 0 11 2H6a1 1 0 0 0-1 1v24a1 1 0 0 0 1 1h5a.994.994 0 0 0 .988-.942c.766.606 1.611.942 2.512.942h4c3.706 0 6.5-5.589 6.5-13S22.206 2 18.5 2zM7 26V4h3v1.468C8.757 7.806 8 11.153 8 15s.757 7.194 2 9.532V26H7zm3-11c0-6.482 2.372-11 4.5-11C16.629 4 19 8.518 19 15s-2.371 11-4.5 11c-2.128 0-4.5-4.518-4.5-11zm8.5 11h-.449C19.85 23.738 21 19.748 21 15s-1.15-8.738-2.949-11h.449C20.629 4 23 8.518 23 15s-2.371 11-4.5 11z" fill="#333"/></svg>
