<svg xmlns="http://www.w3.org/2000/svg" viewBox="0 0 30 30"><path d="M27 2h-4a1 1 0 0 0-1 1v3.531l-1.955 1.63A6.975 6.975 0 0 0 15 6c-1.982 0-3.77.832-5.046 2.16L8 6.532V3a1 1 0 0 0-1-1H3a1 1 0 0 0-1 1v4a1 1 0 0 0 1 1h3.638l2.148 1.79A6.95 6.95 0 0 0 8 13c0 3.519 2.613 6.432 6 6.92V22h-1a1 1 0 0 0-1 1v4a1 1 0 0 0 1 1h4a1 1 0 0 0 1-1v-4a1 1 0 0 0-1-1h-1v-2.08c3.386-.488 6-3.401 6-6.92a6.95 6.95 0 0 0-.786-3.21L23.362 8H27a1 1 0 0 0 1-1V3a1 1 0 0 0-1-1zM6 6H4V4h2v2zm10 20h-2v-2h2v2zm-1.705-10h1.41c-.213.995-.498 1.647-.705 1.91-.207-.263-.492-.915-.705-1.91zm-.266-2a17.081 17.081 0 0 1 0-2h1.942a17.081 17.081 0 0 1 0 2h-1.942zM10 13c0-.342.035-.677.101-1h1.928c-.018.332-.029.666-.029 1 0 .334.011.668.029 1H10.1A5.001 5.001 0 0 1 10 13zm5.705-3h-1.41c.213-.995.498-1.647.705-1.91.207.263.492.915.705 1.91zm2.266 2H19.9a5.001 5.001 0 0 1 0 2H17.97c.018-.332.029-.666.029-1 0-.334-.011-.668-.029-1zm1.003-2H17.75a11.32 11.32 0 0 0-.316-1.34c.602.339 1.125.792 1.54 1.34zm-6.408-1.34c-.128.416-.232.867-.316 1.34h-1.224a5.005 5.005 0 0 1 1.54-1.34zM11.026 16h1.225c.083.473.188.924.316 1.34A5.005 5.005 0 0 1 11.026 16zm6.407 1.34c.128-.416.233-.867.317-1.34h1.224a5.005 5.005 0 0 1-1.54 1.34zM26 6h-2V4h2v2z" fill="#333"/></svg>
