<svg xmlns="http://www.w3.org/2000/svg" viewBox="0 0 30 30"><style>.st2{fill:#333}</style><g id="Layer_1"><path class="st2" d="M24.9 5.95a1 1 0 0 0-.293-.707l-2.226-2.226a.937.937 0 0 0-.113-.098c-.225-.165-5.559-3.915-14.497 5.024-8.989 8.99-4.846 14.033-4.614 14.298l2.226 2.226a.997.997 0 0 0 1.414 0l5.312-5.312a1 1 0 0 0 0-1.414l-1.838-1.837 5.773-5.772 1.837 1.837a1 1 0 0 0 1.414 0l5.312-5.312c.188-.187.293-.442.293-.707zm-6.312 3.898L16.75 8.01a1 1 0 0 0-1.414 0L8.15 15.197a1 1 0 0 0 0 1.414l1.837 1.837-3.898 3.898-1.467-1.463c-.032-.038-3.006-3.956 4.563-11.526C13.59 4.954 16.862 4.02 18.85 4.02c1.27 0 2.013.382 2.19.484l1.446 1.447-3.898 3.898zM17.5 15a1 1 0 0 0-1 1v10a1 1 0 1 0 2 0V16a1 1 0 0 0-1-1zM23.25 15H21a1 1 0 0 0-1 1v10a1 1 0 1 0 2 0v-3.225h1.25c2.348 0 3.75-1.453 3.75-3.887S25.598 15 23.25 15zm0 5.775H22V17h1.25c.865 0 1.75.225 1.75 1.888s-.885 1.887-1.75 1.887z"/></g></svg>
