<svg xmlns="http://www.w3.org/2000/svg" viewBox="0 0 30 30"><style>.st2{fill:#333}</style><g id="Ebene_2"><path class="st2" d="M15 3C9.486 3 5 7.486 5 13v2c0 1.315.856 2.422 2.035 2.827-.01.058-.035.111-.035.173 0 1.654 1.346 3 3 3a1 1 0 0 1 0 2c-1.654 0-3 1.346-3 3a1 1 0 1 0 2 0 1 1 0 0 1 1-1c1.654 0 3-1.346 3-3s-1.346-3-3-3a1 1 0 0 1-1-1h3.5c0 1.654 1.346 3 3 3a1 1 0 0 1 0 2c-1.654 0-3 1.346-3 3a1 1 0 1 0 2 0 1 1 0 0 1 1-1c1.654 0 3-1.346 3-3s-1.346-3-3-3a1 1 0 0 1-1-1H18c0 1.654 1.346 3 3 3a1 1 0 0 1 0 2c-1.654 0-3 1.346-3 3a1 1 0 1 0 2 0 1 1 0 0 1 1-1c1.654 0 3-1.346 3-3s-1.346-3-3-3a1 1 0 0 1-1-1h2c1.654 0 3-1.346 3-3v-2c0-5.514-4.486-10-10-10zm8 12a1 1 0 0 1-1 1H8c-.551 0-1-.449-1-1v-2c0-4.411 3.589-8 8-8s8 3.589 8 8v2z"/><path class="st2" d="M11 10c-1.654 0-3 1.346-3 3a1 1 0 0 0 2 0c0-.551.449-1 1-1s1 .449 1 1a1 1 0 0 0 2 0c0-1.654-1.346-3-3-3zM16 13a1 1 0 1 0 2 0 1 1 0 0 1 2 0 1 1 0 1 0 2 0c0-1.654-1.346-3-3-3s-3 1.346-3 3z"/></g></svg>
