<svg xmlns="http://www.w3.org/2000/svg" viewBox="0 0 30 30"><style>.st2{fill:#333}</style><g id="Layer_1"><path class="st2" d="M15 15c2.206 0 4-1.794 4-4s-1.794-4-4-4-4 1.794-4 4 1.794 4 4 4zm0-6c1.103 0 2 .897 2 2s-.897 2-2 2-2-.897-2-2 .897-2 2-2z"/><circle class="st2" cx="5" cy="11" r="1.5"/><circle class="st2" cx="10" cy="4" r="1.5"/><circle class="st2" cx="22" cy="6" r="1.5"/><path class="st2" d="M23 11a1 1 0 0 0-1 1v4h-7c-1.264 0-1.629.329-2.178.602l-4.654 2.652-2.461-2.461a1 1 0 1 0-1.414 1.414l3 3a1 1 0 0 0 1.202.162l2.511-1.43c0 .02-.006.04-.006.061v7a1 1 0 0 0 1 1h6a1 1 0 0 0 1-1v-7c0-.732-.212-1.41-.556-2H23a1 1 0 0 0 1-1v-5a1 1 0 0 0-1-1zm-6 15h-4v-6c0-1.103.897-2 2-2 1.102 0 2 .898 2 2v6z"/></g></svg>
