<svg xmlns="http://www.w3.org/2000/svg" viewBox="0 0 30 30"><style>.st2{fill:#333}</style><g id="Layer_1"><path class="st2" d="M27 11H14V5a1 1 0 0 0-2 0v6H3a1 1 0 0 0-1 1v14a1 1 0 0 0 1 1h24a1 1 0 0 0 1-1V12a1 1 0 0 0-1-1zm-1 14H4V13h22v12z"/><path class="st2" d="M7.5 15h-1a1 1 0 0 0 0 2h1a1 1 0 1 0 0-2zM10.5 17h1a1 1 0 1 0 0-2h-1a1 1 0 0 0 0 2zM14.5 17h1a1 1 0 1 0 0-2h-1a1 1 0 0 0 0 2zM18.5 17h1a1 1 0 1 0 0-2h-1a1 1 0 1 0 0 2zM22.5 17h1a1 1 0 1 0 0-2h-1a1 1 0 1 0 0 2zM7.5 18h-1a1 1 0 1 0 0 2h1a1 1 0 1 0 0-2zM10.5 20h1a1 1 0 1 0 0-2h-1a1 1 0 1 0 0 2zM14.5 20h1a1 1 0 1 0 0-2h-1a1 1 0 1 0 0 2zM18.5 20h1a1 1 0 1 0 0-2h-1a1 1 0 1 0 0 2zM22.5 20h1a1 1 0 1 0 0-2h-1a1 1 0 1 0 0 2zM7.5 21h-1a1 1 0 1 0 0 2h1a1 1 0 1 0 0-2zM19.5 21h-9a1 1 0 1 0 0 2h9a1 1 0 1 0 0-2zM22.5 23h1a1 1 0 1 0 0-2h-1a1 1 0 1 0 0 2z"/></g></svg>
