<svg xmlns="http://www.w3.org/2000/svg" viewBox="0 0 30 30"><style>.st2{fill:#333}</style><g id="Layer_1"><path class="st2" d="M25 20.77v-3.72a8.918 8.918 0 0 1-2 .718V20H6v-9.09c0-.502.408-.91.91-.91h5.149A9.022 9.022 0 0 1 12 9c0-.338.022-.671.059-1H6.91A2.914 2.914 0 0 0 4 10.91v9.86l-1.898 3.887a.995.995 0 0 0-.102.439V27a1 1 0 0 0 1 1h23a1 1 0 0 0 1-1v-1.904c0-.153-.035-.302-.102-.439L25 20.77zM25 26H4v-.673L5.624 22h17.752L25 25.327V26z"/><path class="st2" d="M8 18h13c-3.91 0-7.236-2.51-8.475-6H8v6z"/><path class="st2" d="M21 16c3.86 0 7-3.14 7-7s-3.14-7-7-7-7 3.14-7 7 3.14 7 7 7zm-4.899-6h1.928c.062 1.2.237 2.363.537 3.34-1.244-.7-2.171-1.899-2.465-3.34zm5.87-2h-1.942c.127-2.17.648-3.5.971-3.91.323.41.844 1.74.97 3.91zm0 2c-.127 2.17-.648 3.5-.971 3.91-.323-.41-.844-1.74-.97-3.91h1.94zm1.462 3.34c.3-.977.476-2.14.538-3.34H25.9c-.294 1.441-1.221 2.64-2.466 3.34zM25.9 8H23.97c-.062-1.2-.237-2.363-.537-3.34 1.244.7 2.171 1.899 2.465 3.34zm-7.332-3.34c-.3.977-.476 2.14-.538 3.34H16.1c.294-1.441 1.221-2.64 2.466-3.34z"/></g></svg>
