<svg xmlns="http://www.w3.org/2000/svg" viewBox="0 0 30 30"><style>.st2{fill:#333}</style><g id="Layer_1"><path class="st2" d="M15 2c-4.962 0-9 4.038-9 9 0 2.77 1.326 4.559 2.607 6.287C9.837 18.947 11 20.515 11 23a1 1 0 0 0 1 1h6a1 1 0 0 0 1-1c0-2.485 1.162-4.053 2.393-5.713C22.675 15.56 24 13.771 24 11c0-4.962-4.037-9-9-9zm4.786 14.097c-1.162 1.566-2.462 3.32-2.734 5.903h-4.104c-.272-2.583-1.572-4.337-2.734-5.903C9.026 14.494 8 13.11 8 11c0-3.86 3.14-7 7-7s7 3.14 7 7c0 2.11-1.026 3.494-2.214 5.097zM18 26h-6a1 1 0 1 0 0 2h6a1 1 0 1 0 0-2z"/><path class="st2" d="M15 6c-2.757 0-5 2.243-5 5a1 1 0 0 0 2 0c0-1.654 1.346-3 3-3a1 1 0 0 0 0-2z"/></g></svg>
