<svg xmlns="http://www.w3.org/2000/svg" viewBox="0 0 30 30"><path d="M27.696 14.015c-.4-.412-.9-1.03-1.4-1.647C24.298 9.897 21.599 6.5 18 6.5c-1.1 0-2.1.412-2.999 1.03-.9-.721-1.9-1.03-3-1.03-3.598 0-6.297 3.397-8.296 5.765-.5.617-1 1.235-1.4 1.647-.3.308-.4.72-.2 1.03C3.204 18.543 9.502 24 15 24s11.796-5.456 12.896-8.956c.2-.309.1-.72-.2-1.03zM12.001 8.559c.9 0 1.7.412 2.2 1.03.399.411 1.099.411 1.499 0a2.8 2.8 0 0 1 2.199-1.03c2.3 0 4.399 2.162 6.098 4.323-2.3-.617-5.598-.94-8.997-.94s-6.698.323-9.097.94C7.603 10.721 9.702 8.56 12 8.56zm11.696 6.28C21.298 15.764 18.3 16.94 15 16.94c-3.399 0-6.798-1.176-8.997-2C8.303 14.427 11.6 14 15 14c3.199 0 6.498.323 8.697.838zM15 21.94c-3.399 0-7.198-2.573-9.297-4.941 2.3.824 5.798 2 9.297 2 3.799 0 6.898-1.28 9.597-2.206-2.2 2.368-6.098 5.147-9.597 5.147z" fill="#333"/></svg>
