<svg xmlns="http://www.w3.org/2000/svg" viewBox="0 0 30 30"><path d="M15 2C7.832 2 2 7.832 2 15s5.832 13 13 13 13-5.832 13-13S22.168 2 15 2zm6.157 16.328c.537-.99.843-2.124.843-3.328a6.957 6.957 0 0 0-.843-3.328l2.9-2.9C25.28 10.543 26 12.687 26 15s-.72 4.456-1.943 6.229l-2.9-2.9zM10 15c0-2.757 2.243-5 5-5s5 2.243 5 5-2.243 5-5 5-5-2.243-5-5zm11.229-9.057l-2.9 2.9A6.956 6.956 0 0 0 15 8a6.956 6.956 0 0 0-3.328.843l-2.9-2.9C10.543 4.72 12.687 4 15 4s4.456.72 6.229 1.943zM5.943 8.771l2.9 2.9A6.957 6.957 0 0 0 8 15c0 1.204.306 2.338.843 3.328l-2.9 2.9C4.72 19.457 4 17.312 4 15s.72-4.456 1.943-6.229zm2.828 15.286l2.9-2.9c.991.537 2.125.843 3.329.843a6.955 6.955 0 0 0 3.328-.844l2.9 2.901C19.457 25.28 17.312 26 15 26s-4.456-.72-6.229-1.943z" fill="#333"/></svg>
