<svg xmlns="http://www.w3.org/2000/svg" viewBox="0 0 30 30"><style>.st2{fill:#333}</style><g id="Layer_1"><path class="st2" d="M10 14c1.654 0 3-1.346 3-3s-1.346-3-3-3-3 1.346-3 3 1.346 3 3 3zm0-4c.551 0 1 .449 1 1s-.449 1-1 1-1-.449-1-1 .449-1 1-1zM26.99 5.858A1 1 0 0 0 26 5h-4a1 1 0 0 0-.99.858l-1 7A1.002 1.002 0 0 0 21 14h2v12h-1a1 1 0 1 0 0 2h4a1 1 0 1 0 0-2h-1V14h2a1.003 1.003 0 0 0 .99-1.142l-1-7zM22.153 12l.714-5h2.266l.714 5h-3.694z"/><path class="st2" d="M17.15 19.241a1 1 0 0 0-1.29-.01l-1.474 1.23a2.97 2.97 0 0 0-.102-.45l-.993-2.956a3.009 3.009 0 0 0-3.805-1.89 2.97 2.97 0 0 0-1.282.867C8.136 16.018 8.07 16 8 16H4a1 1 0 0 0-1 1v10a1 1 0 0 0 1 1h12a1 1 0 0 0 1-1v-2.308l1.071 2.68a1 1 0 1 0 1.858-.743l-1.445-3.611.866.74a.995.995 0 0 0 1.409-.108.998.998 0 0 0-.109-1.409l-3.5-3zm-7.024-2.174a1 1 0 0 1 1.263.627l.992 2.955a1 1 0 0 1-.628 1.263.998.998 0 0 1-1.261-.627l-.993-2.955a1 1 0 0 1 .627-1.263zM15 26H5v-8h2.28l.305.917c.005.017.006.035.012.052l.737 2.194.717 2.154A1 1 0 0 0 10 24h5v2z"/></g></svg>
