<svg xmlns="http://www.w3.org/2000/svg" viewBox="0 0 30 30"><style>.st2{fill:#333}</style><g id="Layer_1"><path class="st2" d="M15 8c-1.654 0-3 1.346-3 3v16a1 1 0 0 0 1 1h4a1 1 0 0 0 1-1V11c0-1.654-1.346-3-3-3zm1 18h-2V11c0-.551.449-1 1-1s1 .449 1 1v15zM5.28 2.358A13.028 13.028 0 0 0 3.44 5.03a1 1 0 1 0 1.777.919c.42-.812.944-1.574 1.557-2.262a1 1 0 0 0-1.494-1.33zM3.193 13.43a1 1 0 0 0 .874-1.112 11.054 11.054 0 0 1 .098-3.271 1 1 0 0 0-1.97-.355 13.093 13.093 0 0 0-.114 3.864 1 1 0 0 0 1.112.874zM4.933 15.473a1 1 0 1 0-1.827.812c.44.992 1.005 1.927 1.678 2.777a.997.997 0 0 0 1.405.164 1 1 0 0 0 .164-1.404 10.987 10.987 0 0 1-1.42-2.349zM26.386 14.965a1 1 0 0 0-1.32.51 10.958 10.958 0 0 1-1.418 2.347 1 1 0 1 0 1.568 1.24 12.925 12.925 0 0 0 1.679-2.777 1 1 0 0 0-.51-1.32zM27.803 8.69a.996.996 0 0 0-1.162-.806 1 1 0 0 0-.807 1.162 11.038 11.038 0 0 1 .099 3.27 1 1 0 0 0 1.986.238 13.12 13.12 0 0 0-.116-3.864zM25.672 6.49a1 1 0 0 0 .887-1.46 13.013 13.013 0 0 0-1.84-2.672.999.999 0 1 0-1.493 1.33 11.019 11.019 0 0 1 1.557 2.262c.178.343.527.54.889.54zM9.14 5.565a7.932 7.932 0 0 0-1.732 2.933 1 1 0 1 0 1.9.626c.27-.821.707-1.56 1.298-2.198a1 1 0 1 0-1.465-1.36zM9.148 12.296a1 1 0 1 0-1.953.43c.25 1.13.73 2.171 1.428 3.093a.998.998 0 0 0 1.4.194 1 1 0 0 0 .195-1.401 5.924 5.924 0 0 1-1.07-2.316zM22.044 11.535a.998.998 0 0 0-1.192.76 5.922 5.922 0 0 1-1.07 2.316 1 1 0 1 0 1.594 1.208 7.92 7.92 0 0 0 1.429-3.092 1 1 0 0 0-.761-1.192zM21.643 9.811a1 1 0 0 0 .95-1.314 7.928 7.928 0 0 0-1.735-2.932 1 1 0 1 0-1.465 1.361 5.933 5.933 0 0 1 1.3 2.198c.138.42.53.687.95.687z"/></g></svg>
