<svg xmlns="http://www.w3.org/2000/svg" viewBox="0 0 30 30"><path d="M26.335 2.058a1.006 1.006 0 0 0-1.11.31C22.826 5.312 19.1 7 15 7H6c-2.206 0-4 1.794-4 4v3c0 2.206 1.794 4 4 4h.816l3.252 8.362A1 1 0 0 0 11 27h5a1 1 0 0 0 .76-1.648c-.025-.031-2.399-2.887-2.722-7.352H15c5.361 0 8.39 1.34 10.125 4.483A1 1 0 0 0 27 22V3c0-.423-.267-.8-.665-.942zM4.278 15H5a1 1 0 0 0 0-2H4v-1h1a1 1 0 0 0 0-2h-.722c.347-.595.985-1 1.722-1h8v7H6a1.993 1.993 0 0 1-1.722-1zm9.845 10h-2.439l-2.722-7h3.078a16.225 16.225 0 0 0 2.083 7zM25 19.055c-2.041-1.94-4.942-2.906-9-3.04V8.97c3.41-.203 6.557-1.445 9-3.525v13.61z" fill="#333"/></svg>
