<svg xmlns="http://www.w3.org/2000/svg" viewBox="0 0 30 30"><style>.st2{fill:#333}</style><g id="Layer_1"><path class="st2" d="M11 22a1 1 0 1 0 0 2h4a1 1 0 1 0 0-2h-4zM15 6.5c0-.169.013-.334.025-.5H8v14h10v-4.5h-2a3 3 0 0 1-2.359-4.854C13.701 10.566 15 8.804 15 6.5z"/><path class="st2" d="M20 25a1 1 0 0 1-1 1H7a1 1 0 0 1-1-1V5c0-.551.449-1 1-1h8.502a6.516 6.516 0 0 1 1.318-2H7C5.346 2 4 3.346 4 5v20c0 1.654 1.346 3 3 3h12c1.654 0 3-1.346 3-3v-8h-2v8z"/><path class="st2" d="M27.781 11.876C27.763 11.853 26 9.613 26 6.5 26 4.019 23.981 2 21.5 2S17 4.019 17 6.5c0 3.06-1.736 5.318-1.782 5.377A1 1 0 0 0 16 13.5h3.571c.224.86 1 1.5 1.929 1.5s1.705-.64 1.929-1.5H27a1 1 0 0 0 .781-1.624zM17.778 11.5c.59-1.179 1.222-2.926 1.222-5C19 5.122 20.121 4 21.5 4S24 5.122 24 6.5c0 2.074.632 3.821 1.222 5h-7.444z"/></g></svg>
