<svg xmlns="http://www.w3.org/2000/svg" viewBox="0 0 30 30">
  <style>.st2{fill:#333}</style>
  <g id="Layer_1">
    <path class="st2" d="M25 2h-5c-1.654 0-3 1.346-3 3v9c0 1.654 1.346 3 3 3h5c1.654 0 3-1.346 3-3V5c0-1.654-1.346-3-3-3zm1 12a1 1 0 0 1-1 1h-5a1 1 0 0 1-1-1V5a1 1 0 0 1 1-1h5a1 1 0 0 1 1 1v9z"/><path class="st2" d="M20 5h5v6h-5zM24 12h-3a1 1 0 1 0 0 2h3a1 1 0 1 0 0-2zM25.707 18.793c-.01-.01-.102-.09-.146-.121a1 1 0 0 0-.932-.1l-2.5 1a1 1 0 0 0 .742 1.857l.942-.377A6.51 6.51 0 0 1 17.5 26a1 1 0 1 0 0 2c3.949 0 7.268-2.712 8.218-6.368l.575.575a.997.997 0 0 0 1.414 0 1 1 0 0 0 0-1.414l-2-2zM13.454 19.764C14.399 19.218 15 18.418 15 17.5v-2.75c0-1.568-1.935-2.75-4.5-2.75S6 13.182 6 14.75v1.779c-2.308.145-4 1.259-4 2.721V22c0 1.683 1.977 3 4.5 3 .167 0 .333-.021.5-.034V25c0 1.683 1.977 3 4.5 3s4.5-1.317 4.5-3v-2.75c0-1.132-1.018-2.056-2.546-2.486zM10.5 14c1.513 0 2.418.576 2.506.705-.088.22-.993.795-2.506.795-1.419 0-2.303-.506-2.48-.75.177-.244 1.062-.75 2.48-.75zm2.5 3.06v.44c0 .232-.777.891-2.185.982-.171-.382-.464-.724-.86-1.014.18.013.357.032.545.032.94 0 1.793-.162 2.5-.44zm-6 5.19v.715a4.527 4.527 0 0 1-.5.035C4.887 23 4 22.249 4 22v-.44c.707.278 1.56.44 2.5.44.188 0 .363-.02.544-.032-.015.094-.044.185-.044.282zM6.5 20c-1.494 0-2.392-.56-2.5-.699v-.015c.108-.225 1.006-.786 2.5-.786 1.418 0 2.302.507 2.48.75-.178.243-1.062.75-2.48.75zm7.5 5c0 .249-.887 1-2.5 1S9 25.249 9 25v-.44c.707.278 1.56.44 2.5.44s1.793-.162 2.5-.44V25zm-2.5-2c-1.418 0-2.302-.507-2.48-.75.178-.243 1.062-.75 2.48-.75 1.512 0 2.417.576 2.507.705-.09.219-.995.795-2.507.795zM4.293 11.207a1 1 0 0 0 1.078.222l2.5-1A1 1 0 0 0 7.13 8.57l-.941.377A6.51 6.51 0 0 1 12.5 4a1 1 0 1 0 0-2C8.551 2 5.232 4.71 4.282 8.367l-.575-.574a.997.997 0 0 0-1.414 0 1 1 0 0 0 0 1.414l2 2z"/>
  </g>
</svg>
