<svg xmlns="http://www.w3.org/2000/svg" viewBox="0 0 30 30"><style>.st2{fill:#333}</style><g id="Layer_1"><path class="st2" d="M21.25 5.5a1 1 0 1 0 0 2c.69 0 1.25.56 1.25 1.25a1 1 0 1 0 2 0 3.254 3.254 0 0 0-3.25-3.25zM7.625 23a1 1 0 0 0 1 1H11v-2H8.625a1 1 0 0 0-1 1z"/><path class="st2" d="M4 25V5c0-.551.449-1 1-1h11a1 1 0 0 1 1 1v5h2V5c0-1.654-1.346-3-3-3H5C3.346 2 2 3.346 2 5v20c0 1.654 1.346 3 3 3h6v-2H5a1 1 0 0 1-1-1z"/><path class="st2" d="M15 10V6H6v14h5v-7a3 3 0 0 1 3-3h1z"/><path class="st2" d="M23 12h-9a1 1 0 0 0-1 1v14a1 1 0 0 0 1 1h9a1 1 0 0 0 1-1V13a1 1 0 0 0-1-1zm-1 4.438a4.98 4.98 0 0 0-7 0V14h7v2.438zM21.5 20c0 1.654-1.346 3-3 3s-3-1.346-3-3 1.346-3 3-3 3 1.346 3 3zM15 26v-2.438a4.98 4.98 0 0 0 7 0V26h-7zM21.25 2a1 1 0 1 0 0 2C23.87 4 26 6.13 26 8.75a1 1 0 1 0 2 0A6.758 6.758 0 0 0 21.25 2z"/></g></svg>
