<svg xmlns="http://www.w3.org/2000/svg" viewBox="0 0 30 30"><style>.st2{fill:#333}</style><g id="Layer_1"><path class="st1" d="M25,2h-5c-1.7,0-3,1.3-3,3v9c0,1.7,1.3,3,3,3h5c1.7,0,3-1.3,3-3V5C28,3.3,26.7,2,25,2z M26,14c0,0.6-0.4,1-1,1
		h-5c-0.6,0-1-0.4-1-1V5c0-0.6,0.4-1,1-1h5c0.6,0,1,0.4,1,1V14z"/>
	<rect x="20" y="5" class="st1" width="5" height="6"/>
	<path class="st1" d="M24,12h-3c-0.6,0-1,0.4-1,1s0.4,1,1,1h3c0.6,0,1-0.4,1-1S24.6,12,24,12z"/>
	<path class="st1" d="M25.7,18.8l-0.1-0.1l0,0l0,0l0,0l0,0c-0.3-0.2-0.6-0.2-0.9-0.1l-2.5,1c-0.5,0.2-0.8,0.8-0.6,1.3
		c0.2,0.5,0.8,0.8,1.3,0.6l0.9-0.4c-0.7,2.8-3.3,4.9-6.3,4.9c-0.6,0-1,0.4-1,1s0.4,1,1,1c3.9,0,7.3-2.7,8.2-6.4l0.6,0.6
		c0.2,0.2,0.5,0.3,0.7,0.3s0.5-0.1,0.7-0.3c0.4-0.4,0.4-1,0-1.4L25.7,18.8z"/>
	<path class="st1" d="M12.5,2C8.6,2,5.2,4.7,4.3,8.4L3.7,7.8c-0.4-0.4-1-0.4-1.4,0c-0.4,0.4-0.4,1,0,1.4l2,2l0.1,0.1l0,0
		c0.2,0.1,0.4,0.2,0.6,0.2c0.1,0,0.3,0,0.4-0.1l2.5-1c0.5-0.2,0.8-0.8,0.6-1.3C8.2,8.6,7.6,8.4,7.1,8.6L6.2,8.9
		C6.9,6.1,9.5,4,12.5,4c0.6,0,1-0.4,1-1S13.1,2,12.5,2z"/>
	<path class="st1" d="M4,16.5v3c0,0.1,0,0.3,0.1,0.4C2.9,20.3,2,21,2,22v3c0,1.7,2,3,4.5,3s4.5-1.3,4.5-3v-3c1.2-0.5,2-1.4,2-2.5v-3
		C13,13.2,4,13.2,4,16.5z M8.5,16c1.2,0,2,0.3,2.3,0.5C10.5,16.7,9.7,17,8.5,17s-2-0.3-2.3-0.5C6.5,16.3,7.3,16,8.5,16z M5.3,21.6
		c0.6,0.4,1.3,0.7,2.2,0.8c-0.3,0-0.6,0.1-1,0.1c-1.2,0-2-0.3-2.3-0.5C4.4,21.9,4.8,21.7,5.3,21.6z M9,25c0,0.2-0.9,1-2.5,1
		S4,25.2,4,25v-0.9c0.7,0.3,1.6,0.4,2.5,0.4s1.8-0.1,2.5-0.4V25z M11,19.5c0,0.2-0.9,1-2.5,1S6,19.7,6,19.5v-0.9
		C6.7,18.9,7.6,19,8.5,19s1.8-0.1,2.5-0.4V19.5z"/>
</g>
</svg>
