<svg xmlns="http://www.w3.org/2000/svg" viewBox="0 0 30 30"><style>.st2{fill:#333}</style><g id="Layer_1"><path class="st2" d="M27.903 17.77L26 13.773V5c0-1.654-1.27-3-2.83-3H8.83C7.27 2 6 3.346 6 5v3h2V5c0-.483.334-1 .83-1h14.34c.496 0 .83.517.83 1v8h-8v2h8.368L26 18.426V19H16v2h11a1 1 0 0 0 1-1v-1.8c0-.148-.033-.296-.097-.43z"/><path class="st2" d="M23 5H9v3h2.729c2.262 0 4.1 1.773 4.244 4H23V5z"/><path class="st2" d="M11.729 10H4.272A2.274 2.274 0 0 0 2 12.271v13.457A2.274 2.274 0 0 0 4.271 28h7.457A2.274 2.274 0 0 0 14 25.729V12.271A2.274 2.274 0 0 0 11.729 10zM12 25.729c0 .149-.122.271-.271.271H4.272A.272.272 0 0 1 4 25.729V12.271c0-.15.122-.272.271-.272h7.457c.15 0 .272.122.272.271v13.457z"/><path class="st2" d="M5 13h6v9H5zM9 23H7a1 1 0 1 0 0 2h2a1 1 0 1 0 0-2z"/></g></svg>
