<svg xmlns="http://www.w3.org/2000/svg" viewBox="0 0 30 30">
<style type="text/css">
	.st2{fill:#333;}
</style>
<g id="Layer_1">
		<path class="st2" d="M18.7598,2.5557C13.7471,1.0401,8.3162,2.717,5,6.7223V4c0-0.5522-0.4478-1-1-1S3,3.4478,3,4v5
			c0,0.5522,0.4478,1,1,1h5c0.5522,0,1-0.4478,1-1S9.5522,8,9,8H6.537c2.806-3.3919,7.4005-4.8105,11.6447-3.5303
			c4.4453,1.3438,7.5781,5.3691,7.7959,10.0171c0.0254,0.5356,0.4678,0.9531,0.998,0.9531c0.0156,0,0.0322-0.0005,0.0479-0.001
			c0.5518-0.0259,0.9775-0.4941,0.9521-1.0459C27.7178,8.9004,24.0146,4.1436,18.7598,2.5557z"/>
		<path class="st2" d="M26,20h-5c-0.5527,0-1,0.4473-1,1s0.4473,1,1,1h2.4635c-2.8063,3.392-7.4005,4.8109-11.6451,3.5303
			c-4.4448-1.3438-7.5781-5.3691-7.7959-10.0171c-0.0259-0.5518-0.4961-0.9663-1.0459-0.9521
			c-0.5518,0.0259-0.978,0.4941-0.9521,1.0459c0.2578,5.4927,3.9609,10.2495,9.2158,11.8374
			c1.2329,0.373,2.4907,0.5527,3.7373,0.5527c3.8262,0,7.5214-1.7147,10.0225-4.744V26c0,0.5527,0.4473,1,1,1s1-0.4473,1-1v-5
			C27,20.4473,26.5527,20,26,20z"/>
		<path class="st2" d="M22,12.5V10c0-1.6821-1.9766-3-4.5-3S13,8.3179,13,10v1.1768C12.522,11.0651,12.0179,11,11.5,11
			C8.9766,11,7,12.3179,7,14v2.5c0,1.3213,1.216,2.4089,3,2.8145V20.5c0,1.6826,1.9766,3,4.5,3s4.5-1.3174,4.5-3V18
			c0-1.0856-0.8292-2.0128-2.0907-2.5386C17.1045,15.478,17.297,15.5,17.5,15.5C20.0234,15.5,22,14.1821,22,12.5z M17.5,13.5
			c-0.9515,0-1.6426-0.2615-2.0557-0.527c-0.0568-0.0369-0.1107-0.0736-0.1542-0.1088c-0.0108-0.0084-0.0206-0.0167-0.0308-0.0251
			c-0.1669-0.1426-0.2316-0.2637-0.2412-0.3267C15.7258,12.8199,16.5747,13,17.5,13c0.9318,0,1.7869-0.1817,2.4975-0.493
			C19.9842,12.7615,19.1011,13.5,17.5,13.5z M17.5,9c1.6133,0,2.5,0.751,2.5,1s-0.8867,1-2.5,1S15,10.249,15,10S15.8867,9,17.5,9z
			 M11.5,13c0.6118,0,1.2056,0.1167,1.6836,0.3257c0.0054,0.0131,0.0154,0.0249,0.0211,0.038c0.067,0.1525,0.1448,0.3,0.2449,0.4407
			c0.0082,0.0117,0.0188,0.0223,0.0272,0.0338c0.1074,0.1459,0.2247,0.2869,0.3648,0.4177C13.5205,14.5727,12.7172,15,11.5,15
			C9.8867,15,9,14.249,9,14S9.8867,13,11.5,13z M9.0032,16.5072c0.3942,0.1727,0.8396,0.2952,1.3116,0.3787
			c-0.0755,0.1292-0.1425,0.2615-0.1913,0.3993C9.3963,17.0515,9.0116,16.6826,9.0032,16.5072z M14.5,21.5
			c-1.6008,0-2.4839-0.7382-2.4974-0.9929C12.7132,20.8184,13.5683,21,14.5,21s1.7868-0.1816,2.4974-0.4929
			C16.9839,20.7618,16.1008,21.5,14.5,21.5z M14.5,19c-1.3735,0-2.2141-0.5424-2.4355-0.8578L12,18c0-0.249,0.8867-1,2.5-1
			c0.1309,0,0.2563,0.0127,0.4111,0.0264l0.2477,0.022C16.3497,17.2136,17,17.7876,17,18C17,18.249,16.1133,19,14.5,19z"/>
</g>
</svg>
