<svg xmlns="http://www.w3.org/2000/svg" viewBox="0 0 30 30"><style>.st2{fill:#333}</style><g id="Layer_1"><path class="st2" d="M10 22a1 1 0 1 0 0 2h4a1 1 0 1 0 0-2h-4z"/><path class="st2" d="M19 25a1 1 0 0 1-1 1H6a1 1 0 0 1-1-1V5c0-.551.449-1 1-1h5.5V2H6C4.346 2 3 3.346 3 5v20c0 1.654 1.346 3 3 3h12c1.654 0 3-1.346 3-3v-9.764l-2 1.434V25z"/><path class="st2" d="M11.5 9.517V6H7v14h10v-3.074a2.984 2.984 0 0 1-.745-.257A3 3 0 0 1 14.625 14v-.217C12.811 13.188 11.5 11.5 11.5 9.517z"/><path class="st2" d="M27 2.042H14.5a1 1 0 0 0-1 1v6.475c0 1.376 1.15 2.494 2.563 2.494h.562V14a1 1 0 0 0 1.583.813l3.905-2.802h3.324c1.414 0 2.563-1.118 2.563-2.494V3.042a1 1 0 0 0-1-1zm-1 7.475c0 .273-.252.494-.563.494h-3.645a1 1 0 0 0-.583.188l-2.584 1.853v-1.04a1 1 0 0 0-1-1h-1.562c-.31 0-.563-.223-.563-.495V4.042H26v5.475z"/></g></svg>
