<svg xmlns="http://www.w3.org/2000/svg" viewBox="0 0 30 30"><style>.st2{fill:#333}</style><g id="Layer_1"><path class="st2" d="M11 22a1 1 0 1 0 0 2h4a1 1 0 1 0 0-2h-4zM18 17.475c-3.49-1.24-6-4.566-6-8.475 0-1.053.191-2.06.525-3H8v14h10v-2.525z"/><path class="st2" d="M21 2c-3.86 0-7 3.14-7 7s3.14 7 7 7 7-3.14 7-7-3.14-7-7-7zm4.899 6H23.97c-.062-1.2-.237-2.363-.537-3.34 1.244.7 2.171 1.899 2.465 3.34zm-5.87 2h1.942c-.127 2.17-.648 3.5-.97 3.91-.324-.41-.845-1.74-.972-3.91zm0-2c.127-2.17.648-3.5.971-3.91.323.41.844 1.74.97 3.91h-1.94zm-1.462-3.34c-.3.977-.476 2.14-.538 3.34H16.1c.294-1.441 1.221-2.64 2.466-3.34zM16.1 10h1.928c.062 1.2.237 2.363.537 3.34-1.244-.7-2.171-1.899-2.465-3.34zm7.332 3.34c.3-.977.476-2.14.538-3.34H25.9c-.294 1.441-1.221 2.64-2.466 3.34z"/><path class="st2" d="M20 25a1 1 0 0 1-1 1H7a1 1 0 0 1-1-1V5c0-.551.449-1 1-1h6.522a9.072 9.072 0 0 1 1.834-2H7C5.346 2 4 3.346 4 5v20c0 1.654 1.346 3 3 3h12c1.654 0 3-1.346 3-3v-7h-2v7z"/></g></svg>
