<svg xmlns="http://www.w3.org/2000/svg" viewBox="0 0 30 30"><style>.st2{fill:#333}</style><g id="Layer_1"><path class="st2" d="M20 9h-1a1 1 0 0 0-1 1v2.586l-2.293-2.293A1 1 0 0 0 15 10h-2.862A3.142 3.142 0 0 0 9 13.138V19a1 1 0 0 0 1 1h1v2.764l-1.895 3.789a1 1 0 1 0 1.79.894l2-4A1 1 0 0 0 13 23v-3h1.117l.89 7.124a1 1 0 1 0 1.985-.248L16 18.938v-5.524l1.293 1.293a.998.998 0 0 0 1.307.093s1.987-1.407 2-1.419c.22-.183.4-.571.4-.881V10a1 1 0 0 0-1-1zm-6 9h-3v-4.862c0-.627.51-1.138 1.138-1.138H14v6zM13.5 9C15.43 9 17 7.43 17 5.5S15.43 2 13.5 2 10 3.57 10 5.5 11.57 9 13.5 9zm0-5c.827 0 1.5.673 1.5 1.5S14.327 7 13.5 7 12 6.327 12 5.5 12.673 4 13.5 4z"/></g></svg>
