<svg xmlns="http://www.w3.org/2000/svg" viewBox="0 0 30 30"><path d="M23.5 17c-.045 0-.086.012-.13.013l-.514-1.98c.135-.014.272-.016.409-.021.366.642 1.061.988 1.735.988a1 1 0 0 0 1-1v-2a1 1 0 0 0-1-1c-.682 0-1.387.354-1.75 1.013a8.5 8.5 0 0 0-.898.074l-1.384-5.338A1 1 0 0 0 20 7h-3a1 1 0 1 0 0 2h2.227l.638 2.461c-.84-.439-1.958-.584-3.143-.31-2.162.497-3.569 2.134-3.203 3.727.01.043.03.08.042.122H12c-.01 0-.018.005-.028.006a8.457 8.457 0 0 0-5.383-2.002c-.008 0-.014-.004-.022-.004H6a1 1 0 0 0-2 0v1a1 1 0 0 0 1 1h1.5c3.243 0 5.931 2.39 6.415 5.5h-2.036c-.457-2-2.242-3.5-4.379-3.5C4.019 17 2 19.019 2 21.5S4.019 26 6.5 26c2.137 0 3.922-1.5 4.38-3.5H16a1 1 0 0 0 1-1 6.508 6.508 0 0 1 3.921-5.964l.515 1.989C19.996 18.275 19 19.766 19 21.5c0 2.481 2.019 4.5 4.5 4.5s4.5-2.019 4.5-4.5-2.019-4.5-4.5-4.5zm-6.33-3.9c.275-.063.535-.09.772-.09.751 0 1.278.273 1.34.542.081.356-.556 1.067-1.702 1.33-1.15.262-2.03-.098-2.112-.452s.556-1.067 1.702-1.33zM13.698 17h2.604a8.43 8.43 0 0 0-1.238 3.5h-.128a8.43 8.43 0 0 0-1.238-3.5zM6.5 24C5.122 24 4 22.879 4 21.5S5.122 19 6.5 19c1.023 0 1.901.619 2.288 1.5H6.5a1 1 0 1 0 0 2h2.288A2.501 2.501 0 0 1 6.5 24zm17 0a2.502 2.502 0 0 1-2.5-2.5c0-.795.38-1.497.96-1.955l.572 2.206a1 1 0 1 0 1.936-.502l-.573-2.21A2.497 2.497 0 0 1 26 21.5c0 1.379-1.121 2.5-2.5 2.5z" fill="#333"/></svg>
