<svg xmlns="http://www.w3.org/2000/svg" viewBox="0 0 30 30"><style>.st2{fill:#333}</style><g id="Layer_1"><path class="st2" d="M18.254 8.73a2.988 2.988 0 0 0 2.295.081 2.974 2.974 0 0 0 1.679-1.564 2.983 2.983 0 0 0 .082-2.295 2.98 2.98 0 0 0-1.565-1.68 2.982 2.982 0 0 0-2.295-.082c-.75.28-1.347.836-1.679 1.565a2.983 2.983 0 0 0-.083 2.294 2.98 2.98 0 0 0 1.566 1.68zm.337-3.146a.988.988 0 0 1 .56-.52.994.994 0 0 1 .764.027.998.998 0 0 1 .493 1.325.991.991 0 0 1-.56.521.998.998 0 0 1-1.258-1.353zM17.717 13.976l4.5-1a1 1 0 0 0-.434-1.952l-3.742.831-1.61-3.18c-.002-.004-.007-.007-.01-.012a3.012 3.012 0 0 0-.339-.536 3.005 3.005 0 0 0-4.217-.465l-3.741 2.997a3.003 3.003 0 0 0-.465 4.217c.315.392.719.68 1.169.871.024.012.04.032.066.042L14 17.694V22a1 1 0 1 0 2 0v-5a1 1 0 0 0-.65-.936l-2.985-1.115 3.251-2.605c.107-.085.196-.184.289-.28l.703 1.388a1 1 0 0 0 1.109.524zm-3.351-3.193l-3.741 2.997a.97.97 0 0 1-.734.214.995.995 0 0 1-.671-.368v-.001a1.001 1.001 0 0 1 .155-1.406l3.74-2.997a.999.999 0 0 1 1.25 1.561z"/><path class="st2" d="M7.5 17C4.467 17 2 19.468 2 22.5S4.467 28 7.5 28s5.5-2.468 5.5-5.5S10.533 17 7.5 17zm0 9C5.57 26 4 24.43 4 22.5S5.57 19 7.5 19s3.5 1.57 3.5 3.5S9.43 26 7.5 26zM22.5 14c-3.032 0-5.5 2.468-5.5 5.5s2.468 5.5 5.5 5.5 5.5-2.468 5.5-5.5-2.468-5.5-5.5-5.5zm0 9c-1.93 0-3.5-1.57-3.5-3.5s1.57-3.5 3.5-3.5 3.5 1.57 3.5 3.5-1.57 3.5-3.5 3.5z"/></g></svg>
