<svg xmlns="http://www.w3.org/2000/svg" viewBox="0 0 30 30"><style>.st2{fill:#333}</style><g id="Layer_1"><path class="st2" d="M9 22a1 1 0 1 0 0 2h4a1 1 0 1 0 0-2H9zM27.615 2.212a.999.999 0 0 0-.857-.182l-8 2A1 1 0 0 0 18 5v6.684a2.964 2.964 0 0 0-1-.184c-1.654 0-3 1.346-3 3s1.346 3 3 3 3-1.346 3-3V5.78l6-1.5v4.904A2.964 2.964 0 0 0 25 9c-1.654 0-3 1.346-3 3s1.346 3 3 3 3-1.346 3-3V3a.998.998 0 0 0-.385-.788zM17 15.5a1 1 0 0 1 0-2 1 1 0 0 1 0 2zm8-2.5a1 1 0 0 1 0-2 1 1 0 0 1 0 2z"/><path class="st2" d="M18 25.03a.97.97 0 0 1-.97.97H4.97a.97.97 0 0 1-.97-.97V4.97A.97.97 0 0 1 4.97 4h11.202a2.994 2.994 0 0 1 1.838-1.82 2.935 2.935 0 0 0-.98-.18H4.97A2.973 2.973 0 0 0 2 4.97v20.06A2.973 2.973 0 0 0 4.97 28h12.06A2.973 2.973 0 0 0 20 25.03V19.5h-2v5.53zM20 18.5v-.028c-.011.008-.02.02-.03.028H20z"/><path class="st2" d="M16 9.826V6H6v14h10v-.826c-2.265-.361-4-2.308-4-4.674s1.735-4.313 4-4.674z"/></g></svg>
