<svg xmlns="http://www.w3.org/2000/svg" viewBox="0 0 30 30"><path d="M25.655 3.245a1.003 1.003 0 0 0-.797-.235l-14 2A1 1 0 0 0 10 6v13.556A3.955 3.955 0 0 0 8 19c-2.206 0-4 1.794-4 4s1.794 4 4 4 4-1.794 4-4V11.867l12-1.714v7.403A3.954 3.954 0 0 0 22 17c-2.206 0-4 1.794-4 4s1.794 4 4 4 4-1.794 4-4V4a1 1 0 0 0-.345-.755zM8 25c-1.103 0-2-.897-2-2s.897-2 2-2 2 .897 2 2-.897 2-2 2zm4-15.153v-2.98l12-1.714v2.98L12 9.847zM22 23c-1.103 0-2-.897-2-2s.897-2 2-2 2 .897 2 2-.898 2-2 2z" fill="#333"/></svg>
