<svg xmlns="http://www.w3.org/2000/svg" viewBox="0 0 30 30"><style>.st2{fill:#333}</style><g id="Layer_1"><path class="st2" d="M21.03 2H8.97A2.973 2.973 0 0 0 6 4.97v20.06A2.973 2.973 0 0 0 8.97 28h12.06A2.973 2.973 0 0 0 24 25.03V4.97A2.973 2.973 0 0 0 21.03 2zM22 25.03a.97.97 0 0 1-.97.97H8.97a.97.97 0 0 1-.97-.97V4.97A.97.97 0 0 1 8.97 4h12.06a.97.97 0 0 1 .97.97v20.06z"/><path class="st2" d="M17 22h-4a1 1 0 1 0 0 2h4a1 1 0 1 0 0-2zM18.747 6.032l-6 1.566a1 1 0 0 0-.747.967v5.486a2.503 2.503 0 0 0-3 2.45c0 1.378 1.122 2.499 2.5 2.499s2.5-1.121 2.5-2.5V9.338l4-1.044v3.757a2.503 2.503 0 0 0-3 2.45c0 1.377 1.121 2.499 2.5 2.499s2.5-1.122 2.5-2.5V7a1 1 0 0 0-1.253-.968z"/></g></svg>
