<svg xmlns="http://www.w3.org/2000/svg" viewBox="0 0 30 30">
	<path class="st2" d="M11.5,8c1.5,0,2.9,0.7,3.8,1.8l0.6,0.7l1,0c0,0,0.1,0,0.1,0c1.4,0,2.7,0.9,3.2,2.2l0.5,1.2l1.3,0
		c2.2,0,3.9,1.8,3.9,4c0,2.2-1.8,4-4,4H8.5C6,22,4,20,4,17.5c0-1.4,0.6-2.7,1.8-3.6l0.7-0.5l0.1-0.9C6.8,10,8.9,8,11.5,8 M11.5,6
		c-3.6,0-6.6,2.8-7,6.4C3,13.5,2,15.4,2,17.5C2,21.1,4.9,24,8.5,24c3,0,10.7,0,13.5,0c3.3,0,6-2.7,6-6c0-3.3-2.6-5.9-5.9-6
		C21.3,10,19.3,8.5,17,8.5c0,0-0.1,0-0.1,0C15.6,7,13.7,6,11.5,6L11.5,6z" fill="#333"/>
</svg>
