<svg xmlns="http://www.w3.org/2000/svg" viewBox="0 0 30 30"><style>.st2{fill:#333}</style><g id="Layer_1"><path class="st2" d="M9.38 12.07c-.37-.15-.8-.07-1.09.22l-2 2a.996.996 0 0 0 0 1.41l2 2c.29.29.72.38 1.09.22.38-.15.62-.52.62-.92v-4c0-.4-.24-.77-.62-.93zM13 10h4c.4 0 .77-.24.93-.62.15-.37.07-.8-.22-1.09l-2-2a.996.996 0 0 0-1.41 0l-2 2c-.29.29-.38.72-.22 1.09.15.38.52.62.92.62zM17 20h-4c-.4 0-.77.24-.93.62-.15.37-.07.8.22 1.09l2 2c.39.39 1.02.39 1.41 0l2-2c.29-.29.38-.72.22-1.09A.987.987 0 0 0 17 20z"/><path class="st2" d="M15 2C7.83 2 2 7.83 2 15s5.83 13 13 13 13-5.83 13-13S22.17 2 15 2zm0 24C8.93 26 4 21.07 4 15S8.93 4 15 4s11 4.93 11 11-4.93 11-11 11z"/><path class="st2" d="M23.71 14.3l-2-2a.988.988 0 0 0-1.09-.22c-.38.15-.62.52-.62.92v4c0 .4.24.77.62.93.37.15.8.07 1.09-.22l2-2a.996.996 0 0 0 0-1.41zM15 12c-1.65 0-3 1.35-3 3s1.35 3 3 3 3-1.35 3-3-1.35-3-3-3zm0 4c-.55 0-1-.45-1-1s.45-1 1-1 1 .45 1 1-.45 1-1 1z"/></g></svg>
