<svg xmlns="http://www.w3.org/2000/svg" viewBox="0 0 30 30"><path d="M24.006 13.86v5.871a8.727 8.727 0 0 1-2.604.383c-3.316 0-5.296-2.198-5.296-5.88 0-4.402 2.908-5.964 5.4-5.964 1.158 0 2.396.26 3.577.749l.39.162.321-2.047-.28-.09a12.245 12.245 0 0 0-3.844-.619c-4.569 0-7.638 3.234-7.638 8.046 0 .607.05 1.182.142 1.727h-1.18V6.552h-2.526L4.074 16.52l.346 1.592h6.46v3.868h2.115v-3.868h1.745c1.082 2.447 3.355 3.868 6.457 3.868 1.558 0 3.228-.297 4.58-.817l.22-.085V13.86h-1.99zM10.88 16.198l-4.485.002 4.485-7.028v7.026z" fill="#333"/></svg>
