<svg xmlns="http://www.w3.org/2000/svg" viewBox="0 0 30 30"><style>.st2{fill:#333}</style><g id="Layer_1"><path class="st2" d="M14.286 8.564l.097-.497H8.064l-1.31 6.89.65-.048c1.412-.103 2.434.094 2.953.575.273.254.406.593.406 1.039 0 1.769-1.496 2.958-3.723 2.958-.354 0-.743-.053-1.064-.145l-.515-.147L5 21.351l.535.07c.531.072 1.119.078 1.286.078 3.523 0 6.18-2.219 6.18-5.16 0-2.027-1.354-3.255-3.74-3.428l.523-2.735h2.54a2 2 0 0 0 1.962-1.613z"/><path class="st2" d="M21.484 9.886c.966 0 2.002.228 2.846.626l.522.246.655-2.136-.45-.161c-.996-.358-2.138-.54-3.39-.54-4.635 0-8.128 3.604-8.128 8.383 0 3.205 2.082 5.196 5.434 5.196 1.363 0 2.861-.241 4.11-.663l.276-.094L24.6 14.22h-.493a2 2 0 0 0-1.965 1.625l-.637 3.342a8.406 8.406 0 0 1-2.334.33c-3.15 0-3.394-2.515-3.394-3.285 0-3.559 2.506-6.346 5.706-6.346z"/></g></svg>
