<svg xmlns="http://www.w3.org/2000/svg" viewBox="0 0 30 30"><style>.st2{fill:#333}</style><g id="Layer_1"><path class="st2" d="M15 3C7.832 3 2 8.832 2 16c0 3.737 1.58 7.29 4.335 9.746a1 1 0 1 0 1.331-1.492C5.582 22.397 4.301 19.794 4.053 17H6a1 1 0 1 0 0-2H4.05C4.529 9.732 8.733 5.528 14 5.05V7a1 1 0 0 0 2 0V5.05c5.268.478 9.472 4.682 9.95 9.95H24a1 1 0 1 0 0 2h1.947c-.25 2.788-1.531 5.39-3.614 7.255a1 1 0 0 0 1.334 1.49A13.082 13.082 0 0 0 28 16c0-7.168-5.832-13-13-13z"/><path class="st2" d="M17.2 11.4l-1.968 2.624C15.155 14.014 15.08 14 15 14c-1.103 0-2 .897-2 2s.897 2 2 2a2.003 2.003 0 0 0 1.838-2.785L18.8 12.6a.999.999 0 1 0-1.6-1.2z"/><circle class="st2" cx="23" cy="20" r="1"/><circle class="st2" cx="7" cy="20" r="1"/><circle class="st2" cx="23" cy="12" r="1"/><circle class="st2" cx="7" cy="12" r="1"/><circle class="st2" cx="11" cy="8" r="1"/><circle class="st2" cx="19" cy="8" r="1"/></g></svg>
