<svg xmlns="http://www.w3.org/2000/svg" viewBox="0 0 30 30"><path d="M15 2C7.832 2 2 7.832 2 15s5.832 13 13 13 13-5.832 13-13S22.168 2 15 2zm0 24c-1.34 0-2.788-2.375-3.519-6h7.038c-.73 3.625-2.179 6-3.519 6zm-3.83-8c-.107-.948-.17-1.949-.17-3s.063-2.052.17-3h7.66c.107.948.17 1.949.17 3s-.063 2.052-.17 3h-7.66zM4 15c0-1.041.155-2.045.426-3h4.727C9.056 12.959 9 13.959 9 15s.056 2.041.153 3H4.426A10.948 10.948 0 0 1 4 15zM15 4c1.34 0 2.788 2.375 3.519 6h-7.038c.73-3.625 2.18-6 3.519-6zm5.847 8h4.726c.272.955.427 1.959.427 3s-.155 2.045-.426 3h-4.727c.097-.959.153-1.959.153-3s-.056-2.041-.153-3zm3.939-2h-4.217c-.39-2.15-1.032-3.975-1.855-5.34A11.044 11.044 0 0 1 24.786 10zm-13.5-5.34C10.463 6.024 9.82 7.85 9.43 10H5.214a11.044 11.044 0 0 1 6.072-5.34zM5.214 20h4.217c.39 2.15 1.032 3.975 1.855 5.34A11.044 11.044 0 0 1 5.214 20zm13.5 5.34c.823-1.365 1.465-3.19 1.855-5.34h4.217a11.044 11.044 0 0 1-6.072 5.34z" fill="#333"/></svg>
