<svg xmlns="http://www.w3.org/2000/svg" viewBox="0 0 30 30"><style>.st2{fill:#333}</style><g id="Layer_1"><path class="st2" d="M27 10.5h-.5V10a1 1 0 1 0-2 0v.5H24a1 1 0 1 0 0 2h.5v.5a1 1 0 1 0 2 0v-.5h.5a1 1 0 1 0 0-2zM20.23 20.003c-.739.224-1.46.33-2.25.33-2.868 0-4.579-1.9-4.579-5.082 0-3.806 2.514-5.156 4.667-5.156 1.002 0 2.072.224 3.093.647l.338.14.277-1.769-.242-.079A10.588 10.588 0 0 0 18.21 8.5c-3.95 0-6.603 2.795-6.603 6.955 0 .525.043 1.022.122 1.493h-1.018V8.61H8.527L3 17.226l.3 1.376h5.583v3.344h1.829v-3.344h1.508c.936 2.115 2.9 3.344 5.582 3.344 1.347 0 2.79-.257 3.96-.707l.19-.073v-6.24H20.23v5.077zM8.884 16.948l-3.877.002 3.877-6.075v6.073z"/></g></svg>
