<svg xmlns="http://www.w3.org/2000/svg" viewBox="0 0 30 30"><style>.st2{fill:#333}</style><g id="Layer_1"><path class="st2" d="M19 10H8a1 1 0 0 0 0 2h11a1 1 0 1 0 0-2zM19 14h-3a1 1 0 0 0 0 2h3a1 1 0 1 0 0-2zM19 18h-3a1 1 0 1 0 0 2h3a1 1 0 1 0 0-2zM7 14h6v6H7z"/><path class="st2" d="M27 8a1 1 0 0 0-1 1v12a1 1 0 0 1-2 0V7a1 1 0 0 0-1-1H4a1 1 0 0 0-1 1v13.076A3.928 3.928 0 0 0 6.924 24h18.078A3.003 3.003 0 0 0 28 21V9a1 1 0 0 0-1-1zM6.924 22A1.926 1.926 0 0 1 5 20.076V8h17v13c0 .35.06.688.17 1H6.925z"/></g></svg>
