<svg xmlns="http://www.w3.org/2000/svg" viewBox="0 0 30 30"><style>.st2{fill:#333}</style><g id="Layer_1"><circle class="st2" cx="15" cy="15" r="1"/><path class="st2" d="M15 2C7.832 2 2 7.832 2 15c0 6.83 5.298 12.435 12 12.95v-2C8.402 25.441 4 20.727 4 15 4 8.935 8.935 4 15 4s11 4.935 11 11c0 5.728-4.402 10.442-10 10.95v2c6.701-.514 12-6.12 12-12.95 0-7.168-5.832-13-13-13z"/><path class="st2" d="M8 15c0-3.86 3.14-7 7-7s7 3.14 7 7c0 3.519-2.614 6.432-6 6.92v2.021c4.494-.5 8-4.316 8-8.941 0-4.962-4.037-9-9-9-4.962 0-9 4.038-9 9 0 4.624 3.507 8.441 8 8.941v-2.02c-3.387-.489-6-3.402-6-6.921z"/><path class="st2" d="M12 15c0-1.654 1.346-3 3-3s3 1.346 3 3a2.995 2.995 0 0 1-2 2.816v2.083c2.28-.465 4-2.485 4-4.899 0-2.757-2.243-5-5-5s-5 2.243-5 5a5.008 5.008 0 0 0 4 4.899v-2.083A2.995 2.995 0 0 1 12 15z"/></g></svg>
