<svg xmlns="http://www.w3.org/2000/svg" viewBox="0 0 30 30"><style>.st2{fill:#333}</style><g id="Layer_1"><path class="st2" d="M26.707 25.589a1 1 0 0 0-1.414 0l-.411.411h-3.166v-2.17a1 1 0 0 0-.187-.582l-1.113-1.558c.318-.22.589-.505.778-.856l.775-1.438c.153.091.325.15.507.15a1 1 0 0 0 .245-.03l2.818-.705a1 1 0 0 0 .727-1.213.995.995 0 0 0-1.213-.727l-1.914.478-.279-.848c-.002-.007-.007-.01-.01-.017a2.486 2.486 0 0 0-1.245-1.679 2.482 2.482 0 0 0-1.903-.194 2.48 2.48 0 0 0-1.483 1.208l-1.425 2.641a2.476 2.476 0 0 0-.29 1.292c0 .007-.004.013-.004.02v2.704l-2.719.544a.974.974 0 0 0-.281.117l-2.624-1.064a1 1 0 0 0-.752 1.854L15.236 26h-2.622a1 1 0 1 0 0 2h12.682a1 1 0 0 0 .707-.293l.704-.704a1 1 0 0 0 0-1.414zm-8.153-6.18l1.426-2.64a.496.496 0 0 1 .676-.203.5.5 0 0 1 .202.678l-1.424 2.64a.5.5 0 0 1-.676.203h-.001a.495.495 0 0 1-.243-.297.506.506 0 0 1 .04-.38zm-.858 4.867a1 1 0 0 0 .804-.98v-.849l1.216 1.702v1.51l-2.95-1.197.93-.186z"/><circle class="st2" cx="23.5" cy="12.5" r="2"/><path class="st2" d="M15.603 13.389l.349-1.082a1 1 0 1 0-1.904-.614l-.24.744-3.998 2.597 1.152-2.176c.005-.009.012-.016.017-.024l1.424-2.64a2.503 2.503 0 0 0-1.013-3.388 2.48 2.48 0 0 0-1.305-.289c-.03-.002-.055-.017-.085-.017H5a1 1 0 0 0 0 2h2.636l-1.057 1.96a2.483 2.483 0 0 0-.196 1.903c.192.64.62 1.167 1.208 1.484.156.083.32.14.485.189l-1.668 3.15c-.012.023-.011.048-.021.071l-2.932 1.904a1 1 0 0 0 1.09 1.678l10.651-6.918c.193-.126.337-.314.407-.532zm-6.681-1.263a.503.503 0 0 1-.38-.04H8.54a.497.497 0 0 1-.203-.677l1.425-2.64a.497.497 0 0 1 .677-.203.502.502 0 0 1 .203.678L9.577 11.22c-.008.013-.022.021-.03.036l-.338.64a.506.506 0 0 1-.287.231z"/><circle class="st2" cx="13" cy="4" r="2"/></g></svg>
