<svg xmlns="http://www.w3.org/2000/svg" viewBox="0 0 30 30"><style>.st2{fill:#333}</style><g id="Layer_1"><path class="st2" d="M6.536 26v-.001l3.261-2.057-.993-1.739-2.273 1.434-.007-3.068 1.527-.963c.05-.379.149-.752.344-1.094l1.33-2.327-3.206 2.023-.007-3.007L11 12.369v1.584l1.395-2.442c.16-.28.372-.515.605-.725V10h2a1 1 0 0 0 1-1V5.786C16 3.698 14.206 2 12 2h-1a1 1 0 0 0-1 1v1H8V3a1 1 0 0 0-1-1H6C3.794 2 2 3.698 2 5.786V9a1 1 0 0 0 1 1h1.5v.002l.039 17a1 1 0 0 0 1 .998H12c.037 0 .068-.017.104-.021L10.974 26H6.535zM4 5.786C4 4.8 4.897 4 6 4v1a1 1 0 0 0 1 1h4a1 1 0 0 0 1-1V4c1.103 0 2 .801 2 1.786V8H4V5.786zM6.5 10H11v.008c-.004.002-.009.002-.013.005l-4.48 2.826L6.5 10z"/><path class="st2" d="M27.868 19.504l-4-7A1 1 0 0 0 23 12h-8a1 1 0 0 0-.868.504l-4 7a1 1 0 0 0 0 .992l4 7A1 1 0 0 0 15 28h8a1 1 0 0 0 .868-.504l4-7a1 1 0 0 0 0-.992zM22.42 26h-6.84l-3.428-6 3.428-6h6.84l3.429 6-3.43 6z"/><path class="st2" d="M19 16c-2.206 0-4 1.794-4 4s1.794 4 4 4 4-1.794 4-4-1.794-4-4-4zm0 6c-1.103 0-2-.897-2-2s.897-2 2-2 2 .897 2 2-.898 2-2 2z"/></g></svg>
