<svg xmlns="http://www.w3.org/2000/svg" viewBox="0 0 30 30"><style>.st2{fill:#333}</style><g id="Layer_1"><path class="st2" d="M16 14h-2c-.55 0-1 .45-1 1s.45 1 1 1h2c.55 0 1-.45 1-1s-.45-1-1-1zM10 18H8c-.55 0-1 .45-1 1s.45 1 1 1h2c.55 0 1-.45 1-1s-.45-1-1-1zM10 14H8c-.55 0-1 .45-1 1s.45 1 1 1h2c.55 0 1-.45 1-1s-.45-1-1-1zM16 18h-2c-.55 0-1 .45-1 1s.45 1 1 1h2c.55 0 1-.45 1-1s-.45-1-1-1z"/><path class="st2" d="M24 2H12c-1.65 0-3 1.35-3 3v5H6c-1.65 0-3 1.35-3 3v14c0 .55.45 1 1 1h6c.55 0 1-.45 1-1v-3h2v3c0 .55.45 1 1 1h12c.55 0 1-.45 1-1V5c0-1.65-1.35-3-3-3zm-5 24h-4v-3c0-.55-.45-1-1-1h-4c-.55 0-1 .45-1 1v3H5V13c0-.55.45-1 1-1h12c.55 0 1 .45 1 1v13zm6 0h-4v-6h1c.55 0 1-.45 1-1s-.45-1-1-1h-1v-2h1c.55 0 1-.45 1-1s-.45-1-1-1h-1v-1c0-.35-.07-.69-.18-1H22c.55 0 1-.45 1-1s-.45-1-1-1h-2c-.28 0-.53.12-.71.3-.39-.19-.83-.3-1.29-.3h-7V5c0-.55.45-1 1-1h12c.55 0 1 .45 1 1v21z"/><path class="st2" d="M16 6h-2c-.55 0-1 .45-1 1s.45 1 1 1h2c.55 0 1-.45 1-1s-.45-1-1-1zM22 6h-2c-.55 0-1 .45-1 1s.45 1 1 1h2c.55 0 1-.45 1-1s-.45-1-1-1z"/></g></svg>
