<svg xmlns="http://www.w3.org/2000/svg" viewBox="0 0 30 30"><style>.st2{fill:#333}</style><g id="Layer_1"><path class="st2" d="M4 20.82V10.44c2.346 1.357 6.434 2.061 10.5 2.061 2.728 0 5.384-.308 7.475-.866 1.228-.321 2.24-.71 3.025-1.158v2.474c.729.363 1.4.822 2 1.36V7.82h-.01c.002-.024.01-.046.01-.07C27 4.631 20.712 3 14.5 3S2 4.631 2 7.75c0 .024.008.045.009.068H2V20.82c0 3.22 5.638 4.984 11.511 5.162a8.977 8.977 0 0 1-1.01-2.05C7.254 23.595 4 21.977 4 20.82zM14.5 5C21.014 5 25 6.78 25 7.75c0 .397-.959 1.276-3.536 1.95-1.933.516-4.405.8-6.964.8C7.986 10.5 4 8.72 4 7.75S7.986 5 14.5 5z"/><path class="st2" d="M21 14c-3.86 0-7 3.14-7 7s3.14 7 7 7 7-3.14 7-7-3.14-7-7-7zm4.899 6H23.97c-.062-1.2-.237-2.363-.537-3.34 1.244.7 2.171 1.899 2.465 3.34zm-5.87 2h1.942c-.127 2.17-.648 3.5-.97 3.91-.324-.41-.845-1.74-.972-3.91zm0-2c.127-2.17.648-3.5.971-3.91.323.41.844 1.74.97 3.91h-1.94zm-1.462-3.34c-.3.977-.476 2.14-.538 3.34H16.1c.294-1.441 1.221-2.64 2.466-3.34zM16.1 22h1.928c.062 1.2.237 2.363.537 3.34-1.244-.7-2.171-1.899-2.465-3.34zm7.332 3.34c.3-.977.476-2.14.538-3.34H25.9c-.294 1.441-1.221 2.64-2.466 3.34z"/></g></svg>
