<svg xmlns="http://www.w3.org/2000/svg" viewBox="0 0 30 30"><style>.st2{fill:#333}</style><g id="Layer_1"><path class="st2" d="M14 12.495c.22.03.438.03.603.03 2.247 0 3.397-1.518 3.397-3.447C18 7.134 16.754 6 14.48 6c-.905 0-1.727.015-2.48.059V16h2v-3.505zm0-4.92c.206-.014.411-.014.63-.014 1.206 0 1.52.634 1.52 1.635 0 1.075-.533 1.723-1.63 1.738a3.23 3.23 0 0 1-.52-.044V7.576z"/><path class="st2" d="M21 2H9a1 1 0 0 0-1 1v16a1 1 0 0 0 1 1h5v7a1 1 0 1 0 2 0v-7h5a1 1 0 0 0 1-1V3a1 1 0 0 0-1-1zm-1 16H10V4h10v14z"/></g></svg>
