<svg xmlns="http://www.w3.org/2000/svg" viewBox="0 0 30 30"><path d="M23.447 4.106a20.592 20.592 0 0 0-3.926-1.496c-.015-.003-.025-.013-.04-.016h-.019a17.541 17.541 0 0 0-4.44-.59C15.014 2.004 15.008 2 15 2c-.008 0-.014.004-.022.004-1.48.003-2.96.202-4.438.59-.007 0-.014-.002-.021 0-.017.002-.028.014-.044.017a20.6 20.6 0 0 0-3.922 1.494 1 1 0 0 0-.538 1.069l2.563 14.521A3.984 3.984 0 0 0 12 22.954V24a1 1 0 0 0 1 1h1v2a1 1 0 1 0 2 0v-2h1a1 1 0 0 0 1-1v-1.046a3.984 3.984 0 0 0 3.422-3.259l2.562-14.521a1 1 0 0 0-.537-1.069zM9.95 4.85l.07.345a1 1 0 1 0 1.96-.392l-.094-.474A15.31 15.31 0 0 1 14 4.046V4.5a1 1 0 0 0 2 0v-.454c.704.048 1.409.136 2.114.284l-.095.474a1 1 0 0 0 1.962.392l.069-.345c.61.206 1.22.443 1.833.723L20.6 12.843a20.299 20.299 0 0 0-2.841-.628l.725-4.038a1 1 0 1 0-1.97-.354l-.755 4.212a19.607 19.607 0 0 0-6.36.808L8.117 5.574c.613-.28 1.224-.517 1.833-.723zM17.483 21h-4.966c-.973 0-1.8-.695-1.97-1.652l-.798-4.525c3.488-1.073 7.016-1.072 10.502 0l-.798 4.525A1.997 1.997 0 0 1 17.483 21z" fill="#333"/></svg>
