<svg xmlns="http://www.w3.org/2000/svg" viewBox="0 0 30 30"><style>.st2{fill:#333}</style><g id="Layer_1"><path class="st2" d="M14.61 9c-1.68 0-3.21.025-4.61.1V26h3.31v-5.959c.41.05.816.05 1.122.05 4.178 0 6.724-2.579 6.724-5.858C21.156 10.927 18.84 9 14.61 9zm-.33 8.387c-.306 0-.637-.025-.969-.075V11.68c.383-.025.764-.025 1.172-.025 2.241 0 3.235 1.077 3.235 2.779 0 1.828-1.401 2.93-3.439 2.954z"/><path class="st2" d="M25.515 8.143l-10-6a.999.999 0 0 0-1.03 0l-10 6a1 1 0 1 0 1.03 1.714L15 4.166l9.485 5.691a.999.999 0 0 0 1.03-1.715z"/></g></svg>
