<svg xmlns="http://www.w3.org/2000/svg" viewBox="0 0 30 30"><style>.st2{fill:#333}</style><g id="Layer_1"><circle class="st2" cx="22.5" cy="10.5" r="1.5"/><circle class="st2" cx="9" cy="15" r="2"/><path class="st2" d="M9 17c-1.7 0-3 1.3-3 3 0 .6.4 1 1 1h4c.6 0 1-.4 1-1 0-1.7-1.3-3-3-3zM11 9H7a1 1 0 0 0 0 2h4a1 1 0 0 0 0-2z"/><path class="st2" d="M27 5h-8c-1.641 0-3.088.806-4 2.03C14.088 5.807 12.641 5 11 5H3a1 1 0 0 0-1 1v18a1 1 0 0 0 1 1h24a1 1 0 0 0 1-1V6a1 1 0 0 0-1-1zM4 7h7c1.654 0 3 1.346 3 3v13H4V7zm22 16H16V10c0-1.654 1.346-3 3-3h7v16z"/><path class="st2" d="M23 15h-4a1 1 0 1 0 0 2h4a1 1 0 1 0 0-2zM22 19h-3a1 1 0 1 0 0 2h3a1 1 0 1 0 0-2z"/></g></svg>
