<svg xmlns="http://www.w3.org/2000/svg" viewBox="0 0 30 30"><path d="M20 13v-2.5c0-1.478-.815-2.757-2.01-3.45 0-.017.01-.032.01-.05V3a1 1 0 0 0-1-1h-4a1 1 0 0 0-1 1v4c0 .018.01.033.01.05C10.815 7.744 10 9.023 10 10.5V13a1 1 0 0 0 .293.707 2.538 2.538 0 0 1 0 3.586A1 1 0 0 0 10 18v7c0 1.654 1.346 3 3 3a2.99 2.99 0 0 0 2-.766A2.99 2.99 0 0 0 17 28c1.654 0 3-1.346 3-3v-7a1 1 0 0 0-.293-.707 2.54 2.54 0 0 1 0-3.586A1 1 0 0 0 20 13zm-6-9h2v2h-2V4zm4 8.615a4.543 4.543 0 0 0 0 5.77V25a1 1 0 0 1-2 0 1 1 0 1 0-2 0 1 1 0 0 1-2 0v-6.615a4.543 4.543 0 0 0 0-5.77V10.5c0-1.103.897-2 2-2h2c1.103 0 2 .897 2 2v2.115z" fill="#333"/></svg>
