<svg xmlns="http://www.w3.org/2000/svg" viewBox="0 0 30 30"><style>.st2{fill:#333}</style><g id="Layer_1"><path class="st2" d="M27 9h-6V3a1 1 0 0 0-1-1H10a1 1 0 0 0-1 1v6H3a1 1 0 0 0-1 1v10a1 1 0 0 0 1 1h6v6a1 1 0 0 0 1 1h10a1 1 0 0 0 1-1v-6h6a1 1 0 0 0 1-1V10a1 1 0 0 0-1-1zm-1 10h-6a1 1 0 0 0-1 1v6h-8v-6a1 1 0 0 0-1-1H4v-8h6a1 1 0 0 0 1-1V4h8v6a1 1 0 0 0 1 1h6v8z"/><path class="st2" d="M15 8c.551 0 1 .449 1 1a1 1 0 1 0 2 0 2.995 2.995 0 0 0-2-2.816V6a1 1 0 0 0-2 0v.184A2.995 2.995 0 0 0 12 9c0 1.654 1.346 3 3 3 .551 0 1 .449 1 1s-.449 1-1 1c-1.654 0-3 1.346-3 3s1.346 3 3 3a1 1 0 0 1 0 2h-1a1 1 0 1 0 0 2 1 1 0 1 0 2 0v-.184A2.995 2.995 0 0 0 18 21c0-1.654-1.346-3-3-3a1 1 0 0 1 0-2c1.654 0 3-1.346 3-3s-1.346-3-3-3c-.551 0-1-.449-1-1s.449-1 1-1z"/></g></svg>
