<svg xmlns="http://www.w3.org/2000/svg" viewBox="0 0 30 30"><style>.st2{fill:#333}</style><g id="Layer_1"><path class="st2" d="M22 7h-4.985c0-2.213-1.802-4.014-4.015-4.014S8.986 4.786 8.986 7H8c-1.654 0-3 1.346-3 3v16a1 1 0 0 0 1 1h18a1 1 0 0 0 1-1V10c0-1.654-1.346-3-3-3zM11.014 7c0-1.095.89-1.986 1.986-1.986s1.986.89 1.986 1.986v12c0 1.095-.89 1.985-1.986 1.985s-1.986-.89-1.986-1.985V7zM23 25H7V10c0-.551.449-1 1-1h.986v10c0 2.214 1.8 4.015 4.014 4.015s4.015-1.801 4.015-4.015V9H22a1 1 0 0 1 1 1v15z"/><path class="st2" d="M20 19a1 1 0 0 0-1 1v2a1 1 0 1 0 2 0v-2a1 1 0 0 0-1-1z"/></g></svg>
