<svg xmlns="http://www.w3.org/2000/svg" viewBox="0 0 30 30"><style>.st2{fill:#333}</style><g id="Layer_1"><path class="st2" d="M10 22a1 1 0 1 0 0 2h4a1 1 0 1 0 0-2h-4z"/><path class="st2" d="M19 25.03a.97.97 0 0 1-.97.97H5.97a.97.97 0 0 1-.97-.97V4.97c0-.535.435-.97.97-.97h10.386c.16-.744.506-1.416.97-2H5.97A2.974 2.974 0 0 0 3 4.97v20.06A2.973 2.973 0 0 0 5.97 28h12.06A2.973 2.973 0 0 0 21 25.03v-3.054a7.897 7.897 0 0 1-2-.384v3.438z"/><path class="st2" d="M16.25 6.095V6H7v14h9.261C14.868 18.728 14 16.958 14 15V9c0-1.398.956-2.572 2.25-2.905z"/><path class="st2" d="M26 8h-1V5.5C25 3.57 23.43 2 21.5 2S18 3.57 18 5.5V8h-1a1 1 0 0 0-1 1v5.5c0 3.032 2.468 5.5 5.5 5.5s5.5-2.468 5.5-5.5V9a1 1 0 0 0-1-1zm-4.5-4c.827 0 1.5.673 1.5 1.5V8h-3V5.5c0-.827.673-1.5 1.5-1.5zM25 14.5c0 1.93-1.57 3.5-3.5 3.5S18 16.43 18 14.5V10h7v4.5z"/><path class="st2" d="M20.5 15.5a1 1 0 1 0 2 0v-1.39c.305-.274.5-.667.5-1.11a1.5 1.5 0 0 0-3 0c0 .443.195.836.5 1.11v1.39z"/></g></svg>
