<svg xmlns="http://www.w3.org/2000/svg" viewBox="0 0 30 30"><style>.st2{fill:#333}</style><g id="Layer_1"><path class="st2" d="M21.84 13H18V3a1 1 0 0 0-1-1H7a1 1 0 0 0-1 1v10.01h-.048A4.148 4.148 0 0 0 2 17.16V27a1 1 0 0 0 1 1h22a1 1 0 0 0 1-1v-9.84A4.165 4.165 0 0 0 21.84 13zM8 4h8v18H8V4zm16 22H4v-8.84c0-1.151.9-2.097 2-2.15V23a1 1 0 0 0 1 1h10a1 1 0 0 0 1-1v-8h3.84c1.191 0 2.16.97 2.16 2.16V26z"/><path class="st2" d="M9 5h6v8.5H9zM21 20.5a1 1 0 0 0-1 1V23a1 1 0 1 0 2 0v-1.5a1 1 0 0 0-1-1z"/><circle class="st2" cx="10.5" cy="16" r="1"/><circle class="st2" cx="10.5" cy="19.5" r="1"/><circle class="st2" cx="13.5" cy="16" r="1"/><circle class="st2" cx="13.5" cy="19.5" r="1"/></g></svg>
