<svg xmlns="http://www.w3.org/2000/svg" viewBox="0 0 30 30"><style>.st2{fill:#333}</style><g id="Layer_1"><path class="st2" d="M27 4H7a1 1 0 0 0-1 1v3H3a1 1 0 0 0-1 1v16a1 1 0 0 0 1 1h20a1 1 0 0 0 1-1v-3h3a1 1 0 0 0 1-1V5a1 1 0 0 0-1-1zM10 24v-1a1 1 0 0 1 1-1h4a1 1 0 0 1 1 1v1h-6zm12 0h-4v-1c0-1.654-1.346-3-3-3h-4c-1.654 0-3 1.346-3 3v1H4V10l18 .007V24zm4-4h-2V9a1 1 0 0 0-1-1H8V6h18v14z"/><path class="st2" d="M13 12c-1.654 0-3 1.346-3 3s1.346 3 3 3 3-1.346 3-3-1.346-3-3-3zm0 4c-.551 0-1-.449-1-1s.449-1 1-1 1 .449 1 1-.449 1-1 1z"/></g></svg>
