<svg xmlns="http://www.w3.org/2000/svg" viewBox="0 0 30 30"><style>.st2{fill:#333}</style><g id="Layer_1"><circle class="st2" cx="11" cy="15" r="1"/><path class="st2" d="M22.25 9.5C24.317 9.5 26 7.818 26 5.75S24.317 2 22.25 2 18.5 3.682 18.5 5.75s1.683 3.75 3.75 3.75zm0-5.5c.965 0 1.75.785 1.75 1.75s-.785 1.75-1.75 1.75-1.75-.785-1.75-1.75S21.285 4 22.25 4zM12.664 11.619a1.008 1.008 0 0 0 1.22 1.602 3.464 3.464 0 0 1 2.585-.682 3.47 3.47 0 0 1 2.31 1.345 1.005 1.005 0 0 0 1.412.191c.442-.337.527-.969.19-1.41a5.47 5.47 0 0 0-3.642-2.122 5.474 5.474 0 0 0-4.075 1.076z"/><path class="st2" d="M22.25 11a5.21 5.21 0 0 1-1.958-.387A7.247 7.247 0 0 1 23 16.26c0 4.004-3.257 7.26-7.26 7.26a7.221 7.221 0 0 1-6.162-3.433 1 1 0 0 0-.486-.402L6 18.482V16h1.59a1 1 0 0 0 .989-.848A7.208 7.208 0 0 1 15.739 9c1.107 0 2.152.256 3.09.7a5.227 5.227 0 0 1-1.622-2.572A9.244 9.244 0 0 0 15.739 7a9.255 9.255 0 0 0-4.188 1l-6.345.021C4.622 7.896 4 8.377 4 9V9.041c.018 1.935 1.27 3.567 3 4.183a9.389 9.389 0 0 0-.229.776H5a1 1 0 0 0-1 1v4.167a1 1 0 0 0 .638.932l3.42 1.33.956 5.735A1 1 0 0 0 10 28h4a1 1 0 0 0 1-1v-1.524c.246.02.49.045.74.045.428 0 .847-.04 1.26-.096V27a1 1 0 0 0 1 1h4a.999.999 0 0 0 .982-.815l1.462-7.793c.353-.98.556-2.031.556-3.131a9.2 9.2 0 0 0-1.726-5.365A5.245 5.245 0 0 1 22.25 11zm-16.033-.982l2.68-.01c-.39.43-.735.902-1.04 1.403a2.508 2.508 0 0 1-1.64-1.393zM13 26h-2.153l-.351-2.11c.765.53 1.611.927 2.504 1.203V26zm8.17 0H19v-1.083a9.26 9.26 0 0 0 2.713-1.591L21.17 26z"/></g></svg>
