<svg xmlns="http://www.w3.org/2000/svg" viewBox="0 0 30 30"><style>.st2{fill:#333}</style><g id="Layer_1"><path class="st2" d="M26 13h-5V5c0-1.103-.897-2-2-2h-8c-1.103 0-2 .897-2 2v8H4c-1.103 0-2 .897-2 2v9a1 1 0 0 0 1 1h24a1 1 0 0 0 1-1v-9c0-1.103-.898-2-2-2zM11 5h8v8h-8V5zm15 18H4v-8h22v8z"/><path class="st2" d="M13.213 6.845l.235 1.286.97-.398V11.5H16V6.253h-1.185zM8.134 20.152l.54-.398c.777-.582 1.277-1.193 1.277-1.96 0-1-.745-1.644-2.123-1.644a4.6 4.6 0 0 0-1.766.369l.224 1.317c.276-.174.745-.348 1.164-.348.51 0 .765.235.765.602 0 .43-.377.726-1.429 1.531L6 20.234V21.5h4.125v-1.367c-.766 0-1.399 0-1.991.04v-.02zM21.434 20.374a2.64 2.64 0 0 1-.812-.112L20.5 21.52c.254.074.62.122.987.122 1.527 0 2.513-.71 2.513-1.873 0-.54-.34-1.05-1.003-1.235l.017-.024c.515-.17.873-.59.873-1.147 0-.806-.673-1.363-1.832-1.363-.534 0-1.1.104-1.485.25l.13 1.202c.28-.121.586-.193.892-.193.463 0 .61.21.61.427 0 .235-.27.59-1.423.557v1.17c1.31-.185 1.502.178 1.502.444 0 .291-.323.517-.847.517z"/></g></svg>
