<svg xmlns="http://www.w3.org/2000/svg" viewBox="0 0 30 30"><style>.st2{fill:#333}</style><g id="Layer_1"><path class="st2" d="M18.679 19H11.32A6.328 6.328 0 0 0 5 25.321V27a1 1 0 0 0 1 1h18a1 1 0 0 0 1-1v-1.679A6.329 6.329 0 0 0 18.679 19zM7 25.321A4.326 4.326 0 0 1 11.32 21h4.018l-5.714 5H7v-.679zM23 26H12.662l5.714-5h.303A4.326 4.326 0 0 1 23 25.321V26zM8 9h.086C8.038 9.33 8 9.662 8 10c0 3.86 3.14 7 7 7s7-3.14 7-7c0-.338-.038-.67-.086-1H22a1 1 0 0 0 1-1V5.754c0-.888-.597-1.679-1.451-1.922l-6.274-1.793a.992.992 0 0 0-.55 0L8.451 3.83A2.008 2.008 0 0 0 7 5.755V8a1 1 0 0 0 1 1zm7 6c-2.757 0-5-2.243-5-5 0-.227.027-.448.057-.668C10.992 10.012 12.728 11 15 11s4.008-.988 4.943-1.668c.03.22.057.442.057.668 0 2.757-2.243 5-5 5zM9 5.754l6-1.714 6 1.714V7H9V5.754z"/></g></svg>
