<svg xmlns="http://www.w3.org/2000/svg" viewBox="0 0 30 30"><style>.st2{fill:#333}</style><g id="Layer_1"><path class="st2" d="M6 6h8v10H6z"/><path class="st2" d="M24 4h-1c-.392 0-.763.084-1.121.202A2.995 2.995 0 0 0 19 2H4.796A2.8 2.8 0 0 0 2 4.796v20.408A2.8 2.8 0 0 0 4.796 28H19c1.654 0 3-1.346 3-3V12.84c.322.094.653.16 1 .16h1c2.206 0 4-2.019 4-4.5S26.206 4 24 4zM14 26H4.796A.797.797 0 0 1 4 25.204V4.796C4 4.357 4.357 4 4.796 4H15.204c.439 0 .796.357.796.796v20.408a.797.797 0 0 1-.796.796H14zm5 0h-1.13c.077-.254.13-.517.13-.796V4.796c0-.278-.053-.542-.13-.796H19a1 1 0 0 1 1 1v.555c-.615.791-1 1.814-1 2.945s.385 2.154 1 2.945V25a1 1 0 0 1-1 1zm2-17.5c0-1.378.898-2.5 2-2.5s2 1.122 2 2.5-.898 2.5-2 2.5-2-1.122-2-2.5z"/><path class="st2" d="M8 18H6a1 1 0 1 0 0 2h2a1 1 0 1 0 0-2zM14 18h-2a1 1 0 1 0 0 2h2a1 1 0 1 0 0-2zM8 22H6a1 1 0 1 0 0 2h2a1 1 0 1 0 0-2zM14 22h-2a1 1 0 1 0 0 2h2a1 1 0 1 0 0-2z"/></g></svg>
