<svg xmlns="http://www.w3.org/2000/svg" viewBox="0 0 30 30"><style>.st2{fill:#333}</style><g id="Layer_1"><path class="st2" d="M27.259 9.434l-20.15-5.4a1 1 0 0 0-1.225.707L4.741 9H3a1 1 0 0 0-1 1v14a1 1 0 0 0 1 1h22a1 1 0 0 0 1-1v-5.999l1.966-7.342a1 1 0 0 0-.707-1.225zM7.557 6.224L17.913 9H6.812l.745-2.775zM24 23H4V11h20v12z"/><path class="st2" d="M7 15h6a1 1 0 0 0 0-2H7a1 1 0 0 0 0 2zM7 18h6a1 1 0 1 0 0-2H7a1 1 0 1 0 0 2zM7 21h6a1 1 0 1 0 0-2H7a1 1 0 1 0 0 2zM17 21h4a1 1 0 1 0 0-2h-4a1 1 0 1 0 0 2zM19 15v3a3 3 0 1 0-3-3c0 .594.187 1.14.47 1.614L19 15z"/></g></svg>
