<svg xmlns="http://www.w3.org/2000/svg" viewBox="0 0 30 30"><style>.st2{fill:#333}</style><g id="Layer_1"><path class="st2" d="M26.7 3.3c-.4-.4-1-.4-1.4 0l-5 5C18.7 7.5 16.9 7 15 7 8.6 7 3.6 12.6 2.2 14.4c-.3.3-.3.8 0 1.2.8 1 2.9 3.4 5.7 5.1l-4.6 4.6c-.4.4-.4 1 0 1.4.2.2.5.3.7.3s.5-.1.7-.3l22-22c.4-.4.4-1 0-1.4zm-14.4 13c-.2-.4-.3-.8-.3-1.3 0-1.7 1.3-3 3-3 .5 0 .9.1 1.3.3l-4 4zm5.5-5.5c-.8-.5-1.7-.8-2.8-.8-2.8 0-5 2.2-5 5 0 1 .3 2 .8 2.8l-1.5 1.5c-2.3-1.3-4-3.1-5-4.3C6 13 10.1 9 15 9c1.3 0 2.6.3 3.8.8l-1 1zM27.8 14.4c-.6-.8-2.1-2.5-4-4l-1.4 1.4c1.5 1.1 2.6 2.3 3.3 3.2-1.7 2-5.8 6-10.7 6-.6 0-1.1-.1-1.6-.2l-1.7 1.7c1 .3 2.1.5 3.3.5 6.4 0 11.4-5.6 12.8-7.4.3-.3.3-.8 0-1.2z"/></g></svg>
