<svg xmlns="http://www.w3.org/2000/svg" viewBox="0 0 30 30"><style>.st2{fill:#333}</style><g id="Layer_1"><path class="st2" d="M9 9h12v12H9z"/><path class="st2" d="M27 14a1 1 0 1 0 0-2h-2v-2h2a1 1 0 1 0 0-2h-2V6a1 1 0 0 0-1-1h-2V3a1 1 0 1 0-2 0v2h-2V3a1 1 0 1 0-2 0v2h-2V3a1 1 0 0 0-2 0v2h-2V3a1 1 0 0 0-2 0v2H6a1 1 0 0 0-1 1v2H3a1 1 0 0 0 0 2h2v2H3a1 1 0 0 0 0 2h2v2H3a1 1 0 1 0 0 2h2v2H3a1 1 0 1 0 0 2h2v2a1 1 0 0 0 1 1h2v2a1 1 0 1 0 2 0v-2h2v2a1 1 0 1 0 2 0v-2h2v2a1 1 0 1 0 2 0v-2h2v2a1 1 0 1 0 2 0v-2h2a1 1 0 0 0 1-1v-2h2a1 1 0 1 0 0-2h-2v-2h2a1 1 0 1 0 0-2h-2v-2h2zm-4 9H7V7h16v16z"/></g></svg>
