<svg xmlns="http://www.w3.org/2000/svg" viewBox="0 0 30 30"><path d="M25 11c-.594 0-1.161.316-1.709.623-.083.046-.186.104-.291.16V7a1 1 0 0 0-1-1h-4c-.877 0-1.48.27-1.793.802-.487.83.018 1.736.424 2.463.13.233.348.624.369.735 0 .514 0 1-2 1s-2-.486-2.002-.967c.024-.14.246-.528.378-.76.414-.725.929-1.627.444-2.461C13.349 6 12.334 6 12 6H8a1 1 0 0 0-1 1v4.797a17.498 17.498 0 0 1-.282-.158C6.168 11.325 5.598 11 5 11c-3 0-3 3.01-3 4s0 4 3 4c.593 0 1.16-.316 1.71-.623l.29-.16V23a1 1 0 0 0 1 1h4c.877 0 1.48-.27 1.793-.802.487-.83-.018-1.735-.424-2.463-.13-.233-.348-.624-.369-.735 0-.515 0-1 2-1s2 .485 2.002.967c-.024.14-.245.528-.378.76-.413.724-.929 1.627-.443 2.461C16.65 24 17.666 24 18 24h4a1 1 0 0 0 1-1v-4.798c.102.056.201.113.282.16.55.313 1.12.638 1.718.638 3 0 3-3.01 3-4s0-4-3-4zm.033 6.002c-.14-.024-.528-.245-.76-.378-.724-.413-1.627-.926-2.461-.443C21 16.65 21 17.666 21 18v4h-2.798c.056-.102.113-.201.16-.282.313-.55.638-1.12.638-1.718 0-3-3.01-3-4-3s-4 0-4 3c0 .594.316 1.161.623 1.709.046.083.104.186.16.291H9v-4c0-.877-.27-1.48-.802-1.793-.83-.487-1.736.018-2.463.424-.234.13-.624.348-.735.369-.514 0-1 0-1-2s.486-2 .967-2.002c.14.024.528.246.76.378.725.413 1.627.928 2.462.444C9 13.349 9 12.334 9 12V8h2.797c-.055.102-.112.201-.158.282C11.325 8.832 11 9.402 11 10c0 3 3.01 3 4 3s4 0 4-3c0-.593-.316-1.16-.623-1.71-.046-.082-.104-.185-.16-.29H21v4c0 .877.27 1.48.802 1.793.829.487 1.735-.018 2.463-.424.233-.13.624-.348.735-.369.515 0 1 0 1 2s-.485 2-.967 2.002z" fill="#333"/></svg>
