<svg xmlns="http://www.w3.org/2000/svg" viewBox="0 0 30 30"><style>.st2{fill:#333}</style><g id="Layer_1"><circle class="st2" cx="15" cy="22.5" r="1.5"/><path class="st2" d="M15 2C7.832 2 2 7.832 2 15s5.832 13 13 13 13-5.832 13-13S22.168 2 15 2zm0 24C8.935 26 4 21.065 4 15S8.935 4 15 4s11 4.935 11 11-4.935 11-11 11z"/><path class="st2" d="M15 6c-2.757 0-5 2.243-5 5a1 1 0 0 0 2 0c0-1.654 1.346-3 3-3s3 1.346 3 3c0 1.485-.628 1.95-1.58 2.653C15.343 14.451 14 15.443 14 18a1 1 0 1 0 2 0c0-1.548.64-2.022 1.61-2.739C18.675 14.474 20 13.494 20 11c0-2.757-2.243-5-5-5z"/></g></svg>
