<svg xmlns="http://www.w3.org/2000/svg" viewBox="0 0 30 30"><style>.st2{fill:#333}</style><g id="Layer_1"><path class="st2" d="M25 8H9.414l4.293-4.293a1 1 0 1 0-1.414-1.414L6.586 8H5c-1.654 0-3 1.346-3 3v14a1 1 0 0 0 1 1h24a1 1 0 0 0 1-1V11c0-1.654-1.346-3-3-3zm1 16H4V11c0-.551.449-1 1-1h20a1 1 0 0 1 1 1v13z"/><path class="st2" d="M11 12c-2.757 0-5 2.243-5 5s2.243 5 5 5 5-2.243 5-5-2.243-5-5-5zm0 8c-1.654 0-3-1.346-3-3s1.346-3 3-3 3 1.346 3 3-1.346 3-3 3zM23 12h-4a1 1 0 1 0 0 2h4a1 1 0 1 0 0-2z"/><circle class="st2" cx="22" cy="20" r="2"/></g></svg>
