<svg xmlns="http://www.w3.org/2000/svg" viewBox="0 0 30 30"><style>.st2{fill:#333}</style><g id="Layer_1"><path class="st2" d="M4.188 12.739a1 1 0 0 0-.41 1.354c.148.273.222.578.222.907s-.074.634-.221.907a1 1 0 0 0 1.763.945c.3-.559.458-1.2.458-1.852s-.159-1.293-.459-1.853a1 1 0 0 0-1.354-.408zM7.745 10.885a1 1 0 0 0-.42 1.35C7.773 13.087 8 14.018 8 15s-.227 1.913-.675 2.766a1 1 0 1 0 1.77.93C9.695 17.553 10 16.31 10 15s-.305-2.554-.905-3.695a1 1 0 0 0-1.35-.42zM11.298 9.033a1 1 0 0 0-.426 1.348A10.061 10.061 0 0 1 12 15c0 1.602-.39 3.2-1.127 4.62a1 1 0 1 0 1.774.92A12.064 12.064 0 0 0 14 15c0-1.922-.468-3.838-1.353-5.542a1 1 0 0 0-1.349-.425zM16.196 7.618a1 1 0 1 0-1.773.925A13.823 13.823 0 0 1 16 15c0 2.278-.53 4.451-1.577 6.458a1 1 0 1 0 1.773.924A15.796 15.796 0 0 0 18 15c0-2.604-.606-5.088-1.804-7.382z"/><path class="st2" d="M19.734 5.774a1 1 0 0 0-1.77.933C19.316 9.268 20 12.059 20 15s-.685 5.731-2.035 8.294a1 1 0 1 0 1.77.932C21.216 21.413 22 18.224 22 15s-.783-6.414-2.266-9.226z"/><path class="st2" d="M23.286 3.926a1 1 0 1 0-1.771.928 21.962 21.962 0 0 1 0 20.293 1 1 0 0 0 1.771.927C25.061 22.683 26 18.852 26 15s-.939-7.682-2.714-11.074z"/></g></svg>
