<svg xmlns="http://www.w3.org/2000/svg" viewBox="0 0 30 30"><style>.st2{fill:#333}</style><g id="Layer_1"><circle class="st2" cx="18" cy="10" r="1"/><path class="st2" d="M25 13c-.73 0-1.41.21-2 .56v-1.91c0-.43.07-.86.21-1.26l1.13-3.4c.05 0 .1.01.16.01.83 0 1.5-.67 1.5-1.5S25.33 4 24.5 4c-.65 0-1.2.42-1.41 1H18c-1.65 0-3.1.81-4.01 2.04A3.516 3.516 0 0 0 11.5 6C9.57 6 8 7.57 8 9.5S9.57 13 11.5 13c.54 0 1.04-.13 1.5-.35V24h-2c-2.76 0-5-2.24-5-5 0-.55-.45-1-1-1s-1 .45-1 1c0 3.86 3.14 7 7 7h13c.55 0 1-.45 1-1s-.45-1-1-1h-3.11A6.97 6.97 0 0 0 23 19v-2c0-1.1.9-2 2-2 .55 0 1-.45 1-1s-.45-1-1-1zm-13.5-2c-.83 0-1.5-.67-1.5-1.5S10.67 8 11.5 8s1.5.67 1.5 1.5-.67 1.5-1.5 1.5zm9.5 8c0 2.76-2.24 5-5 5h-1V10c0-1.65 1.35-3 3-3h4.23l-.92 2.75a5.82 5.82 0 0 0-.31 1.9V19z"/></g></svg>
