<svg xmlns="http://www.w3.org/2000/svg" viewBox="0 0 30 30"><style>.st2{fill:#333}</style><g id="Layer_1"><path class="st2" d="M19.5 11c1.93 0 3.5-1.57 3.5-3.5S21.43 4 19.5 4 16 5.57 16 7.5s1.57 3.5 3.5 3.5zm0-5c.827 0 1.5.673 1.5 1.5S20.327 9 19.5 9 18 8.327 18 7.5 18.673 6 19.5 6zM26.485 14.626l-4.5-2.5A1 1 0 0 0 21.5 12H9a1 1 0 0 0 0 2h6.277l-2.857 5H10a.999.999 0 0 0-.8.4l-3 4a1 1 0 1 0 1.6 1.2l2.7-3.6h1.08l-2.4 3.427a1 1 0 0 0 1.64 1.146L14.02 21h3.48a1 1 0 0 0 .864-.496l3.5-6c.025-.042.028-.089.045-.133l2.534 1.408-2.202 2.57A.998.998 0 0 0 23 20a.994.994 0 0 0 .759-.35l3-3.5a.997.997 0 0 0-.274-1.524zM16.925 19h-2.202l2.857-5h2.262l-2.916 5z"/></g></svg>
