<svg xmlns="http://www.w3.org/2000/svg" viewBox="0 0 30 30"><style>.st2{fill:#333}</style><g id="Layer_1"><path class="st2" d="M17.095 6.873c-1.117-1.127-3.075-1.119-4.177-.007l-8.066 7.972a2.992 2.992 0 0 0 0 4.198l1.2 1.212c-.023.085-.052.169-.052.262V27a1 1 0 0 0 1 1h10a1 1 0 0 0 1-1v-1.086l2.707-2.707A1 1 0 0 0 21 22.5v-5.242l1.139-1.097a2.991 2.991 0 0 0-.001-4.197l-5.043-5.09zM19 22.087l-2.707 2.707A1 1 0 0 0 16 25.5v.5H8v-3.786l1.895 1.912c.558.563 1.3.874 2.092.874s1.534-.31 2.059-.843l2.63-2.422a.98.98 0 0 0 .306-.81c.003-.033.019-.062.019-.096L17 16.509a1 1 0 0 1 2 0v5.577zm1.734-7.349l-.196.19A2.993 2.993 0 0 0 18 13.51c-1.654 0-3 1.346-3 3v4.051l-2.342 2.157a.963.963 0 0 1-1.343 0l-5.042-5.09a.982.982 0 0 1-.007-1.374l8.066-7.973a.965.965 0 0 1 1.342 0l5.043 5.09c.378.381.378 1.002.017 1.366z"/><circle class="st2" cx="9" cy="17" r="1"/><circle class="st2" cx="12" cy="20" r="1"/><circle class="st2" cx="12" cy="14" r="1"/><circle class="st2" cx="15" cy="11" r="1"/><path class="st2" d="M20.5 5.5a1 1 0 1 0 0 2 1 1 0 0 1 1 1 1 1 0 1 0 2 0c0-1.654-1.346-3-3-3z"/><path class="st2" d="M21 2a1 1 0 1 0 0 2c2.206 0 4 1.794 4 4a1 1 0 1 0 2 0c0-3.309-2.691-6-6-6z"/></g></svg>
