<svg xmlns="http://www.w3.org/2000/svg" viewBox="0 0 30 30"><style>.st2{fill:#333}</style><g id="Layer_1"><path class="st2" d="M11 10.002c-1.654 0-3 1.346-3 3s1.346 3 3 3 3-1.346 3-3-1.346-3-3-3zm0 4c-.551 0-1-.449-1-1s.449-1 1-1 1 .449 1 1-.449 1-1 1zM19 10.002c-1.654 0-3 1.346-3 3a1 1 0 1 0 2 0 1 1 0 0 1 2 0 1 1 0 1 0 2 0c0-1.654-1.346-3-3-3z"/><path class="st2" d="M27 12h-1.08C25.432 8.613 22.52 6 19 6h-1.586l2.293-2.293a1 1 0 1 0-1.414-1.414L15 5.586l-3.293-3.293a1 1 0 1 0-1.414 1.414L12.586 6H11c-3.52 0-6.432 2.613-6.92 6H3a1 1 0 0 0 0 2h1v11a1 1 0 0 0 1 1h20a1 1 0 0 0 1-1V14h1a1 1 0 1 0 0-2zm-13 7.942c.35.036.7.062 1.051.062.319 0 .634-.027.949-.057v1.055a1 1 0 0 1-2 0v-1.06zM24 24h-8.98A3.002 3.002 0 0 0 18 21.002v-1.474c.54-.178 1.06-.39 1.522-.673a1 1 0 1 0-1.043-1.707c-1.857 1.136-4.988 1.131-6.981-.013a1 1 0 0 0-.996 1.734c.463.266.973.468 1.498.64v1.493A3.002 3.002 0 0 0 14.98 24H6V13c0-2.757 2.243-5 5-5h8c2.757 0 5 2.243 5 5v11z"/></g></svg>
