<svg xmlns="http://www.w3.org/2000/svg" viewBox="0 0 30 30"><style>.st2{fill:#333}</style><g id="Layer_1"><path class="st2" d="M14 13c0-1.654-1.346-3-3-3s-3 1.346-3 3 1.346 3 3 3 3-1.346 3-3zm-3 1c-.551 0-1-.449-1-1s.449-1 1-1 1 .449 1 1-.449 1-1 1zM19 10c-1.654 0-3 1.346-3 3a1 1 0 1 0 2 0 1 1 0 0 1 2 0 1 1 0 1 0 2 0c0-1.654-1.346-3-3-3zM18.4 17.7c-1.544 1.158-3.433 1.547-6.315 1.304a.987.987 0 0 0-1.082.911 1 1 0 0 0 .913 1.081c.538.046 1.112.08 1.71.08 1.92 0 4.072-.35 5.974-1.776a.998.998 0 0 0 .2-1.4.998.998 0 0 0-1.4-.2z"/><path class="st2" d="M27 12h-1.08C25.432 8.613 22.52 6 19 6h-1.586l2.293-2.293a1 1 0 1 0-1.414-1.414L15 5.586l-3.293-3.293a1 1 0 1 0-1.414 1.414L12.586 6H11c-3.52 0-6.432 2.613-6.92 6H3a1 1 0 0 0 0 2h1v11a1 1 0 0 0 1 1h20a1 1 0 0 0 1-1V14h1a1 1 0 1 0 0-2zm-3 12H6V13c0-2.757 2.243-5 5-5h8c2.757 0 5 2.243 5 5v11z"/></g></svg>
