<svg xmlns="http://www.w3.org/2000/svg" viewBox="0 0 30 30"><style>.st2{fill:#333}</style><g id="Layer_1"><path class="st2" d="M17.607 17.023c-1.674 1.268-3.346 1.256-5.26-.033a1.032 1.032 0 0 0-1.154 1.71c1.309.885 2.622 1.326 3.903 1.326 1.298 0 2.562-.453 3.757-1.358a1.031 1.031 0 1 0-1.246-1.645zM14.001 11.75c-.138-.553-.7-.89-1.252-.751l-4 1a1.032 1.032 0 1 0 .501 2.002l4-1c.553-.138.89-.698.751-1.252zM21.25 11.999l-4-1a1.031 1.031 0 1 0-.5 2.002l4 1a1.032 1.032 0 0 0 .5-2.002z"/><path class="st2" d="M27 12h-1.08C25.432 8.613 22.52 6 19 6h-1.586l2.293-2.293a1 1 0 1 0-1.414-1.414L15 5.586l-3.293-3.293a1 1 0 1 0-1.414 1.414L12.586 6H11c-3.52 0-6.432 2.613-6.92 6H3a1 1 0 0 0 0 2h1v11a1 1 0 0 0 1 1h20a1 1 0 0 0 1-1V14h1a1 1 0 1 0 0-2zm-3 12H6V13c0-2.757 2.243-5 5-5h8c2.757 0 5 2.243 5 5v11z"/></g></svg>
