<svg xmlns="http://www.w3.org/2000/svg" viewBox="0 0 30 30"><style>.st2{fill:#333}</style><g id="Layer_1"><path class="st2" d="M19 18h-8.008c-.408 0-.711.208-.898.534-.222.456-.031.988.366 1.268.257.14 2.296 1.198 4.54 1.198s4.46-1.136 4.46-1.136c.505-.272.645-.754.466-1.376-.117-.311-.518-.488-.926-.488zM14 13c0-1.654-1.346-3-3-3s-3 1.346-3 3 1.346 3 3 3 3-1.346 3-3zm-4 0c0-.551.449-1 1-1s1 .449 1 1-.449 1-1 1-1-.449-1-1zM19 10c-1.654 0-3 1.346-3 3s1.346 3 3 3 3-1.346 3-3-1.346-3-3-3zm0 4a1 1 0 0 1 0-2 1 1 0 0 1 0 2z"/><path class="st2" d="M27 12h-1.08C25.432 8.613 22.52 6 19 6h-1.586l2.293-2.293a1 1 0 1 0-1.414-1.414L15 5.586l-3.293-3.293a1 1 0 1 0-1.414 1.414L12.586 6H11c-3.52 0-6.432 2.613-6.92 6H3a1 1 0 0 0 0 2h1v11a1 1 0 0 0 1 1h20a1 1 0 0 0 1-1V14h1a1 1 0 1 0 0-2zm-3 12H6V13c0-2.757 2.243-5 5-5h8c2.757 0 5 2.243 5 5v11z"/></g></svg>
