<svg xmlns="http://www.w3.org/2000/svg" viewBox="0 0 30 30"><style>.st2{fill:#333}</style><g id="Layer_1"><path class="st2" d="M19.54 19.198C19.283 19.058 17.244 18 15 18s-4.46 1.136-4.46 1.136c-.505.272-.645.754-.466 1.376.117.311.518.488.926.488h8.008c.408 0 .711-.208.898-.534.222-.456.031-.988-.366-1.268z"/><path class="st2" d="M27 12h-1.08C25.432 8.613 22.52 6 19 6h-1.586l2.293-2.293a1 1 0 1 0-1.414-1.414L15 5.586l-3.293-3.293a1 1 0 1 0-1.414 1.414L12.586 6H11c-3.52 0-6.432 2.613-6.92 6H3a1 1 0 0 0 0 2h1v11a1 1 0 0 0 1 1h20a1 1 0 0 0 1-1V14h1a1 1 0 1 0 0-2zm-3 12H6V13c0-2.757 2.243-5 5-5h8c2.757 0 5 2.243 5 5v11z"/><path class="st2" d="M21.707 10.293a1 1 0 0 0-1.414 0L19 11.586l-1.293-1.293a1 1 0 1 0-1.414 1.414L17.586 13l-1.293 1.293a1 1 0 1 0 1.414 1.414L19 14.414l1.293 1.293a1 1 0 1 0 1.414-1.414L20.414 13l1.293-1.293a1 1 0 0 0 0-1.414zM13.707 10.293a1 1 0 0 0-1.414 0L11 11.586l-1.293-1.293a1 1 0 1 0-1.414 1.414L9.586 13l-1.293 1.293a1 1 0 1 0 1.414 1.414L11 14.414l1.293 1.293a1 1 0 1 0 1.414-1.414L12.414 13l1.293-1.293a1 1 0 0 0 0-1.414z"/></g></svg>
