<svg xmlns="http://www.w3.org/2000/svg" viewBox="0 0 30 30"><style>.st2{fill:#333}</style><g id="Layer_1"><circle class="st2" cx="20" cy="10" r="2"/><path class="st2" d="M5 23c-.93 0-1.706.639-1.93 1.5h-.008L2 28l3.49-1.065v-.003A1.996 1.996 0 0 0 5 23zM27.996 3.09a1.001 1.001 0 0 0-1.087-1.086l-.241.022c-3.904.354-7.941.72-10.274 3.054-1.11 1.108-2.805 3.092-4.567 5.364h-6.04a1 1 0 0 0-.707.293L2.25 13.565a.998.998 0 0 0 .313 1.626l4.547 1.949a37.74 37.74 0 0 0-1.144 1.962.999.999 0 0 0 .174 1.18l3.535 3.536a1 1 0 0 0 1.18.174c.621-.334 1.281-.722 1.963-1.144l1.948 4.546a1 1 0 0 0 1.627.313l2.828-2.828a1 1 0 0 0 .293-.707v-6.04c2.27-1.763 4.255-3.459 5.364-4.567 2.382-2.382 2.755-6.496 3.117-10.475zM4.71 13.935l1.49-1.491h4.116c-.729.99-1.442 2-2.105 2.992L4.71 13.935zm12.805 9.823l-1.492 1.49-1.5-3.5a82.835 82.835 0 0 0 2.992-2.106v4.116zm-6.958-1.887l-2.47-2.47c2.562-4.49 7.434-10.62 9.72-12.907 1.659-1.658 4.85-2.083 8.086-2.389-.312 3.23-.764 6.381-2.428 8.046-2.287 2.286-8.42 7.158-12.908 9.72z"/></g></svg>
