<svg xmlns="http://www.w3.org/2000/svg" viewBox="0 0 30 30"><style>.st2{fill:#333}</style><g id="Layer_1"><path class="st2" d="M24.12 2H5.88C3.74 2 2 3.74 2 5.88v18.24C2 26.26 3.74 28 5.88 28h18.24c2.14 0 3.88-1.74 3.88-3.88V5.88C28 3.74 26.26 2 24.12 2zM26 24.12c0 1.036-.844 1.88-1.88 1.88H5.88A1.882 1.882 0 0 1 4 24.12V5.88C4 4.843 4.843 4 5.88 4h18.24C25.156 4 26 4.843 26 5.88v18.24z"/><path class="st2" d="M19.414 18h2.729a1 1 0 1 0 0-2H17a1 1 0 0 0-1 1v5.143a1 1 0 1 0 2 0v-2.729l4.293 4.293a.997.997 0 0 0 1.414 0 1 1 0 0 0 0-1.414L19.414 18zM13 6.857a1 1 0 0 0-1 1v2.729L7.707 6.293a1 1 0 1 0-1.414 1.414L10.586 12h-2.73a1 1 0 0 0 0 2H13a1 1 0 0 0 1-1V7.857a1 1 0 0 0-1-1zM23 6h-5.143a1 1 0 1 0 0 2h2.729l-4.293 4.293a1 1 0 1 0 1.414 1.414L22 9.414v2.73a1 1 0 1 0 2 0V7a1 1 0 0 0-1-1zM12.293 16.293L8 20.586v-2.729a1 1 0 1 0-2 0V23a1 1 0 0 0 1 1h5.143a1 1 0 1 0 0-2H9.414l4.293-4.293a1 1 0 1 0-1.414-1.414z"/></g></svg>
