<svg xmlns="http://www.w3.org/2000/svg" viewBox="0 0 30 30"><style>.st2{fill:#333}</style><g id="Layer_1"><path class="st2" d="M18.986 9c.05 0 .098-.002.147-.003a3.016 3.016 0 0 0 2.864-3.132 2.964 2.964 0 0 0-.968-2.08 2.971 2.971 0 0 0-2.16-.779 3.018 3.018 0 0 0-2.864 3.133c.034.802.378 1.54.969 2.08A2.968 2.968 0 0 0 18.986 9zm-.021-3.996a.98.98 0 0 1 .715.257.975.975 0 0 1 .319.688 1.012 1.012 0 0 1-.962 1.05.983.983 0 0 1-1.034-.943 1.013 1.013 0 0 1 .962-1.052zM23.917 12.21a1 1 0 0 0-1.316-.517l-3.486 1.517a2.942 2.942 0 0 0-.384-1.736 3 3 0 0 0-1.84-1.406c-.037-.01-.074-.01-.112-.018-.022-.007-.039-.022-.062-.028l-4.5-1a1.008 1.008 0 0 0-.924.27l-3 3a1 1 0 1 0 1.414 1.413l2.612-2.611 1.254.278a2.917 2.917 0 0 0-.365.8l-1.097 4.062a2.928 2.928 0 0 0-.026 1.377l-2.727 1.335-4.14-.922a1 1 0 0 0-.435 1.951l4.483 1a1.001 1.001 0 0 0 .657-.077l3.21-1.573c.23.186.493.33.773.441.024.011.04.031.065.04l5.31 1.993 1.824 3.648a1 1 0 0 0 1.79-.894l-2-4a1.003 1.003 0 0 0-.543-.49l-3.028-1.135c.275-.323.49-.703.608-1.137l.576-2.135 4.891-2.13a1 1 0 0 0 .518-1.315zm-9.777 5.278a.96.96 0 0 1-.098-.732l1.096-4.064a.997.997 0 0 1 .97-.726c.088 0 .179.011.269.035.265.07.487.239.622.473.13.225.165.485.098.732L16 17.27c-.141.525-.695.834-1.238.692a1.015 1.015 0 0 1-.622-.474z"/></g></svg>
