<svg xmlns="http://www.w3.org/2000/svg" viewBox="0 0 30 30"><style>.st2{fill:#333}</style><g id="Layer_1"><path class="st2" d="M18.679 19H11.32A6.328 6.328 0 0 0 5 25.321V27a1 1 0 0 0 1 1h18a1 1 0 0 0 1-1v-1.679A6.329 6.329 0 0 0 18.679 19zM12 21h6v5h-6v-5zm-5 4.321c0-1.919 1.266-3.53 3-4.093V26H7v-.679zM23 26h-3v-4.772c1.734.562 3 2.174 3 4.093V26zM7 10h1c0 3.86 3.14 7 7 7s7-3.14 7-7h1a1 1 0 1 0 0-2h-.266C21.84 4.526 18.661 2 15 2c-3.66 0-6.84 2.526-7.734 6H7a1 1 0 0 0 0 2zm8 5c-2.757 0-5-2.243-5-5h10c0 2.757-2.243 5-5 5zM12 4.82V6.11c0 .491.448.889 1 .889s1-.398 1-.889V4.092c.327-.056.66-.092 1-.092s.673.036 1 .092v2.019c0 .491.447.889 1 .889s1-.398 1-.889V4.82A6.012 6.012 0 0 1 20.644 8H9.356A6.012 6.012 0 0 1 12 4.82z"/></g></svg>
