<svg xmlns="http://www.w3.org/2000/svg" viewBox="0 0 30 30"><style>.st2{fill:#333}</style><g id="Layer_1"><path class="st2" d="M27.947 22.679A1 1 0 0 0 27 22H16.128l-.763-1.463a1 1 0 0 0-.887-.537h-4.174a1 1 0 0 0-.887.537L8.655 22H6.488c-1.895 0-3.542 1.242-4.005 3.02l-.45 1.728A1.001 1.001 0 0 0 3 28h18.782c.22 0 .434-.072.609-.206l5.217-4a1 1 0 0 0 .34-1.115zM21.443 26H4.294l.124-.476C4.652 24.627 5.503 24 6.488 24H9.26a1 1 0 0 0 .886-.537L10.91 22h2.962l.763 1.463a1 1 0 0 0 .887.537h8.53l-2.609 2zM16 19c.037 0 .073-.002.11-.006l9-1A1 1 0 0 0 26 17c0-5.188-2.09-15-10-15a1 1 0 0 0-1 1v15a1 1 0 0 0 1 1zm1-14.927c5.777.869 6.787 9.254 6.963 12.036L17 16.883V4.073zM7 18h6a1 1 0 0 0 1-1V6a1 1 0 0 0-1.878-.48l-6 11.001A1 1 0 0 0 7 18zm5-8.078V16H8.685L12 9.922z"/></g></svg>
