<svg xmlns="http://www.w3.org/2000/svg" viewBox="0 0 30 30"><style>.st2{fill:#333}</style><g id="Layer_1"><path class="st2" d="M20.999 15.98c0-1.387-.578-2.675-1.727-3.838l-1.76-1.74 1.238-1.238 1.043 1.043a.997.997 0 0 0 1.398.016l3.044-2.91a1 1 0 0 0 .02-1.426l-3.543-3.59a1.002 1.002 0 0 0-1.42-.004l-3 3a1 1 0 0 0 0 1.414l1.044 1.043-1.248 1.248-1.557-1.538a5.006 5.006 0 0 0-7.067.004 5.006 5.006 0 0 0-.002 7.069l1.79 1.801-1.502 1.502-1.043-1.043a1 1 0 0 0-1.414 0l-3 3a1 1 0 0 0 0 1.414l3.5 3.5a.997.997 0 0 0 1.414 0l3-3a1 1 0 0 0 0-1.414L9.164 19.25l1.497-1.497 1.767 1.778a4.987 4.987 0 0 0 3.551 1.47A5.026 5.026 0 0 0 21 15.98zM19.995 4.42l2.123 2.15-1.602 1.533L18.414 6l1.581-1.581zM6.5 22.586L4.414 20.5 6 18.914 8.086 21 6.5 22.586zM8.878 8.878A2.992 2.992 0 0 1 11 8.001c.768 0 1.537.293 2.122.877a3.005 3.005 0 0 1 0 4.244 3.006 3.006 0 0 1-4.244 0 3.005 3.005 0 0 1 0-4.244zm7.101 10.123a2.998 2.998 0 0 1-2.135-.882l-2.172-2.186a4.951 4.951 0 0 0 2.864-1.397 4.952 4.952 0 0 0 1.398-2.88l1.923 1.9c.758.766 1.142 1.582 1.142 2.425a3.024 3.024 0 0 1-3.02 3.02zM21.982 19.93a2.218 2.218 0 0 1-2.051 2.053 1.001 1.001 0 1 0 .139 1.996 4.23 4.23 0 0 0 3.908-3.91 1.002 1.002 0 0 0-.928-1.067c-.546-.022-1.029.378-1.068.929z"/><path class="st2" d="M27 19a1 1 0 0 0-1 1c0 3.309-2.691 6-6 6a1 1 0 1 0 0 2c4.411 0 8-3.589 8-8a1 1 0 0 0-1-1z"/></g></svg>
