<svg xmlns="http://www.w3.org/2000/svg" viewBox="0 0 30 30"><style>.st2{fill:#333}</style><g id="Layer_1"><path class="st2" d="M28 12.039c0-3.07-.9-6.041-2.602-8.594a.998.998 0 0 0-1.539-.152l-6.732 6.733C17.083 10.02 17.045 10 17 10h-5a1 1 0 0 0-1 1v5c0 .045.02.083.026.127l-7.233 7.232a1.001 1.001 0 0 0 .152 1.54A15.439 15.439 0 0 0 12.54 27.5c2.823 0 5.464-.773 7.744-2.1l.788 1.971A1 1 0 0 0 22 28h2a1 1 0 0 0 1-1v-5.5c0-.097-.03-.185-.055-.273A15.36 15.36 0 0 0 28 12.039zM13 12h2.152L13 14.152V12zM6.11 23.871L24.37 5.61A13.439 13.439 0 0 1 26 12.039C26 19.46 19.96 25.5 12.539 25.5c-2.26 0-4.46-.56-6.43-1.629zM3 7.5c2.481 0 4.5-2.019 4.5-4.5a1 1 0 0 0-2 0c0 1.378-1.122 2.5-2.5 2.5a1 1 0 0 0 0 2z"/><path class="st2" d="M11.5 3a1 1 0 0 0-2 0c0 3.584-2.916 6.5-6.5 6.5a1 1 0 0 0 0 2c4.687 0 8.5-3.813 8.5-8.5z"/></g></svg>
