<svg xmlns="http://www.w3.org/2000/svg" viewBox="0 0 30 30"><path d="M28 19.006V19c0-.063-.025-.117-.036-.177-.012-.067-.011-.136-.038-.202l-.004-.01L23.99 9H25a1 1 0 1 0 0-2h-7.55A2.504 2.504 0 0 0 15 5c-1.207 0-2.217.86-2.45 2H5a1 1 0 0 0 0 2h1.01l-3.936 9.621a.986.986 0 0 0-.068.42c0 .011-.006.02-.006.031A4.933 4.933 0 0 0 6.928 24h1.144c2.71 0 4.912-2.198 4.926-4.976l.001-.018L13 19c0-.06-.024-.114-.035-.172-.012-.07-.012-.139-.04-.207L8.99 9h4.023c.257.34.593.615.987.788V26H9a1 1 0 1 0 0 2h12a1 1 0 1 0 0-2h-5V9.788c.395-.173.73-.449.987-.788h4.023l-3.936 9.621a.986.986 0 0 0-.068.42c0 .011-.006.02-.006.031A4.934 4.934 0 0 0 21.928 24h1.144c2.709 0 4.912-2.198 4.926-4.976l.001-.018zM25.51 18h-6.02l3.01-7.358L25.51 18zM7.5 10.642L10.51 18H4.49l3.01-7.358zM8.072 22H6.928a2.916 2.916 0 0 1-2.765-2h6.687a2.934 2.934 0 0 1-2.778 2zm15 0h-1.144a2.916 2.916 0 0 1-2.765-2h6.687a2.933 2.933 0 0 1-2.778 2z" fill="#333"/></svg>
