<svg xmlns="http://www.w3.org/2000/svg" viewBox="0 0 30 30"><path d="M27.46 21.11L15.6 15l11.86-6.11c.49-.25.68-.86.43-1.35s-.86-.69-1.35-.43l-13.13 6.76-4.739-2.44c.76-.42 1.4-1.05 1.83-1.87A4.497 4.497 0 0 0 6.5 3c-1.63 0-3.2.89-4 2.44a4.497 4.497 0 0 0 1.94 6.06h.01l6.78 3.5-6.78 3.49h-.01a4.497 4.497 0 0 0-1.94 6.06c.8 1.56 2.37 2.45 4 2.45.69 0 1.4-.16 2.05-.5a4.497 4.497 0 0 0 1.94-6.06 4.35 4.35 0 0 0-1.83-1.87l4.74-2.44 13.13 6.76a1 1 0 0 0 1.349-.43.996.996 0 0 0-.42-1.35zM4.281 6.36a2.483 2.483 0 0 1 3.36-1.08c1.23.63 1.71 2.14 1.08 3.37a2.492 2.492 0 0 1-3.36 1.07 2.494 2.494 0 0 1-1.08-3.36zm3.36 18.36c-.35.19-.74.28-1.14.28-.94 0-1.8-.52-2.23-1.36a2.502 2.502 0 0 1 1.08-3.37c.36-.18.75-.27 1.15-.27.94 0 1.8.52 2.23 1.36.62 1.22.14 2.73-1.09 3.36z" fill="#333"/></svg>
