<svg xmlns="http://www.w3.org/2000/svg" viewBox="0 0 30 30"><style>.st2{fill:#333}</style><g id="Layer_1"><path class="st2" d="M27.89 21.642L26 17.932V7.166C26 5.42 24.606 4 22.895 4H7.01C5.35 4 4 5.377 4 7.07v10.86l-1.891 3.711a.998.998 0 0 0-.109.455V24a1 1 0 0 0 1 1h24a1 1 0 0 0 1-1v-1.904a.991.991 0 0 0-.11-.454zM6 7.069C6 6.48 6.454 6 7.01 6h15.885C23.504 6 24 6.523 24 7.167V17H6V7.07zM26 23H4v-.664L5.7 19h18.6l1.7 3.336V23z"/><path class="st2" d="M15.447 11.105l-6-3a1 1 0 1 0-.894 1.79l6 3a1 1 0 0 0 .895-1.789zM20.05 12.285a1.695 1.695 0 1 0-1.357 2.714l1.218.001a1.088 1.088 0 0 0 .871-1.742l-.732-.973z"/></g></svg>
