<svg xmlns="http://www.w3.org/2000/svg" viewBox="0 0 30 30"><style>.st2{fill:#333}</style><g id="Layer_1"><path class="st2" d="M15 12h-5V9H8v8h2v-3h5v3h2V9h-2zM10 7h5v2h-5z"/><path class="st2" d="M27.707 26.293l-7.112-7.112A10.452 10.452 0 0 0 23 12.5C23 6.71 18.29 2 12.5 2S2 6.71 2 12.5 6.71 23 12.5 23c2.536 0 4.864-.904 6.68-2.405l7.113 7.112a.997.997 0 0 0 1.414 0 1 1 0 0 0 0-1.414zM4 12.5C4 7.813 7.813 4 12.5 4c4.686 0 8.5 3.813 8.5 8.5 0 4.686-3.813 8.5-8.5 8.5C7.813 21 4 17.186 4 12.5z"/></g></svg>
