<svg xmlns="http://www.w3.org/2000/svg" viewBox="0 0 30 30"><path d="M25.66 24.295l-7.292-7.336c2.468-3.167 2.253-7.76-.656-10.67C16.186 4.763 14.158 3.923 12 3.923s-4.186.84-5.71 2.366C4.762 7.814 3.922 9.842 3.922 12s.84 4.186 2.366 5.712A8.053 8.053 0 0 0 12 20.073a8.06 8.06 0 0 0 4.954-1.7l7.287 7.332a.997.997 0 0 0 1.414.004 1 1 0 0 0 .004-1.414zM7.811 16.188A5.883 5.883 0 0 1 6.077 12c0-1.582.616-3.07 1.735-4.189A5.884 5.884 0 0 1 12 6.077c1.583 0 3.07.616 4.189 1.735a5.93 5.93 0 0 1 0 8.377 5.93 5.93 0 0 1-8.377 0z" fill="#333"/></svg>
