<svg xmlns="http://www.w3.org/2000/svg" viewBox="0 0 30 30"><path d="M27 20h-8.882l-1.198-2.397 6.94-2.67a1 1 0 0 0 .58-1.275l-.277-.761 1.198-.464a1 1 0 0 0 .582-1.265L24.47 6.975c-.556-1.528-2.262-2.338-3.834-1.797l-15 5.891c-.032.013-.053.038-.083.054-.03.015-.064.017-.092.036-.03.019-.046.049-.073.07a.966.966 0 0 0-.325.468.972.972 0 0 0-.01.57c.009.032.005.066.017.099.013.032.039.053.054.083.015.03.017.063.036.091l.93 1.447-1.46.584a1 1 0 0 0-.548 1.323l1.5 3.5a1 1 0 0 0 1.29.535l2.416-.966.372.578a1 1 0 0 0 1.2.393l4.185-1.61 1.562 3.123A1 1 0 0 0 17.5 22H27a1 1 0 1 0 0-2zM21.324 7.055c.51-.176 1.08.094 1.262.594l1.15 3.269-13.808 5.344L7.5 12.485l13.824-5.43z" fill="#333"/></svg>
