<svg xmlns="http://www.w3.org/2000/svg" viewBox="0 0 30 30"><style>.st2{fill:#333}</style><g id="Layer_1"><path class="st2" d="M6 11v5a1 1 0 1 0 2 0v-5a1 1 0 0 0-2 0zM16 16v-5a1 1 0 0 0-2 0v5a1 1 0 1 0 2 0zM9 12v3c0 1.103.897 2 2 2s2-.897 2-2v-3c0-1.103-.897-2-2-2s-2 .897-2 2z"/><path class="st2" d="M4.65 19a.651.651 0 0 1-.65-.65v-9.7A.65.65 0 0 1 4.65 8h16.7c.34 0 .612.265.64.599.748.15 1.423.484 2.01.928V8.65C24 7.189 22.811 6 21.35 6H4.65A2.653 2.653 0 0 0 2 8.65v9.7A2.653 2.653 0 0 0 4.65 21h8.347a7.32 7.32 0 0 1 .872-1.926A.992.992 0 0 0 13.5 19H4.65z"/><path class="st2" d="M27.53 16.652L24 14.446V13.5c0-1.654-1.346-3-3-3s-3 1.346-3 3v4.781c-3.5 1.364-3.5 4.457-3.5 7.719v1a1 1 0 0 0 1 1h9a1 1 0 0 0 .848-.47l2.5-4A1 1 0 0 0 28 23v-5.5a1 1 0 0 0-.47-.848zM26 22.712L23.945 26H16.5c0-3.731.106-5.276 2.774-6.038A1 1 0 0 0 20 19v-5.5a1 1 0 0 1 2 0v7a1 1 0 1 0 2 0v-3.695l2 1.25v4.658z"/></g></svg>
