<svg xmlns="http://www.w3.org/2000/svg" viewBox="0 0 30 30"><style>.st2{fill:#333}</style><g id="Layer_1"><path class="st2" d="M16.405 23H5a1 1 0 0 1 0-2h13.557l2.98-2.92-5.379-9.14 1.157-1.968 5.69 9.67.067-.066a4.516 4.516 0 0 1 1.694-.887L17.542 3.414l-.006-.007-.013-.023A3.016 3.016 0 0 0 15 2c-1.036 0-1.992.533-2.572 1.453l-10.02 17.04c-.012.02-.012.044-.022.065C2.148 20.988 2 21.475 2 22c0 1.654 1.346 3 3 3h9.473l2.023-1.982c-.031-.003-.058-.018-.09-.018zm3.351-4h-9.513l4.755-8.088L19.756 19zm-5.62-14.506c.383-.608 1.317-.624 1.704-.029l.01.017c.093.147.15.376.15.518 0 .169-.04.329-.112.453L7.924 19H5.606l8.53-14.506zM27.5 21H26c-.55 0-1-.45-1-1s.45-1 1-1h1.5c.28 0 .5-.23.5-.5 0-.5-.7-1.5-2-1.5-.75 0-1.45.28-1.98.74-.03.02-.04.03-.06.06l-8.66 8.49a.996.996 0 0 0-.01 1.41c.2.2.46.3.71.3s.51-.09.7-.29l6.58-6.46A3 3 0 0 0 26 23c1.3 0 2-1 2-1.5 0-.27-.22-.5-.5-.5z"/></g></svg>
