<svg xmlns="http://www.w3.org/2000/svg" viewBox="0 0 30 30"><style>.st2{fill:#333}</style><g id="Layer_1"><path class="st2" d="M27.245 12.043l-3.167-.802 1.679-2.798a1 1 0 0 0-.15-1.221l-2.82-2.82a1 1 0 0 0-1.22-.152l-2.805 1.672-.792-3.165A1 1 0 0 0 17 2h-3.988a1 1 0 0 0-.97.755l-.8 3.167-2.799-1.679a1 1 0 0 0-1.221.15l-2.82 2.82a1 1 0 0 0-.152 1.22l1.673 2.805-3.166.792A1 1 0 0 0 2 13v3.988a1 1 0 0 0 .755.97l3.166.8-1.678 2.799a1 1 0 0 0 .15 1.221l2.82 2.82c.325.323.827.386 1.22.152l2.805-1.673.792 3.165A1 1 0 0 0 13 28h3.988a1 1 0 0 0 .97-.755l.8-3.167 2.799 1.679c.394.235.898.173 1.221-.15l2.82-2.82a1 1 0 0 0 .152-1.22l-1.673-2.805 3.165-.792A1 1 0 0 0 28 17v-3.988a.999.999 0 0 0-.755-.97zM26 16.218l-3.242.811a.997.997 0 0 0-.682.587l-.222.535a1 1 0 0 0 .065.895l1.714 2.876-1.717 1.718-2.866-1.72a1.004 1.004 0 0 0-.898-.066l-.535.221a1 1 0 0 0-.587.679L16.21 26h-2.43l-.81-3.242a1 1 0 0 0-.588-.682l-.535-.222a.997.997 0 0 0-.895.065l-2.875 1.714-1.717-1.717 1.72-2.866a1 1 0 0 0 .066-.898l-.222-.535a1 1 0 0 0-.679-.587L4 16.21v-2.43l3.243-.81a1 1 0 0 0 .68-.588l.223-.535a1 1 0 0 0-.065-.895L6.367 8.077 8.084 6.36l2.866 1.72a1 1 0 0 0 .897.066l.535-.222a.999.999 0 0 0 .587-.679L13.79 4h2.429l.811 3.243c.076.307.294.56.587.68l.535.223c.291.12.624.097.895-.065l2.876-1.715 1.718 1.718-1.72 2.866a1 1 0 0 0-.066.897l.221.535c.121.292.372.51.679.587L26 13.79v2.429z"/><path class="st2" d="M15 10c-2.757 0-5 2.243-5 5s2.243 5 5 5 5-2.243 5-5-2.243-5-5-5zm0 8c-1.654 0-3-1.346-3-3s1.346-3 3-3 3 1.346 3 3-1.346 3-3 3z"/></g></svg>
