<svg xmlns="http://www.w3.org/2000/svg" viewBox="0 0 30 30"><path d="M27.56 6.172a.997.997 0 0 0-.931-.1l-4.512 1.804-2.562-1.708a1.001 1.001 0 0 0-1.11 0L15.12 8.385l-2.464-2.14a.999.999 0 0 0-1.363.048l-2.49 2.49-5.356-2.677A1.003 1.003 0 0 0 2 7v8a1 1 0 0 0 .514.874l3.805 2.114-.062.107c-.334.578-.423 1.25-.25 1.896s.587 1.185 1.165 1.519c.392.226.821.334 1.245.334.103 0 .204-.027.306-.04a2.474 2.474 0 0 0 2.292 1.54c.104 0 .204-.027.306-.04a2.474 2.474 0 0 0 2.293 1.54c.103 0 .203-.027.305-.04a2.475 2.475 0 0 0 2.293 1.54c.865 0 1.707-.448 2.17-1.25l1.469-2.545 4.285-4.76 3.36-1.92A1 1 0 0 0 28 15V7a1 1 0 0 0-.44-.828zM8.172 19.777a.497.497 0 0 1-.183-.682l1.064-1.844a.5.5 0 0 1 .867.499l-1.064 1.844a.499.499 0 0 1-.684.183zm2.598 1.5a.495.495 0 0 1-.183-.682l1.674-2.9a.501.501 0 0 1 .866.5l-1.673 2.899a.497.497 0 0 1-.684.183zm2.598 1.5a.497.497 0 0 1-.182-.682l2.5-4.33a.498.498 0 0 1 .682-.184.5.5 0 0 1 .183.684l-2.5 4.33a.498.498 0 0 1-.683.182zm3.281 1.318a.5.5 0 0 1-.866-.5l1.784-3.09a.498.498 0 0 1 .915.121c.02.074.04.224-.05.379l-1.783 3.09zm3.401-4.756a2.48 2.48 0 0 0-.8-.75 2.47 2.47 0 0 0-.654-.25 2.502 2.502 0 0 0-1.228-2.49 2.495 2.495 0 0 0-2.922.324 2.498 2.498 0 0 0-.502-.394 2.492 2.492 0 0 0-2.593.07 2.49 2.49 0 0 0-.614-.514 2.503 2.503 0 0 0-3.416.915l-.003.005L4 14.412V8.618l4.553 2.277a.999.999 0 0 0 1.154-.188l2.34-2.34 1.347 1.168-.949.633a1 1 0 0 0-.277 1.387l1.015 1.522a2.816 2.816 0 0 0 3.853.83l.808-.505 4.234 3.683-2.028 2.254zm5.95-4.92l-2.38 1.36-4.019-3.498a.99.99 0 0 0 .247-1.31 1 1 0 0 0-1.378-.32l-2.494 1.56a.826.826 0 0 1-1.13-.244l-.46-.69L19 8.202l2.445 1.63c.276.184.623.218.926.097L26 8.477v5.943z" fill="#333"/></svg>
