<svg xmlns="http://www.w3.org/2000/svg" viewBox="0 0 30 30"><path d="M22 18c-1.2 0-2.3.532-3.1 1.44l-7.1-3.33c.1-.404.2-.706.2-1.11s-.1-.807-.2-1.11l7.1-3.33c.7.908 1.8 1.44 3.1 1.44 2.2 0 4-1.78 4-4s-1.8-4-4-4-4 1.78-4 4c0 .202 0 .541.1.743l-7.3 3.431C10.1 11.266 9.1 11 8 11c-2.2 0-4 1.78-4 4s1.8 4 4 4c1.1 0 2.1-.468 2.8-1.174l7.3 3.43c0 .203-.1.506-.1.707C18 24.183 19.8 26 22 26s4-1.78 4-4-1.8-4-4-4zm0-12c1.1 0 2 .89 2 2s-.9 2-2 2-2-.89-2-2 .9-2 2-2zM8 17c-1.1 0-2-.89-2-2s.9-2 2-2 2 .89 2 2-.9 2-2 2zm14 7c-1.1 0-2-.89-2-2s.9-2 2-2 2 .89 2 2-.9 2-2 2z" fill="#333"/></svg>
