<svg xmlns="http://www.w3.org/2000/svg" viewBox="0 0 30 30"><style>.st2{fill:#333}</style><g id="Layer_1"><path class="st2" d="M28 10c0-.127-.024-.253-.071-.372l-2-5A1 1 0 0 0 25 4H5c-.409 0-.776.249-.929.628l-2 5A1.007 1.007 0 0 0 2 10c0 1.627.793 3.06 2 3.974V26h22V13.974c1.207-.913 2-2.347 2-3.974zM5.677 6h18.646l1.672 4.18A3.005 3.005 0 0 1 23 13c-1.654 0-3-1.346-3-3a1 1 0 1 0-2 0c0 1.654-1.346 3-3 3a3.004 3.004 0 0 1-3-2.996 1 1 0 0 0-2 0A3.004 3.004 0 0 1 7 13a3.003 3.003 0 0 1-2.995-2.82L5.677 6zM24 24H6v-9.101a4.995 4.995 0 0 0 5-1.903 4.995 4.995 0 0 0 8 .001 4.996 4.996 0 0 0 5 1.902V24z"/><path class="st2" d="M11 16a1 1 0 0 0-1 1v2a1 1 0 1 0 2 0v-2a1 1 0 0 0-1-1z"/></g></svg>
