<svg xmlns="http://www.w3.org/2000/svg" viewBox="0 0 30 30"><style>.st2{fill:#333}</style><g id="Layer_1"><circle class="st2" cx="21" cy="26" r="2"/><circle class="st2" cx="9" cy="26" r="2"/><path class="st2" d="M26 4H9.02l-.04-.3C8.83 2.71 8 2 7 2H4c-.55 0-1 .45-1 1s.45 1 1 1h3l1.97 12.84-1.86 3.72c-.16.31-.14.68.04.97.18.29.5.47.85.47h14c.55 0 1-.45 1-1s-.45-1-1-1H9.62l1.04-2.09 12.94-1.97c1.97-.29 3.4-1.95 3.4-3.94V5c0-.55-.45-1-1-1zm-1 8c0 .99-.72 1.82-1.7 1.97l-12.46 1.89L9.33 6H25v6z"/></g></svg>
