<svg xmlns="http://www.w3.org/2000/svg" viewBox="0 0 30 30"><style>.st2{fill:#333}</style><g id="Layer_1"><path class="st2" d="M17 8h-1V5h9a1 1 0 1 0 0-2H15a1 1 0 0 0-1 1v4h-1C6.935 8 2 12.935 2 19a1 1 0 0 0 1 1h24a1 1 0 0 0 1-1c0-6.065-4.935-11-11-11zm-4 2h4c3.526 0 6.579 2.04 8.054 5H4.945c1.476-2.96 4.53-5 8.055-5zm-8.945 8c.038-.34.1-.672.176-1h21.538c.075.328.138.66.175 1H4.055zM5 21a1 1 0 0 0-1 1v3a1 1 0 1 0 2 0v-3a1 1 0 0 0-1-1zM25 21a1 1 0 0 0-1 1v3a1 1 0 1 0 2 0v-3a1 1 0 0 0-1-1zM21 21a1 1 0 0 0-1 1v3a1 1 0 1 0 2 0v-3a1 1 0 0 0-1-1zM17 21a1 1 0 0 0-1 1v3a1 1 0 1 0 2 0v-3a1 1 0 0 0-1-1zM13 21a1 1 0 0 0-1 1v3a1 1 0 1 0 2 0v-3a1 1 0 0 0-1-1zM9 21a1 1 0 0 0-1 1v3a1 1 0 1 0 2 0v-3a1 1 0 0 0-1-1z"/></g></svg>
