<svg xmlns="http://www.w3.org/2000/svg" viewBox="0 0 30 30"><path d="M26.555 8.168C25.915 7.741 20.225 4 17.5 4c-.866 0-1.96.291-2.5.452C14.46 4.291 13.366 4 12.5 4 9.776 4 4.085 7.741 3.445 8.168A1 1 0 0 0 3.2 9.6c.107.143 2.6 3.358 8.776 4.196v5.6l-.125-.352A2.99 2.99 0 0 0 9.008 17a2.976 2.976 0 0 0-2.694 1.656 2.992 2.992 0 0 0-.154 2.303L8.613 28h2.118l-2.678-7.686A.994.994 0 0 1 9.008 19c.43 0 .81.272.952.695l2.074 5.83a1 1 0 0 0 1.942-.335V10.5c0-.551.45-1 1.004-1a.98.98 0 0 1 .716.307c.186.18.288.427.288.693V18a1 1 0 0 0 1 1h5.18c1.013 0 1.836.821 1.836 1.83V28h2v-7.17c0-2.112-1.72-3.83-3.836-3.83h-4.18v-3.203C24.19 12.97 26.692 9.744 26.8 9.6a.998.998 0 0 0-.245-1.432zM6.763 10h5.264c-.028.164-.051.329-.051.5v1.273c-2.365-.356-4.067-1.08-5.213-1.773zm6.563-2H7.57c1.907-1.063 3.92-2 4.93-2 .683 0 1.809.324 2.184.449a1 1 0 0 0 .632 0c.35-.117 1.5-.449 2.184-.449 1.009 0 3.022.937 4.93 2h-5.795a2.986 2.986 0 0 0-3.31 0zm4.61 2h5.298c-1.153.696-2.867 1.422-5.25 1.775V10.5c0-.17-.021-.336-.049-.5z" fill="#333"/></svg>
