<svg xmlns="http://www.w3.org/2000/svg" viewBox="0 0 30 30"><style>.st2{fill:#333}</style><g id="Layer_1"><path class="st2" d="M11 22c-1.654 0-3 1.346-3 3s1.346 3 3 3 3-1.346 3-3-1.346-3-3-3zm0 4a1 1 0 0 1 0-2 1 1 0 0 1 0 2zM23.886 4.525a1 1 0 1 0 .892-1.79l-1.265-.63a1 1 0 0 0-.765-.053l-7.513 2.52-8.963-2.534a1 1 0 0 0-.544 1.925l6.143 1.736-6.189 2.075a1 1 0 0 0 .636 1.897l7.813-2.62.484 3.629a2.998 2.998 0 0 0-3.543 2.28l-.978 4.394c-.075.34-.077.676-.038 1.004l-4.79-1.322a1 1 0 1 0-.532 1.928l14.5 4a1 1 0 1 0 .532-1.928L15.39 19.83c.26-.338.461-.73.56-1.173l.978-4.391c.06-.268.069-.537.056-.804-.001-.032.01-.061.006-.093l-.03-.226c-.003-.023-.005-.045-.009-.067l-.823-6.172 6.521 1.843.489.873a1 1 0 0 0 1.746-.977l-.69-1.234a1.002 1.002 0 0 0-.601-.474l-4.945-1.398L22.99 4.08l.895.445zm-11.84 13.263l.978-4.393a1.002 1.002 0 0 1 1.82-.32c.07.11.114.229.138.352l.004.031a.998.998 0 0 1-.01.372L14 18.222c-.12.538-.652.873-1.194.76a1.002 1.002 0 0 1-.759-1.194z"/></g></svg>
