<svg xmlns="http://www.w3.org/2000/svg" viewBox="0 0 30 30"><style>.st2{fill:#333}</style><g id="Layer_1"><path class="st2" d="M23.807 14.646a1.001 1.001 0 0 0-1.26.645l-.39 1.214-7.747 5.067 4.23-8.24c.746-1.477.162-3.31-1.328-4.03a3.026 3.026 0 0 0-1.236-.293C16.05 9.006 16.029 9 16 9H7.936a1 1 0 0 0 0 2h5.161l-1.84 3.65a3.003 3.003 0 0 0 1.329 4.028c.302.152.618.23.936.273l-2.393 4.581c-.04.074-.049.152-.068.23l-3.672 2.4a1 1 0 1 0 1.094 1.675l15.065-9.852a.997.997 0 0 0 .405-.53l.5-1.551a1 1 0 0 0-.646-1.258zm-10.763.903l2.025-4.018a1.001 1.001 0 0 1 1.787.9l-2.027 4.02a1.004 1.004 0 0 1-1.343.442 1.001 1.001 0 0 1-.443-1.344zM19 8c1.654 0 3-1.346 3-3s-1.346-3-3-3-3 1.346-3 3 1.346 3 3 3zm0-4a1 1 0 0 1 0 2 1 1 0 0 1 0-2z"/></g></svg>
