<svg xmlns="http://www.w3.org/2000/svg" viewBox="0 0 30 30"><style>.st2{fill:#333}</style><g id="Layer_1"><path class="st2" d="M21 10c1.654 0 3-1.346 3-3s-1.346-3-3-3-3 1.346-3 3 1.346 3 3 3zm0-4a1 1 0 0 1 0 2 1 1 0 0 1 0-2zM22.293 25.293l-.588.587-5.292-1.47 1.481-2.963a1.002 1.002 0 0 0-.126-1.088l-1.785-2.141c.274-.244.521-.521.696-.867L17.864 15H21a1 1 0 1 0 0-2h-2.167a2.995 2.995 0 0 0-1.456-3.698 3.007 3.007 0 0 0-4.03 1.329L12.153 13H6a1 1 0 0 0 0 2h5.187c-.11.31-.17.625-.175.942-.001.02-.012.037-.012.058v4H7.5a1 1 0 0 0-1 1c0 .31.149.576.37.759l-2.602-.723a1 1 0 0 0-.535 1.928l18 5a1 1 0 0 0 .974-.257l1-1a1 1 0 1 0-1.414-1.414zm-7.4-8.843a1.004 1.004 0 0 1-1.343.443 1.002 1.002 0 0 1-.443-1.344l.277-.549h2.24l-.73 1.45zm.24-4.919a1.001 1.001 0 0 1 1.787.9l-.287.569h-2.24l.74-1.469zM12 22a1 1 0 0 0 1-1v-2.195c.328.117.662.194.996.194.01 0 .02-.004.031-.004l1.786 2.143-1.363 2.726L7.738 22H12z"/></g></svg>
