<svg xmlns="http://www.w3.org/2000/svg" viewBox="0 0 30 30"><style>.st2{fill:#333}</style><g id="Layer_1"><path class="st2" d="M25.707 25.293a1 1 0 0 0-1.414 0l-.707.707H18.5v-3.5c0-.208-.065-.411-.186-.581l-1.702-2.383a2.97 2.97 0 0 0 1.067-1.167l1.457-2.889a.993.993 0 0 0 1.106.49l4-1a.999.999 0 1 0-.484-1.94l-3.16.79-.76-1.864c-.007-.017-.022-.028-.03-.045a2.978 2.978 0 0 0-1.431-1.59 3.002 3.002 0 0 0-3.213.339l2.722-5.196a1 1 0 1 0-1.772-.928l-3.28 6.263-.387-.194a1 1 0 1 0-.894 1.79l.352.176-.841 1.606c-.004-.002-.006-.007-.01-.01a.999.999 0 0 0-1.386.278l-2 3a1 1 0 0 0 1.664 1.11l1.537-2.305c.055.046.1.101.167.136a.988.988 0 0 0 .463.114.997.997 0 0 0 .595-.207 2.956 2.956 0 0 0-.083.652c-.001.02-.011.036-.011.055v4.18l-4.196.84a.991.991 0 0 0-.784 1.088l-3.745-1.07c-.531-.145-1.085.157-1.236.688s.155 1.084.686 1.236L9.859 26H6a1 1 0 1 0 0 2h18a1 1 0 0 0 .707-.293l1-1a1 1 0 0 0 0-1.414zm-8.679-13.292a1.002 1.002 0 0 1 .892 1.45l-2.027 4.018a1 1 0 1 1-1.786-.9l2.026-4.019c.176-.348.53-.55.895-.55zm-3.832 10.98A1 1 0 0 0 14 22v-2.175c.15.054.3.102.454.13L16.5 22.82v2.997L9.3 23.76l3.896-.78z"/><path class="st2" d="M21.5 10.5c1.654 0 3-1.346 3-3s-1.346-3-3-3-3 1.346-3 3 1.346 3 3 3zm0-4a1 1 0 0 1 0 2 1 1 0 0 1 0-2z"/></g></svg>
