<svg xmlns="http://www.w3.org/2000/svg" viewBox="0 0 30 30"><style>.st2{fill:#333}</style><g id="Layer_1"><path class="st2" d="M25.707 25.293a1 1 0 0 0-1.414 0l-.707.707h-1.781l3.168-11.768h-.013a.974.974 0 0 0 .01-.475.999.999 0 0 0-1.212-.727l-3.16.79-.88-2.112a2.972 2.972 0 0 0-1.341-1.387 3.008 3.008 0 0 0-4.03 1.329l-2.026 4.018c-.207.41-.311.9-.321 1.332v4.18l-4.196.84a.991.991 0 0 0-.784 1.088l-3.745-1.07c-.531-.145-1.085.157-1.236.688s.155 1.084.686 1.236L9.859 26H6a1 1 0 1 0 0 2h18a1 1 0 0 0 .707-.293l1-1a1 1 0 0 0 0-1.414zm-3.115-9.91L19.734 26H18.5v-3.5a1 1 0 0 0-.186-.581l-1.702-2.382a2.97 2.97 0 0 0 1.067-1.168l1.457-2.889a.993.993 0 0 0 1.106.49l2.35-.587zm-8.485 1.185l2.026-4.018a1.002 1.002 0 0 1 1.343-.443c.493.248.692.852.444 1.344l-2.027 4.018a1 1 0 1 1-1.786-.9zm-.91 6.412A1 1 0 0 0 14 22v-2.175c.15.054.3.102.454.13L16.5 22.82v2.997L9.3 23.76l3.896-.78zM21.5 10.5c1.654 0 3-1.346 3-3s-1.346-3-3-3-3 1.346-3 3 1.346 3 3 3zm0-4a1 1 0 0 1 0 2 1 1 0 0 1 0-2z"/></g></svg>
