<svg xmlns="http://www.w3.org/2000/svg" viewBox="0 0 30 30"><style>.st2{fill:#333}</style><g id="Layer_1"><path class="st2" d="M22 8c-1.654 0-3 1.346-3 3s1.346 3 3 3 3-1.346 3-3-1.346-3-3-3zm0 4a1 1 0 0 1 0-2 1 1 0 0 1 0 2zM22.293 25.293l-.582.582-7.75-2.244 2.61-1.81a.997.997 0 0 0 .425-.905.998.998 0 0 0-.571-.821l-2.73-1.282 2.409-1.87 3.625 1.02a1 1 0 0 0 .542-1.926l-2.366-.665a3.027 3.027 0 0 0-.054-3.621 3.012 3.012 0 0 0-2.016-1.15 3.008 3.008 0 0 0-2.238.613l-2.786 2.162-6.54-1.839a1 1 0 0 0-.541 1.926l5.305 1.492a3.005 3.005 0 0 0-.514 1.322 3.01 3.01 0 0 0 .612 2.237c.29.373.659.656 1.07.856.019.01.03.026.048.035l3.753 1.763-2.518 1.747-8.208-2.376a1.001 1.001 0 0 0-.556 1.922l19 5.5a1.007 1.007 0 0 0 .985-.254l1-1a1 1 0 1 0-1.414-1.414zm-7.47-12.499a1.02 1.02 0 0 1 .762-.208 1.033 1.033 0 0 1 .503 1.838l-.413.32-2.47-.694 1.619-1.256zM13.71 16.27l-1.549 1.202c-.218.168-.49.244-.761.208a1.025 1.025 0 0 1-.686-.39v-.002c-.17-.218-.243-.487-.209-.76s.174-.517.391-.686l.344-.267 2.47.695z"/></g></svg>
