<svg xmlns="http://www.w3.org/2000/svg" viewBox="0 0 30 30"><style>.st2{fill:#333}</style><g id="Layer_1"><path class="st2" d="M19.5 8.989c1.654 0 3-1.346 3-3s-1.346-3-3-3-3 1.345-3 3 1.346 3 3 3zm0-4a1 1 0 0 1 0 2 1 1 0 0 1 0-2zM23.707 25.293a1 1 0 0 0-1.414 0l-.588.587-1.893-.526 1.426-10.402A.986.986 0 0 0 22 14a1 1 0 0 0-1-1h-3.18a2.974 2.974 0 0 0-1.572-3.718c-.002 0-.003-.002-.005-.003-1.538-.69-3.344-.035-4.026 1.46l-1.954 4.283c-.556 1.217-.215 2.607.73 3.461l2.49 2.37-2.147 2.146-7.068-1.963a1 1 0 0 0-.535 1.928l18 5a1.001 1.001 0 0 0 .974-.257l1-1a1 1 0 0 0 0-1.414zm-11.625-9.44l1.954-4.284c.163-.357.53-.565.923-.565.153 0 .311.032.462.1a.99.99 0 0 1 .519.557.99.99 0 0 1-.027.764l-1.954 4.283c-.222.484-.868.703-1.382.469a1.002 1.002 0 0 1-.495-1.325zm3.522 4.252l-1.227-1.16a2.924 2.924 0 0 0 1.401-1.407l1.165-2.552c.023.002.044.014.068.014h2.2l-1.344 9.814-4.318-1.2 2.076-2.075a1.001 1.001 0 0 0-.02-1.434z"/></g></svg>
