<svg xmlns="http://www.w3.org/2000/svg" viewBox="0 0 30 30"><style>.st2{fill:#333}</style><g id="Layer_1"><path class="st2" d="M6 11c1.654 0 3-1.346 3-3S7.654 5 6 5 3 6.346 3 8s1.346 3 3 3zm0-4c.551 0 1 .449 1 1s-.449 1-1 1-1-.449-1-1 .449-1 1-1zM24 11c1.654 0 3-1.346 3-3s-1.346-3-3-3-3 1.346-3 3 1.346 3 3 3zm0-4a1 1 0 0 1 0 2 1 1 0 0 1 0-2zM24 12a2.998 2.998 0 0 0-2.79 1.917L20.323 16H17a1 1 0 1 0 0 2h4v2h-2.5c-.403 0-.768.243-.923.615l-2.5 6a1 1 0 1 0 1.846.77L19.167 22h1.756l-1.852 4.629a1 1 0 0 0 1.858.742L22.677 23H24c1.654 0 3-1.346 3-3v-5c0-1.654-1.346-3-3-3zm1 8a1 1 0 0 1-2 0v-5a1 1 0 0 1 2 0v5zM13 18a1 1 0 1 0 0-2H9.677l-.887-2.084A2.998 2.998 0 0 0 6 12c-1.654 0-3 1.346-3 3v5c0 1.654 1.346 3 3 3h.756l1.286 4.287a1 1 0 0 0 1.916-.574L8.544 22h1.735l1.772 5.316a1 1 0 0 0 1.898-.632l-2-6A1 1 0 0 0 11 20H9v-2h4zm-6 2a1 1 0 0 1-2 0v-5c0-.551.449-1 1-1s1 .449 1 1v5z"/></g></svg>
