<svg xmlns="http://www.w3.org/2000/svg" viewBox="0 0 30 30"><style>.st2{fill:#333}</style><g id="Layer_1"><path class="st2" d="M19.414 18H20a1 1 0 0 0 1-1v-3a1 1 0 0 0-1-1h-5.586L5.707 4.293a1 1 0 1 0-1.414 1.414l20 20a.997.997 0 0 0 1.414 0 1 1 0 0 0 0-1.414L19.414 18zM19 15v1h-1.586l-1-1H19zM4 16v-1h6.758l-2-2H3a1 1 0 0 0-1 1v3a1 1 0 0 0 1 1h10.758l-2-2H4z"/><path class="st2" d="M23 13a1 1 0 0 0-1 1v3a1 1 0 1 0 2 0v-3a1 1 0 0 0-1-1zM26 13a1 1 0 0 0-1 1v3a1 1 0 1 0 2 0v-3a1 1 0 0 0-1-1zM20.255 7.746C21.337 8.622 22 9.224 22 10.5a1 1 0 1 0 2 0c0-2.294-1.379-3.411-2.486-4.308C20.547 5.409 20 4.92 20 4a1 1 0 1 0-2 0c0 1.919 1.25 2.932 2.255 3.746z"/></g></svg>
