<svg xmlns="http://www.w3.org/2000/svg" viewBox="0 0 30 30"><path d="M28 5c0-1.654-1.346-3-3-3s-3 1.346-3 3c0 1.077.576 2.016 1.431 2.545l-.604 1.812C22.26 9.133 21.647 9 21 9s-1.26.133-1.827.357l-.604-1.812A2.992 2.992 0 0 0 20 5c0-1.654-1.346-3-3-3s-3 1.346-3 3a2.994 2.994 0 0 0 2.6 2.96l.844 2.533a4.98 4.98 0 0 0-1.365 2.73A9.491 9.491 0 0 0 10 11c-3.309 0-6 2.691-6 6 0 1.73.74 3.286 1.914 4.381C3.632 22.232 2 24.426 2 27a1 1 0 0 0 1 1h19c2.206 0 4-1.794 4-4V14a4.98 4.98 0 0 0-1.444-3.507l.845-2.534A2.994 2.994 0 0 0 28 5zm-3-1a1 1 0 0 1 0 2 1 1 0 0 1 0-2zm-9 1a1 1 0 0 1 2 0 1 1 0 0 1-2 0zm-6 8c2.36 0 4.577 1.13 6 3.023V21h-2.851a3.46 3.46 0 0 0 .351-1.5c0-1.93-1.57-3.5-3.5-3.5a1 1 0 1 0 0 2c.827 0 1.5.673 1.5 1.5S10.827 21 10 21c-2.206 0-4-1.794-4-4s1.794-4 4-4zm14 11c0 1.103-.897 2-2 2H4.127A4.007 4.007 0 0 1 8 23h11a1 1 0 1 0 0-2h-1v-7c0-1.654 1.346-3 3-3s3 1.346 3 3v10z" fill="#333"/></svg>
