<svg xmlns="http://www.w3.org/2000/svg" viewBox="0 0 30 30"><style>.st2{fill:#333}</style><g id="Layer_1"><path class="st2" d="M19 8c1.654 0 3-1.346 3-3s-1.346-3-3-3-3 1.346-3 3 1.346 3 3 3zm0-4a1 1 0 0 1 0 2 1 1 0 0 1 0-2zM23.707 25.293a1 1 0 0 0-1.414 0l-.61.61-4.183-.957V21a1 1 0 0 0-.168-.555l-1.437-2.156c.31-.256.591-.556.784-.939l1.706-3.383 2.271 3.57a1 1 0 0 0 1.688-1.074l-3.5-5.5-.009-.009a2.983 2.983 0 0 0-1.458-1.652 2.964 2.964 0 0 0-1.274-.31c-.021 0-.04-.012-.061-.012h-.003L8.997 9A1 1 0 0 0 9 11h.003l4.164-.011-1.846 3.66c-.209.416-.302.856-.31 1.293 0 .02-.011.037-.011.058v7.46l-5.729-1.31-.322-.966a.999.999 0 1 0-1.897.633l.5 1.5c.11.33.385.58.725.658l17.5 4a1 1 0 0 0 .93-.268l1-1a1 1 0 0 0 0-1.414zm-10.6-9.744l2.026-4.018a1.001 1.001 0 0 1 1.787.9l-2.027 4.02a1.004 1.004 0 0 1-1.343.442 1.002 1.002 0 0 1-.443-1.344zM13 18.805c.316.113.639.186.962.19l1.538 2.308v3.186l-2.5-.572v-5.112z"/></g></svg>
