<svg xmlns="http://www.w3.org/2000/svg" viewBox="0 0 30 30"><style>.st2{fill:#333}</style><g id="Layer_1"><path class="st2" d="M11 6c0 2.206 1.794 4 4 4s4-1.794 4-4-1.794-4-4-4-4 1.794-4 4zm4-2c1.103 0 2 .897 2 2s-.897 2-2 2-2-.897-2-2 .897-2 2-2zM21 9c0 1.654 1.346 3 3 3s3-1.346 3-3-1.346-3-3-3-3 1.346-3 3zm4 0a1 1 0 0 1-2 0 1 1 0 0 1 2 0zM3 9c0 1.654 1.346 3 3 3s3-1.346 3-3-1.346-3-3-3-3 1.346-3 3zm4 0c0 .551-.449 1-1 1s-1-.449-1-1 .449-1 1-1 1 .449 1 1zM10 16c0-1.103.897-2 2-2h3.356a8.966 8.966 0 0 1 3.802-1.809A3.947 3.947 0 0 0 18 12h-6c-1.474 0-2.75.81-3.443 2h-3.56A3 3 0 0 0 2 16.997v6.013a1 1 0 0 0 1 1h5V25a1 1 0 0 0 1 1h4.522a8.974 8.974 0 0 1-.997-2H10v-8zm-6 6.01v-5.013c0-.55.447-.997.997-.997H8v6.01H4z"/><path class="st2" d="M28 21c0-3.86-3.14-7-7-7s-7 3.14-7 7 3.14 7 7 7 7-3.14 7-7zm-2.101-1H23.97c-.062-1.2-.237-2.363-.537-3.34 1.244.7 2.171 1.899 2.465 3.34zm-5.87 2h1.942c-.127 2.17-.648 3.5-.97 3.91-.324-.41-.845-1.74-.972-3.91zm0-2c.127-2.17.648-3.5.971-3.91.323.41.844 1.74.97 3.91h-1.94zm-1.462-3.34c-.3.977-.476 2.14-.538 3.34H16.1c.294-1.441 1.221-2.64 2.466-3.34zM16.1 22h1.928c.062 1.2.237 2.363.537 3.34-1.244-.7-2.171-1.899-2.465-3.34zm7.332 3.34c.3-.977.476-2.14.538-3.34H25.9c-.294 1.441-1.221 2.64-2.466 3.34z"/></g></svg>
