<svg xmlns="http://www.w3.org/2000/svg" viewBox="0 0 30 30"><style>.st2{fill:#333}</style><g id="Layer_1"><path class="st2" d="M22 2H9c-.5 0-1 .5-1 1v5.8c-3.5 1.5-6 5.1-6 9.2 0 5.5 4.5 10 10 10h15c.5 0 1-.5 1-1V8c0-3.3-2.7-6-6-6zM4 18c0-4.4 3.6-8 8-8s8 3.6 8 8-3.6 8-8 8-8-3.6-8-8zm22 8h-8c2.4-1.8 4-4.7 4-8 0-5.5-4.5-10-10-10-.7 0-1.3.1-2 .2V4h12c2.2 0 4 1.8 4 4v18z"/><path class="st2" d="M15.5 18c0-1.9-1.6-3.5-3.5-3.5S8.5 16.1 8.5 18s1.6 3.5 3.5 3.5 3.5-1.6 3.5-3.5zm-5 0c0-.8.7-1.5 1.5-1.5s1.5.7 1.5 1.5-.7 1.5-1.5 1.5-1.5-.7-1.5-1.5z"/></g></svg>
