<svg xmlns="http://www.w3.org/2000/svg" viewBox="0 0 30 30"><style>.st2{fill:#333}</style><g id="Layer_1"><path class="st2" d="M9.854 14.059c-.486-.197-.784-.33-.784-.557 0-.323.403-.371.644-.371.333 0 .7.055 1.058.16l.299.086.12-1.8-.218-.042a6.715 6.715 0 0 0-1.203-.117c-1.683 0-2.77.877-2.77 2.234 0 1.413 1.006 1.795 1.74 2.074.549.209.79.326.79.578 0 .372-.421.427-.672.427-.395 0-.885-.087-1.25-.22l-.317-.117-.105 1.902.205.047c.418.098.886.148 1.354.148 1.708 0 2.855-.962 2.855-2.394 0-1.332-1.01-1.74-1.746-2.038zM15.315 11.408c-1.92 0-3.315 1.525-3.315 3.626 0 2.202 1.128 3.466 3.095 3.466 1.95 0 3.314-1.499 3.314-3.644 0-2.16-1.157-3.448-3.094-3.448zm-.138 5.248c-.775 0-1.168-.587-1.168-1.744 0-1.231.644-1.668 1.195-1.668.794 0 1.196.574 1.196 1.706 0 1.259-.659 1.706-1.223 1.706zM21.754 14.059c-.486-.197-.784-.33-.784-.557 0-.323.403-.371.643-.371.334 0 .7.055 1.06.16l.298.086.119-1.8-.217-.042a6.735 6.735 0 0 0-1.203-.117c-1.683 0-2.77.877-2.77 2.234 0 1.413 1.005 1.795 1.74 2.074.55.209.79.326.79.578 0 .372-.421.427-.672.427a3.95 3.95 0 0 1-1.25-.22l-.317-.117-.104 1.902.204.047c.418.097.886.148 1.355.148 1.707 0 2.854-.962 2.854-2.394 0-1.332-1.009-1.74-1.746-2.038zM13.905 5.033l.978-.518.977.518-.186-1.097.79-.777-1.093-.16L14.882 2l-.488.998-1.094.16.791.778zM8.142 6.6l.977-.518.978.518-.187-1.097.791-.777-1.093-.16-.489-1-.489 1-1.093.16.791.777zM5.082 7.823l-.489.998-1.093.16.791.778-.186 1.097.977-.518.978.518-.187-1.097.791-.778-1.093-.16zM3.558 16.11l.969.536-.168-1.1.805-.764-1.09-.18-.472-1.006-.506.99-1.096.14.777.791-.205 1.095zM5.558 20.108l-.489-.999-.488.999-1.094.16.791.777-.186 1.098.978-.518.977.518-.186-1.098.79-.777zM9.69 24.412l-.47-1.007-.507.99-1.095.14.777.791-.206 1.095.987-.501.969.535-.168-1.1.804-.764zM15.489 25.965L15 24.967l-.489.998-1.093.16.791.777L14.022 28l.978-.518.978.518-.187-1.098.791-.777zM21.127 24.24l-.507-.99-.471 1.006-1.09.18.804.763-.168 1.1.969-.535.987.501-.206-1.094.777-.79zM25.275 20.3l-.488-.999-.49.999-1.093.16.791.777-.186 1.098.977-.518.978.518-.186-1.098.79-.777zM27.995 14.445l-1.09-.179-.472-1.007-.506.99-1.096.14.778.792-.206 1.094.987-.501.968.535-.167-1.1zM23.758 10.705l.986-.5.969.535-.168-1.101.805-.763-1.09-.18-.472-1.006-.506.99-1.096.14.777.791zM19.557 6.572l.978-.518.978.518-.187-1.097.791-.777-1.093-.16-.489-1-.489 1-1.093.16.791.777z"/></g></svg>
