<svg xmlns="http://www.w3.org/2000/svg" viewBox="0 0 30 30"><path d="M26.707 12.793l-.01-.007-.007-.01-11-10.5a1 1 0 0 0-1.38 0l-11 10.5-.007.01-.01.007C2.841 13.245 2 14.086 2 15.34V27a1 1 0 0 0 1 1h24a1 1 0 0 0 1-1V15.34c0-1.254-.84-2.095-1.293-2.547zM15 4.383l9.505 9.072-2.523 2.182c.003-.048.018-.09.018-.14a1 1 0 1 0-2 0 1.082 1.082 0 0 1-.475.887 5.928 5.928 0 0 0-1.342-1.214c.133-.365.209-.758.217-1.172 0-.572-.155-1.104-.407-1.577l.714-.714a1 1 0 0 0-1.414-1.415l-.715.714A3.359 3.359 0 0 0 15 10.6c-.572 0-1.104.155-1.578.408l-.715-.716a1 1 0 0 0-1.414 1.415l.721.721a3.489 3.489 0 0 0-.414 1.633c.008.38.082.756.214 1.111a5.92 5.92 0 0 0-1.337 1.212 1.127 1.127 0 0 1-.452-.667.856.856 0 0 1-.025-.22 1 1 0 0 0-2 0c0 .049.006.091.008.138l-2.517-2.176L15 4.382zm1.4 9.636c-.002.133-.027.25-.058.359a5.8 5.8 0 0 0-1.321-.174c-.008 0-.014-.004-.021-.004-.007 0-.013.004-.021.005-.444.001-.884.07-1.318.172A1.439 1.439 0 0 1 13.6 14c0-.772.627-1.4 1.399-1.4s1.4.628 1.4 1.42zm-4.69 4.072a3.892 3.892 0 0 1 1.85-1.606c.143-.058.292-.091.44-.132v4.46l-2.489-2.15c.054-.222.107-.412.199-.572zM16 16.353c.147.04.297.073.44.131a3.885 3.885 0 0 1 1.841 1.591c.046.081.06.18.085.423.008.075.026.16.036.237L16 20.813v-4.46zM26 26H4V15.34c0-.144.05-.282.128-.425l10.218 8.842a.998.998 0 0 0 1.308 0l10.22-8.836c.076.14.126.277.126.419V26z" fill="#333"/></svg>
