<svg xmlns="http://www.w3.org/2000/svg" viewBox="0 0 30 30"><style>.st2{fill:#333}</style><g id="Layer_1"><circle class="st2" cx="15" cy="15" r="2"/><path class="st2" d="M15 8.5c-3.584 0-6.5 2.916-6.5 6.5s2.916 6.5 6.5 6.5 6.5-2.916 6.5-6.5-2.916-6.5-6.5-6.5zm0 11c-2.481 0-4.5-2.019-4.5-4.5s2.019-4.5 4.5-4.5 4.5 2.019 4.5 4.5-2.019 4.5-4.5 4.5z"/><path class="st2" d="M15 4C8.935 4 4 8.935 4 15s4.935 11 11 11 11-4.935 11-11S21.065 4 15 4zm0 20c-4.962 0-9-4.037-9-9 0-4.962 4.038-9 9-9 4.963 0 9 4.038 9 9 0 4.963-4.037 9-9 9z"/></g></svg>
