<svg xmlns="http://www.w3.org/2000/svg" viewBox="0 0 30 30"><style>.st2{fill:#333}</style><g id="Ebene_2"><path class="st2" d="M23 8.955V3a1 1 0 0 0-1-1h-1c-2.103 0-3.813 1.636-3.97 3.699a11.147 11.147 0 0 0-4.061-.008C12.809 3.632 11.099 2 9 2H8a1 1 0 0 0-1 1v5.97a10.914 10.914 0 0 0-3 7.53V25c0 1.654 1.346 3 3 3s3-1.346 3-3v-3a1 1 0 0 1 2 0v3c0 1.654 1.346 3 3 3s3-1.346 3-3v-3a1 1 0 0 1 2 0v3c0 1.654 1.346 3 3 3s3-1.346 3-3v-8.5c0-2.815-1.08-5.505-3-7.545zM21 4v3.297a11.188 11.188 0 0 0-2-1.03V6c0-1.103.898-2 2-2zM11 6v.257c-.707.276-1.374.625-2 1.034V4c1.103 0 2 .897 2 2zm13 19a1 1 0 0 1-2 0v-3c0-1.654-1.346-3-3-3s-3 1.346-3 3v3a1 1 0 0 1-2 0v-3c0-1.654-1.346-3-3-3s-3 1.346-3 3v3a1 1 0 0 1-2 0v-8.5a8.94 8.94 0 0 1 3.055-6.753 8.993 8.993 0 0 1 2.797-1.681 9.062 9.062 0 0 1 5.847-.152 9.146 9.146 0 0 1 3.149 1.744A9.02 9.02 0 0 1 24 16.5V25z"/><path class="st2" d="M11 12c-1.654 0-3 1.346-3 3a1 1 0 0 0 2 0c0-.551.449-1 1-1s1 .449 1 1a1 1 0 0 0 2 0c0-1.654-1.346-3-3-3zM19 12c-1.654 0-3 1.346-3 3a1 1 0 1 0 2 0 1 1 0 0 1 2 0 1 1 0 1 0 2 0c0-1.654-1.346-3-3-3z"/></g></svg>
