<svg xmlns="http://www.w3.org/2000/svg" viewBox="0 0 30 30"><style>.st2{fill:#333}</style><g id="Layer_1"><path class="st2" d="M6.5 9C8.43 9 10 7.43 10 5.5S8.43 2 6.5 2 3 3.57 3 5.5 4.57 9 6.5 9zm0-5C7.327 4 8 4.673 8 5.5S7.327 7 6.5 7 5 6.327 5 5.5 5.673 4 6.5 4zM23.5 9C25.43 9 27 7.43 27 5.5S25.43 2 23.5 2 20 3.57 20 5.5 21.57 9 23.5 9zm0-5c.827 0 1.5.673 1.5 1.5S24.327 7 23.5 7 22 6.327 22 5.5 22.673 4 23.5 4zM25 10h-5v-.01C20 8.893 19.071 8 17.93 8h-5.86C10.929 8 10 8.897 10 10v.184A2.964 2.964 0 0 0 9 10H5c-1.654 0-3 1.346-3 3v6a1 1 0 0 0 1 1h1v7a1 1 0 0 0 1 1h4a1 1 0 0 0 1-1v-7h1a1 1 0 0 0 1-1v-3h3.597l-.938 1.459a1 1 0 0 0 1.682 1.082L20.546 12H25a1 1 0 0 1 1 1v5h-1a1 1 0 0 0-1 1v7h-2v-7a1 1 0 1 0-2 0v8a1 1 0 0 0 1 1h4a1 1 0 0 0 1-1v-7h1a1 1 0 0 0 1-1v-6c0-1.654-1.346-3-3-3zm-15 8H9a1 1 0 0 0-1 1v7H6v-7a1 1 0 0 0-1-1H4v-5c0-.551.449-1 1-1h4c.551 0 1 .449 1 1v5zm2.014-4l.056-4L18 9.99v2.272L16.883 14h-4.869z"/></g></svg>
