<svg xmlns="http://www.w3.org/2000/svg" viewBox="0 0 30 30"><path d="M27.943 12.742a1 1 0 0 0-.801-.698l-7.515-.898-3.708-7.583a1.004 1.004 0 0 0-1.803 0l-3.808 7.483-7.415.998a.999.999 0 0 0-.6 1.696l5.61 5.588L6 26.81a.998.998 0 0 0 .79 1.17c.207.04.421.015.612-.073l7.615-3.791 7.616 3.791c.502.23 1.098.012 1.33-.488a.993.993 0 0 0 .072-.61l-1.903-7.482 5.61-5.588a.994.994 0 0 0 .201-.998zm-7.715 5.588a.995.995 0 0 0-.3.898l1.502 5.886L15 22V6l.018.257 3.106 6.186c.167.29.467.476.801.499l6.012.698-4.709 4.69z" fill="#333"/></svg>
