<svg xmlns="http://www.w3.org/2000/svg" viewBox="0 0 30 30"><style>.st2{fill:#333}</style><g id="Layer_1"><path class="st2" d="M24 26h-2V11.899c2.28-.465 4-2.485 4-4.899 0-2.757-2.243-5-5-5s-5 2.243-5 5a5.008 5.008 0 0 0 4 4.899V26h-2a1 1 0 1 0 0 2h6a1 1 0 1 0 0-2zM18 7c0-1.654 1.346-3 3-3s3 1.346 3 3-1.346 3-3 3-3-1.346-3-3zM9 9c1.93 0 3.5-1.57 3.5-3.5S10.93 2 9 2 5.5 3.57 5.5 5.5 7.07 9 9 9zm0-5c.827 0 1.5.673 1.5 1.5S9.827 7 9 7s-1.5-.673-1.5-1.5S8.173 4 9 4zM11 10H7c-1.654 0-3 1.346-3 3v6a1 1 0 0 0 1 1h1v7a1 1 0 0 0 1 1h4a1 1 0 0 0 1-1v-7h1a1 1 0 0 0 1-1v-6c0-1.654-1.346-3-3-3zm-1 16H8v-6h2v6zm2-8H6v-5c0-.551.449-1 1-1h4c.551 0 1 .449 1 1v5z"/></g></svg>
