<svg xmlns="http://www.w3.org/2000/svg" viewBox="0 0 30 30"><path d="M27 14h-2.05a9.953 9.953 0 0 0-2.212-5.324l1.454-1.454a1 1 0 1 0-1.414-1.414l-1.454 1.454A9.952 9.952 0 0 0 16 5.05V3a1 1 0 0 0-2 0v2.05a9.952 9.952 0 0 0-5.324 2.212L7.222 5.808a1 1 0 1 0-1.414 1.414l1.454 1.454A9.952 9.952 0 0 0 5.05 14H3a1 1 0 0 0 0 2h2.05a9.951 9.951 0 0 0 2.212 5.324l-1.454 1.454a1 1 0 1 0 1.414 1.414l1.454-1.454A9.953 9.953 0 0 0 14 24.95V27a1 1 0 1 0 2 0v-2.05a9.953 9.953 0 0 0 5.324-2.212l1.454 1.454a.997.997 0 0 0 1.414 0 1 1 0 0 0 0-1.414l-1.454-1.454A9.953 9.953 0 0 0 24.95 16H27a1 1 0 1 0 0-2zm-4.07 0h-4.072a3.96 3.96 0 0 0-.425-1.02l2.879-2.878A7.951 7.951 0 0 1 22.93 14zM15 17c-1.103 0-2-.897-2-2s.897-2 2-2 2 .897 2 2c0 1.102-.898 2-2 2zm4.898-8.312l-2.879 2.879A3.956 3.956 0 0 0 16 11.142V7.07a7.95 7.95 0 0 1 3.898 1.618zM14 7.07v4.073a3.955 3.955 0 0 0-1.02.425l-2.878-2.879A7.95 7.95 0 0 1 14 7.07zm-5.312 3.033l2.879 2.879c-.186.315-.33.656-.425 1.019H7.07a7.95 7.95 0 0 1 1.618-3.898zM7.07 16h4.073c.094.363.238.704.425 1.02l-2.879 2.878A7.951 7.951 0 0 1 7.07 16zm3.033 5.312l2.879-2.879c.315.186.656.33 1.019.425v4.073a7.95 7.95 0 0 1-3.898-1.62zM16 22.93v-4.072a3.956 3.956 0 0 0 1.02-.425l2.878 2.879A7.95 7.95 0 0 1 16 22.93zm5.312-3.032l-2.879-2.879A3.96 3.96 0 0 0 18.858 16h4.072a7.95 7.95 0 0 1-1.618 3.898z" fill="#333"/></svg>
