<svg xmlns="http://www.w3.org/2000/svg" viewBox="0 0 30 30"><path d="M22.284 12.07C22.126 10.72 22 9.655 22 9V6.66c0-.798-.477-1.52-1.263-1.857l-7.39-2.74a1.001 1.001 0 0 0-1.054.23l-3 3A1 1 0 0 0 9 6v1a1 1 0 0 0 .65.937l1.023.382-.463.822c-.448.9-.156 2 .68 2.558a.967.967 0 0 0 .148.08l1.78.795c.608.27 1.308.223 1.834-.107L16 11.709v5.646A6.64 6.64 0 0 0 12 16c-2.417 0-4.668 1.347-5.873 3.514a1 1 0 1 0 1.747.972C8.726 18.953 10.309 18 12 18s3.272.953 4.126 2.486A1 1 0 0 0 18 20V10a1.001 1.001 0 0 0-1.49-.872l-2.878 1.62-1.624-.725.57-1.011a2.743 2.743 0 0 0 3.314-1.56 1 1 0 0 0-1.845-.773.751.751 0 0 1-.934.42.955.955 0 0 0-.083-.036l-1.95-.728 2.174-2.174L20 6.66V9c0 .772.132 1.89.298 3.304.278 2.36.656 5.571.7 9.39-1.95 2.74-5.2 4.306-8.968 4.306-2.332 0-4.56-.723-6.443-2.09a1 1 0 0 0-1.174 1.62A12.885 12.885 0 0 0 12.03 28c4.56 0 8.498-1.985 10.802-5.446a.995.995 0 0 0 .168-.56c-.025-4.067-.425-7.453-.716-9.924z" fill="#333"/></svg>
