<svg xmlns="http://www.w3.org/2000/svg" viewBox="0 0 30 30"><style>.st2{fill:#333}</style><g id="Layer_1"><path class="st2" d="M19 13c-1.13 0-2.22.49-2.99 1.35L15 15.5l-1.01-1.14A4.018 4.018 0 0 0 11 13c-2.21 0-4 1.79-4 4s1.79 4 4 4c1.13 0 2.22-.5 2.99-1.36L15 18.5l1.01 1.14c.77.87 1.86 1.36 2.99 1.36 2.21 0 4-1.79 4-4s-1.79-4-4-4zm-6.51 5.32c-.39.44-.92.68-1.49.68-1.1 0-2-.9-2-2s.9-2 2-2c.57 0 1.1.24 1.49.68L13.66 17l-1.17 1.32zM19 19c-.57 0-1.1-.24-1.49-.69L16.34 17l1.17-1.32c.39-.44.92-.68 1.49-.68 1.1 0 2 .9 2 2s-.9 2-2 2z"/><path class="st2" d="M25 4H5C3.346 4 2 5.346 2 7v18a1 1 0 0 0 1 1h24a1 1 0 0 0 1-1V7c0-1.654-1.346-3-3-3zm1 3v1h-3.586l2-2H25a1 1 0 0 1 1 1zM15.414 8l2-2h4.172l-2 2h-4.172zm-7 0l2-2h4.172l-2 2H8.414zM5 6h2.586l-2 2H4V7c0-.551.449-1 1-1zM4 24V10h22v14H4z"/></g></svg>
