<svg xmlns="http://www.w3.org/2000/svg" viewBox="0 0 30 30"><style>.st2{fill:#333}</style><g id="Layer_1"><path class="st2" d="M12 24c.395 0 .776-.074 1.182-.244.066-.022 1.22-.679 1.22-.679l-2.009-1.16C11.768 22.175 11 21.694 11 21a1 1 0 0 1 1-1c.16 0 .303.032.377.065 0 0 6.474 3.698 6.517 3.708.353.14.721.227 1.106.227 1.654 0 3-1.346 3-3 0-2.1-2.144-3.723-4.34-2.682L16 19.846l-2.687-1.546A3.003 3.003 0 0 0 9 21c0 1.654 1.346 3 3 3zm7.56-3.9A1 1 0 1 1 20 22c-.161 0-.303-.032-.377-.065L18 21l1.56-.9z"/><path class="st2" d="M27 14H6.662l19.701-5.279a1.001 1.001 0 0 0 .707-1.224L25.905 3.15a.999.999 0 0 0-1.224-.707L3.24 8.188a1 1 0 0 0-.707 1.224L3.7 13.76a1 1 0 0 0 .466.607c.02.012.041.016.061.026A.98.98 0 0 0 4 15v12a1 1 0 0 0 1 1h22a1 1 0 0 0 1-1V15a1 1 0 0 0-1-1zM14.395 7.27l-1.738 3.053-2.832.76 1.49-2.989 3.08-.825zm4.04 1.505l-3.062.82 1.572-2.763c.05-.086.068-.178.09-.27l2.743-.735-1.31 2.808c-.02.046-.02.094-.033.14zm6.445-1.727L20.92 8.11l1.38-2.958 1.932-.518.648 2.415zM8.735 8.786l-1.49 2.988-1.873.501-.647-2.415 4.01-1.074zM26 26H6V16h20v10z"/></g></svg>
