<svg xmlns="http://www.w3.org/2000/svg" viewBox="0 0 30 30"><style>.st3{fill:#333}</style><g id="Layer_1"><path class="st3" d="M17 21h-4a1 1 0 0 1-1-1v-3H9a1 1 0 0 1-1-1v-4a1 1 0 0 1 1-1h3V8a1 1 0 0 1 1-1h4a1 1 0 0 1 1 1v3h3a1 1 0 0 1 1 1v4a1 1 0 0 1-1 1h-3v3a1 1 0 0 1-1 1zm-3-2h2v-3a1 1 0 0 1 1-1h3v-2h-3a1 1 0 0 1-1-1V9h-2v3a1 1 0 0 1-1 1h-3v2h3a1 1 0 0 1 1 1v3z"/><path class="st3" d="M15 28c-.06 0-.12-.006-.179-.017C14.703 27.962 3 25.631 3 8a1 1 0 0 1 .586-.91l11-5a.994.994 0 0 1 .828 0l11 5A1 1 0 0 1 27 8c0 17.63-11.703 19.962-11.821 19.983-.06.011-.119.017-.179.017zM5.005 8.642c.243 14.337 8.601 16.99 9.995 17.335 1.384-.34 9.752-2.99 9.994-17.335L15 4.099 5.005 8.642z"/></g></svg>
