<svg xmlns="http://www.w3.org/2000/svg" viewBox="0 0 30 30"><path d="M19.5 24c-.354 0-.685-.189-.864-.496l-2.648-4.54-2.13 3.55A1 1 0 0 1 13 23H8a1 1 0 0 1-.986-.836L6.236 17.5l-2.789 1.395a1.001 1.001 0 0 1-1.396-1.211l2-6a.999.999 0 0 1 .298-.443l7-6A1 1 0 0 1 12 5h7.5a1 1 0 0 1 .555.168l4.5 3a1 1 0 0 1 .393 1.148l-.658 1.976 2.952.738A1 1 0 0 1 28 13v4a1 1 0 0 1-1 1h-3.882l-2.723 5.447a1 1 0 0 1-.863.552L19.5 24zM8.847 21h3.587l2.709-4.515c.181-.301.524-.464.863-.485a1 1 0 0 1 .858.496l2.569 4.403 2.173-4.346A1 1 0 0 1 22.5 16H26v-2.22l-3.242-.81a1.002 1.002 0 0 1-.706-1.286l.758-2.276L19.197 7H12.37l-6.509 5.58-1.149 3.446 1.84-.92a1 1 0 0 1 1.434.73L8.847 21z" fill="#333"/></svg>
