<svg xmlns="http://www.w3.org/2000/svg" viewBox="0 0 30 30"><style>.st2{fill:#333}</style><g id="Layer_1"><path class="st2" d="M19.526 18h-8.342A26.167 26.167 0 0 1 11 15c0-1.034.073-2.03.185-3H17v-2h-5.52c.777-3.903 2.334-6 3.52-6 .847 0 1.878 1.086 2.684 3.115a2.984 2.984 0 0 1 1.739-1.057 11.568 11.568 0 0 0-.681-1.389c.91.331 1.761.785 2.543 1.331h.926c.076 0 .153.003.23.009.294.022 1.549.178 2.907 1.155C22.972 4.034 19.224 2 15 2 7.832 2 2 7.832 2 15s5.832 13 13 13c.72 0 1.426-.076 2.125-.19A2.968 2.968 0 0 1 17 27v-2.693C16.341 25.413 15.62 26 15 26c-1.186 0-2.742-2.096-3.52-6h6.012a2.994 2.994 0 0 1 2.034-1.331V18zM11.258 4.67C10.461 6.012 9.835 7.818 9.442 10H5.214a11.045 11.045 0 0 1 6.044-5.33zM4 15c0-1.041.155-2.045.426-3h4.747C9.07 12.973 9 13.97 9 15c0 1.031.07 2.028.173 3H4.426A10.948 10.948 0 0 1 4 15zm1.214 5h4.228c.393 2.182 1.02 3.987 1.817 5.33A11.044 11.044 0 0 1 5.214 20z"/><path class="st2" d="M22.21 8H20a1 1 0 0 0-1 1v5.369a1 1 0 0 0 1 1h1.526v5.263H20a1 1 0 0 0-1 1V27a1 1 0 0 0 1 1h2.21a1 1 0 0 0 .153-.012c.202-.03 4.952-.869 4.952-10.146 0-9.344-4.822-9.823-5.104-9.842zm-.11 18H21v-3.368h1.526a1 1 0 0 0 1-1v-7.263a1 1 0 0 0-1-1H21V10h1.139c.316.066 3.177.864 3.177 7.842 0 6.937-2.838 8.042-3.215 8.158z"/></g></svg>
