<svg xmlns="http://www.w3.org/2000/svg" viewBox="0 0 30 30"><style>.st2{fill:#333}</style><g id="Layer_1"><path class="st2" d="M25 5a1 1 0 0 0-1 1v2.69A10.993 10.993 0 0 0 15 4a10.958 10.958 0 0 0-10.945 9.901 1 1 0 1 0 1.99.198A8.964 8.964 0 0 1 15 6a8.988 8.988 0 0 1 7.46 4H20a1 1 0 1 0 0 2h5a1 1 0 0 0 1-1V6a1 1 0 0 0-1-1zM25.048 15.005a1.007 1.007 0 0 0-1.094.896A8.964 8.964 0 0 1 15 24a8.989 8.989 0 0 1-7.46-4H10a1 1 0 1 0 0-2H5a1 1 0 0 0-1 1v5a1 1 0 1 0 2 0v-2.691A10.994 10.994 0 0 0 15 26a10.957 10.957 0 0 0 10.944-9.901 1 1 0 0 0-.896-1.094z"/></g></svg>
