<svg xmlns="http://www.w3.org/2000/svg" viewBox="0 0 30 30"><style>.st2{fill:#333}</style><g id="Layer_1"><path class="st2" d="M15 6a1 1 0 0 0-1 1v3.984h-1V7a1 1 0 0 0-2 0v1h-1V7a1 1 0 0 0-2 0v8a1 1 0 0 0 2 0v-5h1v5a1 1 0 0 0 2 0v-2.016h1V15a1 1 0 0 0 2 0V7a1 1 0 0 0-1-1zM27.707 22.793a1 1 0 0 0-1.414 0l-.793.793V20a1 1 0 1 0-2 0v3.586l-.793-.793a1 1 0 1 0-1.414 1.414l2.5 2.5a.997.997 0 0 0 1.414 0l2.5-2.5a1 1 0 0 0 0-1.414z"/><path class="st2" d="M17 2H5C3.346 2 2 3.346 2 5v20c0 1.654 1.346 3 3 3h12c1.654 0 3-1.346 3-3V5c0-1.654-1.346-3-3-3zm1 23a1 1 0 0 1-1 1H5a1 1 0 0 1-1-1V5c0-.551.449-1 1-1h12a1 1 0 0 1 1 1v20z"/></g></svg>
