<svg xmlns="http://www.w3.org/2000/svg" viewBox="0 0 30 30"><style>.st2{fill:#333}</style><g id="Layer_1"><path class="st2" d="M28 7.5C28 4.467 25.532 2 22.5 2a5.461 5.461 0 0 0-5.027 3.275A11.48 11.48 0 0 0 15 5c-.85 0-1.675.1-2.473.275A5.461 5.461 0 0 0 7.5 2 5.506 5.506 0 0 0 2 7.5c0 1.835.922 3.518 2.403 4.534A11.437 11.437 0 0 0 3.5 16.5C3.5 22.84 8.659 28 15 28c6.34 0 11.5-5.16 11.5-11.5 0-1.583-.322-3.092-.903-4.466A5.504 5.504 0 0 0 28 7.5zm-24 0C4 5.57 5.57 4 7.5 4a3.47 3.47 0 0 1 3.094 1.881 11.56 11.56 0 0 0-5.239 4.377A3.505 3.505 0 0 1 4 7.5zM15 26c-5.238 0-9.5-4.262-9.5-9.5S9.762 7 15 7s9.5 4.262 9.5 9.5S20.238 26 15 26zm9.645-15.741a11.56 11.56 0 0 0-5.239-4.378A3.468 3.468 0 0 1 22.5 4C24.43 4 26 5.57 26 7.5a3.506 3.506 0 0 1-1.355 2.759z"/><circle class="st2" cx="11" cy="13" r="2"/><circle class="st2" cx="19" cy="13" r="2"/><path class="st2" d="M20.178 19.016a.998.998 0 0 0-1.162.806c-.172.957-.807 1.678-1.477 1.678-.834 0-1.539-1.03-1.539-2.25 0-.044-.02-.082-.025-.125.005-.043.025-.08.025-.125v-.278c.595-.347 1-.985 1-1.722 0-1.103-.897-2-2-2s-2 .897-2 2c0 .737.405 1.375 1 1.722V19c0 .044.02.082.025.125-.005.043-.025.08-.025.125 0 1.22-.705 2.25-1.54 2.25-.669 0-1.303-.72-1.476-1.678a1 1 0 0 0-1.968.355c.353 1.957 1.77 3.323 3.445 3.323.997 0 1.895-.502 2.539-1.3.644.798 1.542 1.3 2.54 1.3 1.675 0 3.092-1.366 3.444-3.322a1.001 1.001 0 0 0-.806-1.162z"/></g></svg>
