<svg xmlns="http://www.w3.org/2000/svg" viewBox="0 0 30 30"><style>.st2{fill:#333}</style><g id="Layer_1"><path class="st2" d="M17 5.875V12h2.998a4 4 0 0 1 4 4.001V6L17 5.875zM23.998 16.085v-.084z"/><path class="st2" d="M25.27 2h-9.54A2.733 2.733 0 0 0 13 4.73V12h2V4.73c0-.41.32-.73.73-.73h9.54c.409 0 .73.32.73.73v18.54c0 .409-.321.73-.73.73H24v2h1.27A2.733 2.733 0 0 0 28 23.27V4.73A2.733 2.733 0 0 0 25.27 2z"/><path class="st2" d="M20 14h-8v-1c0-1.66-1.34-3-3-3s-3 1.34-3 3v1H4c-1.1 0-2 .9-2 2v11c0 .55.45 1 1 1h18c.55 0 1-.45 1-1V16c0-1.1-.9-2-2-2zM8 13c0-.55.45-1 1-1s1 .45 1 1v8c0 .55-.45 1-1 1s-1-.45-1-1v-8zm12 13H4V16h2v5c0 1.66 1.34 3 3 3s3-1.34 3-3v-5h8v10z"/><path class="st2" d="M15 20h2c.55 0 1-.45 1-1s-.45-1-1-1h-2c-.55 0-1 .45-1 1s.45 1 1 1zM15 24h2c.55 0 1-.45 1-1s-.45-1-1-1h-2c-.55 0-1 .45-1 1s.45 1 1 1z"/></g></svg>
