<svg xmlns="http://www.w3.org/2000/svg" viewBox="0 0 30 30"><style>.st2{fill:#333}</style><g id="Layer_1"><path class="st2" d="M4 4h5a1 1 0 0 0 0-2H4a1 1 0 0 0 0 2zM21 4h5a1 1 0 1 0 0-2h-5a1 1 0 1 0 0 2zM4 12h5a1 1 0 0 0 0-2H4a1 1 0 0 0 0 2zM26 10h-5a1 1 0 1 0 0 2h5a1 1 0 1 0 0-2zM9 18H4a1 1 0 1 0 0 2h5a1 1 0 1 0 0-2zM26 18h-5a1 1 0 1 0 0 2h5a1 1 0 1 0 0-2zM21 8h2a1 1 0 1 0 0-2h-2a1 1 0 1 0 0 2zM9 6H7a1 1 0 0 0 0 2h2a1 1 0 0 0 0-2zM21 16h2a1 1 0 1 0 0-2h-2a1 1 0 1 0 0 2zM9 14H7a1 1 0 0 0 0 2h2a1 1 0 0 0 0-2zM18 19.02V5c0-1.654-1.346-3-3-3s-3 1.346-3 3v14.02c-1.246.94-2 2.416-2 3.98 0 2.757 2.243 5 5 5s5-2.243 5-5c0-1.564-.754-3.04-2-3.98zM15 4c.551 0 1 .449 1 1v8h-2V5c0-.551.449-1 1-1z"/></g></svg>
