<svg xmlns="http://www.w3.org/2000/svg" viewBox="0 0 30 30"><style>.st2{fill:#333}</style><g id="Layer_1"><path class="st2" d="M15 8c1.654 0 3-1.346 3-3s-1.346-3-3-3-3 1.346-3 3 1.346 3 3 3zm0-4c.551 0 1 .449 1 1s-.449 1-1 1-1-.449-1-1 .449-1 1-1zM19.948 21.684l-1.931-5.797.325-3.258A2.392 2.392 0 0 0 15.962 10h-1.925c-.674 0-1.32.287-1.772.786a2.396 2.396 0 0 0-.607 1.843l.326 3.258-1.933 5.797A1.001 1.001 0 0 0 11 23h1.095l.41 4.1a1 1 0 0 0 .995.9h3a1 1 0 0 0 .995-.9l.41-4.1H19a1.001 1.001 0 0 0 .948-1.316zm-6.3-9.254a.39.39 0 0 1 .39-.43h1.925a.388.388 0 0 1 .389.43l-.347 3.47a.993.993 0 0 0 .047.416L17.612 21h-5.225l1.562-4.684c.044-.133.06-.275.046-.416l-.347-3.47zM15.595 26h-1.19l-.3-3h1.79l-.3 3z"/></g></svg>
