<svg xmlns="http://www.w3.org/2000/svg" viewBox="0 0 30 30"><style>.st2{fill:#333}</style><g id="Layer_1"><path class="st2" d="M9 8c1.654 0 3-1.346 3-3s-1.346-3-3-3-3 1.346-3 3 1.346 3 3 3zm0-4c.551 0 1 .449 1 1s-.449 1-1 1-1-.449-1-1 .449-1 1-1zM11 10H7c-1.654 0-3 1.346-3 3v6a1 1 0 0 0 1 1h1v7a1 1 0 0 0 1 1h4a1 1 0 0 0 1-1v-7h1a1 1 0 0 0 1-1v-6c0-1.654-1.346-3-3-3zm-1 16H8v-6h2v6zm2-8H6v-5c0-.551.449-1 1-1h4c.551 0 1 .449 1 1v5zM21 8c1.654 0 3-1.346 3-3s-1.346-3-3-3-3 1.346-3 3 1.346 3 3 3zm0-4a1 1 0 0 1 0 2 1 1 0 0 1 0-2zM25.948 21.684l-1.931-5.797.325-3.258A2.392 2.392 0 0 0 21.962 10h-1.925a2.393 2.393 0 0 0-2.379 2.629l.325 3.258-1.931 5.797A1 1 0 0 0 17 23h1.095l.41 4.1a1 1 0 0 0 .995.9h3a1 1 0 0 0 .995-.9l.41-4.1H25a1.001 1.001 0 0 0 .948-1.316zm-6.3-9.254a.387.387 0 0 1 .39-.43h1.925a.388.388 0 0 1 .388.43l-.346 3.47c-.014.141.002.283.047.416L23.612 21h-5.224l1.56-4.684c.045-.133.06-.275.047-.416l-.347-3.47zM21.595 26h-1.19l-.3-3h1.79l-.3 3z"/></g></svg>
