<svg xmlns="http://www.w3.org/2000/svg" viewBox="0 0 30 30"><style>.st2{fill:#333}</style><g id="Layer_1"><path class="st2" d="M19.5 9C21.43 9 23 7.43 23 5.5S21.43 2 19.5 2 16 3.57 16 5.5 17.57 9 19.5 9zm0-5c.827 0 1.5.673 1.5 1.5S20.327 7 19.5 7 18 6.327 18 5.5 18.673 4 19.5 4zM21 10h-5v-.01C16 8.893 15.071 8 13.93 8H8.07C6.929 8 6 8.897 6 10v5a1 1 0 0 0 1 1h4.597l-.938 1.459a1 1 0 0 0 1.682 1.082L16.546 12H21a1 1 0 0 1 1 1v5h-1a1 1 0 0 0-1 1v7h-2v-7a1 1 0 1 0-2 0v8a1 1 0 0 0 1 1h4a1 1 0 0 0 1-1v-7h1a1 1 0 0 0 1-1v-6c0-1.654-1.346-3-3-3zM8.014 14l.056-4L14 9.99v2.271L12.883 14H8.014z"/></g></svg>
