<svg xmlns="http://www.w3.org/2000/svg" viewBox="0 0 30 30"><style>.st2{fill:#333}</style><g id="Layer_1"><path class="st2" d="M4.783 18.973l4.483.999a1.001 1.001 0 0 0 .657-.077l3.21-1.573c.233.188.498.333.782.445.023.01.04.03.064.04l5.302 1.989 1.824 3.648a1 1 0 0 0 1.79-.894l-2-4a1.003 1.003 0 0 0-.543-.49l-3.028-1.135c.275-.323.49-.703.608-1.137l.58-2.153 4.901-2.224a1 1 0 0 0-.826-1.822l-3.465 1.573a2.946 2.946 0 0 0-.39-1.691 3 3 0 0 0-1.84-1.406c-.038-.01-.075-.01-.112-.018-.023-.007-.04-.022-.063-.028l-4.5-1a1.006 1.006 0 0 0-.924.27l-3 3a1 1 0 1 0 1.414 1.413l2.612-2.611 1.254.278a2.917 2.917 0 0 0-.365.8l-1.097 4.063a2.924 2.924 0 0 0-.026 1.376l-2.727 1.335-4.14-.922a1 1 0 0 0-.435 1.951zm12.216-7.502c.13.225.165.485.098.732L16 16.267c-.141.525-.695.834-1.238.692a1.015 1.015 0 0 1-.622-.474.961.961 0 0 1-.098-.732l1.096-4.064a.997.997 0 0 1 .97-.726c.088 0 .18.011.269.035.266.07.487.239.622.473zM18.986 7.997a3.016 3.016 0 0 0 3.01-3.135 2.964 2.964 0 0 0-.967-2.08 2.996 2.996 0 0 0-2.16-.779 3.018 3.018 0 0 0-2.864 3.133c.034.802.378 1.54.969 2.08a2.968 2.968 0 0 0 2.012.781zm-.021-3.995a.98.98 0 0 1 .715.257.975.975 0 0 1 .319.687 1.012 1.012 0 0 1-.962 1.05.983.983 0 0 1-1.034-.943 1.013 1.013 0 0 1 .962-1.051z"/><path class="st2" d="M27.447 26.105l-2-1a1.001 1.001 0 0 0-.894 0l-1.79.895h-9.46l-2.748-1.832a.998.998 0 0 0-1.11 0L6.697 26H3a1 1 0 1 0 0 2h4a1 1 0 0 0 .555-.168L10 26.202l2.445 1.63A1 1 0 0 0 13 28h10a1 1 0 0 0 .447-.105L25 27.117l1.553.777a1.002 1.002 0 0 0 1.341-.448 1 1 0 0 0-.447-1.341z"/></g></svg>
