<svg xmlns="http://www.w3.org/2000/svg" viewBox="0 0 30 30"><style>.st2{fill:#333}</style><g id="Layer_1"><path class="st2" d="M19 7h-1.586l.793-.793a1 1 0 0 0 0-1.414l-2.5-2.5a1 1 0 0 0-1.414 0l-2.5 2.5a1 1 0 0 0 0 1.414l.793.793H11c-2.206 0-4 1.794-4 4v11a1 1 0 0 0 1 1h1.284l-1.521 3.612a1 1 0 1 0 1.843.776L11.453 23h7.094l1.847 4.388a1 1 0 0 0 1.843-.776L20.717 23H22a1 1 0 0 0 1-1V11c0-2.206-1.794-4-4-4zm-4-2.586L16.086 5.5 15 6.586 13.914 5.5 15 4.414zM21 21H9v-5h12v5zM9 14v-3c0-1.103.897-2 2-2h8c1.103 0 2 .897 2 2v3H9z"/><circle class="st2" cx="12" cy="19" r="1"/><circle class="st2" cx="18" cy="19" r="1"/></g></svg>
