<svg xmlns="http://www.w3.org/2000/svg" viewBox="0 0 30 30"><style>.st2{fill:#333}</style><g id="Layer_1"><path class="st2" d="M27 3H3a1 1 0 0 0-1 1v13c0 2.206 1.794 4 4 4h2v5a1 1 0 0 0 1.6.8l7.733-5.8H24c2.206 0 4-1.794 4-4V4a1 1 0 0 0-1-1zm-1 14c0 1.103-.897 2-2 2h-7a.997.997 0 0 0-.6.2L10 24v-4a1 1 0 0 0-1-1H6c-1.103 0-2-.897-2-2V5h22v12z"/><path class="st2" d="M13 9h4a1 1 0 1 0 0-2h-4a1 1 0 0 0 0 2zM14.25 17a1 1 0 1 0 0-2 2.253 2.253 0 0 1-2.236-2H16v1a1 1 0 1 0 2 0v-1h1a1 1 0 1 0 0-2h-8a1 1 0 0 0-1 1v.75A4.255 4.255 0 0 0 14.25 17z"/></g></svg>
