<svg xmlns="http://www.w3.org/2000/svg" viewBox="0 0 30 30"><style>.st2{fill:#333}</style><g id="Layer_1"><path class="st2" d="M12 15H9v-3H7v8h2v-3.29h3V20h2v-8h-2zM18.5 12H16v8h2.5c2.5 0 4.5-1.298 4.5-4 0-2.81-1.98-4.01-4.5-4zm0 6.5H18v-5h.5c1.68 0 2.5.98 2.5 2.5 0 1.73-1.22 2.51-2.5 2.5z"/><path class="st2" d="M25 6h-7.586l2.293-2.293a1 1 0 1 0-1.414-1.414L15 5.586l-3.293-3.293a1 1 0 1 0-1.414 1.414L12.586 6H5C3.346 6 2 7.346 2 9v16a1 1 0 0 0 1 1h24a1 1 0 0 0 1-1V9c0-1.654-1.346-3-3-3zm1 18H4V9c0-.551.449-1 1-1h20a1 1 0 0 1 1 1v15z"/></g></svg>
