<svg xmlns="http://www.w3.org/2000/svg" viewBox="0 0 30 30"><style>.st2{fill:#333}</style><g id="Layer_1"><path class="st2" d="M25 7h-7.586l2.293-2.293a1 1 0 1 0-1.414-1.414L15 6.586l-3.293-3.293a1 1 0 1 0-1.414 1.414L12.586 7H5c-1.654 0-3 1.346-3 3v16a1 1 0 0 0 1 1h24a1 1 0 0 0 1-1V10c0-1.654-1.346-3-3-3zm1 18H4V10c0-.551.449-1 1-1h20a1 1 0 0 1 1 1v15z"/><path class="st2" d="M9.108 17.206c0 .89-.263 1.04-.853 1.04-.632 0-.845-.24-.845-.955V13H5.5v4.376C5.5 19.117 6.396 20 8.164 20 9.993 20 11 18.977 11 17.121V13H9.108v4.206zM16 15.5h-2V13h-2v7h2v-2.5h2V20h2v-7h-2zM21.274 13c-1.014 0-1.821.044-2.044.057l-.23.014v6.86l.232.013c.522.026 1.134.056 1.776.056 2.154 0 3.492-1.392 3.492-3.633 0-2.203-1.115-3.367-3.226-3.367zm-.142 5.21c-.097 0-.188-.005-.268-.012v-3.432c.094-.003.2-.005.321-.003.975 0 1.354.482 1.354 1.719 0 1.114-.5 1.727-1.407 1.727z"/></g></svg>
