<svg xmlns="http://www.w3.org/2000/svg" viewBox="0 0 30 30"><style>.st2{fill:#333}</style><g id="Layer_1"><path class="st2" d="M21 6h-1.703C18.147 3.581 15.699 2 13 2 9.366 2 6.37 4.784 6.032 8.332A6.02 6.02 0 0 0 2 14c0 3.309 2.691 6 6 6h4v-2H8c-2.206 0-4-1.794-4-4a4.01 4.01 0 0 1 3.203-3.92 1 1 0 0 0 .802-.995L8 9c0-2.757 2.243-5 5-5 2.095 0 3.978 1.34 4.688 3.335A1 1 0 0 0 18.63 8H21c2.757 0 5 2.243 5 5s-2.243 5-5 5h-3v2h3c3.86 0 7-3.14 7-7s-3.14-7-7-7z"/><path class="st2" d="M18.293 15.707a.997.997 0 0 0 1.414 0 1 1 0 0 0 0-1.414l-4-4a1 1 0 0 0-1.414 0l-4 4a1 1 0 1 0 1.414 1.414L14 13.414V25a1 1 0 1 0 2 0V13.414l2.293 2.293z"/></g></svg>
