<svg xmlns="http://www.w3.org/2000/svg" viewBox="0 0 30 30"><path d="M25 12a2.995 2.995 0 0 0-2.816 2H19.92A7.005 7.005 0 0 0 14 8.08V7a1 1 0 0 0-1-1H9a1 1 0 0 0-1 1v4a1 1 0 0 0 1 1h4a1 1 0 0 0 1-1v-.899A5.014 5.014 0 0 1 17.899 14H8v-.5a1 1 0 0 0-1.447-.895l-3 1.5a1 1 0 0 0 0 1.79l3 1.5a1.003 1.003 0 0 0 .973-.044c.294-.183.474-.504.474-.851V16h11.409c-.366 1.996-1.809 3.553-3.62 3.911A2.999 2.999 0 0 0 13 18c-1.654 0-3 1.346-3 3s1.346 3 3 3c1.326 0 2.44-.87 2.836-2.065 2.884-.401 5.176-2.843 5.59-5.935h.758A2.995 2.995 0 0 0 25 18c1.654 0 3-1.346 3-3s-1.346-3-3-3zm-13-2h-2V8h2v2zm1 12a1 1 0 0 1 0-2 1 1 0 0 1 0 2zm12-6a1 1 0 0 1 0-2 1 1 0 0 1 0 2z" fill="#333"/></svg>
