<svg xmlns="http://www.w3.org/2000/svg" viewBox="0 0 30 30"><style>.st2{fill:#333}</style><g id="Layer_1"><path class="st2" d="M24 16h-9c-2.206 0-4 1.794-4 4v5a1 1 0 0 0 1 1h15a1 1 0 0 0 1-1v-5c0-2.206-1.794-4-4-4zm2 8H13v-4c0-1.103.897-2 2-2h9c1.103 0 2 .897 2 2v4zM19.5 14c3.032 0 5.5-2.467 5.5-5.5S22.532 3 19.5 3 14 5.467 14 8.5s2.468 5.5 5.5 5.5zm0-9C21.43 5 23 6.57 23 8.5S21.43 12 19.5 12 16 10.43 16 8.5 17.57 5 19.5 5z"/><circle class="st2" cx="5.5" cy="6.5" r="3.5"/><path class="st2" d="M5.5 11C3.57 11 2 12.57 2 14.5S3.57 18 5.5 18 9 16.43 9 14.5 7.43 11 5.5 11zm0 5c-.827 0-1.5-.673-1.5-1.5S4.673 13 5.5 13s1.5.673 1.5 1.5S6.327 16 5.5 16zM5.5 19C3.57 19 2 20.57 2 22.5S3.57 26 5.5 26 9 24.43 9 22.5 7.43 19 5.5 19zm0 5c-.827 0-1.5-.673-1.5-1.5S4.673 21 5.5 21s1.5.673 1.5 1.5S6.327 24 5.5 24z"/></g></svg>
