<svg xmlns="http://www.w3.org/2000/svg" viewBox="0 0 30 30"><style>.st2{fill:#333}</style><g id="Layer_1"><path class="st2" d="M27.901 14.58c-.004-.008-.002-.019-.006-.027l-3.448-6.895A2.985 2.985 0 0 0 21.765 6H19v-.5a1.5 1.5 0 0 0-3 0V6H5.003A3.007 3.007 0 0 0 2 9.003V23a1 1 0 0 0 1 1h3.351c.564 1.178 1.758 2 3.149 2s2.585-.822 3.149-2h4.702c.564 1.178 1.758 2 3.149 2s2.585-.822 3.149-2H27a1 1 0 0 0 1-1v-8a.986.986 0 0 0-.099-.42zM25.382 14H20v-2h4.382l1 2zM9.5 24c-.827 0-1.5-.673-1.5-1.5S8.673 21 9.5 21s1.5.673 1.5 1.5-.673 1.5-1.5 1.5zm11 0c-.827 0-1.5-.673-1.5-1.5s.673-1.5 1.5-1.5 1.5.673 1.5 1.5-.673 1.5-1.5 1.5zm3.45-2c-.246-1.692-1.691-3-3.45-3s-3.204 1.308-3.45 3h-4.1c-.246-1.692-1.692-3-3.45-3s-3.204 1.308-3.45 3H4V9.003C4 8.45 4.45 8 5.003 8h16.762c.38 0 .723.212.893.552L23.382 10H19a1 1 0 0 0-1 1v4a1 1 0 0 0 1 1h7v6h-2.05z"/><path class="st2" d="M11.5 10H8a1 1 0 0 0-1 1v6a1 1 0 1 0 2 0v-2h1a1 1 0 0 0 0-2H9v-1h2.5a1 1 0 0 0 0-2z"/></g></svg>
