<svg xmlns="http://www.w3.org/2000/svg" viewBox="0 0 30 30"><style>.st2{fill:#333}</style><g id="Layer_1"><path class="st2" d="M27.901 14.58c-.004-.008-.002-.019-.006-.027l-4-8A1 1 0 0 0 23 6h-4v-.5a1.5 1.5 0 0 0-3 0V6h-1a1 1 0 0 0-1 1v8h-2v-.5c0-1.93-1.57-3.5-3.5-3.5S5 12.57 5 14.5v.5H3a1 1 0 0 0-1 1v7a1 1 0 0 0 1 1h3.351c.564 1.178 1.758 2 3.149 2s2.585-.822 3.149-2h4.702c.564 1.178 1.758 2 3.149 2s2.585-.822 3.149-2H27a1 1 0 0 0 1-1v-8a.986.986 0 0 0-.099-.42zM7 14.5c0-.827.673-1.5 1.5-1.5s1.5.673 1.5 1.5v.47H7v-.47zm18.382-.5H20v-2h4.382l1 2zM9.5 24c-.827 0-1.5-.673-1.5-1.5S8.673 21 9.5 21s1.5.673 1.5 1.5-.673 1.5-1.5 1.5zm11 0c-.827 0-1.5-.673-1.5-1.5s.673-1.5 1.5-1.5 1.5.673 1.5 1.5-.673 1.5-1.5 1.5zm3.45-2c-.246-1.692-1.691-3-3.45-3s-3.204 1.308-3.45 3h-4.1c-.246-1.692-1.692-3-3.45-3s-3.204 1.308-3.45 3H4v-5h11a1 1 0 0 0 1-1V8h6.382l1 2H19a1 1 0 0 0-1 1v4a1 1 0 0 0 1 1h7v6h-2.05zM3 13.5c.232 0 .465-.08.654-.243l11-9.5a1 1 0 0 0-1.308-1.514l-11 9.5a1 1 0 0 0 .655 1.757z"/></g></svg>
