<svg xmlns="http://www.w3.org/2000/svg" viewBox="0 0 30 30"><style>.st2{fill:#333}</style><g id="Layer_1"><path class="st2" d="M27.013 13.988c0-6.624-5.389-12.013-12.013-12.013S2.988 7.364 2.988 13.988C2.988 20.61 8.377 26 15 26c6.624 0 12.013-5.389 12.013-12.012zM15 24C9.48 24 4.988 19.509 4.988 13.988S9.479 3.975 15 3.975c5.521 0 10.013 4.492 10.013 10.013S20.52 24 15 24zM24 26H6a1 1 0 1 0 0 2h18a1 1 0 1 0 0-2z"/><path class="st2" d="M20.513 12.001L20.507 12l-3.307-.024a3.001 3.001 0 0 0-.65-.532A3.001 3.001 0 0 0 19 8.5c0-1.654-1.346-3-3-3s-3 1.346-3 3v3.28c-.217.196-.403.42-.556.67A3.001 3.001 0 0 0 9.5 10c-1.654 0-3 1.346-3 3s1.346 3 3 3h.007l3.254-.023c.2.226.43.42.689.579A3.001 3.001 0 0 0 11 19.5c0 1.654 1.346 3 3 3s3-1.346 3-3v-3.28c.217-.196.403-.42.556-.67A3.001 3.001 0 0 0 20.5 18c1.654 0 3-1.346 3-3a3.003 3.003 0 0 0-2.987-2.999zM14 14c0-.551.449-1 1-1s1 .449 1 1-.449 1-1 1-1-.449-1-1zm2-6.5a1 1 0 0 1 0 2c-.551 0-1-.449-1-1s.449-1 1-1zM9.5 12c.551 0 1 .449 1 1a1.001 1.001 0 1 1-1-1zm4.5 8.5a1 1 0 0 1 0-2 1 1 0 0 1 0 2zm6.5-4.5a1 1 0 0 1 0-2 1 1 0 0 1 0 2z"/></g></svg>
