<svg xmlns="http://www.w3.org/2000/svg" viewBox="0 0 30 30"><style>.st2{fill:#333}</style><g id="Layer_1"><path class="st2" d="M24 6H6c-2.206 0-4 1.794-4 4v13a1 1 0 0 0 1 1h24a1 1 0 0 0 1-1V10c0-2.206-1.794-4-4-4zm2 16H4V10c0-1.103.897-2 2-2h18c1.103 0 2 .897 2 2v12z"/><path class="st2" d="M20 11H10c-2.206 0-4 1.794-4 4s1.794 4 4 4 4-1.794 4-4c0-.732-.212-1.41-.556-2h3.112A3.955 3.955 0 0 0 16 15c0 2.206 1.794 4 4 4s4-1.794 4-4-1.794-4-4-4zm-8 4c0 1.103-.897 2-2 2s-2-.897-2-2 .897-2 2-2 2 .897 2 2zm8 2c-1.103 0-2-.897-2-2s.897-2 2-2 2 .897 2 2c0 1.102-.898 2-2 2z"/></g></svg>
