<svg xmlns="http://www.w3.org/2000/svg" viewBox="0 0 30 30"><style>.st2{fill:#333}</style><g id="Layer_1"><path class="st2" d="M27.913 22.583L26 18.288V8c0-1.654-1.346-3-3-3h-5c0-1.654-1.346-3-3-3s-3 1.346-3 3H7.016A3.02 3.02 0 0 0 4 8.016v10.27l-1.914 4.297A.998.998 0 0 0 2 22.99V25a1 1 0 0 0 1 1h24a1 1 0 0 0 1-1v-2.01a.99.99 0 0 0-.087-.407zM15 4a1 1 0 1 1 0 2 1 1 0 0 1 0-2zM6 8.016C6 7.456 6.456 7 7.016 7h5.764c.55.61 1.337 1 2.22 1s1.67-.39 2.22-1H23a1 1 0 0 1 1 1v9.5h-5.05C18.7 15.532 17.035 14 15 14c-2.034 0-3.7 1.532-3.95 3.5H6V8.016zM26 24H4v-.797L5.65 19.5h18.7L26 23.203V24z"/><circle class="st2" cx="15" cy="11" r="2"/></g></svg>
