<svg xmlns="http://www.w3.org/2000/svg" viewBox="0 0 30 30"><style>.st2{fill:#333}</style><g id="Layer_1"><path class="st2" d="M3 6h2a1 1 0 0 0 1-1V3a1 1 0 0 0-2 0v1H3a1 1 0 0 0 0 2zM25 6h2a1 1 0 1 0 0-2h-1V3a1 1 0 1 0-2 0v2a1 1 0 0 0 1 1zM27 24h-2a1 1 0 0 0-1 1v2a1 1 0 1 0 2 0v-1h1a1 1 0 1 0 0-2zM5 24H3a1 1 0 1 0 0 2h1v1a1 1 0 1 0 2 0v-2a1 1 0 0 0-1-1zM26 18V9a1 1 0 0 0-1-1h-2V7a1 1 0 0 0-1-1h-2V5a1 1 0 0 0-1-1h-8a1 1 0 0 0-1 1v1H8a1 1 0 0 0-1 1v1H5a1 1 0 0 0-1 1v9a1 1 0 0 0 1 1h3v6a1 1 0 1 0 2 0v-1h2v1a1 1 0 1 0 2 0v-1h2v1a1 1 0 1 0 2 0v-1h2v1a1 1 0 1 0 2 0v-6h3a1 1 0 0 0 1-1zm-2-1h-3a1 1 0 0 0-1 1v4H10v-4a1 1 0 0 0-1-1H6v-7h2a1 1 0 0 0 1-1V8h2a1 1 0 0 0 1-1V6h6v1a1 1 0 0 0 1 1h2v1a1 1 0 0 0 1 1h2v7z"/><path class="st2" d="M13 13h-3a1 1 0 0 0 0 2h3a1 1 0 0 0 0-2zM20 13h-3a1 1 0 1 0 0 2h3a1 1 0 1 0 0-2z"/></g></svg>
