<svg xmlns="http://www.w3.org/2000/svg" viewBox="0 0 30 30"><style>.st2{fill:#333}</style><g id="Layer_1"><path class="st2" d="M15.424 4.094a1 1 0 0 0-1.064.138L8.638 9H3a1 1 0 0 0-1 1v10a1 1 0 0 0 1 1h5.638l5.722 4.769A1 1 0 0 0 16 25V5a1 1 0 0 0-.576-.906zM14 22.865l-4.36-3.634A1.001 1.001 0 0 0 9 19H4v-8h5a1 1 0 0 0 .64-.232L14 7.135v15.73zM24.192 5.808a1 1 0 1 0-1.414 1.414c4.29 4.289 4.29 11.267 0 15.556a1 1 0 1 0 1.414 1.414c5.069-5.068 5.069-13.316 0-18.384z"/><path class="st2" d="M20.636 9.293a1 1 0 1 0-1.414 1.414A6.031 6.031 0 0 1 21 15a6.033 6.033 0 0 1-1.778 4.293 1 1 0 1 0 1.414 1.414A8.019 8.019 0 0 0 23 15c0-2.156-.84-4.183-2.364-5.707z"/></g></svg>
