<svg xmlns="http://www.w3.org/2000/svg" viewBox="0 0 30 30"><style>.st2{fill:#333}</style><g id="Layer_1"><path class="st2" d="M21.12 11.475c-.51.21-.76.79-.55 1.3.28.71.43 1.465.43 2.225s-.15 1.505-.43 2.215a.998.998 0 1 0 1.85.75c.39-.95.58-1.945.58-2.965 0-1.02-.19-2.025-.58-2.975a.994.994 0 0 0-1.3-.55zM26.75 9.455c-.24-.5-.83-.71-1.33-.48-.5.24-.71.83-.48 1.33C25.65 11.795 26 13.37 26 15s-.35 3.195-1.05 4.675c-.24.5-.02 1.09.48 1.33s1.09.02 1.33-.48C27.58 18.785 28 16.93 28 15s-.42-3.795-1.25-5.545zM15.424 4.094a1 1 0 0 0-1.064.138L8.638 9H3a1 1 0 0 0-1 1v10a1 1 0 0 0 1 1h5.638l5.722 4.769A1 1 0 0 0 16 25V5a1 1 0 0 0-.576-.906zM14 22.865l-4.36-3.634A1.001 1.001 0 0 0 9 19H4v-8h5a1 1 0 0 0 .64-.232L14 7.135v15.73z"/></g></svg>
