<svg xmlns="http://www.w3.org/2000/svg" viewBox="0 0 30 30"><style>.st2{fill:#333}</style><g id="Layer_1"><path class="st2" d="M21.5 5.096V3a1 1 0 1 0-2 0v2.096C16.944 5.568 15 7.809 15 10.5c0 3.033 2.468 5.5 5.5 5.5s5.5-2.467 5.5-5.5c0-2.69-1.944-4.932-4.5-5.404zM20.5 14c-1.93 0-3.5-1.57-3.5-3.5S18.57 7 20.5 7 24 8.57 24 10.5 22.43 14 20.5 14z"/><path class="st2" d="M21.947 8.105a1 1 0 0 0-1.342.448L19.883 10H19a1 1 0 1 0 0 2h1.5a1 1 0 0 0 .894-.553l1-2a1 1 0 0 0-.447-1.341zM9 9c1.93 0 3.5-1.57 3.5-3.5S10.93 2 9 2 5.5 3.57 5.5 5.5 7.07 9 9 9zm0-5c.827 0 1.5.673 1.5 1.5S9.827 7 9 7s-1.5-.673-1.5-1.5S8.173 4 9 4zM11 10H7c-1.654 0-3 1.346-3 3v6a1 1 0 0 0 1 1h1v7a1 1 0 0 0 1 1h4a1 1 0 0 0 1-1v-7h1a1 1 0 0 0 1-1v-6c0-1.654-1.346-3-3-3zm-1 16H8v-6h2v6zm2-8H6v-5c0-.551.449-1 1-1h4c.551 0 1 .449 1 1v5z"/></g></svg>
