<svg xmlns="http://www.w3.org/2000/svg" viewBox="0 0 30 30"><style>.st2{fill:#333}</style><g id="Layer_1"><circle class="st2" cx="15" cy="21.813" r="1.688"/><path class="st2" d="M13.313 13.375l.843 5.063h1.688l.844-5.063V10h-3.375z"/><path class="st2" d="M27.695 22.53L17.615 4.607C17.075 3.651 16.098 3.08 15 3.08s-2.076.57-2.615 1.528L2.305 22.53a2.972 2.972 0 0 0 .025 2.986A2.973 2.973 0 0 0 4.92 27h20.16a2.972 2.972 0 0 0 2.59-1.485c.544-.931.554-2.046.025-2.986zm-1.752 1.975a.984.984 0 0 1-.863.495H4.92a.983.983 0 0 1-.863-.495.983.983 0 0 1-.01-.995L14.129 5.589c.26-.46.696-.51.872-.51s.613.05.872.51l10.08 17.92a.983.983 0 0 1-.009.996z"/></g></svg>
