<svg xmlns="http://www.w3.org/2000/svg" viewBox="0 0 30 30"><path d="M26.995 15.973a.983.983 0 0 0-.047-.29l-2.316-6.948A3.993 3.993 0 0 0 20.838 6H19a1 1 0 1 0 0 2h1.838c.862 0 1.624.55 1.897 1.368L24.612 15H5.388l1.877-5.633A1.997 1.997 0 0 1 9.162 8H11a1 1 0 0 0 0-2H9.162c-1.725 0-3.25 1.1-3.794 2.735L3.05 15.684a.99.99 0 0 0-.045.29c0 .009-.006.017-.006.026v2a1 1 0 0 0-1 1v2a1 1 0 0 0 1 1v2a1 1 0 0 0 1 1h8c1.103 0 2-.897 2-2v-5a1 1 0 0 1 2 0v5c0 1.103.897 2 2 2h8a1 1 0 0 0 1-1v-8c0-.01-.005-.017-.005-.027zM12 23H5v-1h3a1 1 0 0 0 1-1v-2a1 1 0 0 0-1-1H5v-1h7v6zm-6-3a1 1 0 1 1 2 0 1 1 0 0 1-2 0zm19 3h-7v-6h7v6z" fill="#333"/></svg>
