<svg xmlns="http://www.w3.org/2000/svg" viewBox="0 0 30 30"><style>.st2{fill:#333}</style><g id="Layer_1"><path class="st2" d="M15 10c-2.757 0-5 2.243-5 5s2.243 5 5 5 5-2.243 5-5-2.243-5-5-5zm0 8c-1.654 0-3-1.346-3-3s1.346-3 3-3 3 1.346 3 3-1.346 3-3 3zM15 8a1 1 0 0 0 1-1V3a1 1 0 0 0-2 0v4a1 1 0 0 0 1 1zM15 22a1 1 0 0 0-1 1v4a1 1 0 1 0 2 0v-4a1 1 0 0 0-1-1zM27 14h-4a1 1 0 1 0 0 2h4a1 1 0 1 0 0-2zM8 15a1 1 0 0 0-1-1H3a1 1 0 0 0 0 2h4a1 1 0 0 0 1-1zM20.657 10.343a.997.997 0 0 0 .707-.293l2.828-2.828a1 1 0 1 0-1.414-1.414L19.95 8.636a1 1 0 0 0 .707 1.707zM8.636 19.95l-2.828 2.828a1 1 0 1 0 1.414 1.414l2.828-2.828a1 1 0 1 0-1.414-1.414zM21.364 19.95a1 1 0 1 0-1.414 1.414l2.828 2.828a.997.997 0 0 0 1.414 0 1 1 0 0 0 0-1.414l-2.828-2.828zM8.636 10.05a.997.997 0 0 0 1.414 0 1 1 0 0 0 0-1.414L7.222 5.808a1 1 0 1 0-1.414 1.414l2.828 2.828z"/></g></svg>
