<svg xmlns="http://www.w3.org/2000/svg" viewBox="0 0 30 30"><style>.st2{fill:#333}</style><g id="Layer_1"><circle class="st2" cx="15" cy="22" r="1.5"/><circle class="st2" cx="12" cy="26" r="1.5"/><circle class="st2" cx="18" cy="26" r="1.5"/><path class="st2" d="M21 10h-1.703C18.147 7.581 15.699 6 13 6c-3.634 0-6.63 2.784-6.968 6.332A6.02 6.02 0 0 0 2 18c0 3.309 2.691 6 6 6h2v-2H8c-2.206 0-4-1.794-4-4a4.01 4.01 0 0 1 3.203-3.92 1 1 0 0 0 .802-.995L8 13c0-2.757 2.243-5 5-5 2.095 0 3.978 1.34 4.688 3.335a1 1 0 0 0 .942.665H21c2.757 0 5 2.243 5 5s-2.243 5-5 5h-1v2h1c3.86 0 7-3.14 7-7s-3.14-7-7-7z"/></g></svg>
