<svg xmlns="http://www.w3.org/2000/svg" viewBox="0 0 30 30"><style>.st2{fill:#333}</style><g id="Layer_1"><path class="st2" d="M24.448 24.105l-3.602-1.804C23.936 20.351 26 16.916 26 13c0-6.065-4.935-11-11-11S4 6.935 4 13c0 3.916 2.063 7.351 5.154 9.301l-3.602 1.804A1 1 0 0 0 5 25v2a1 1 0 0 0 1 1h18a1 1 0 0 0 1-1v-2c0-.379-.214-.725-.552-.895zM6 13c0-4.962 4.038-9 9-9 4.963 0 9 4.038 9 9 0 4.963-4.037 9-9 9-4.962 0-9-4.037-9-9zm17 13H7v-.383l4.435-2.221c1.12.385 2.316.604 3.565.604s2.445-.22 3.564-.604L23 25.617V26z"/><path class="st2" d="M20 13c0-2.757-2.243-5-5-5s-5 2.243-5 5 2.243 5 5 5 5-2.243 5-5zm-8 0c0-1.654 1.346-3 3-3s3 1.346 3 3-1.346 3-3 3-3-1.346-3-3z"/><circle class="st2" cx="18.5" cy="7" r="1"/></g></svg>
