<svg xmlns="http://www.w3.org/2000/svg" viewBox="0 0 30 30"><style>.st2{fill:#333}</style><g id="Layer_1"><path class="st2" d="M14 9c1.654 0 3-1.346 3-3s-1.346-3-3-3-3 1.346-3 3 1.346 3 3 3zm0-4c.551 0 1 .449 1 1s-.449 1-1 1-1-.449-1-1 .449-1 1-1zM23.895 24.553L20.94 18.65A1.134 1.134 0 0 0 19.917 18H18v-4.935A3.069 3.069 0 0 0 14.935 10h-1.87A3.069 3.069 0 0 0 10 13.065v1.637a6.987 6.987 0 0 0-2 1.412V13a1 1 0 0 0-1-1H5a1 1 0 0 0 0 2h1v7c0 3.86 3.14 7 7 7 3.786 0 6.873-3.024 6.989-6.783l2.116 4.23a1 1 0 1 0 1.79-.894zM12 13.065c0-.587.478-1.065 1.065-1.065h1.87c.587 0 1.065.478 1.065 1.065V18h-4v-4.935zM13 26c-2.757 0-5-2.243-5-5 0-1.594.766-3.063 2-3.99v1.86c0 .623.507 1.13 1.13 1.13h5.74c.023 0 .042-.012.065-.013.023.001.042.013.065.013h1v1c0 2.757-2.243 5-5 5z"/></g></svg>
