<svg xmlns="http://www.w3.org/2000/svg" viewBox="0 0 30 30"><style>.st2{fill:#333}</style><g id="Ebene_2_Kopie"><path class="st2" d="M20.056 16.5h-4.197l1.623-5.202a1.002 1.002 0 0 0-1.68-.987l-9.027 9.5A1 1 0 0 0 7.5 21.5h4.185l-1.665 5.194a1 1 0 0 0 1.675.997l9.083-9.5a1.001 1.001 0 0 0-.722-1.691zm-6.807 6.67l.759-2.364a1 1 0 0 0-.952-1.306H9.83l4.464-4.698-.749 2.4A1 1 0 0 0 14.5 18.5h3.216l-4.467 4.67z"/><path class="st2" d="M15 6a8.94 8.94 0 0 0-6.412 2.678 1 1 0 1 0 1.424 1.404A6.954 6.954 0 0 1 15 8c1.892 0 3.663.74 4.988 2.082a.996.996 0 0 0 1.414.01 1 1 0 0 0 .01-1.414A8.94 8.94 0 0 0 15 6z"/><path class="st2" d="M24.24 5.844A12.954 12.954 0 0 0 15 2a12.95 12.95 0 0 0-9.239 3.844A1.001 1.001 0 0 0 7.18 7.255 10.962 10.962 0 0 1 15 4c2.953 0 5.731 1.156 7.821 3.255a1.001 1.001 0 0 0 1.418-1.41z"/></g></svg>
