<svg xmlns="http://www.w3.org/2000/svg" viewBox="0 0 30 30"><style>.st2{fill-rule:evenodd;clip-rule:evenodd;fill:#333}</style><g id="Layer_1"><path class="st2" d="M5 26c-.5 0-1-.5-1-1V5c0-.5.5-1 1-1h12c.5 0 1 .5 1 1v9c.7 0 1.4.1 2 .4V5c0-1.7-1.3-3-3-3H5C3.3 2 2 3.3 2 5v20c0 1.6 1.3 3 3 3h9.4c-.8-.6-1.6-1.3-2.3-2H5z"/><path class="st2" d="M16 14.4V6H6v14h4.2c.1-.2.2-.5.3-.7.7-1 2.8-3.9 5.5-4.9zM9 22c-.5 0-1 .5-1 1s.5 1 1 1h1.8c-.3-.6-.6-1.3-.7-2H9zM27.8 20.4c-.3-.4-3-4.4-5.8-4.4-.7 0-1.4.3-2 .7-.6-.4-1.3-.7-2-.7-2.8 0-5.5 4-5.8 4.4-.1.2-.2.4-.2.6 0 3.4 4.7 7 8 7s8-3.6 8-7c0-.2-.1-.4-.2-.6zM18 18c.4 0 1 .3 1.2.6.4.5 1.2.5 1.6 0 .2-.3.8-.6 1.2-.6 1 0 2.5 1.4 3.5 2.7-1.4-.3-3.7-.7-5.5-.7s-4.1.4-5.5.7c1-1.2 2.4-2.7 3.5-2.7zm2 8c-2.2 0-5.2-2.3-5.8-4.2 1.4.9 3.8 2.2 5.8 2.2s4.4-1.3 5.8-2.2c-.6 1.9-3.6 4.2-5.8 4.2z"/></g></svg>
