<svg xmlns="http://www.w3.org/2000/svg" viewBox="0 0 30 30"><style>.st2{fill:#333}</style><g id="Layer_1"><path class="st2" d="M6 14h14v6H6z"/><path class="st2" d="M25 2H15c-1.65 0-3 1.35-3 3v5H5c-1.65 0-3 1.35-3 3v10c0 .55.45 1 1 1h9v2H9c-.55 0-1 .45-1 1s.45 1 1 1h8c.55 0 1-.45 1-1s-.45-1-1-1h-3v-2h9c.55 0 1-.45 1-1V13c0-1.65-1.35-3-3-3h-7V5c0-.55.45-1 1-1h10c.55 0 1 .45 1 1v21h-6v2h7c.55 0 1-.45 1-1V5c0-1.65-1.35-3-3-3zm-4 10c.55 0 1 .45 1 1v9H4v-9c0-.55.45-1 1-1h16z"/><path class="st2" d="M17 6c-.55 0-1 .45-1 1s.45 1 1 1h6c.55 0 1-.45 1-1s-.45-1-1-1h-6z"/></g></svg>
