<svg width="200" height="200" viewBox="0 0 200 200" xmlns="http://www.w3.org/2000/svg" xmlns:xlink="http://www.w3.org/1999/xlink"><title>atmos</title><defs><path id="a" d="M0 154.468h170V0H0z"/></defs><g transform="translate(15 15)" fill="none" fill-rule="evenodd"><circle fill="#FFF" cx="85" cy="85" r="85"/><path d="M125.14 142.951h-5.189l-.162-5.186a22.013 22.013 0 0 0-6.717-15.188 22.077 22.077 0 0 0-15.449-6.254 22.186 22.186 0 0 0-21.828 18.233l-.859 4.792-4.852-.4a22.307 22.307 0 0 0-1.847-.075c-12.07 0-21.919 9.694-22.171 21.705C57.731 166.598 70.968 170 85 170c21.272 0 40.72-7.814 55.627-20.728-4-3.908-9.466-6.32-15.487-6.32" fill="#1AF"/><mask id="b" fill="#fff"><use xlink:href="#a"/></mask><path d="M76.08 68.247c-1.923-1.967-5.028-3.716-9.771-5.506-6.339-2.205-10.98-4.82-14.19-7.992-3.598-3.556-5.422-7.92-5.422-12.97 0-5.7 2.407-10.86 6.778-14.527 4.437-3.722 10.488-5.69 17.498-5.69 8.612 0 13.927 2.238 16.328 3.573l.982.545-3.403 9.87-1.385-.74c-2.681-1.434-7.085-3.143-12.837-3.143-4.021 0-7.27 1.06-9.393 3.064-1.672 1.58-2.632 3.772-2.632 6.016 0 5.402 3.217 8.357 13.236 12.16 6.559 2.481 11.025 5.159 14.054 8.426 3.302 3.561 4.908 7.896 4.908 13.25 0 5.912-2.341 11.25-6.591 15.03-4.65 4.136-11.42 6.322-19.58 6.322-6.894 0-14.638-1.914-18.83-4.654l-.843-.551L48.1 80.598l1.468.886c4.51 2.721 10.389 4.346 15.723 4.346 8.325 0 13.497-4.033 13.497-10.525 0-2.965-.835-5.142-2.71-7.058m41.504 5.369c-2.1-1.392-5.054-2.159-8.317-2.159h-4.732v-6.912h4.732c2.514 0 5.023-.662 6.885-1.817 2.161-1.34 3.257-3.183 3.257-5.476 0-1.265-.302-3.063-1.741-4.446-1.344-1.29-3.371-1.945-6.024-1.945-3.723 0-7.395 1.646-9.408 3.056l-1.038.727-2.455-6.696.6-.432c2.722-1.963 7.985-3.943 13.605-3.943 4.786 0 8.754 1.334 11.474 3.86 2.426 2.25 3.762 5.365 3.762 8.767 0 4.899-2.682 8.945-7.45 11.39 2.284.818 4.273 2.091 5.842 3.754 2.306 2.444 3.525 5.577 3.525 9.06 0 4.285-1.751 8.19-4.93 10.993-3.444 3.036-8.36 4.641-14.217 4.641-5.981 0-11.002-1.865-13.485-3.463l-.653-.42 2.513-6.981 1.026.643c1.617 1.015 5.896 2.933 10.522 2.933 3.553 0 6.272-.935 8.083-2.78 1.447-1.475 2.253-3.552 2.213-5.697-.032-2.863-1.24-5.1-3.589-6.657m-72.6 64.18c5.772-5.771 13.312-9.134 21.399-9.58a32.995 32.995 0 0 1 10.024-14.843 32.909 32.909 0 0 1 21.217-7.759c8.602 0 16.736 3.294 22.904 9.276 4.982 4.83 8.25 10.993 9.458 17.705 6.89 1.011 13.253 4.176 18.288 9.162C161.782 126.707 170 106.814 170 85c0-46.944-38.056-85-85-85S0 38.056 0 85c0 28.7 14.225 54.077 36.008 69.468 1.268-6.275 4.346-12.042 8.975-16.671" fill="#1AF" mask="url(#b)"/></g></svg>