<svg width="200" height="200" viewBox="0 0 200 200" xmlns="http://www.w3.org/2000/svg" xmlns:xlink="http://www.w3.org/1999/xlink"><title>elastic</title><defs><path id="a" d="M.047 0h143.806v47.812H.047V0z"/></defs><g fill="none" fill-rule="evenodd"><path d="M134.791 76.094H26.408A85.05 85.05 0 0 0 23 100c0 8.3 1.19 16.323 3.408 23.906h108.383c13.012 0 23.899-10.625 23.899-23.906 0-13.281-10.622-23.906-23.899-23.906" fill="#06A5DE"/><path d="M97.554 76.094H26.408A85.05 85.05 0 0 0 23 100c0 8.3 1.19 16.323 3.408 23.906H97.76a96.79 96.79 0 0 0 2.874-23.502 96.717 96.717 0 0 0-3.079-24.31" fill="#231F1F"/><g transform="translate(31.497 15)"><mask id="b" fill="#fff"><use xlink:href="#a"/></mask><path d="M143.853 33.205C128.318 13.012 103.916 0 76.475 0 42.878 0 13.837 19.505.047 47.812h112.806c12.437 0 23.552-5.698 31-14.607" fill="#F0BF1A" mask="url(#b)"/></g><path d="M175.643 151.412c-7.401-8.705-18.432-14.225-30.761-14.225H31.544C45.334 165.495 74.375 185 107.972 185c27.614 0 52.15-13.177 67.671-33.588" fill="#3EBEB0"/><path d="M65.149 26.57a85.363 85.363 0 0 0-33.605 36.243h63.25c-6.63-14.88-16.944-27.433-29.646-36.244" fill="#D7A229"/><path d="M96.211 137.188H31.544a85.354 85.354 0 0 0 36.217 37.71c12.425-9.37 22.348-22.42 28.45-37.71" fill="#019B8F"/></g></svg>