<svg width="200" height="200" viewBox="0 0 200 200" xmlns="http://www.w3.org/2000/svg"><title>mariadb</title><g fill="none" fill-rule="evenodd"><path d="M195.474 34.171c-3.07.098-2.1.983-8.734 2.616-6.7 1.649-14.883 1.143-22.097 4.17-21.536 9.032-25.857 39.905-45.435 50.964-14.634 8.268-29.398 8.927-42.672 13.087-8.724 2.736-18.267 8.347-26.17 15.158-6.135 5.29-6.295 9.94-12.706 16.575-6.856 7.096-27.25.12-36.492 10.98 2.977 3.01 4.282 3.854 10.15 3.073-1.215 2.303-8.376 4.243-6.974 7.631 1.475 3.564 18.787 5.98 34.525-3.522 7.33-4.426 13.167-10.804 24.582-12.327 14.77-1.969 31.787 1.263 48.887 3.73-2.536 7.56-7.626 12.589-11.704 18.61-1.263 1.36 2.536 1.513 6.87.691 7.797-1.928 13.416-3.48 19.3-6.906 7.228-4.208 8.324-14.999 17.193-17.333 4.942 7.596 18.382 9.39 26.722 3.314-7.318-2.071-9.34-17.65-6.87-24.516 2.34-6.498 4.652-16.892 7.009-25.482 2.53-9.225 3.463-20.853 6.525-25.552 4.606-7.07 9.697-9.498 14.116-13.484 4.419-3.987 8.464-7.868 8.331-16.99-.043-2.938-1.562-4.576-4.356-4.487z" fill="#002B64"/><path d="M7.457 157.728c11.21 1.606 18.029 0 27.031-3.905 7.66-3.322 15.058-10.172 24.104-13.076 13.286-4.263 27.854.006 42.055.857 3.459.208 6.895.21 10.286-.16 5.29-3.25 5.181-15.415 10.33-16.529-.151 17.066-7.147 27.291-14.463 37.193 15.42-2.724 24.647-11.644 30.879-23.557 1.89-3.612 3.505-7.498 4.933-11.571 2.207 1.694.956 6.85 2.066 9.642 10.62-5.916 16.702-19.42 20.73-33.077 4.659-15.806 6.566-31.81 9.571-36.487 2.934-4.565 7.498-7.38 11.664-10.302 4.735-3.323 8.958-6.785 9.687-13.117-4.993-.462-6.148-1.617-6.886-4.134-2.5 1.41-4.799 1.711-7.396 1.789-2.253.068-4.729-.032-7.753.278-25.007 2.57-28.184 30.134-44.212 45.761a37.594 37.594 0 0 1-3.76 3.191c-5.613 4.184-12.5 7.174-18.832 9.594-10.25 3.918-19.996 4.196-29.613 7.577-7.06 2.482-14.234 6.082-20.033 10.05a59.384 59.384 0 0 0-4.072 3.036c-3.403 2.784-5.637 5.874-7.797 9.052-2.228 3.275-4.38 6.644-7.66 9.862-5.314 5.218-25.17 1.522-32.16 6.361-.78.539-1.398 1.185-1.82 1.961 3.815 1.733 6.362.67 10.75 1.155.576 4.164-9.053 6.639-7.63 8.556zm151.491-29.982c.299 4.762 3.073 14.21 5.522 16.506-4.796 1.163-13.06-.758-15.179-4.13 1.09-4.867 6.757-9.318 9.657-12.376z" fill="#C49A6C"/><path d="M165.972 51.872c3.555 3.048 11.017.602 9.684-5.461-5.526-.452-8.726 1.4-9.684 5.461zm24.724-7.189c-.932 1.984-2.714 4.542-2.714 9.592-.008.868-.648 1.462-.66.125.049-4.937 1.335-7.07 2.701-9.875.635-1.15 1.018-.675.673.158zm-1.056-.673c-1.128 1.881-3.842 5.312-4.29 10.31-.084.858-.793 1.388-.685.064.489-4.88 2.658-7.935 4.305-10.59.747-1.08 1.098-.577.67.216zm-.72-.836c-1.291 1.782-5.492 5.905-6.37 10.855-.158.846-.913 1.319-.691.006.909-4.828 4.53-8.622 6.407-11.132.841-1.017 1.15-.486.654.27z" fill="#002B64"/><path d="M188.164 42c-1.521 1.606-6.49 6.93-8.056 11.767-.277.827-1.086 1.196-.68-.09 1.58-4.711 5.93-9.787 8.132-12.04.972-.902 1.198-.326.604.363z" fill="#002B64"/></g></svg>