<svg width="200" height="200" viewBox="0 0 200 200" xmlns="http://www.w3.org/2000/svg"><title>redis</title><g fill="none" fill-rule="evenodd"><path d="M173.731 136.401c-8.538 4.443-52.771 22.598-62.188 27.498-9.417 4.901-14.648 4.854-22.087 1.304-7.44-3.55-54.51-22.53-62.99-26.576-4.238-2.022-6.466-3.728-6.466-5.34v-16.144s61.28-13.317 71.174-16.86c9.893-3.543 13.326-3.67 21.745-.592 8.42 3.079 58.76 12.145 67.081 15.187l-.004 15.916c.001 1.596-1.919 3.346-6.265 5.607" fill="#912626"/><path d="M173.728 120.353c-8.538 4.44-52.77 22.596-62.186 27.496-9.416 4.902-14.648 4.854-22.086 1.304-7.44-3.548-54.509-22.53-62.988-26.574-8.479-4.046-8.657-6.83-.327-10.086 8.328-3.256 55.14-21.59 65.034-25.132 9.893-3.542 13.324-3.671 21.743-.592 8.42 3.078 52.387 20.548 60.707 23.59 8.322 3.045 8.641 5.551.103 9.994" fill="#C6302B"/><path d="M173.731 110.28c-8.538 4.443-52.771 22.597-62.188 27.5-9.417 4.899-14.648 4.851-22.087 1.301-7.44-3.548-54.51-22.53-62.99-26.575-4.238-2.022-6.466-3.727-6.466-5.339V91.022s61.28-13.317 71.174-16.86c9.893-3.543 13.326-3.671 21.745-.593 8.42 3.08 58.76 12.144 67.081 15.187l-.004 15.917c.001 1.595-1.919 3.346-6.265 5.607" fill="#912626"/><path d="M173.728 94.232c-8.538 4.442-52.77 22.595-62.186 27.497-9.416 4.9-14.648 4.852-22.086 1.302-7.44-3.547-54.509-22.53-62.988-26.573-8.479-4.045-8.657-6.83-.327-10.087 8.328-3.255 55.14-21.589 65.034-25.131 9.893-3.543 13.324-3.671 21.743-.592 8.42 3.078 52.387 20.546 60.707 23.589 8.322 3.044 8.641 5.552.103 9.994" fill="#C6302B"/><path d="M173.731 83.19c-8.538 4.442-52.771 22.598-62.188 27.5-9.417 4.9-14.648 4.852-22.087 1.302-7.44-3.549-54.51-22.53-62.99-26.575C22.228 83.394 20 81.689 20 80.078V63.932s61.28-13.316 71.174-16.858c9.893-3.544 13.326-3.671 21.745-.593 8.42 3.079 58.76 12.144 67.081 15.186l-.004 15.917c.001 1.594-1.919 3.345-6.265 5.606" fill="#912626"/><path d="M173.728 67.141c-8.538 4.442-52.77 22.597-62.186 27.498-9.416 4.9-14.648 4.852-22.086 1.303-7.44-3.548-54.509-22.53-62.988-26.574-8.479-4.045-8.657-6.83-.327-10.086 8.328-3.256 55.14-21.588 65.034-25.132 9.893-3.543 13.324-3.67 21.743-.591 8.42 3.079 52.387 20.547 60.707 23.59 8.322 3.042 8.641 5.55.103 9.992" fill="#C6302B"/><path fill="#FFF" d="M119.552 51.437l-13.756 1.425-3.08 7.397-4.974-8.254-15.884-1.425 11.853-4.267-3.556-6.55 11.096 4.333 10.461-3.419-2.827 6.772 10.667 3.988m-17.657 35.884L76.222 76.692l36.788-5.636-11.115 16.265M66.301 55.548c10.86 0 19.663 3.406 19.663 7.608S77.16 70.764 66.3 70.764c-10.859 0-19.663-3.406-19.663-7.608s8.804-7.608 19.663-7.608"/><path fill="#621B1C" d="M135.81 53.459l21.772 8.588-21.754 8.58-.019-17.168"/><path fill="#9A2928" d="M111.722 62.97l24.087-9.511.019 17.168-2.362.923-21.744-8.58"/></g></svg>